%TF.GenerationSoftware,KiCad,Pcbnew,8.0.3*%
%TF.CreationDate,2024-07-01T18:30:19+03:00*%
%TF.ProjectId,Shield_Emergent_3,53686965-6c64-45f4-956d-657267656e74,rev?*%
%TF.SameCoordinates,Original*%
%TF.FileFunction,Legend,Top*%
%TF.FilePolarity,Positive*%
%FSLAX46Y46*%
G04 Gerber Fmt 4.6, Leading zero omitted, Abs format (unit mm)*
G04 Created by KiCad (PCBNEW 8.0.3) date 2024-07-01 18:30:19*
%MOMM*%
%LPD*%
G01*
G04 APERTURE LIST*
%ADD10C,0.150000*%
%ADD11C,0.120000*%
G04 APERTURE END LIST*
D10*
X10790476Y-18454819D02*
X11457142Y-19454819D01*
X11457142Y-18454819D02*
X10790476Y-19454819D01*
X12361904Y-19454819D02*
X11790476Y-19454819D01*
X12076190Y-19454819D02*
X12076190Y-18454819D01*
X12076190Y-18454819D02*
X11980952Y-18597676D01*
X11980952Y-18597676D02*
X11885714Y-18692914D01*
X11885714Y-18692914D02*
X11790476Y-18740533D01*
X9566666Y-8454819D02*
X9566666Y-9169104D01*
X9566666Y-9169104D02*
X9519047Y-9311961D01*
X9519047Y-9311961D02*
X9423809Y-9407200D01*
X9423809Y-9407200D02*
X9280952Y-9454819D01*
X9280952Y-9454819D02*
X9185714Y-9454819D01*
X10471428Y-8788152D02*
X10471428Y-9454819D01*
X10233333Y-8407200D02*
X9995238Y-9121485D01*
X9995238Y-9121485D02*
X10614285Y-9121485D01*
X11738095Y-3854819D02*
X11738095Y-4664342D01*
X11738095Y-4664342D02*
X11785714Y-4759580D01*
X11785714Y-4759580D02*
X11833333Y-4807200D01*
X11833333Y-4807200D02*
X11928571Y-4854819D01*
X11928571Y-4854819D02*
X12119047Y-4854819D01*
X12119047Y-4854819D02*
X12214285Y-4807200D01*
X12214285Y-4807200D02*
X12261904Y-4759580D01*
X12261904Y-4759580D02*
X12309523Y-4664342D01*
X12309523Y-4664342D02*
X12309523Y-3854819D01*
X12690476Y-3854819D02*
X13309523Y-3854819D01*
X13309523Y-3854819D02*
X12976190Y-4235771D01*
X12976190Y-4235771D02*
X13119047Y-4235771D01*
X13119047Y-4235771D02*
X13214285Y-4283390D01*
X13214285Y-4283390D02*
X13261904Y-4331009D01*
X13261904Y-4331009D02*
X13309523Y-4426247D01*
X13309523Y-4426247D02*
X13309523Y-4664342D01*
X13309523Y-4664342D02*
X13261904Y-4759580D01*
X13261904Y-4759580D02*
X13214285Y-4807200D01*
X13214285Y-4807200D02*
X13119047Y-4854819D01*
X13119047Y-4854819D02*
X12833333Y-4854819D01*
X12833333Y-4854819D02*
X12738095Y-4807200D01*
X12738095Y-4807200D02*
X12690476Y-4759580D01*
X19288095Y-25154819D02*
X19288095Y-25964342D01*
X19288095Y-25964342D02*
X19335714Y-26059580D01*
X19335714Y-26059580D02*
X19383333Y-26107200D01*
X19383333Y-26107200D02*
X19478571Y-26154819D01*
X19478571Y-26154819D02*
X19669047Y-26154819D01*
X19669047Y-26154819D02*
X19764285Y-26107200D01*
X19764285Y-26107200D02*
X19811904Y-26059580D01*
X19811904Y-26059580D02*
X19859523Y-25964342D01*
X19859523Y-25964342D02*
X19859523Y-25154819D01*
X20764285Y-25488152D02*
X20764285Y-26154819D01*
X20526190Y-25107200D02*
X20288095Y-25821485D01*
X20288095Y-25821485D02*
X20907142Y-25821485D01*
X11833333Y-9204819D02*
X11500000Y-8728628D01*
X11261905Y-9204819D02*
X11261905Y-8204819D01*
X11261905Y-8204819D02*
X11642857Y-8204819D01*
X11642857Y-8204819D02*
X11738095Y-8252438D01*
X11738095Y-8252438D02*
X11785714Y-8300057D01*
X11785714Y-8300057D02*
X11833333Y-8395295D01*
X11833333Y-8395295D02*
X11833333Y-8538152D01*
X11833333Y-8538152D02*
X11785714Y-8633390D01*
X11785714Y-8633390D02*
X11738095Y-8681009D01*
X11738095Y-8681009D02*
X11642857Y-8728628D01*
X11642857Y-8728628D02*
X11261905Y-8728628D01*
X12785714Y-9204819D02*
X12214286Y-9204819D01*
X12500000Y-9204819D02*
X12500000Y-8204819D01*
X12500000Y-8204819D02*
X12404762Y-8347676D01*
X12404762Y-8347676D02*
X12309524Y-8442914D01*
X12309524Y-8442914D02*
X12214286Y-8490533D01*
X11233333Y-21559580D02*
X11185714Y-21607200D01*
X11185714Y-21607200D02*
X11042857Y-21654819D01*
X11042857Y-21654819D02*
X10947619Y-21654819D01*
X10947619Y-21654819D02*
X10804762Y-21607200D01*
X10804762Y-21607200D02*
X10709524Y-21511961D01*
X10709524Y-21511961D02*
X10661905Y-21416723D01*
X10661905Y-21416723D02*
X10614286Y-21226247D01*
X10614286Y-21226247D02*
X10614286Y-21083390D01*
X10614286Y-21083390D02*
X10661905Y-20892914D01*
X10661905Y-20892914D02*
X10709524Y-20797676D01*
X10709524Y-20797676D02*
X10804762Y-20702438D01*
X10804762Y-20702438D02*
X10947619Y-20654819D01*
X10947619Y-20654819D02*
X11042857Y-20654819D01*
X11042857Y-20654819D02*
X11185714Y-20702438D01*
X11185714Y-20702438D02*
X11233333Y-20750057D01*
X12090476Y-20988152D02*
X12090476Y-21654819D01*
X11852381Y-20607200D02*
X11614286Y-21321485D01*
X11614286Y-21321485D02*
X12233333Y-21321485D01*
X14933333Y-32254819D02*
X14600000Y-31778628D01*
X14361905Y-32254819D02*
X14361905Y-31254819D01*
X14361905Y-31254819D02*
X14742857Y-31254819D01*
X14742857Y-31254819D02*
X14838095Y-31302438D01*
X14838095Y-31302438D02*
X14885714Y-31350057D01*
X14885714Y-31350057D02*
X14933333Y-31445295D01*
X14933333Y-31445295D02*
X14933333Y-31588152D01*
X14933333Y-31588152D02*
X14885714Y-31683390D01*
X14885714Y-31683390D02*
X14838095Y-31731009D01*
X14838095Y-31731009D02*
X14742857Y-31778628D01*
X14742857Y-31778628D02*
X14361905Y-31778628D01*
X15266667Y-31254819D02*
X15933333Y-31254819D01*
X15933333Y-31254819D02*
X15504762Y-32254819D01*
X24333333Y-12759580D02*
X24285714Y-12807200D01*
X24285714Y-12807200D02*
X24142857Y-12854819D01*
X24142857Y-12854819D02*
X24047619Y-12854819D01*
X24047619Y-12854819D02*
X23904762Y-12807200D01*
X23904762Y-12807200D02*
X23809524Y-12711961D01*
X23809524Y-12711961D02*
X23761905Y-12616723D01*
X23761905Y-12616723D02*
X23714286Y-12426247D01*
X23714286Y-12426247D02*
X23714286Y-12283390D01*
X23714286Y-12283390D02*
X23761905Y-12092914D01*
X23761905Y-12092914D02*
X23809524Y-11997676D01*
X23809524Y-11997676D02*
X23904762Y-11902438D01*
X23904762Y-11902438D02*
X24047619Y-11854819D01*
X24047619Y-11854819D02*
X24142857Y-11854819D01*
X24142857Y-11854819D02*
X24285714Y-11902438D01*
X24285714Y-11902438D02*
X24333333Y-11950057D01*
X25285714Y-12854819D02*
X24714286Y-12854819D01*
X25000000Y-12854819D02*
X25000000Y-11854819D01*
X25000000Y-11854819D02*
X24904762Y-11997676D01*
X24904762Y-11997676D02*
X24809524Y-12092914D01*
X24809524Y-12092914D02*
X24714286Y-12140533D01*
D11*
%TO.C,X1*%
X12550000Y-9750000D02*
X12550000Y-11400000D01*
X12550000Y-20400000D02*
X12550000Y-21600000D01*
X12550000Y-21600000D02*
X13000000Y-22050000D01*
X17400000Y-22050000D02*
X13000000Y-22050000D01*
X17850000Y-9750000D02*
X12550000Y-9750000D01*
X17850000Y-9750000D02*
X17850000Y-11400000D01*
X17850000Y-20400000D02*
X17850000Y-21600000D01*
X17850000Y-21600000D02*
X17400000Y-22050000D01*
D10*
X17811803Y-12400000D02*
G75*
G02*
X17588197Y-12400000I-111803J0D01*
G01*
X17588197Y-12400000D02*
G75*
G02*
X17811803Y-12400000I111803J0D01*
G01*
D11*
%TO.C,J4*%
X2400000Y-400000D02*
X2400000Y-8300000D01*
X2400000Y-8300000D02*
X11600000Y-8300000D01*
X11600000Y-400000D02*
X2400000Y-400000D01*
X11600000Y-8300000D02*
X11600000Y-400000D01*
%TO.C,U3*%
X13540000Y-6275000D02*
X13540000Y-4925000D01*
X17260000Y-6275000D02*
X17260000Y-4925000D01*
X13630000Y-7100000D02*
X13350000Y-6820000D01*
X13630000Y-6820000D01*
X13630000Y-7100000D01*
G36*
X13630000Y-7100000D02*
G01*
X13350000Y-6820000D01*
X13630000Y-6820000D01*
X13630000Y-7100000D01*
G37*
%TO.C,U4*%
X14540000Y-23625000D02*
X14540000Y-24975000D01*
X18260000Y-23625000D02*
X18260000Y-24975000D01*
X18450000Y-23080000D02*
X18170000Y-23080000D01*
X18170000Y-22800000D01*
X18450000Y-23080000D01*
G36*
X18450000Y-23080000D02*
G01*
X18170000Y-23080000D01*
X18170000Y-22800000D01*
X18450000Y-23080000D01*
G37*
%TO.C,R1*%
X11320000Y-10403641D02*
X11320000Y-10096359D01*
X12080000Y-10403641D02*
X12080000Y-10096359D01*
%TO.C,C4*%
X3590000Y-19590000D02*
X3590000Y-21940000D01*
X3590000Y-26410000D02*
X3590000Y-24060000D01*
X9345563Y-19590000D02*
X3590000Y-19590000D01*
X9345563Y-26410000D02*
X3590000Y-26410000D01*
X10410000Y-20654437D02*
X9345563Y-19590000D01*
X10410000Y-20654437D02*
X10410000Y-21940000D01*
X10410000Y-25345563D02*
X9345563Y-26410000D01*
X10410000Y-25345563D02*
X10410000Y-24060000D01*
X11043750Y-25241250D02*
X11043750Y-24453750D01*
X11437500Y-24847500D02*
X10650000Y-24847500D01*
%TO.C,R7*%
X13046359Y-32220000D02*
X13353641Y-32220000D01*
X13046359Y-32980000D02*
X13353641Y-32980000D01*
%TO.C,C1*%
X18590000Y-5654437D02*
X18590000Y-11410000D01*
X18590000Y-11410000D02*
X20940000Y-11410000D01*
X19654437Y-4590000D02*
X18590000Y-5654437D01*
X19654437Y-4590000D02*
X20940000Y-4590000D01*
X23847500Y-3562500D02*
X23847500Y-4350000D01*
X24241250Y-3956250D02*
X23453750Y-3956250D01*
X24345563Y-4590000D02*
X23060000Y-4590000D01*
X24345563Y-4590000D02*
X25410000Y-5654437D01*
X25410000Y-5654437D02*
X25410000Y-11410000D01*
X25410000Y-11410000D02*
X23060000Y-11410000D01*
%TD*%
M02*
