%TF.GenerationSoftware,KiCad,Pcbnew,8.0.3*%
%TF.CreationDate,2024-07-01T18:30:19+03:00*%
%TF.ProjectId,Shield_Emergent_3,53686965-6c64-45f4-956d-657267656e74,rev?*%
%TF.SameCoordinates,Original*%
%TF.FileFunction,Copper,L1,Top*%
%TF.FilePolarity,Positive*%
%FSLAX46Y46*%
G04 Gerber Fmt 4.6, Leading zero omitted, Abs format (unit mm)*
G04 Created by KiCad (PCBNEW 8.0.3) date 2024-07-01 18:30:19*
%MOMM*%
%LPD*%
G01*
G04 APERTURE LIST*
G04 Aperture macros list*
%AMRoundRect*
0 Rectangle with rounded corners*
0 $1 Rounding radius*
0 $2 $3 $4 $5 $6 $7 $8 $9 X,Y pos of 4 corners*
0 Add a 4 corners polygon primitive as box body*
4,1,4,$2,$3,$4,$5,$6,$7,$8,$9,$2,$3,0*
0 Add four circle primitives for the rounded corners*
1,1,$1+$1,$2,$3*
1,1,$1+$1,$4,$5*
1,1,$1+$1,$6,$7*
1,1,$1+$1,$8,$9*
0 Add four rect primitives between the rounded corners*
20,1,$1+$1,$2,$3,$4,$5,0*
20,1,$1+$1,$4,$5,$6,$7,0*
20,1,$1+$1,$6,$7,$8,$9,0*
20,1,$1+$1,$8,$9,$2,$3,0*%
G04 Aperture macros list end*
%TA.AperFunction,ComponentPad*%
%ADD10C,0.900000*%
%TD*%
%TA.AperFunction,SMDPad,CuDef*%
%ADD11R,1.300000X0.270000*%
%TD*%
%TA.AperFunction,ComponentPad*%
%ADD12O,1.100000X2.220000*%
%TD*%
%TA.AperFunction,SMDPad,CuDef*%
%ADD13R,0.700000X2.500000*%
%TD*%
%TA.AperFunction,SMDPad,CuDef*%
%ADD14R,2.700000X4.200000*%
%TD*%
%TA.AperFunction,SMDPad,CuDef*%
%ADD15RoundRect,0.075000X0.075000X-0.350000X0.075000X0.350000X-0.075000X0.350000X-0.075000X-0.350000X0*%
%TD*%
%TA.AperFunction,SMDPad,CuDef*%
%ADD16RoundRect,0.075000X-0.075000X0.350000X-0.075000X-0.350000X0.075000X-0.350000X0.075000X0.350000X0*%
%TD*%
%TA.AperFunction,SMDPad,CuDef*%
%ADD17RoundRect,0.135000X0.185000X-0.135000X0.185000X0.135000X-0.185000X0.135000X-0.185000X-0.135000X0*%
%TD*%
%TA.AperFunction,SMDPad,CuDef*%
%ADD18RoundRect,0.250000X1.500000X0.550000X-1.500000X0.550000X-1.500000X-0.550000X1.500000X-0.550000X0*%
%TD*%
%TA.AperFunction,SMDPad,CuDef*%
%ADD19RoundRect,0.135000X-0.135000X-0.185000X0.135000X-0.185000X0.135000X0.185000X-0.135000X0.185000X0*%
%TD*%
%TA.AperFunction,SMDPad,CuDef*%
%ADD20RoundRect,0.250000X-0.550000X1.500000X-0.550000X-1.500000X0.550000X-1.500000X0.550000X1.500000X0*%
%TD*%
%TA.AperFunction,ViaPad*%
%ADD21C,0.600000*%
%TD*%
%TA.AperFunction,Conductor*%
%ADD22C,0.112000*%
%TD*%
%TA.AperFunction,Conductor*%
%ADD23C,1.000000*%
%TD*%
%TA.AperFunction,Conductor*%
%ADD24C,0.800000*%
%TD*%
%TA.AperFunction,Conductor*%
%ADD25C,0.500000*%
%TD*%
%TA.AperFunction,Conductor*%
%ADD26C,0.400000*%
%TD*%
%TA.AperFunction,Conductor*%
%ADD27C,0.600000*%
%TD*%
%TA.AperFunction,Conductor*%
%ADD28C,0.250000*%
%TD*%
%TA.AperFunction,Conductor*%
%ADD29C,0.200000*%
%TD*%
G04 APERTURE END LIST*
D10*
%TO.P,X1,*%
%TO.N,*%
X16500000Y-10400000D03*
X16500000Y-21400000D03*
D11*
%TO.P,X1,A1,GND*%
%TO.N,GND*%
X16950000Y-13150000D03*
%TO.P,X1,A2,TX1+*%
%TO.N,TX1-*%
X16950000Y-13650000D03*
%TO.P,X1,A3,TX1-*%
%TO.N,TX1+*%
X16950000Y-14150000D03*
%TO.P,X1,A4,VBUS*%
%TO.N,VBUS*%
X16950000Y-14650000D03*
%TO.P,X1,A5,CC1*%
%TO.N,unconnected-(X1-CC1-PadA5)*%
X16950000Y-15150000D03*
%TO.P,X1,A6,D+*%
%TO.N,EN1*%
X16950000Y-15650000D03*
%TO.P,X1,A7,D-*%
%TO.N,EN2*%
X16950000Y-16150000D03*
%TO.P,X1,A8,SBU1*%
%TO.N,BTN1*%
X16950000Y-16650000D03*
%TO.P,X1,A9,VBUS*%
%TO.N,VBUS*%
X16950000Y-17150000D03*
%TO.P,X1,A10,RX2-*%
%TO.N,RX2+*%
X16950000Y-17650000D03*
%TO.P,X1,A11,RX2+*%
%TO.N,RX2-*%
X16950000Y-18150000D03*
%TO.P,X1,A12,GND*%
%TO.N,GND*%
X16950000Y-18650000D03*
%TO.P,X1,B1,GND*%
X13450000Y-18650000D03*
%TO.P,X1,B2,TX2+*%
%TO.N,TX2+*%
X13450000Y-18150000D03*
%TO.P,X1,B3,TX2-*%
%TO.N,TX2-*%
X13450000Y-17650000D03*
%TO.P,X1,B4,VBUS*%
%TO.N,VBUS*%
X13450000Y-17150000D03*
%TO.P,X1,B5,CC2*%
%TO.N,unconnected-(X1-CC2-PadB5)*%
X13450000Y-16650000D03*
%TO.P,X1,B6,D+*%
%TO.N,EN1*%
X13450000Y-16150000D03*
%TO.P,X1,B7,D-*%
%TO.N,EN2*%
X13450000Y-15650000D03*
%TO.P,X1,B8,SBU2*%
%TO.N,BTN2*%
X13450000Y-15150000D03*
%TO.P,X1,B9,VBUS*%
%TO.N,VBUS*%
X13450000Y-14650000D03*
%TO.P,X1,B10,RX1-*%
%TO.N,RX1-*%
X13450000Y-14150000D03*
%TO.P,X1,B11,RX1+*%
%TO.N,RX1+*%
X13450000Y-13650000D03*
%TO.P,X1,B12,GND*%
%TO.N,GND*%
X13450000Y-13150000D03*
D12*
%TO.P,X1,S1,SHIELD*%
%TO.N,Shield*%
X16670000Y-11800000D03*
X13730000Y-11800000D03*
X16670000Y-20000000D03*
X13730000Y-20000000D03*
%TD*%
D10*
%TO.P,J1,1,VBUS*%
%TO.N,VOUT1*%
X23300000Y-1600000D03*
%TO.P,J1,2,D-*%
%TO.N,D-*%
X22650000Y-2350000D03*
%TO.P,J1,3,D+*%
%TO.N,D+*%
X22000000Y-1600000D03*
%TO.P,J1,4,ID*%
%TO.N,unconnected-(J1-ID-Pad4)*%
X21350000Y-2350000D03*
%TO.P,J1,5,GND*%
%TO.N,GND*%
X20700000Y-1600000D03*
%TO.P,J1,6,SSTX-*%
%TO.N,TX1-*%
X16600000Y-2350000D03*
%TO.P,J1,7,SSTX+*%
%TO.N,TX1+*%
X15950000Y-1600000D03*
%TO.P,J1,8,DRAIN*%
%TO.N,GND*%
X15300000Y-2350000D03*
%TO.P,J1,9,SSRX-*%
%TO.N,RX1-*%
X14650000Y-1600000D03*
%TO.P,J1,10,SSRX+*%
%TO.N,RX1+*%
X14000000Y-2350000D03*
%TD*%
%TO.P,J3,1,VBUS*%
%TO.N,VOUT2*%
X9300000Y-28400000D03*
%TO.P,J3,2,D-*%
%TO.N,2_D-*%
X9950000Y-27650000D03*
%TO.P,J3,3,D+*%
%TO.N,2_D+*%
X10600000Y-28400000D03*
%TO.P,J3,4,ID*%
%TO.N,unconnected-(J3-ID-Pad4)*%
X11250000Y-27650000D03*
%TO.P,J3,5,GND*%
%TO.N,GND*%
X11900000Y-28400000D03*
%TO.P,J3,6,SSTX-*%
%TO.N,TX2+*%
X16000000Y-27650000D03*
%TO.P,J3,7,SSTX+*%
%TO.N,TX2-*%
X16650000Y-28400000D03*
%TO.P,J3,8,DRAIN*%
%TO.N,GND*%
X17300000Y-27650000D03*
%TO.P,J3,9,SSRX-*%
%TO.N,RX2-*%
X17950000Y-28400000D03*
%TO.P,J3,10,SSRX+*%
%TO.N,RX2+*%
X18600000Y-27650000D03*
%TD*%
D13*
%TO.P,J4,1,Pin_1*%
%TO.N,GND*%
X8875000Y-6950000D03*
%TO.P,J4,2,Pin_2*%
%TO.N,BTN2*%
X7625000Y-6950000D03*
%TO.P,J4,3,Pin_3*%
%TO.N,BTN1*%
X6375000Y-6950000D03*
%TO.P,J4,4,Pin_4*%
%TO.N,GND*%
X5125000Y-6950000D03*
D14*
%TO.P,J4,5,Pin_5*%
X10125000Y-2600000D03*
X3875000Y-2600000D03*
%TD*%
D15*
%TO.P,U3,1,1*%
%TO.N,RX1+*%
X13900000Y-6225000D03*
%TO.P,U3,2,2*%
%TO.N,RX1-*%
X14400000Y-6225000D03*
%TO.P,U3,3,3*%
%TO.N,TX1+*%
X14900000Y-6225000D03*
%TO.P,U3,4,4*%
%TO.N,TX1-*%
X15400000Y-6225000D03*
%TO.P,U3,5,5*%
%TO.N,GND*%
X15900000Y-6225000D03*
%TO.P,U3,6,6*%
%TO.N,D+*%
X16400000Y-6225000D03*
%TO.P,U3,7,7*%
%TO.N,D-*%
X16900000Y-6225000D03*
%TO.P,U3,8,8*%
X16900000Y-4975000D03*
%TO.P,U3,9,9*%
%TO.N,D+*%
X16400000Y-4975000D03*
%TO.P,U3,10,10*%
%TO.N,GND*%
X15900000Y-4975000D03*
%TO.P,U3,11,11*%
%TO.N,TX1-*%
X15400000Y-4975000D03*
%TO.P,U3,12,12*%
%TO.N,TX1+*%
X14900000Y-4975000D03*
%TO.P,U3,13,13*%
%TO.N,RX1-*%
X14400000Y-4975000D03*
%TO.P,U3,14,14*%
%TO.N,RX1+*%
X13900000Y-4975000D03*
%TD*%
D16*
%TO.P,U4,1,1*%
%TO.N,RX2+*%
X17900000Y-23675000D03*
%TO.P,U4,2,2*%
%TO.N,RX2-*%
X17400000Y-23675000D03*
%TO.P,U4,3,3*%
%TO.N,TX2-*%
X16900000Y-23675000D03*
%TO.P,U4,4,4*%
%TO.N,TX2+*%
X16400000Y-23675000D03*
%TO.P,U4,5,5*%
%TO.N,GND*%
X15900000Y-23675000D03*
%TO.P,U4,6,6*%
%TO.N,2_D+*%
X15400000Y-23675000D03*
%TO.P,U4,7,7*%
%TO.N,2_D-*%
X14900000Y-23675000D03*
%TO.P,U4,8,8*%
X14900000Y-24925000D03*
%TO.P,U4,9,9*%
%TO.N,2_D+*%
X15400000Y-24925000D03*
%TO.P,U4,10,10*%
%TO.N,GND*%
X15900000Y-24925000D03*
%TO.P,U4,11,11*%
%TO.N,TX2+*%
X16400000Y-24925000D03*
%TO.P,U4,12,12*%
%TO.N,TX2-*%
X16900000Y-24925000D03*
%TO.P,U4,13,13*%
%TO.N,RX2-*%
X17400000Y-24925000D03*
%TO.P,U4,14,14*%
%TO.N,RX2+*%
X17900000Y-24925000D03*
%TD*%
D17*
%TO.P,R1,1*%
%TO.N,Shield*%
X11700000Y-10760000D03*
%TO.P,R1,2*%
%TO.N,GND*%
X11700000Y-9740000D03*
%TD*%
D18*
%TO.P,C4,1*%
%TO.N,VOUT2*%
X9700000Y-23000000D03*
%TO.P,C4,2*%
%TO.N,GND*%
X4300000Y-23000000D03*
%TD*%
D19*
%TO.P,R7,1*%
%TO.N,nFLT2*%
X12690000Y-32600000D03*
%TO.P,R7,2*%
%TO.N,VBUS*%
X13710000Y-32600000D03*
%TD*%
D20*
%TO.P,C1,1*%
%TO.N,VOUT1*%
X22000000Y-5300000D03*
%TO.P,C1,2*%
%TO.N,GND*%
X22000000Y-10700000D03*
%TD*%
D21*
%TO.N,GND*%
X18850000Y-25150000D03*
%TO.N,VBUS*%
X15200000Y-31200000D03*
X16600000Y-31200000D03*
X18000000Y-31100000D03*
X19100000Y-30100000D03*
X19800000Y-29400000D03*
X20700000Y-28400000D03*
X20800000Y-26500000D03*
X20800000Y-24900000D03*
X20700000Y-22700000D03*
X20800000Y-20800000D03*
X20800000Y-19100000D03*
%TO.N,VOUT1*%
X24200000Y-2450000D03*
X24200000Y-3450000D03*
%TO.N,VOUT2*%
X6800000Y-29850000D03*
X6800000Y-27450000D03*
X5700000Y-26300000D03*
X4550000Y-25800000D03*
X4200000Y-24650000D03*
%TO.N,VOUT1*%
X20600000Y-6400000D03*
X20750000Y-5400000D03*
X23500000Y-5800000D03*
X21900000Y-8100000D03*
X20800000Y-7800000D03*
%TO.N,GND*%
X8000000Y-31400000D03*
X14100000Y-25500000D03*
X19400000Y-11200000D03*
X25000000Y-11200000D03*
X22000000Y-30400000D03*
X5350000Y-24300000D03*
X13000000Y-9000000D03*
X21600000Y-13400000D03*
X19400000Y-22200000D03*
X3200000Y-24800000D03*
X15200000Y-3200000D03*
X23750000Y-15500000D03*
X11200000Y-29200000D03*
X13000000Y-8000000D03*
X17800000Y-12600000D03*
X15750000Y-19000000D03*
X18592203Y-1092203D03*
X9100000Y-5250000D03*
X24600000Y-1200000D03*
X8100000Y-29800000D03*
X17400000Y-32600000D03*
X15000000Y-30000000D03*
X12700000Y-9700000D03*
X12600000Y-29300000D03*
X23100000Y-7450000D03*
X12400000Y-25000000D03*
X18800000Y-23100000D03*
X23600000Y-11250000D03*
X13300000Y-10300000D03*
X19000000Y-28600000D03*
X16800000Y-3400000D03*
X22800000Y-13400000D03*
X15500000Y-22800000D03*
X20400000Y-4100000D03*
X12700000Y-31800000D03*
X24200000Y-32400000D03*
X5400000Y-21200000D03*
X4000000Y-8600000D03*
X19200000Y-2500000D03*
X18800000Y-26600000D03*
X20600000Y-13400000D03*
X15700000Y-26800000D03*
X12800000Y-3200000D03*
X12650000Y-19300000D03*
X16500000Y-9400000D03*
X24900000Y-8600000D03*
X19100000Y-7900000D03*
X24300000Y-21600000D03*
X11900000Y-20000000D03*
X22600000Y-25000000D03*
X12600000Y-5200000D03*
X21000000Y-32600000D03*
X14700000Y-8300000D03*
X24300000Y-24800000D03*
X23700000Y-8600000D03*
X22300000Y-19400000D03*
X23200000Y-3000000D03*
X12600000Y-7200000D03*
X14950000Y-27900000D03*
X12250000Y-17900000D03*
X5000000Y-30800000D03*
X12595144Y-11381856D03*
X3200000Y-27500000D03*
X23900000Y-14400000D03*
X13000000Y-28100000D03*
X15300000Y-950000D03*
X17700000Y-21400000D03*
X19800000Y-13400000D03*
X8000000Y-30600000D03*
X5250000Y-25000000D03*
X19600000Y-18900000D03*
X14500000Y-21800000D03*
X12375000Y-13900000D03*
X10400000Y-19200000D03*
X23200000Y-20700000D03*
X18000000Y-5000000D03*
X25000000Y-15550000D03*
X15200000Y-14000000D03*
X13500000Y-1100000D03*
X12200000Y-27400000D03*
X24900000Y-9900000D03*
X12600000Y-22600000D03*
X20300000Y-16100000D03*
X16500000Y-7800000D03*
X16800000Y-30200000D03*
X22000000Y-20800000D03*
X20200000Y-2400000D03*
X12600000Y-2200000D03*
X13000000Y-23450000D03*
X10400000Y-18200000D03*
X19600000Y-1800000D03*
X24550000Y-17950000D03*
X14000000Y-23450000D03*
X23400000Y-23300000D03*
X25100000Y-16650000D03*
X7200000Y-20800000D03*
X16000000Y-7200000D03*
X10500000Y-32200000D03*
X12600000Y-6200000D03*
X17800000Y-2400000D03*
X19300000Y-32400000D03*
X14800000Y-29000000D03*
X25050000Y-6350000D03*
X8200000Y-5200000D03*
X18026999Y-13900000D03*
X24650000Y-19650000D03*
X7200000Y-24150000D03*
X17800000Y-11800000D03*
X14700000Y-9100000D03*
X6800000Y-1400000D03*
X24050000Y-29800000D03*
X4400000Y-20800000D03*
X23600000Y-9900000D03*
X17900000Y-7100000D03*
X15800000Y-32600000D03*
X19200000Y-9000000D03*
X12600000Y-1200000D03*
X17300000Y-29200000D03*
X7250000Y-25900000D03*
X14700000Y-9900000D03*
X12600000Y-20850000D03*
X6800000Y-4000000D03*
X10600000Y-9600000D03*
X9600000Y-21200000D03*
X19600000Y-20600000D03*
X2800000Y-31400000D03*
X25100000Y-13500000D03*
X21100000Y-16150000D03*
X19200000Y-6050000D03*
X14500000Y-21800000D03*
X23000000Y-14800000D03*
X18900000Y-23900000D03*
X17800000Y-1100000D03*
X8000000Y-32200000D03*
X3800000Y-5400000D03*
X16900000Y-1100000D03*
X18600000Y-11000000D03*
X17100000Y-22300000D03*
X15700000Y-21000000D03*
X22300000Y-22300000D03*
X15888069Y-17902560D03*
X3400000Y-7200000D03*
%TO.N,VBUS*%
X14838909Y-16338909D03*
X14600000Y-14800000D03*
X12400000Y-30800000D03*
X19800000Y-17400000D03*
X19000000Y-17400000D03*
X18850000Y-14200000D03*
X15537961Y-17227000D03*
X21000000Y-17400000D03*
X13575000Y-31175000D03*
%TO.N,VOUT2*%
X7200000Y-22800000D03*
X8400000Y-25800000D03*
X10600000Y-24600000D03*
X8400000Y-26600000D03*
X8400000Y-27800000D03*
%TO.N,BTN2*%
X12373001Y-16277709D03*
X8050000Y-8550000D03*
%TO.N,EN1*%
X19404675Y-14970077D03*
%TO.N,EN2*%
X19488909Y-15911091D03*
X16000000Y-16175000D03*
X15400000Y-15400000D03*
%TO.N,BTN1*%
X6450000Y-8550000D03*
X18306587Y-16506587D03*
%TO.N,nFLT2*%
X5200000Y-32800000D03*
%TD*%
D22*
%TO.N,D-*%
X21900000Y-3000000D02*
X22550000Y-2350000D01*
X19600000Y-3000000D02*
X21900000Y-3000000D01*
X22550000Y-2350000D02*
X22650000Y-2350000D01*
X17515500Y-4084500D02*
X18515500Y-4084500D01*
X16900000Y-4700000D02*
X17515500Y-4084500D01*
X16900000Y-4975000D02*
X16900000Y-4700000D01*
X18515500Y-4084500D02*
X19600000Y-3000000D01*
D23*
%TO.N,VBUS*%
X15175000Y-31175000D02*
X13575000Y-31175000D01*
X15200000Y-31200000D02*
X15175000Y-31175000D01*
X15225000Y-31175000D02*
X15200000Y-31200000D01*
X16575000Y-31175000D02*
X15225000Y-31175000D01*
X16600000Y-31200000D02*
X16575000Y-31175000D01*
X16625000Y-31175000D02*
X16600000Y-31200000D01*
X18000000Y-31200000D02*
X18025000Y-31175000D01*
X18000000Y-31100000D02*
X18000000Y-31200000D01*
X18100000Y-31100000D02*
X18000000Y-31100000D01*
X19100000Y-30100000D02*
X18100000Y-31100000D01*
X19800000Y-29400000D02*
X19100000Y-30100000D01*
X20700000Y-28500000D02*
X19800000Y-29400000D01*
X20700000Y-28400000D02*
X20700000Y-28500000D01*
X20800000Y-28400000D02*
X20700000Y-28400000D01*
X20800000Y-26500000D02*
X20800000Y-28000000D01*
X20800000Y-24900000D02*
X20800000Y-26500000D01*
X20800000Y-22800000D02*
X20800000Y-24900000D01*
X20700000Y-22700000D02*
X20800000Y-22800000D01*
X20800000Y-22600000D02*
X20700000Y-22700000D01*
X20800000Y-20800000D02*
X20800000Y-22600000D01*
X20800000Y-19100000D02*
X20800000Y-20800000D01*
D24*
%TO.N,VOUT1*%
X24200000Y-2450000D02*
X24200000Y-3450000D01*
X23300000Y-1600000D02*
X23350000Y-1600000D01*
X23350000Y-1600000D02*
X24200000Y-2450000D01*
%TO.N,VOUT2*%
X6800000Y-27450000D02*
X6800000Y-29850000D01*
X6800000Y-27316648D02*
X6800000Y-27450000D01*
X5700000Y-26300000D02*
X5783352Y-26300000D01*
X5783352Y-26300000D02*
X6800000Y-27316648D01*
X5550000Y-26150000D02*
X5700000Y-26300000D01*
X4550000Y-25800000D02*
X4900000Y-26150000D01*
X4900000Y-26150000D02*
X5550000Y-26150000D01*
X4200000Y-25450000D02*
X4550000Y-25800000D01*
X4200000Y-24650000D02*
X4200000Y-25450000D01*
%TO.N,VOUT1*%
X20600000Y-6400000D02*
X20600000Y-7600000D01*
X20750000Y-5450000D02*
X20600000Y-5600000D01*
X20750000Y-5400000D02*
X20750000Y-5450000D01*
X20800000Y-5400000D02*
X20750000Y-5400000D01*
X21000000Y-7800000D02*
X21300000Y-8100000D01*
X22000000Y-5300000D02*
X20900000Y-5300000D01*
D23*
X22500000Y-5800000D02*
X23500000Y-5800000D01*
D24*
X20600000Y-5600000D02*
X20600000Y-6400000D01*
X21300000Y-8100000D02*
X21900000Y-8100000D01*
X20900000Y-5300000D02*
X20800000Y-5400000D01*
X20800000Y-7800000D02*
X21000000Y-7800000D01*
X20600000Y-7600000D02*
X20800000Y-7800000D01*
D25*
%TO.N,VBUS*%
X13710000Y-31310000D02*
X13575000Y-31175000D01*
D26*
X14450000Y-14650000D02*
X13450000Y-14650000D01*
D25*
X15537961Y-17227000D02*
X15150000Y-16839039D01*
D26*
X14700000Y-16950000D02*
X14700000Y-17150000D01*
D27*
X19000000Y-17400000D02*
X18750000Y-17150000D01*
D23*
X13200000Y-30800000D02*
X13575000Y-31175000D01*
D26*
X15800000Y-17150000D02*
X16950000Y-17150000D01*
X18481923Y-14518077D02*
X18171988Y-14518077D01*
X16950000Y-14650000D02*
X16075000Y-14650000D01*
D23*
X20800000Y-28000000D02*
X20800000Y-28400000D01*
D25*
X15650000Y-17150000D02*
X15800000Y-17150000D01*
D26*
X18800000Y-14200000D02*
X18481923Y-14518077D01*
X15752000Y-17150000D02*
X16950000Y-17150000D01*
D25*
X17900000Y-14700000D02*
X17990065Y-14700000D01*
X14788779Y-16477818D02*
X14700000Y-16477818D01*
D23*
X18025000Y-31175000D02*
X16625000Y-31175000D01*
D25*
X15537961Y-17227000D02*
X14788779Y-16477818D01*
D28*
X14675000Y-14725000D02*
X14600000Y-14800000D01*
D27*
X21000000Y-17400000D02*
X20800000Y-17600000D01*
D23*
X21000000Y-17400000D02*
X19800000Y-17400000D01*
D26*
X16075000Y-14650000D02*
X16000000Y-14725000D01*
X18850000Y-14200000D02*
X18800000Y-14200000D01*
X15537961Y-17227000D02*
X15675000Y-17227000D01*
D25*
X15150000Y-16839039D02*
X15150000Y-16650000D01*
D26*
X14700000Y-16477818D02*
X14700000Y-16950000D01*
X16950000Y-14650000D02*
X17950000Y-14650000D01*
X18750000Y-17150000D02*
X16950000Y-17150000D01*
D23*
X20800000Y-17600000D02*
X20800000Y-19100000D01*
D27*
X14838909Y-16338909D02*
X14700000Y-16477818D01*
D26*
X15537961Y-17227000D02*
X15460961Y-17150000D01*
D23*
X12400000Y-30800000D02*
X13200000Y-30800000D01*
D25*
X13710000Y-32600000D02*
X13710000Y-31310000D01*
D26*
X15260961Y-16950000D02*
X14700000Y-16950000D01*
D25*
X15150000Y-16650000D02*
X15650000Y-17150000D01*
D26*
X16000000Y-14725000D02*
X14675000Y-14725000D01*
D27*
X20800000Y-18100000D02*
X20800000Y-17600000D01*
D26*
X18171988Y-14518077D02*
X17990065Y-14700000D01*
D28*
X14600000Y-14800000D02*
X14450000Y-14650000D01*
D25*
X15150000Y-16650000D02*
X14838909Y-16338909D01*
D26*
X15460961Y-17150000D02*
X14700000Y-17150000D01*
D24*
X19000000Y-17400000D02*
X19800000Y-17400000D01*
D26*
X15675000Y-17227000D02*
X15752000Y-17150000D01*
X15752000Y-17150000D02*
X15800000Y-17150000D01*
D23*
X20800000Y-28400000D02*
X20800000Y-28400000D01*
D28*
X17950000Y-14650000D02*
X17900000Y-14700000D01*
D26*
X15537961Y-17227000D02*
X15260961Y-16950000D01*
X13450000Y-17150000D02*
X14700000Y-17150000D01*
D27*
%TO.N,VOUT2*%
X8400000Y-27800000D02*
X8400000Y-26600000D01*
X8400000Y-26600000D02*
X8400000Y-25800000D01*
D23*
X9700000Y-23000000D02*
X10600000Y-23900000D01*
D27*
X9000000Y-28400000D02*
X8400000Y-27800000D01*
X9300000Y-28400000D02*
X9000000Y-28400000D01*
D24*
X7200000Y-22800000D02*
X7400000Y-23000000D01*
X7400000Y-23000000D02*
X9700000Y-23000000D01*
D23*
X10600000Y-23900000D02*
X10600000Y-24600000D01*
D22*
%TO.N,RX1-*%
X14269500Y-4844500D02*
X14400000Y-4975000D01*
X14400000Y-4975000D02*
X14269500Y-5105500D01*
X14482384Y-14019500D02*
X14919500Y-13582384D01*
X14650000Y-1600000D02*
X14650000Y-3119000D01*
X14400000Y-6500000D02*
X14400000Y-6225000D01*
X14269500Y-7699500D02*
X14269500Y-6630500D01*
X13580500Y-14019500D02*
X14482384Y-14019500D01*
X14269500Y-6094500D02*
X14400000Y-6225000D01*
X14019500Y-7949500D02*
X14269500Y-7699500D01*
X14019500Y-9950500D02*
X14019500Y-7949500D01*
X14269500Y-6630500D02*
X14400000Y-6500000D01*
X14919500Y-10850500D02*
X14019500Y-9950500D01*
X13450000Y-14150000D02*
X13580500Y-14019500D01*
X14269500Y-3499500D02*
X14269500Y-4844500D01*
X14919500Y-13582384D02*
X14919500Y-10850500D01*
X14269500Y-5105500D02*
X14269500Y-6094500D01*
X14650000Y-3119000D02*
X14269500Y-3499500D01*
%TO.N,RX1+*%
X13780500Y-8200000D02*
X13685250Y-8295250D01*
X14030500Y-4271500D02*
X14030500Y-4844500D01*
X13900000Y-4975000D02*
X14030500Y-5105500D01*
X14410999Y-2760999D02*
X14410999Y-3020001D01*
X13629029Y-4081000D02*
X13724279Y-4176250D01*
X13470916Y-8581000D02*
X13566166Y-8676250D01*
X14030500Y-6094500D02*
X13900000Y-6225000D01*
X13780500Y-7850500D02*
X13780500Y-8200000D01*
X13780500Y-8771500D02*
X13780500Y-9202357D01*
X13724279Y-4176250D02*
X13935250Y-4176250D01*
X14030500Y-5105500D02*
X14030500Y-6094500D01*
X14680500Y-10949500D02*
X14680500Y-13483384D01*
X14030500Y-3700000D02*
X13935250Y-3795250D01*
X13629029Y-3890500D02*
X13629029Y-4081000D01*
X13566166Y-8295250D02*
X13470916Y-8390500D01*
X14030500Y-4844500D02*
X13900000Y-4975000D01*
X13685250Y-8295250D02*
X13566166Y-8295250D01*
X13566166Y-8676250D02*
X13685250Y-8676250D01*
X13935250Y-4176250D02*
X14030500Y-4271500D01*
X14383384Y-13780500D02*
X13580500Y-13780500D01*
X13780500Y-10049500D02*
X14680500Y-10949500D01*
X13935250Y-3795250D02*
X13724279Y-3795250D01*
X13580500Y-13780500D02*
X13450000Y-13650000D01*
X14030500Y-3400500D02*
X14030500Y-3700000D01*
X14030500Y-7600500D02*
X13780500Y-7850500D01*
X14030500Y-6630500D02*
X14030500Y-7600500D01*
X14000000Y-2350000D02*
X14410999Y-2760999D01*
X13900000Y-6500000D02*
X14030500Y-6630500D01*
X14410999Y-3020001D02*
X14030500Y-3400500D01*
X13780500Y-9202357D02*
X13780500Y-10049500D01*
X13900000Y-6225000D02*
X13900000Y-6500000D01*
X13470916Y-8390500D02*
X13470916Y-8581000D01*
X13685250Y-8676250D02*
X13780500Y-8771500D01*
X13724279Y-3795250D02*
X13629029Y-3890500D01*
X14680500Y-13483384D02*
X14383384Y-13780500D01*
%TO.N,TX1+*%
X15030500Y-6630500D02*
X14900000Y-6500000D01*
X15030500Y-4844500D02*
X14900000Y-4975000D01*
X15030500Y-7599500D02*
X15030500Y-6630500D01*
X15030500Y-4231502D02*
X15030500Y-4844500D01*
X15480500Y-13587119D02*
X15480500Y-8049500D01*
X15912881Y-14019500D02*
X15480500Y-13587119D01*
X15030500Y-5105500D02*
X15030500Y-6094500D01*
X15030500Y-6094500D02*
X14900000Y-6225000D01*
X14900000Y-6500000D02*
X14900000Y-6225000D01*
X14900000Y-4975000D02*
X15030500Y-5105500D01*
X15950000Y-1600000D02*
X15950000Y-3312002D01*
X16950000Y-14150000D02*
X16819500Y-14019500D01*
X16819500Y-14019500D02*
X15912881Y-14019500D01*
X15950000Y-3312002D02*
X15030500Y-4231502D01*
X15480500Y-8049500D02*
X15030500Y-7599500D01*
%TO.N,D+*%
X16530500Y-4569500D02*
X16530500Y-4552554D01*
X16400000Y-6225000D02*
X16400000Y-4975000D01*
X16400000Y-4975000D02*
X16400000Y-4700000D01*
X19600000Y-800000D02*
X21800000Y-800000D01*
X17354500Y-3845500D02*
X18354500Y-3845500D01*
X22000000Y-1000000D02*
X22000000Y-1600000D01*
X16530500Y-4552554D02*
X16716054Y-4367000D01*
X18354500Y-3845500D02*
X18600000Y-3600000D01*
X16400000Y-4700000D02*
X16530500Y-4569500D01*
X16716054Y-4367000D02*
X16833000Y-4367000D01*
X18600000Y-3600000D02*
X18600000Y-1800000D01*
X16833000Y-4367000D02*
X17354500Y-3845500D01*
X21800000Y-800000D02*
X22000000Y-1000000D01*
X18600000Y-1800000D02*
X19600000Y-800000D01*
%TO.N,TX1-*%
X15511184Y-4088817D02*
X15500000Y-4100000D01*
X15269500Y-6094500D02*
X15400000Y-6225000D01*
X16600000Y-2350000D02*
X16189001Y-2760999D01*
X15933837Y-8661459D02*
X15814750Y-8661459D01*
X15814750Y-8661459D02*
X15719500Y-8756709D01*
X15400000Y-4975000D02*
X15269500Y-5105500D01*
X15500000Y-4100000D02*
X15269500Y-4330500D01*
X15814750Y-8280459D02*
X15933837Y-8280459D01*
X16029087Y-8566209D02*
X15933837Y-8661459D01*
X15780593Y-3954113D02*
X15645889Y-3954114D01*
X15645889Y-3954114D02*
X15511184Y-4088817D01*
X16050000Y-3550000D02*
X16050000Y-3684704D01*
X15269500Y-5105500D02*
X15269500Y-6094500D01*
X15400000Y-6500000D02*
X15269500Y-6630500D01*
X15400000Y-6225000D02*
X15400000Y-6500000D01*
X16011881Y-13780500D02*
X16819500Y-13780500D01*
X15269500Y-6630500D02*
X15269500Y-7500500D01*
X16199186Y-3968595D02*
X16064483Y-4103299D01*
X16029087Y-8375709D02*
X16029087Y-8566209D01*
X15269500Y-7500500D02*
X15719500Y-7950500D01*
X16064483Y-4103299D02*
X15929779Y-4103299D01*
X15929779Y-4103299D02*
X15780593Y-3954113D01*
X16189001Y-3410999D02*
X16050000Y-3550000D01*
X16189001Y-2760999D02*
X16189001Y-3410999D01*
X15719500Y-9900000D02*
X15719500Y-13488119D01*
X16819500Y-13780500D02*
X16950000Y-13650000D01*
X15269500Y-4330500D02*
X15269500Y-4844500D01*
X15269500Y-4844500D02*
X15400000Y-4975000D01*
X15719500Y-7950500D02*
X15719500Y-8185209D01*
X16199187Y-3833891D02*
X16199186Y-3968595D01*
X15933837Y-8280459D02*
X16029087Y-8375709D01*
X15719500Y-13488119D02*
X16011881Y-13780500D01*
X16050000Y-3684704D02*
X16199187Y-3833891D01*
X15719500Y-8756709D02*
X15719500Y-9900000D01*
X15719500Y-8185209D02*
X15814750Y-8280459D01*
%TO.N,D-*%
X16900000Y-6225000D02*
X16900000Y-4975000D01*
D29*
%TO.N,BTN2*%
X12373001Y-16277709D02*
X12373001Y-15376999D01*
D26*
X7625000Y-8125000D02*
X7625000Y-6950000D01*
D29*
X12600000Y-15150000D02*
X13450000Y-15150000D01*
D26*
X8050000Y-8550000D02*
X7625000Y-8125000D01*
D29*
X12373001Y-15376999D02*
X12600000Y-15150000D01*
D28*
%TO.N,EN1*%
X16950000Y-15650000D02*
X16750000Y-15650000D01*
D22*
X16208066Y-15700000D02*
X16200066Y-15692000D01*
D28*
X18429924Y-14970077D02*
X17750001Y-15650000D01*
D22*
X14155248Y-16150000D02*
X13450000Y-16150000D01*
X15591934Y-15900000D02*
X15083066Y-15900000D01*
X15038975Y-15855909D02*
X14449339Y-15855909D01*
X15083066Y-15900000D02*
X15038975Y-15855909D01*
X16650000Y-15700000D02*
X16208066Y-15700000D01*
X16200066Y-15692000D02*
X15799934Y-15692000D01*
D28*
X17750001Y-15650000D02*
X16950000Y-15650000D01*
D22*
X14449339Y-15855909D02*
X14155248Y-16150000D01*
X15799934Y-15692000D02*
X15591934Y-15900000D01*
X16725000Y-15625000D02*
X16650000Y-15700000D01*
D28*
X19404675Y-14970077D02*
X18429924Y-14970077D01*
D29*
%TO.N,EN2*%
X13527091Y-15572909D02*
X13450000Y-15650000D01*
X15227091Y-15572909D02*
X13527091Y-15572909D01*
X15400000Y-15400000D02*
X15227091Y-15572909D01*
D28*
X16000000Y-16175000D02*
X16025000Y-16150000D01*
X19488909Y-15911091D02*
X18088909Y-15911091D01*
X16025000Y-16150000D02*
X16950000Y-16150000D01*
X17850000Y-16150000D02*
X16950000Y-16150000D01*
X18088909Y-15911091D02*
X17850000Y-16150000D01*
D25*
%TO.N,BTN1*%
X6450000Y-8550000D02*
X6450000Y-7025000D01*
D28*
X18188174Y-16625000D02*
X17761827Y-16625000D01*
X17736827Y-16650000D02*
X16950000Y-16650000D01*
D25*
X6450000Y-7025000D02*
X6375000Y-6950000D01*
D28*
X18306587Y-16506587D02*
X18188174Y-16625000D01*
X17761827Y-16625000D02*
X17736827Y-16650000D01*
D29*
%TO.N,nFLT2*%
X12690000Y-32600000D02*
X12600000Y-32600000D01*
X5600000Y-33200000D02*
X5200000Y-32800000D01*
X12000000Y-33200000D02*
X5600000Y-33200000D01*
X12600000Y-32600000D02*
X12000000Y-33200000D01*
D22*
%TO.N,2_D-*%
X10950500Y-26280500D02*
X10360999Y-26870001D01*
X12449500Y-26280500D02*
X10950500Y-26280500D01*
X14900000Y-23875000D02*
X14900000Y-26531000D01*
X14350500Y-27080500D02*
X13249500Y-27080500D01*
X13249500Y-27080500D02*
X12449500Y-26280500D01*
X10360999Y-27239001D02*
X9950000Y-27650000D01*
X14900000Y-26531000D02*
X14350500Y-27080500D01*
X10360999Y-26870001D02*
X10360999Y-27239001D01*
%TO.N,TX2+*%
X16435250Y-26376250D02*
X16530500Y-26471500D01*
X16129026Y-26090500D02*
X16129026Y-26281000D01*
X14880500Y-21318498D02*
X15331001Y-21768999D01*
X15869816Y-22307814D02*
X15974691Y-22412689D01*
X15246793Y-21987909D02*
X15246793Y-22122613D01*
X16435250Y-25995250D02*
X16224276Y-25995250D01*
X16530500Y-22968498D02*
X16530500Y-23544500D01*
X15735111Y-22173108D02*
X15869816Y-22307814D01*
X15600407Y-22173108D02*
X15735111Y-22173108D01*
X16530500Y-26869500D02*
X16410999Y-26989001D01*
X16530500Y-25900000D02*
X16435250Y-25995250D01*
X15516200Y-22257316D02*
X15600407Y-22173108D01*
X16400000Y-24925000D02*
X16530500Y-24794500D01*
X14450500Y-18019500D02*
X14880500Y-18449500D01*
X13580500Y-18019500D02*
X14450500Y-18019500D01*
X16224276Y-25995250D02*
X16129026Y-26090500D01*
X16530500Y-23544500D02*
X16400000Y-23675000D01*
X15331001Y-21903702D02*
X15246793Y-21987909D01*
X16530500Y-26471500D02*
X16530500Y-26700000D01*
X16530500Y-24794500D02*
X16530500Y-23805500D01*
X15381496Y-22257316D02*
X15516200Y-22257316D01*
X13450000Y-18150000D02*
X13580500Y-18019500D01*
X14880500Y-18449500D02*
X14880500Y-21318498D01*
X16410999Y-26989001D02*
X16410999Y-27239001D01*
X16129026Y-26281000D02*
X16224276Y-26376250D01*
X16530500Y-23805500D02*
X16400000Y-23675000D01*
X16410999Y-27239001D02*
X16000000Y-27650000D01*
X16224276Y-26376250D02*
X16435250Y-26376250D01*
X16530500Y-26700000D02*
X16530500Y-26869500D01*
X16530500Y-25055500D02*
X16530500Y-25900000D01*
X16400000Y-24925000D02*
X16530500Y-25055500D01*
X15246793Y-22122613D02*
X15381496Y-22257316D01*
X15331001Y-21768999D02*
X15331001Y-21903702D01*
X15974691Y-22412689D02*
X16530500Y-22968498D01*
%TO.N,2_D+*%
X12350500Y-26519500D02*
X11049500Y-26519500D01*
X14449500Y-27319500D02*
X13150500Y-27319500D01*
X13150500Y-27319500D02*
X12350500Y-26519500D01*
X10600000Y-26969000D02*
X10600000Y-28400000D01*
X15233000Y-26536000D02*
X14449500Y-27319500D01*
X15233000Y-25792000D02*
X15233000Y-26536000D01*
X15400000Y-25625000D02*
X15233000Y-25792000D01*
X15400000Y-23875000D02*
X15400000Y-25125000D01*
X15400000Y-25125000D02*
X15400000Y-25625000D01*
X11049500Y-26519500D02*
X10600000Y-26969000D01*
%TO.N,RX2+*%
X17864750Y-25780459D02*
X18075718Y-25780459D01*
X17769500Y-22799500D02*
X19027000Y-21542000D01*
X18189001Y-26904251D02*
X18189001Y-27239001D01*
X17864750Y-26161459D02*
X17769500Y-26256709D01*
X17900000Y-24925000D02*
X17900000Y-24650000D01*
X18170968Y-25875709D02*
X18170968Y-26066209D01*
X17769500Y-23805500D02*
X17900000Y-23675000D01*
X17900000Y-24925000D02*
X17900000Y-25200000D01*
X17769500Y-26484750D02*
X17842375Y-26557625D01*
X17842375Y-26557625D02*
X18189001Y-26904251D01*
X18149500Y-17780500D02*
X17595500Y-17780500D01*
X17769500Y-25685209D02*
X17864750Y-25780459D01*
X18075718Y-25780459D02*
X18170968Y-25875709D01*
X17900000Y-24650000D02*
X17769500Y-24519500D01*
X17769500Y-25330500D02*
X17769500Y-25685209D01*
X19027000Y-18658000D02*
X18149500Y-17780500D01*
X17900000Y-23675000D02*
X17769500Y-23544500D01*
X17769500Y-26256709D02*
X17769500Y-26484750D01*
X17465000Y-17650000D02*
X16950000Y-17650000D01*
X19027000Y-21542000D02*
X19027000Y-18658000D01*
X17900000Y-25200000D02*
X17769500Y-25330500D01*
X17769500Y-24519500D02*
X17769500Y-23805500D01*
X18170968Y-26066209D02*
X18075718Y-26161459D01*
X18189001Y-27239001D02*
X18600000Y-27650000D01*
X17769500Y-23544500D02*
X17769500Y-22799500D01*
X18075718Y-26161459D02*
X17864750Y-26161459D01*
X17595500Y-17780500D02*
X17465000Y-17650000D01*
%TO.N,RX2-*%
X17595500Y-18019500D02*
X18050500Y-18019500D01*
X16950000Y-18150000D02*
X17465000Y-18150000D01*
X17400000Y-24925000D02*
X17400000Y-24650000D01*
X17530500Y-23544500D02*
X17400000Y-23675000D01*
X17530500Y-24519500D02*
X17530500Y-23805500D01*
X18677750Y-20876250D02*
X18773000Y-20971500D01*
X18552442Y-20876250D02*
X18677750Y-20876250D01*
X18773000Y-20971500D02*
X18773000Y-21300000D01*
X18773000Y-21300000D02*
X18773000Y-21458000D01*
X17465000Y-18150000D02*
X17595500Y-18019500D01*
X18552442Y-20495250D02*
X18457192Y-20590500D01*
X18457192Y-20781000D02*
X18552442Y-20876250D01*
X17530500Y-22700500D02*
X17530500Y-23544500D01*
X17950000Y-27050000D02*
X17530500Y-26630500D01*
X18773000Y-20400000D02*
X18677750Y-20495250D01*
X18050500Y-18019500D02*
X18773000Y-18742000D01*
X17400000Y-24650000D02*
X17530500Y-24519500D01*
X17950000Y-28400000D02*
X17950000Y-27050000D01*
X17530500Y-23805500D02*
X17400000Y-23675000D01*
X18457192Y-20590500D02*
X18457192Y-20781000D01*
X17950000Y-28400000D02*
X18000000Y-28350000D01*
X17530500Y-25330500D02*
X17400000Y-25200000D01*
X18677750Y-20495250D02*
X18552442Y-20495250D01*
X18773000Y-18742000D02*
X18773000Y-20400000D01*
X17530500Y-26630500D02*
X17530500Y-25330500D01*
X18773000Y-21458000D02*
X17530500Y-22700500D01*
X17400000Y-25200000D02*
X17400000Y-24925000D01*
%TO.N,TX2-*%
X16769500Y-22869500D02*
X15119500Y-21219500D01*
X16769500Y-24794500D02*
X16769500Y-23805500D01*
X16769500Y-23805500D02*
X16900000Y-23675000D01*
X16769500Y-25055500D02*
X16900000Y-24925000D01*
X14549500Y-17780500D02*
X13580500Y-17780500D01*
X15119500Y-21219500D02*
X15119500Y-18350500D01*
X16650000Y-27150000D02*
X16769500Y-27030500D01*
X13580500Y-17780500D02*
X13450000Y-17650000D01*
X16900000Y-24925000D02*
X16769500Y-24794500D01*
X16900000Y-23675000D02*
X16769500Y-23544500D01*
X16769500Y-27030500D02*
X16769500Y-25055500D01*
X15119500Y-18350500D02*
X14549500Y-17780500D01*
X16650000Y-28400000D02*
X16650000Y-27150000D01*
X16769500Y-23544500D02*
X16769500Y-22869500D01*
D26*
%TO.N,Shield*%
X13730000Y-11630000D02*
X13730000Y-11687423D01*
X12880423Y-10780423D02*
X13730000Y-11630000D01*
X11860000Y-10750000D02*
X12823000Y-10750000D01*
D25*
X13730000Y-11687423D02*
X13730000Y-11800000D01*
D26*
X12823000Y-10780423D02*
X12880423Y-10780423D01*
%TD*%
%TA.AperFunction,Conductor*%
%TO.N,GND*%
G36*
X15191123Y-17514852D02*
G01*
X15193507Y-17517412D01*
X15239912Y-17570967D01*
X15348892Y-17641004D01*
X15418054Y-17661311D01*
X15473184Y-17677499D01*
X15473189Y-17677500D01*
X15602733Y-17677500D01*
X15602737Y-17677499D01*
X15650318Y-17663528D01*
X15727030Y-17641004D01*
X15836010Y-17570967D01*
X15844213Y-17561499D01*
X15868564Y-17546256D01*
X15954583Y-17523208D01*
X15954582Y-17523208D01*
X15954587Y-17523207D01*
X15982546Y-17507065D01*
X16007046Y-17500500D01*
X16100500Y-17500500D01*
X16135148Y-17514852D01*
X16149500Y-17549500D01*
X16149500Y-17799823D01*
X16158232Y-17843719D01*
X16158233Y-17843722D01*
X16165831Y-17855093D01*
X16177647Y-17872778D01*
X16184962Y-17909561D01*
X16177647Y-17927222D01*
X16158232Y-17956280D01*
X16149500Y-18000176D01*
X16149500Y-18299823D01*
X16158232Y-18343720D01*
X16177947Y-18373226D01*
X16185263Y-18410009D01*
X16177947Y-18427671D01*
X16158702Y-18456473D01*
X16150000Y-18500221D01*
X16150000Y-18515000D01*
X17749999Y-18515000D01*
X17749999Y-18500227D01*
X17741296Y-18456472D01*
X17741295Y-18456470D01*
X17722053Y-18427671D01*
X17714737Y-18390889D01*
X17722053Y-18373226D01*
X17741767Y-18343722D01*
X17750500Y-18299820D01*
X17750500Y-18275000D01*
X17764852Y-18240352D01*
X17799500Y-18226000D01*
X17944669Y-18226000D01*
X17979317Y-18240352D01*
X18552148Y-18813183D01*
X18566500Y-18847831D01*
X18566500Y-20239749D01*
X18552148Y-20274397D01*
X18517500Y-20288749D01*
X18511364Y-20288749D01*
X18466906Y-20307165D01*
X18435469Y-20320186D01*
X18406424Y-20349231D01*
X18377379Y-20378277D01*
X18377378Y-20378278D01*
X18340220Y-20415436D01*
X18340219Y-20415437D01*
X18311174Y-20444482D01*
X18282129Y-20473526D01*
X18274530Y-20491873D01*
X18250691Y-20549422D01*
X18250691Y-20637276D01*
X18250692Y-20637285D01*
X18250692Y-20735967D01*
X18250691Y-20735981D01*
X18250691Y-20822077D01*
X18268086Y-20864069D01*
X18268086Y-20864070D01*
X18282129Y-20897973D01*
X18282130Y-20897975D01*
X18347110Y-20962954D01*
X18347112Y-20962955D01*
X18374583Y-20990426D01*
X18374586Y-20990430D01*
X18374587Y-20990430D01*
X18377378Y-20993221D01*
X18377379Y-20993223D01*
X18435469Y-21051313D01*
X18466717Y-21064256D01*
X18511366Y-21082751D01*
X18517500Y-21082751D01*
X18552148Y-21097103D01*
X18566500Y-21131751D01*
X18566500Y-21352168D01*
X18552148Y-21386816D01*
X17980873Y-21958091D01*
X17413528Y-22525436D01*
X17413527Y-22525437D01*
X17384482Y-22554482D01*
X17355437Y-22583526D01*
X17355436Y-22583528D01*
X17344367Y-22610254D01*
X17344366Y-22610256D01*
X17323999Y-22659422D01*
X17323999Y-22747276D01*
X17324000Y-22747285D01*
X17324000Y-23055068D01*
X17309648Y-23089716D01*
X17284559Y-23103127D01*
X17237013Y-23112583D01*
X17237010Y-23112584D01*
X17177222Y-23152533D01*
X17140440Y-23159849D01*
X17122778Y-23152533D01*
X17062985Y-23112582D01*
X17015441Y-23103125D01*
X16984258Y-23082290D01*
X16976000Y-23055067D01*
X16976000Y-22828424D01*
X16962978Y-22796987D01*
X16944563Y-22752527D01*
X16886473Y-22694437D01*
X16886471Y-22694436D01*
X16883680Y-22691645D01*
X16883680Y-22691644D01*
X16883676Y-22691641D01*
X16233774Y-22041739D01*
X16219422Y-22007091D01*
X16233774Y-21972443D01*
X16268422Y-21958091D01*
X16287171Y-21961820D01*
X16343238Y-21985044D01*
X16500000Y-22005682D01*
X16656762Y-21985044D01*
X16802841Y-21924536D01*
X16928282Y-21828282D01*
X17024536Y-21702841D01*
X17085044Y-21556762D01*
X17105682Y-21400000D01*
X17085044Y-21243238D01*
X17062125Y-21187907D01*
X17062125Y-21150405D01*
X17080170Y-21128416D01*
X17116542Y-21104114D01*
X17214114Y-21006542D01*
X17290775Y-20891811D01*
X17343580Y-20764328D01*
X17370500Y-20628993D01*
X17370500Y-19371007D01*
X17343580Y-19235672D01*
X17290775Y-19108189D01*
X17225984Y-19011222D01*
X17218668Y-18974439D01*
X17239503Y-18943257D01*
X17266726Y-18934999D01*
X17614772Y-18934999D01*
X17658527Y-18926296D01*
X17708144Y-18893144D01*
X17741297Y-18843525D01*
X17749999Y-18799778D01*
X17750000Y-18799775D01*
X17750000Y-18785000D01*
X16928931Y-18785000D01*
X16910180Y-18781270D01*
X16874335Y-18766422D01*
X16874329Y-18766420D01*
X16874328Y-18766420D01*
X16874325Y-18766419D01*
X16874316Y-18766417D01*
X16738998Y-18739500D01*
X16738993Y-18739500D01*
X16601007Y-18739500D01*
X16601001Y-18739500D01*
X16465683Y-18766417D01*
X16465664Y-18766422D01*
X16429820Y-18781270D01*
X16411069Y-18785000D01*
X16150001Y-18785000D01*
X16150001Y-18799772D01*
X16158703Y-18843527D01*
X16158704Y-18843530D01*
X16183270Y-18880296D01*
X16190586Y-18917078D01*
X16177177Y-18942166D01*
X16125886Y-18993457D01*
X16049223Y-19108192D01*
X15996420Y-19235670D01*
X15996417Y-19235681D01*
X15969500Y-19371001D01*
X15969500Y-20628998D01*
X15996417Y-20764318D01*
X15996420Y-20764328D01*
X16049225Y-20891811D01*
X16068727Y-20920998D01*
X16076043Y-20957780D01*
X16066860Y-20978049D01*
X15975461Y-21097163D01*
X15914955Y-21243238D01*
X15894318Y-21400000D01*
X15914955Y-21556761D01*
X15938178Y-21612826D01*
X15938178Y-21650329D01*
X15911659Y-21676847D01*
X15874156Y-21676847D01*
X15858260Y-21666225D01*
X15340352Y-21148317D01*
X15326000Y-21113669D01*
X15326000Y-18397285D01*
X15326001Y-18397276D01*
X15326001Y-18309424D01*
X15307584Y-18264965D01*
X15307583Y-18264962D01*
X15294563Y-18233528D01*
X15294562Y-18233526D01*
X15287036Y-18226000D01*
X15236473Y-18175437D01*
X15236471Y-18175436D01*
X15233680Y-18172645D01*
X15233680Y-18172644D01*
X15233676Y-18172641D01*
X14731455Y-17670420D01*
X14731455Y-17670419D01*
X14666475Y-17605438D01*
X14666473Y-17605437D01*
X14640720Y-17594770D01*
X14614201Y-17568252D01*
X14614201Y-17530749D01*
X14640719Y-17504230D01*
X14659471Y-17500500D01*
X15156475Y-17500500D01*
X15191123Y-17514852D01*
G37*
%TD.AperFunction*%
%TA.AperFunction,Conductor*%
G36*
X14677222Y-6747465D02*
G01*
X14737014Y-6787417D01*
X14784561Y-6796874D01*
X14815742Y-6817708D01*
X14824000Y-6844932D01*
X14824000Y-7554467D01*
X14823999Y-7554481D01*
X14823999Y-7558424D01*
X14823999Y-7640576D01*
X14837213Y-7672475D01*
X14837212Y-7672475D01*
X14837213Y-7672476D01*
X14855437Y-7716473D01*
X14855438Y-7716475D01*
X14920418Y-7781454D01*
X14920420Y-7781455D01*
X15259648Y-8120683D01*
X15274000Y-8155331D01*
X15274000Y-13542086D01*
X15273999Y-13542100D01*
X15273999Y-13628194D01*
X15288492Y-13663181D01*
X15288492Y-13663183D01*
X15305437Y-13704092D01*
X15305438Y-13704094D01*
X15370418Y-13769073D01*
X15370420Y-13769074D01*
X15735022Y-14133676D01*
X15735025Y-14133680D01*
X15735026Y-14133680D01*
X15737817Y-14136471D01*
X15737818Y-14136473D01*
X15795908Y-14194563D01*
X15827343Y-14207583D01*
X15827345Y-14207585D01*
X15827345Y-14207584D01*
X15871805Y-14226001D01*
X15871806Y-14226001D01*
X15930966Y-14226001D01*
X15965614Y-14240353D01*
X15979966Y-14275001D01*
X15965614Y-14309649D01*
X15943649Y-14322331D01*
X15939711Y-14323386D01*
X15939709Y-14323386D01*
X15862551Y-14367935D01*
X15838051Y-14374500D01*
X14756961Y-14374500D01*
X14743156Y-14372515D01*
X14664776Y-14349500D01*
X14664772Y-14349500D01*
X14643647Y-14349500D01*
X14619148Y-14342935D01*
X14593666Y-14328223D01*
X14585287Y-14323385D01*
X14544416Y-14312434D01*
X14514664Y-14289604D01*
X14509769Y-14252421D01*
X14532599Y-14222669D01*
X14538347Y-14219834D01*
X14567917Y-14207585D01*
X14567919Y-14207584D01*
X14599357Y-14194563D01*
X14657447Y-14136473D01*
X14657447Y-14136472D01*
X14664336Y-14129583D01*
X14664338Y-14129580D01*
X15029580Y-13764338D01*
X15029583Y-13764336D01*
X15036472Y-13757447D01*
X15036473Y-13757447D01*
X15094563Y-13699357D01*
X15116792Y-13645689D01*
X15126000Y-13623460D01*
X15126000Y-13541308D01*
X15126000Y-10809425D01*
X15121885Y-10799491D01*
X15119386Y-10793458D01*
X15111508Y-10774437D01*
X15094645Y-10733726D01*
X15094563Y-10733527D01*
X15036473Y-10675437D01*
X15036471Y-10675436D01*
X15033680Y-10672645D01*
X15033680Y-10672644D01*
X15033676Y-10672641D01*
X14240352Y-9879317D01*
X14226000Y-9844669D01*
X14226000Y-8055330D01*
X14240351Y-8020683D01*
X14379580Y-7881453D01*
X14379583Y-7881452D01*
X14386472Y-7874563D01*
X14386473Y-7874563D01*
X14444563Y-7816473D01*
X14469597Y-7756033D01*
X14476000Y-7740576D01*
X14476000Y-7658424D01*
X14476000Y-6844931D01*
X14490352Y-6810283D01*
X14515439Y-6796873D01*
X14562986Y-6787417D01*
X14622777Y-6747465D01*
X14659560Y-6740150D01*
X14677222Y-6747465D01*
G37*
%TD.AperFunction*%
%TA.AperFunction,Conductor*%
G36*
X14935330Y-2826461D02*
G01*
X14997414Y-2874100D01*
X14997415Y-2874101D01*
X15143369Y-2934556D01*
X15300000Y-2955176D01*
X15456630Y-2934556D01*
X15602584Y-2874101D01*
X15602585Y-2874100D01*
X15664670Y-2826461D01*
X15700895Y-2816754D01*
X15733374Y-2835505D01*
X15743500Y-2865335D01*
X15743500Y-3206170D01*
X15729148Y-3240818D01*
X15323828Y-3646138D01*
X14913528Y-4056438D01*
X14913527Y-4056439D01*
X14884482Y-4085484D01*
X14855437Y-4114528D01*
X14844445Y-4141067D01*
X14823999Y-4190424D01*
X14823999Y-4278278D01*
X14824000Y-4278287D01*
X14824000Y-4355068D01*
X14809648Y-4389716D01*
X14784559Y-4403127D01*
X14737013Y-4412583D01*
X14737010Y-4412584D01*
X14677222Y-4452533D01*
X14640440Y-4459849D01*
X14622778Y-4452533D01*
X14562985Y-4412582D01*
X14515441Y-4403125D01*
X14484258Y-4382290D01*
X14476000Y-4355067D01*
X14476000Y-3605330D01*
X14490351Y-3570683D01*
X14760080Y-3300953D01*
X14760083Y-3300952D01*
X14766972Y-3294063D01*
X14766973Y-3294063D01*
X14825063Y-3235973D01*
X14850292Y-3175063D01*
X14856500Y-3160076D01*
X14856500Y-3077924D01*
X14856500Y-2865335D01*
X14870852Y-2830687D01*
X14905500Y-2816335D01*
X14935330Y-2826461D01*
G37*
%TD.AperFunction*%
%TA.AperFunction,Conductor*%
G36*
X8610648Y-514352D02*
G01*
X8625000Y-549000D01*
X8625000Y-817157D01*
X10124999Y-2317156D01*
X11624999Y-817156D01*
X11624999Y-549000D01*
X11639351Y-514352D01*
X11673999Y-500000D01*
X19538311Y-500000D01*
X19572959Y-514352D01*
X19587311Y-549000D01*
X19572959Y-583648D01*
X19557062Y-594270D01*
X19514463Y-611914D01*
X19514464Y-611915D01*
X19483027Y-624936D01*
X19453982Y-653981D01*
X19424937Y-683027D01*
X19424936Y-683028D01*
X18483028Y-1624936D01*
X18483027Y-1624937D01*
X18468468Y-1639496D01*
X18424936Y-1683027D01*
X18411915Y-1714464D01*
X18393499Y-1758922D01*
X18393499Y-1846776D01*
X18393500Y-1846785D01*
X18393500Y-3494169D01*
X18379148Y-3528817D01*
X18283317Y-3624648D01*
X18248669Y-3639000D01*
X17313422Y-3639000D01*
X17296192Y-3646138D01*
X17296191Y-3646138D01*
X17237527Y-3670437D01*
X17179437Y-3728527D01*
X17179436Y-3728528D01*
X16761818Y-4146147D01*
X16727170Y-4160499D01*
X16674976Y-4160499D01*
X16639742Y-4175095D01*
X16599080Y-4191937D01*
X16577643Y-4213375D01*
X16540991Y-4250027D01*
X16413526Y-4377492D01*
X16405867Y-4385150D01*
X16371222Y-4399500D01*
X16302792Y-4399500D01*
X16237013Y-4412583D01*
X16176772Y-4452835D01*
X16139989Y-4460151D01*
X16122326Y-4452835D01*
X16062792Y-4413055D01*
X16050000Y-4410510D01*
X16050000Y-5539488D01*
X16062791Y-5536944D01*
X16117277Y-5500538D01*
X16154059Y-5493221D01*
X16185242Y-5514057D01*
X16193500Y-5541280D01*
X16193500Y-5658718D01*
X16179148Y-5693366D01*
X16144500Y-5707718D01*
X16117278Y-5699460D01*
X16062794Y-5663056D01*
X16050000Y-5660510D01*
X16050000Y-6789488D01*
X16062790Y-6786944D01*
X16122325Y-6747164D01*
X16159107Y-6739847D01*
X16176770Y-6747163D01*
X16237014Y-6787417D01*
X16302789Y-6800500D01*
X16497210Y-6800499D01*
X16562986Y-6787417D01*
X16622777Y-6747465D01*
X16659560Y-6740150D01*
X16677222Y-6747465D01*
X16737014Y-6787417D01*
X16802789Y-6800500D01*
X16997210Y-6800499D01*
X17062986Y-6787417D01*
X17137577Y-6737577D01*
X17187417Y-6662986D01*
X17200500Y-6597211D01*
X17200499Y-5852790D01*
X17187417Y-5787014D01*
X17137577Y-5712423D01*
X17137576Y-5712421D01*
X17128276Y-5706207D01*
X17107441Y-5675024D01*
X17106500Y-5665466D01*
X17106500Y-5534532D01*
X17120852Y-5499884D01*
X17128276Y-5493791D01*
X17137577Y-5487577D01*
X17187417Y-5412986D01*
X17200500Y-5347211D01*
X17200499Y-4711830D01*
X17214851Y-4677183D01*
X17586683Y-4305352D01*
X17621331Y-4291000D01*
X18468715Y-4291000D01*
X18468723Y-4291001D01*
X18474424Y-4291001D01*
X18556574Y-4291001D01*
X18556576Y-4291001D01*
X18601051Y-4272578D01*
X18632473Y-4259563D01*
X18690563Y-4201473D01*
X18690563Y-4201472D01*
X18697452Y-4194583D01*
X18697453Y-4194580D01*
X19671183Y-3220852D01*
X19705831Y-3206500D01*
X21853215Y-3206500D01*
X21853223Y-3206501D01*
X21858924Y-3206501D01*
X21941074Y-3206501D01*
X21941076Y-3206501D01*
X21991186Y-3185744D01*
X22016973Y-3175063D01*
X22075063Y-3116973D01*
X22075063Y-3116972D01*
X22081952Y-3110083D01*
X22081954Y-3110080D01*
X22303035Y-2888998D01*
X22337682Y-2874647D01*
X22356430Y-2878376D01*
X22493238Y-2935044D01*
X22650000Y-2955682D01*
X22806762Y-2935044D01*
X22952841Y-2874536D01*
X23078282Y-2778282D01*
X23174536Y-2652841D01*
X23235044Y-2506762D01*
X23250367Y-2390371D01*
X23269117Y-2357894D01*
X23305342Y-2348187D01*
X23333595Y-2362120D01*
X23635148Y-2663672D01*
X23649500Y-2698320D01*
X23649500Y-3522477D01*
X23687015Y-3662483D01*
X23687016Y-3662487D01*
X23751126Y-3773526D01*
X23759491Y-3788015D01*
X23861985Y-3890509D01*
X23907930Y-3917035D01*
X23987512Y-3962983D01*
X23987514Y-3962983D01*
X23987515Y-3962984D01*
X24014867Y-3970313D01*
X24127522Y-4000500D01*
X24127525Y-4000500D01*
X24272477Y-4000500D01*
X24342480Y-3981742D01*
X24412485Y-3962984D01*
X24538015Y-3890509D01*
X24640509Y-3788015D01*
X24712984Y-3662485D01*
X24740001Y-3561657D01*
X24750500Y-3522477D01*
X24750500Y-2377522D01*
X24719008Y-2259996D01*
X24712984Y-2237515D01*
X24712983Y-2237514D01*
X24712983Y-2237512D01*
X24676855Y-2174938D01*
X24640510Y-2111986D01*
X24242988Y-1714464D01*
X23823020Y-1294495D01*
X23818794Y-1289676D01*
X23728282Y-1171718D01*
X23728281Y-1171717D01*
X23602841Y-1075464D01*
X23602836Y-1075461D01*
X23456761Y-1014955D01*
X23300000Y-994318D01*
X23143238Y-1014955D01*
X22997163Y-1075461D01*
X22997158Y-1075464D01*
X22871718Y-1171717D01*
X22871717Y-1171718D01*
X22775464Y-1297158D01*
X22775461Y-1297163D01*
X22714955Y-1443238D01*
X22698581Y-1567619D01*
X22679829Y-1600097D01*
X22643604Y-1609804D01*
X22611126Y-1591052D01*
X22601419Y-1567619D01*
X22585044Y-1443238D01*
X22524538Y-1297163D01*
X22524535Y-1297158D01*
X22428282Y-1171718D01*
X22428281Y-1171717D01*
X22302841Y-1075464D01*
X22302839Y-1075463D01*
X22236749Y-1048087D01*
X22210231Y-1021568D01*
X22206501Y-1002817D01*
X22206501Y-958924D01*
X22188084Y-914465D01*
X22188083Y-914462D01*
X22175063Y-883028D01*
X22175062Y-883026D01*
X22116973Y-824937D01*
X22116971Y-824936D01*
X22114180Y-822145D01*
X22114180Y-822144D01*
X22114176Y-822141D01*
X21981955Y-689920D01*
X21981955Y-689919D01*
X21916975Y-624938D01*
X21916973Y-624937D01*
X21885535Y-611915D01*
X21842937Y-594270D01*
X21816419Y-567751D01*
X21816419Y-530248D01*
X21842938Y-503730D01*
X21861689Y-500000D01*
X25500500Y-500000D01*
X25535148Y-514352D01*
X25549500Y-549000D01*
X25549500Y-33300500D01*
X25535148Y-33335148D01*
X25500500Y-33349500D01*
X12323057Y-33349500D01*
X12288409Y-33335148D01*
X12274057Y-33300500D01*
X12288409Y-33265852D01*
X12328045Y-33226214D01*
X12469979Y-33084280D01*
X12504626Y-33069929D01*
X12510281Y-33070256D01*
X12512377Y-33070500D01*
X12867622Y-33070499D01*
X12891498Y-33067730D01*
X12989141Y-33024616D01*
X13064616Y-32949141D01*
X13107730Y-32851498D01*
X13107730Y-32851496D01*
X13107731Y-32851494D01*
X13110498Y-32827640D01*
X13110497Y-32827640D01*
X13110500Y-32827623D01*
X13110499Y-32372378D01*
X13107730Y-32348502D01*
X13064616Y-32250859D01*
X13064615Y-32250858D01*
X13064615Y-32250857D01*
X12989142Y-32175384D01*
X12891500Y-32132270D01*
X12891494Y-32132268D01*
X12867640Y-32129501D01*
X12867625Y-32129500D01*
X12867623Y-32129500D01*
X12867620Y-32129500D01*
X12512382Y-32129500D01*
X12512373Y-32129501D01*
X12488500Y-32132270D01*
X12390857Y-32175384D01*
X12315384Y-32250857D01*
X12272270Y-32348499D01*
X12272268Y-32348505D01*
X12269501Y-32372359D01*
X12269500Y-32372379D01*
X12269500Y-32555942D01*
X12255148Y-32590590D01*
X11910591Y-32935148D01*
X11875943Y-32949500D01*
X5724057Y-32949500D01*
X5689409Y-32935148D01*
X5659795Y-32905534D01*
X5645443Y-32870886D01*
X5645940Y-32863927D01*
X5655133Y-32800000D01*
X5655133Y-32799997D01*
X5636698Y-32671776D01*
X5599621Y-32590590D01*
X5582882Y-32553937D01*
X5498049Y-32456033D01*
X5389069Y-32385996D01*
X5389066Y-32385995D01*
X5264776Y-32349500D01*
X5264772Y-32349500D01*
X5135228Y-32349500D01*
X5135223Y-32349500D01*
X5010933Y-32385995D01*
X4901950Y-32456033D01*
X4817119Y-32553936D01*
X4817118Y-32553936D01*
X4763301Y-32671776D01*
X4744867Y-32799997D01*
X4744867Y-32800002D01*
X4763301Y-32928223D01*
X4807323Y-33024615D01*
X4817118Y-33046063D01*
X4901951Y-33143967D01*
X5010931Y-33214004D01*
X5080093Y-33234311D01*
X5135223Y-33250499D01*
X5135228Y-33250500D01*
X5264765Y-33250500D01*
X5264772Y-33250500D01*
X5264778Y-33250498D01*
X5267994Y-33250035D01*
X5304334Y-33259302D01*
X5309626Y-33263887D01*
X5311591Y-33265852D01*
X5325943Y-33300500D01*
X5311591Y-33335148D01*
X5276943Y-33349500D01*
X2549000Y-33349500D01*
X2514352Y-33335148D01*
X2500000Y-33300500D01*
X2500000Y-28000000D01*
X3644341Y-28000000D01*
X3664937Y-28235410D01*
X3664938Y-28235416D01*
X3726094Y-28463655D01*
X3726095Y-28463660D01*
X3825963Y-28677828D01*
X3825970Y-28677840D01*
X3961500Y-28871395D01*
X3961506Y-28871402D01*
X4128597Y-29038493D01*
X4128604Y-29038499D01*
X4322159Y-29174029D01*
X4322171Y-29174036D01*
X4536339Y-29273904D01*
X4536344Y-29273905D01*
X4764583Y-29335061D01*
X4764587Y-29335061D01*
X4764592Y-29335063D01*
X5000000Y-29355659D01*
X5235408Y-29335063D01*
X5235414Y-29335061D01*
X5235416Y-29335061D01*
X5349535Y-29304483D01*
X5463657Y-29273904D01*
X5463660Y-29273904D01*
X5463660Y-29273903D01*
X5463663Y-29273903D01*
X5677830Y-29174035D01*
X5677831Y-29174034D01*
X5677840Y-29174029D01*
X5871395Y-29038499D01*
X5871401Y-29038495D01*
X6038495Y-28871401D01*
X6082943Y-28807923D01*
X6160362Y-28697358D01*
X6191991Y-28677207D01*
X6228605Y-28685325D01*
X6248756Y-28716954D01*
X6249500Y-28725463D01*
X6249500Y-29922477D01*
X6287015Y-30062483D01*
X6287016Y-30062487D01*
X6359491Y-30188015D01*
X6461985Y-30290509D01*
X6469284Y-30294723D01*
X6587512Y-30362983D01*
X6587514Y-30362983D01*
X6587515Y-30362984D01*
X6622517Y-30372363D01*
X6727522Y-30400500D01*
X6727525Y-30400500D01*
X6872477Y-30400500D01*
X6942480Y-30381742D01*
X7012485Y-30362984D01*
X7138015Y-30290509D01*
X7240509Y-30188015D01*
X7312984Y-30062485D01*
X7331742Y-29992480D01*
X7350500Y-29922477D01*
X7350500Y-27244170D01*
X7318422Y-27124457D01*
X7312984Y-27104163D01*
X7296724Y-27076000D01*
X7240510Y-26978633D01*
X6121367Y-25859490D01*
X6121364Y-25859488D01*
X6121360Y-25859485D01*
X6018328Y-25800000D01*
X7944867Y-25800000D01*
X7947769Y-25820187D01*
X7949001Y-25828751D01*
X7949500Y-25835725D01*
X7949500Y-26564273D01*
X7949001Y-26571246D01*
X7944867Y-26599998D01*
X7944867Y-26600001D01*
X7949001Y-26628751D01*
X7949500Y-26635725D01*
X7949500Y-27764273D01*
X7949001Y-27771246D01*
X7944867Y-27799998D01*
X7944867Y-27800001D01*
X7945839Y-27806761D01*
X7948228Y-27823379D01*
X7949001Y-27828751D01*
X7949500Y-27835725D01*
X7949500Y-27859310D01*
X7957147Y-27887848D01*
X7958318Y-27893557D01*
X7963303Y-27928227D01*
X7972886Y-27949211D01*
X7975644Y-27956883D01*
X7980200Y-27973885D01*
X7980202Y-27973889D01*
X7997954Y-28004637D01*
X8000091Y-28008781D01*
X8017118Y-28046063D01*
X8017118Y-28046064D01*
X8028301Y-28058969D01*
X8033705Y-28066558D01*
X8039507Y-28076608D01*
X8039509Y-28076610D01*
X8039511Y-28076614D01*
X8039514Y-28076617D01*
X8068822Y-28105925D01*
X8071206Y-28108485D01*
X8101951Y-28143967D01*
X8111270Y-28149956D01*
X8119425Y-28156528D01*
X8723386Y-28760489D01*
X8826113Y-28819799D01*
X8850326Y-28826286D01*
X8869787Y-28831500D01*
X8886932Y-28839956D01*
X8997159Y-28924536D01*
X8997161Y-28924536D01*
X8997163Y-28924538D01*
X9039470Y-28942062D01*
X9143238Y-28985044D01*
X9300000Y-29005682D01*
X9456762Y-28985044D01*
X9602841Y-28924536D01*
X9728282Y-28828282D01*
X9824536Y-28702841D01*
X9885044Y-28556762D01*
X9901419Y-28432379D01*
X9920171Y-28399902D01*
X9956396Y-28390195D01*
X9988874Y-28408947D01*
X9998581Y-28432380D01*
X10014955Y-28556761D01*
X10075461Y-28702836D01*
X10075464Y-28702841D01*
X10170185Y-28826285D01*
X10171718Y-28828282D01*
X10297159Y-28924536D01*
X10297161Y-28924536D01*
X10297163Y-28924538D01*
X10339470Y-28942062D01*
X10443238Y-28985044D01*
X10600000Y-29005682D01*
X10756762Y-28985044D01*
X10902841Y-28924536D01*
X11028282Y-28828282D01*
X11124536Y-28702841D01*
X11185044Y-28556762D01*
X11201671Y-28430460D01*
X11220422Y-28397983D01*
X11256647Y-28388276D01*
X11289126Y-28407027D01*
X11298833Y-28430461D01*
X11315443Y-28556630D01*
X11357936Y-28659218D01*
X11357937Y-28659218D01*
X11600000Y-28417155D01*
X11600000Y-28439496D01*
X11620444Y-28515796D01*
X11659940Y-28584205D01*
X11715795Y-28640060D01*
X11784204Y-28679556D01*
X11860504Y-28700000D01*
X11882843Y-28700000D01*
X11640780Y-28942061D01*
X11743371Y-28984556D01*
X11900000Y-29005176D01*
X12056628Y-28984556D01*
X12056632Y-28984555D01*
X12159218Y-28942062D01*
X12159218Y-28942061D01*
X11917157Y-28700000D01*
X11939496Y-28700000D01*
X12015796Y-28679556D01*
X12084205Y-28640060D01*
X12140060Y-28584205D01*
X12179556Y-28515796D01*
X12200000Y-28439496D01*
X12200000Y-28417157D01*
X12442061Y-28659218D01*
X12442062Y-28659218D01*
X12484555Y-28556632D01*
X12484556Y-28556628D01*
X12505176Y-28400000D01*
X12484556Y-28243371D01*
X12442061Y-28140780D01*
X12200000Y-28382841D01*
X12200000Y-28360504D01*
X12179556Y-28284204D01*
X12140060Y-28215795D01*
X12084205Y-28159940D01*
X12015796Y-28120444D01*
X11939496Y-28100000D01*
X11917157Y-28100000D01*
X12159218Y-27857937D01*
X12159218Y-27857936D01*
X12056630Y-27815443D01*
X11899999Y-27794823D01*
X11899992Y-27794823D01*
X11898797Y-27794980D01*
X11898212Y-27794823D01*
X11896789Y-27794823D01*
X11896789Y-27794441D01*
X11862574Y-27785265D01*
X11843831Y-27752782D01*
X11843831Y-27740010D01*
X11855682Y-27650000D01*
X11835044Y-27493238D01*
X11774536Y-27347159D01*
X11678282Y-27221718D01*
X11657228Y-27205563D01*
X11552841Y-27125464D01*
X11552836Y-27125461D01*
X11406761Y-27064955D01*
X11250000Y-27044318D01*
X11093238Y-27064955D01*
X10947163Y-27125461D01*
X10885329Y-27172908D01*
X10849104Y-27182614D01*
X10816625Y-27163862D01*
X10806500Y-27134033D01*
X10806500Y-27074831D01*
X10820852Y-27040183D01*
X11120683Y-26740352D01*
X11155331Y-26726000D01*
X12244669Y-26726000D01*
X12279317Y-26740352D01*
X12972641Y-27433676D01*
X12972644Y-27433680D01*
X12972645Y-27433680D01*
X12975436Y-27436471D01*
X12975437Y-27436473D01*
X13033527Y-27494563D01*
X13064962Y-27507583D01*
X13064964Y-27507585D01*
X13064964Y-27507584D01*
X13109424Y-27526001D01*
X13109425Y-27526001D01*
X13197277Y-27526001D01*
X13197285Y-27526000D01*
X14402715Y-27526000D01*
X14402723Y-27526001D01*
X14408424Y-27526001D01*
X14490575Y-27526001D01*
X14490576Y-27526001D01*
X14535035Y-27507584D01*
X14566473Y-27494563D01*
X14624563Y-27436473D01*
X14624563Y-27436472D01*
X14631452Y-27429583D01*
X14631454Y-27429580D01*
X15343080Y-26717954D01*
X15343083Y-26717952D01*
X15349972Y-26711063D01*
X15349973Y-26711063D01*
X15408063Y-26652973D01*
X15430292Y-26599305D01*
X15439500Y-26577076D01*
X15439500Y-26494924D01*
X15439500Y-25897830D01*
X15453849Y-25863185D01*
X15510082Y-25806951D01*
X15510085Y-25806950D01*
X15516972Y-25800063D01*
X15516973Y-25800063D01*
X15575063Y-25741973D01*
X15584576Y-25719005D01*
X15588517Y-25709492D01*
X15588517Y-25709491D01*
X15592181Y-25700645D01*
X15606501Y-25666076D01*
X15606501Y-25583924D01*
X15606501Y-25579981D01*
X15606500Y-25579967D01*
X15606500Y-25491280D01*
X15620852Y-25456632D01*
X15655500Y-25442280D01*
X15682723Y-25450538D01*
X15737209Y-25486944D01*
X15737208Y-25486944D01*
X15749999Y-25489488D01*
X15750000Y-25489488D01*
X15750000Y-24360510D01*
X15737205Y-24363056D01*
X15682722Y-24399460D01*
X15645940Y-24406776D01*
X15614758Y-24385940D01*
X15606500Y-24358718D01*
X15606500Y-24241280D01*
X15620852Y-24206632D01*
X15655500Y-24192280D01*
X15682723Y-24200538D01*
X15737209Y-24236944D01*
X15737208Y-24236944D01*
X15749999Y-24239488D01*
X15750000Y-24239488D01*
X15750000Y-23110510D01*
X15737205Y-23113056D01*
X15677672Y-23152834D01*
X15640890Y-23160150D01*
X15623228Y-23152834D01*
X15562987Y-23112583D01*
X15546542Y-23109312D01*
X15497211Y-23099500D01*
X15497208Y-23099500D01*
X15302791Y-23099500D01*
X15237013Y-23112583D01*
X15237010Y-23112584D01*
X15177222Y-23152533D01*
X15140440Y-23159849D01*
X15122778Y-23152533D01*
X15062987Y-23112583D01*
X15046542Y-23109312D01*
X14997211Y-23099500D01*
X14997208Y-23099500D01*
X14802791Y-23099500D01*
X14737013Y-23112583D01*
X14662422Y-23162422D01*
X14612583Y-23237013D01*
X14612583Y-23237014D01*
X14599500Y-23302789D01*
X14599500Y-23302790D01*
X14599500Y-23302792D01*
X14599500Y-24047208D01*
X14612583Y-24112986D01*
X14662420Y-24187574D01*
X14662423Y-24187577D01*
X14671721Y-24193789D01*
X14692558Y-24224971D01*
X14693500Y-24234532D01*
X14693500Y-24365466D01*
X14679148Y-24400114D01*
X14671724Y-24406207D01*
X14662423Y-24412421D01*
X14612583Y-24487013D01*
X14612583Y-24487014D01*
X14599500Y-24552789D01*
X14599500Y-24552790D01*
X14599500Y-24552792D01*
X14599500Y-25297208D01*
X14612583Y-25362986D01*
X14662420Y-25437574D01*
X14662423Y-25437577D01*
X14671721Y-25443789D01*
X14692558Y-25474971D01*
X14693500Y-25484532D01*
X14693500Y-26425169D01*
X14679148Y-26459817D01*
X14279317Y-26859648D01*
X14244669Y-26874000D01*
X13355331Y-26874000D01*
X13320683Y-26859648D01*
X12631455Y-26170420D01*
X12631455Y-26170419D01*
X12566475Y-26105438D01*
X12566473Y-26105437D01*
X12535035Y-26092415D01*
X12490577Y-26073999D01*
X12490576Y-26073999D01*
X12408424Y-26073999D01*
X12402723Y-26073999D01*
X12402715Y-26074000D01*
X10909419Y-26074000D01*
X10900913Y-26077525D01*
X10900911Y-26077526D01*
X10833527Y-26105437D01*
X10775437Y-26163527D01*
X10185938Y-26753025D01*
X10185935Y-26753030D01*
X10180503Y-26766146D01*
X10180502Y-26766148D01*
X10154498Y-26828923D01*
X10154498Y-26916777D01*
X10154499Y-26916786D01*
X10154499Y-27015366D01*
X10140147Y-27050014D01*
X10105499Y-27064366D01*
X10099104Y-27063947D01*
X9950000Y-27044318D01*
X9793238Y-27064955D01*
X9647163Y-27125461D01*
X9647158Y-27125464D01*
X9521718Y-27221717D01*
X9521717Y-27221718D01*
X9425464Y-27347158D01*
X9425461Y-27347163D01*
X9364955Y-27493238D01*
X9344318Y-27650000D01*
X9356099Y-27739488D01*
X9346392Y-27775714D01*
X9313914Y-27794465D01*
X9301134Y-27794466D01*
X9300008Y-27794318D01*
X9300001Y-27794318D01*
X9300000Y-27794318D01*
X9294972Y-27794980D01*
X9143238Y-27814955D01*
X9109012Y-27829132D01*
X9071509Y-27829132D01*
X9055613Y-27818510D01*
X8864852Y-27627749D01*
X8850500Y-27593101D01*
X8850500Y-26635725D01*
X8850999Y-26628751D01*
X8855133Y-26600001D01*
X8855133Y-26599998D01*
X8850999Y-26571246D01*
X8850500Y-26564273D01*
X8850500Y-25835725D01*
X8850999Y-25828751D01*
X8852231Y-25820187D01*
X8855133Y-25800000D01*
X8853515Y-25788749D01*
X8850999Y-25771246D01*
X8850500Y-25764273D01*
X8850500Y-25740691D01*
X8842851Y-25712148D01*
X8841682Y-25706453D01*
X8836697Y-25671774D01*
X8827111Y-25650784D01*
X8824355Y-25643120D01*
X8819799Y-25626114D01*
X8802035Y-25595347D01*
X8799907Y-25591218D01*
X8797295Y-25585499D01*
X8782882Y-25553937D01*
X8771697Y-25541029D01*
X8766292Y-25533438D01*
X8760493Y-25523393D01*
X8760490Y-25523390D01*
X8760489Y-25523387D01*
X8731182Y-25494080D01*
X8728798Y-25491520D01*
X8722469Y-25484216D01*
X8698049Y-25456033D01*
X8698048Y-25456032D01*
X8698046Y-25456031D01*
X8688727Y-25450042D01*
X8680570Y-25443468D01*
X8676616Y-25439514D01*
X8676613Y-25439511D01*
X8676609Y-25439509D01*
X8676607Y-25439507D01*
X8635581Y-25415821D01*
X8633590Y-25414608D01*
X8633581Y-25414602D01*
X8589069Y-25385996D01*
X8589066Y-25385995D01*
X8589064Y-25385994D01*
X8584209Y-25384568D01*
X8576855Y-25381419D01*
X8576851Y-25381429D01*
X8573886Y-25380201D01*
X8522360Y-25366394D01*
X8521238Y-25366079D01*
X8464776Y-25349500D01*
X8464772Y-25349500D01*
X8335228Y-25349500D01*
X8335221Y-25349500D01*
X8278769Y-25366076D01*
X8277648Y-25366391D01*
X8226117Y-25380199D01*
X8223151Y-25381428D01*
X8223146Y-25381418D01*
X8215785Y-25384570D01*
X8210936Y-25385994D01*
X8210926Y-25385998D01*
X8166415Y-25414602D01*
X8164427Y-25415814D01*
X8123385Y-25439512D01*
X8123381Y-25439515D01*
X8119423Y-25443473D01*
X8111271Y-25450042D01*
X8101952Y-25456031D01*
X8101949Y-25456033D01*
X8071205Y-25491514D01*
X8068824Y-25494072D01*
X8039512Y-25523386D01*
X8039507Y-25523393D01*
X8033703Y-25533445D01*
X8028302Y-25541028D01*
X8017119Y-25553936D01*
X8017116Y-25553940D01*
X8000092Y-25591215D01*
X7997957Y-25595356D01*
X7980202Y-25626109D01*
X7980200Y-25626115D01*
X7975643Y-25643120D01*
X7972886Y-25650789D01*
X7963303Y-25671773D01*
X7958319Y-25706435D01*
X7957149Y-25712141D01*
X7949500Y-25740691D01*
X7949500Y-25764273D01*
X7949001Y-25771246D01*
X7946485Y-25788749D01*
X7944867Y-25800000D01*
X6018328Y-25800000D01*
X5995839Y-25787016D01*
X5995836Y-25787015D01*
X5980950Y-25783027D01*
X5980949Y-25783026D01*
X5967130Y-25779323D01*
X5945167Y-25766642D01*
X5888016Y-25709491D01*
X5888008Y-25709485D01*
X5762487Y-25637016D01*
X5762483Y-25637015D01*
X5622478Y-25599500D01*
X5622475Y-25599500D01*
X5148321Y-25599500D01*
X5113673Y-25585148D01*
X4764852Y-25236327D01*
X4750500Y-25201679D01*
X4750500Y-24577522D01*
X4712984Y-24437516D01*
X4712983Y-24437512D01*
X4662168Y-24349500D01*
X4640509Y-24311985D01*
X4538015Y-24209491D01*
X4516664Y-24197164D01*
X4412487Y-24137016D01*
X4412483Y-24137015D01*
X4272478Y-24099500D01*
X4272475Y-24099500D01*
X4127525Y-24099500D01*
X4127522Y-24099500D01*
X3987516Y-24137015D01*
X3987512Y-24137016D01*
X3861984Y-24209491D01*
X3861984Y-24209492D01*
X3759492Y-24311984D01*
X3759491Y-24311984D01*
X3687016Y-24437512D01*
X3687015Y-24437516D01*
X3649500Y-24577522D01*
X3649500Y-25522476D01*
X3657929Y-25553933D01*
X3664905Y-25579967D01*
X3666388Y-25585499D01*
X3666388Y-25585500D01*
X3687014Y-25662481D01*
X3687015Y-25662483D01*
X3687016Y-25662485D01*
X3692379Y-25671774D01*
X3759485Y-25788008D01*
X3759489Y-25788013D01*
X3759490Y-25788015D01*
X4109490Y-26138015D01*
X4561985Y-26590510D01*
X4561986Y-26590511D01*
X4561988Y-26590512D01*
X4577222Y-26599307D01*
X4611807Y-26619274D01*
X4634638Y-26649027D01*
X4629744Y-26686209D01*
X4599991Y-26709040D01*
X4599990Y-26709040D01*
X4536345Y-26726093D01*
X4536339Y-26726095D01*
X4322172Y-26825963D01*
X4322160Y-26825971D01*
X4128604Y-26961500D01*
X4128597Y-26961506D01*
X3961506Y-27128597D01*
X3961500Y-27128604D01*
X3825971Y-27322160D01*
X3825963Y-27322172D01*
X3726095Y-27536339D01*
X3726094Y-27536344D01*
X3664938Y-27764583D01*
X3664937Y-27764589D01*
X3644341Y-28000000D01*
X2500000Y-28000000D01*
X2500000Y-23926034D01*
X2514352Y-23891386D01*
X2549000Y-23877034D01*
X2571245Y-23882375D01*
X2674849Y-23935163D01*
X2768519Y-23949999D01*
X4100000Y-23949999D01*
X4500000Y-23949999D01*
X5831479Y-23949999D01*
X5925147Y-23935165D01*
X6038038Y-23877645D01*
X6038045Y-23877640D01*
X6127640Y-23788045D01*
X6127645Y-23788038D01*
X6185163Y-23675150D01*
X6200000Y-23581480D01*
X6200000Y-23200000D01*
X4500000Y-23200000D01*
X4500000Y-23949999D01*
X4100000Y-23949999D01*
X4100000Y-22800000D01*
X4500000Y-22800000D01*
X6199999Y-22800000D01*
X6199999Y-22727522D01*
X6649500Y-22727522D01*
X6649500Y-22872477D01*
X6687015Y-23012483D01*
X6687016Y-23012487D01*
X6759485Y-23138008D01*
X6759488Y-23138012D01*
X6759490Y-23138015D01*
X7061985Y-23440510D01*
X7061988Y-23440511D01*
X7061991Y-23440514D01*
X7187512Y-23512983D01*
X7187514Y-23512983D01*
X7187515Y-23512984D01*
X7222517Y-23522363D01*
X7327522Y-23550500D01*
X7327525Y-23550500D01*
X7327526Y-23550500D01*
X7472474Y-23550500D01*
X7752738Y-23550500D01*
X7787386Y-23564852D01*
X7801135Y-23591836D01*
X7814353Y-23675303D01*
X7871945Y-23788335D01*
X7871950Y-23788342D01*
X7961657Y-23878049D01*
X7961664Y-23878054D01*
X8074691Y-23935644D01*
X8074692Y-23935644D01*
X8074696Y-23935646D01*
X8168481Y-23950500D01*
X9710258Y-23950499D01*
X9744906Y-23964851D01*
X9935148Y-24155093D01*
X9949500Y-24189741D01*
X9949500Y-24664072D01*
X9974497Y-24789737D01*
X9974498Y-24789742D01*
X9974499Y-24789744D01*
X10023535Y-24908127D01*
X10094724Y-25014669D01*
X10185331Y-25105276D01*
X10291873Y-25176465D01*
X10410256Y-25225501D01*
X10535931Y-25250500D01*
X10664069Y-25250500D01*
X10789744Y-25225501D01*
X10908127Y-25176465D01*
X11014669Y-25105276D01*
X11105276Y-25014669D01*
X11176465Y-24908127D01*
X11225501Y-24789744D01*
X11250500Y-24664069D01*
X11250500Y-23989343D01*
X11264852Y-23954695D01*
X11291836Y-23940946D01*
X11325304Y-23935646D01*
X11429854Y-23882375D01*
X11438335Y-23878054D01*
X11438337Y-23878052D01*
X11438342Y-23878050D01*
X11528050Y-23788342D01*
X11528054Y-23788335D01*
X11585644Y-23675309D01*
X11585644Y-23675307D01*
X11585646Y-23675304D01*
X11600500Y-23581519D01*
X11600499Y-22418482D01*
X11585646Y-22324696D01*
X11566447Y-22287016D01*
X11528054Y-22211664D01*
X11528049Y-22211657D01*
X11438342Y-22121950D01*
X11438335Y-22121945D01*
X11325308Y-22064355D01*
X11325305Y-22064354D01*
X11325304Y-22064354D01*
X11231519Y-22049500D01*
X11231517Y-22049500D01*
X8168482Y-22049500D01*
X8074696Y-22064353D01*
X7961664Y-22121945D01*
X7961657Y-22121950D01*
X7871950Y-22211657D01*
X7871945Y-22211664D01*
X7814355Y-22324690D01*
X7814355Y-22324692D01*
X7814354Y-22324694D01*
X7814354Y-22324696D01*
X7802777Y-22397792D01*
X7801134Y-22408166D01*
X7781538Y-22440142D01*
X7752737Y-22449500D01*
X7648321Y-22449500D01*
X7613673Y-22435148D01*
X7538017Y-22359492D01*
X7538015Y-22359490D01*
X7538012Y-22359488D01*
X7538008Y-22359485D01*
X7412487Y-22287016D01*
X7412483Y-22287015D01*
X7272477Y-22249500D01*
X7272474Y-22249500D01*
X7127526Y-22249500D01*
X7127523Y-22249500D01*
X6987516Y-22287015D01*
X6987512Y-22287016D01*
X6861991Y-22359485D01*
X6861982Y-22359492D01*
X6759492Y-22461982D01*
X6759485Y-22461991D01*
X6687016Y-22587512D01*
X6687015Y-22587516D01*
X6649500Y-22727522D01*
X6199999Y-22727522D01*
X6199999Y-22418520D01*
X6185165Y-22324852D01*
X6127645Y-22211961D01*
X6127640Y-22211954D01*
X6038045Y-22122359D01*
X6038038Y-22122354D01*
X5925150Y-22064836D01*
X5831480Y-22050000D01*
X4500000Y-22050000D01*
X4500000Y-22800000D01*
X4100000Y-22800000D01*
X4100000Y-22050000D01*
X2768520Y-22050000D01*
X2674855Y-22064834D01*
X2571245Y-22117625D01*
X2533858Y-22120567D01*
X2505340Y-22096210D01*
X2500000Y-22073965D01*
X2500000Y-18899500D01*
X2514352Y-18864852D01*
X2549000Y-18850500D01*
X7411772Y-18850500D01*
X7411777Y-18850500D01*
X7833720Y-18813585D01*
X7995833Y-18785000D01*
X12650001Y-18785000D01*
X12650001Y-18799772D01*
X12658703Y-18843527D01*
X12691855Y-18893144D01*
X12741474Y-18926297D01*
X12785223Y-18934999D01*
X13133274Y-18934999D01*
X13167922Y-18949351D01*
X13182274Y-18983999D01*
X13174016Y-19011222D01*
X13109223Y-19108192D01*
X13056420Y-19235670D01*
X13056417Y-19235681D01*
X13029500Y-19371001D01*
X13029500Y-20628998D01*
X13056417Y-20764318D01*
X13056420Y-20764328D01*
X13109225Y-20891811D01*
X13113344Y-20897975D01*
X13185883Y-21006539D01*
X13283460Y-21104116D01*
X13328133Y-21133965D01*
X13398189Y-21180775D01*
X13525672Y-21233580D01*
X13525678Y-21233581D01*
X13525681Y-21233582D01*
X13661001Y-21260499D01*
X13661007Y-21260500D01*
X13798993Y-21260500D01*
X13934328Y-21233580D01*
X14061811Y-21180775D01*
X14176542Y-21104114D01*
X14274114Y-21006542D01*
X14350775Y-20891811D01*
X14403580Y-20764328D01*
X14430500Y-20628993D01*
X14430500Y-19371007D01*
X14403580Y-19235672D01*
X14350775Y-19108189D01*
X14285984Y-19011222D01*
X14274116Y-18993460D01*
X14222822Y-18942166D01*
X14208470Y-18907518D01*
X14216728Y-18880294D01*
X14241298Y-18843523D01*
X14249999Y-18799778D01*
X14250000Y-18799775D01*
X14250000Y-18785000D01*
X13988931Y-18785000D01*
X13970180Y-18781270D01*
X13934335Y-18766422D01*
X13934329Y-18766420D01*
X13934328Y-18766420D01*
X13934325Y-18766419D01*
X13934316Y-18766417D01*
X13798998Y-18739500D01*
X13798993Y-18739500D01*
X13661007Y-18739500D01*
X13661001Y-18739500D01*
X13525683Y-18766417D01*
X13525664Y-18766422D01*
X13489820Y-18781270D01*
X13471069Y-18785000D01*
X12650001Y-18785000D01*
X7995833Y-18785000D01*
X8250841Y-18740035D01*
X8250846Y-18740033D01*
X8250849Y-18740033D01*
X8659956Y-18630413D01*
X8659957Y-18630412D01*
X8659963Y-18630411D01*
X9057974Y-18485547D01*
X9441845Y-18306545D01*
X9808655Y-18094768D01*
X10155610Y-17851826D01*
X10480072Y-17579571D01*
X10779571Y-17280072D01*
X11051826Y-16955610D01*
X11294768Y-16608655D01*
X11306114Y-16589004D01*
X11346549Y-16518967D01*
X11506545Y-16241845D01*
X11685547Y-15857974D01*
X11830411Y-15459963D01*
X11830531Y-15459516D01*
X11940033Y-15050849D01*
X11940034Y-15050844D01*
X11940095Y-15050499D01*
X12013585Y-14633720D01*
X12050500Y-14211777D01*
X12050500Y-13788223D01*
X12013585Y-13366280D01*
X11940035Y-12949159D01*
X11932142Y-12919703D01*
X11830413Y-12540043D01*
X11752198Y-12325150D01*
X11685547Y-12142026D01*
X11506545Y-11758155D01*
X11476704Y-11706469D01*
X11294771Y-11391349D01*
X11294765Y-11391340D01*
X11051831Y-11044396D01*
X11051818Y-11044380D01*
X10779589Y-10719949D01*
X10779583Y-10719942D01*
X10779571Y-10719928D01*
X10642022Y-10582379D01*
X11229500Y-10582379D01*
X11229500Y-10937617D01*
X11229501Y-10937626D01*
X11232270Y-10961499D01*
X11275384Y-11059142D01*
X11350857Y-11134615D01*
X11448499Y-11177729D01*
X11448505Y-11177731D01*
X11472359Y-11180498D01*
X11472360Y-11180498D01*
X11472377Y-11180500D01*
X11927622Y-11180499D01*
X11951498Y-11177730D01*
X12049141Y-11134616D01*
X12068904Y-11114853D01*
X12103552Y-11100500D01*
X12663260Y-11100500D01*
X12684574Y-11106211D01*
X12684742Y-11105807D01*
X12687705Y-11107034D01*
X12687708Y-11107034D01*
X12687712Y-11107037D01*
X12707329Y-11112292D01*
X12729294Y-11124975D01*
X13015148Y-11410829D01*
X13029500Y-11445477D01*
X13029500Y-12428998D01*
X13056417Y-12564318D01*
X13056420Y-12564329D01*
X13109223Y-12691807D01*
X13109225Y-12691811D01*
X13139308Y-12736834D01*
X13174015Y-12788777D01*
X13181331Y-12825560D01*
X13160496Y-12856742D01*
X13133273Y-12865000D01*
X12785227Y-12865000D01*
X12741472Y-12873703D01*
X12691855Y-12906855D01*
X12658702Y-12956474D01*
X12650000Y-13000221D01*
X12650000Y-13015000D01*
X13471069Y-13015000D01*
X13489820Y-13018730D01*
X13525664Y-13033577D01*
X13525666Y-13033577D01*
X13525672Y-13033580D01*
X13592378Y-13046848D01*
X13661001Y-13060499D01*
X13661007Y-13060500D01*
X13798993Y-13060500D01*
X13934328Y-13033580D01*
X13942667Y-13030125D01*
X13970180Y-13018730D01*
X13988931Y-13015000D01*
X14249999Y-13015000D01*
X14249999Y-13000227D01*
X14241296Y-12956472D01*
X14216728Y-12919703D01*
X14209412Y-12882920D01*
X14222818Y-12857837D01*
X14274114Y-12806542D01*
X14350775Y-12691811D01*
X14379730Y-12621906D01*
X14406248Y-12595388D01*
X14443751Y-12595388D01*
X14470270Y-12621906D01*
X14474000Y-12640658D01*
X14474000Y-13377553D01*
X14459648Y-13412201D01*
X14334148Y-13537701D01*
X14299500Y-13552053D01*
X14264852Y-13537701D01*
X14250500Y-13503053D01*
X14250500Y-13500180D01*
X14250499Y-13500176D01*
X14241767Y-13456279D01*
X14241767Y-13456278D01*
X14222051Y-13426771D01*
X14214736Y-13389991D01*
X14222053Y-13372326D01*
X14241297Y-13343525D01*
X14249999Y-13299778D01*
X14250000Y-13299775D01*
X14250000Y-13285000D01*
X12650001Y-13285000D01*
X12650001Y-13299772D01*
X12658703Y-13343527D01*
X12677947Y-13372327D01*
X12685263Y-13409109D01*
X12677948Y-13426772D01*
X12658232Y-13456280D01*
X12649500Y-13500176D01*
X12649500Y-13799823D01*
X12658232Y-13843719D01*
X12658233Y-13843722D01*
X12666459Y-13856033D01*
X12677647Y-13872778D01*
X12684962Y-13909561D01*
X12677647Y-13927222D01*
X12658232Y-13956280D01*
X12649500Y-14000176D01*
X12649500Y-14299823D01*
X12658076Y-14342935D01*
X12658233Y-14343722D01*
X12662094Y-14349500D01*
X12677647Y-14372778D01*
X12684962Y-14409561D01*
X12677647Y-14427222D01*
X12658232Y-14456280D01*
X12649500Y-14500176D01*
X12649500Y-14799823D01*
X12657679Y-14840940D01*
X12650363Y-14877723D01*
X12619181Y-14898558D01*
X12609621Y-14899500D01*
X12550170Y-14899500D01*
X12458101Y-14937637D01*
X12458100Y-14937637D01*
X12231104Y-15164635D01*
X12160638Y-15235099D01*
X12160638Y-15235100D01*
X12160637Y-15235101D01*
X12160637Y-15235102D01*
X12156298Y-15245577D01*
X12122501Y-15327169D01*
X12122501Y-15876428D01*
X12108149Y-15911076D01*
X12099992Y-15917650D01*
X12074951Y-15933742D01*
X11990120Y-16031645D01*
X11990119Y-16031645D01*
X11936302Y-16149485D01*
X11917868Y-16277706D01*
X11917868Y-16277711D01*
X11936302Y-16405932D01*
X11959295Y-16456278D01*
X11990119Y-16523772D01*
X12074952Y-16621676D01*
X12183932Y-16691713D01*
X12253094Y-16712020D01*
X12308224Y-16728208D01*
X12308229Y-16728209D01*
X12437773Y-16728209D01*
X12437777Y-16728208D01*
X12538042Y-16698768D01*
X12562070Y-16691713D01*
X12574010Y-16684039D01*
X12610914Y-16677380D01*
X12641721Y-16698768D01*
X12649500Y-16725261D01*
X12649500Y-16799823D01*
X12658232Y-16843719D01*
X12658233Y-16843722D01*
X12662094Y-16849500D01*
X12677647Y-16872778D01*
X12684962Y-16909561D01*
X12677647Y-16927222D01*
X12666626Y-16943715D01*
X12658674Y-16955619D01*
X12658232Y-16956280D01*
X12649500Y-17000176D01*
X12649500Y-17299823D01*
X12656682Y-17335927D01*
X12658233Y-17343722D01*
X12671718Y-17363905D01*
X12677647Y-17372778D01*
X12684962Y-17409561D01*
X12677647Y-17427222D01*
X12658232Y-17456280D01*
X12649500Y-17500176D01*
X12649500Y-17799823D01*
X12658232Y-17843719D01*
X12658233Y-17843722D01*
X12665831Y-17855093D01*
X12677647Y-17872778D01*
X12684962Y-17909561D01*
X12677647Y-17927222D01*
X12658232Y-17956280D01*
X12649500Y-18000176D01*
X12649500Y-18299823D01*
X12658232Y-18343720D01*
X12677947Y-18373226D01*
X12685263Y-18410009D01*
X12677947Y-18427671D01*
X12658702Y-18456473D01*
X12650000Y-18500221D01*
X12650000Y-18515000D01*
X14249999Y-18515000D01*
X14249999Y-18500227D01*
X14241296Y-18456472D01*
X14241295Y-18456470D01*
X14222053Y-18427671D01*
X14214737Y-18390889D01*
X14222053Y-18373226D01*
X14241767Y-18343722D01*
X14250500Y-18299820D01*
X14250500Y-18275000D01*
X14264852Y-18240352D01*
X14299500Y-18226000D01*
X14344669Y-18226000D01*
X14379317Y-18240352D01*
X14659648Y-18520683D01*
X14674000Y-18555331D01*
X14674000Y-21273465D01*
X14673999Y-21273479D01*
X14673999Y-21359573D01*
X14688493Y-21394563D01*
X14688492Y-21394563D01*
X14688493Y-21394564D01*
X14705437Y-21435471D01*
X14705438Y-21435473D01*
X14770418Y-21500452D01*
X14770420Y-21500453D01*
X15071668Y-21801701D01*
X15086020Y-21836349D01*
X15073586Y-21866371D01*
X15074411Y-21866923D01*
X15071730Y-21870934D01*
X15053018Y-21916111D01*
X15053018Y-21916112D01*
X15040292Y-21946832D01*
X15040292Y-22034684D01*
X15040293Y-22034693D01*
X15040293Y-22077580D01*
X15040292Y-22077594D01*
X15040292Y-22081537D01*
X15040292Y-22163689D01*
X15058708Y-22208148D01*
X15071730Y-22239586D01*
X15071731Y-22239587D01*
X15071731Y-22239588D01*
X15136711Y-22304567D01*
X15136713Y-22304568D01*
X15203637Y-22371492D01*
X15203640Y-22371496D01*
X15203641Y-22371496D01*
X15206432Y-22374287D01*
X15206433Y-22374289D01*
X15240310Y-22408166D01*
X15264522Y-22432378D01*
X15264525Y-22432380D01*
X15264670Y-22432440D01*
X15295958Y-22445399D01*
X15295960Y-22445401D01*
X15295960Y-22445400D01*
X15340420Y-22463817D01*
X15340421Y-22463817D01*
X15428273Y-22463817D01*
X15428281Y-22463816D01*
X15475123Y-22463816D01*
X15475125Y-22463817D01*
X15557277Y-22463816D01*
X15583320Y-22453028D01*
X15633173Y-22432379D01*
X15633175Y-22432377D01*
X15637189Y-22429696D01*
X15637742Y-22430525D01*
X15667744Y-22418088D01*
X15702395Y-22432428D01*
X15702407Y-22432440D01*
X16293582Y-23023615D01*
X16307934Y-23058263D01*
X16293582Y-23092911D01*
X16268493Y-23106321D01*
X16237018Y-23112581D01*
X16237013Y-23112583D01*
X16176772Y-23152835D01*
X16139989Y-23160151D01*
X16122326Y-23152835D01*
X16062792Y-23113055D01*
X16050000Y-23110510D01*
X16050000Y-24239488D01*
X16062790Y-24236944D01*
X16122325Y-24197164D01*
X16159107Y-24189847D01*
X16176770Y-24197163D01*
X16237014Y-24237417D01*
X16284561Y-24246874D01*
X16315742Y-24267708D01*
X16324000Y-24294932D01*
X16324000Y-24305068D01*
X16309648Y-24339716D01*
X16284559Y-24353127D01*
X16237013Y-24362583D01*
X16176772Y-24402835D01*
X16139989Y-24410151D01*
X16122326Y-24402835D01*
X16062792Y-24363055D01*
X16050000Y-24360510D01*
X16050000Y-25489488D01*
X16062790Y-25486944D01*
X16122325Y-25447164D01*
X16159107Y-25439847D01*
X16176770Y-25447163D01*
X16237014Y-25487417D01*
X16284561Y-25496874D01*
X16315742Y-25517708D01*
X16324000Y-25544932D01*
X16324000Y-25739750D01*
X16309648Y-25774398D01*
X16275000Y-25788750D01*
X16271061Y-25788750D01*
X16271053Y-25788749D01*
X16265352Y-25788749D01*
X16183200Y-25788749D01*
X16183198Y-25788749D01*
X16138740Y-25807165D01*
X16107303Y-25820186D01*
X16091765Y-25835725D01*
X16049213Y-25878277D01*
X15953965Y-25973524D01*
X15953962Y-25973529D01*
X15944599Y-25996136D01*
X15944598Y-25996138D01*
X15922525Y-26049422D01*
X15922525Y-26137276D01*
X15922526Y-26137285D01*
X15922526Y-26235967D01*
X15922525Y-26235981D01*
X15922525Y-26322078D01*
X15936552Y-26355939D01*
X15953963Y-26397973D01*
X15953964Y-26397975D01*
X16018944Y-26462954D01*
X16018946Y-26462955D01*
X16046417Y-26490426D01*
X16046420Y-26490430D01*
X16046421Y-26490430D01*
X16049212Y-26493221D01*
X16049213Y-26493223D01*
X16107303Y-26551313D01*
X16129665Y-26560575D01*
X16129666Y-26560576D01*
X16129667Y-26560576D01*
X16183200Y-26582751D01*
X16183202Y-26582751D01*
X16271053Y-26582751D01*
X16271061Y-26582750D01*
X16275000Y-26582750D01*
X16309648Y-26597102D01*
X16324000Y-26631750D01*
X16324000Y-26763667D01*
X16309648Y-26798315D01*
X16294031Y-26813931D01*
X16294027Y-26813936D01*
X16294027Y-26813937D01*
X16294026Y-26813938D01*
X16279041Y-26828923D01*
X16235936Y-26872027D01*
X16224557Y-26899500D01*
X16204498Y-26947923D01*
X16204498Y-27015366D01*
X16190146Y-27050014D01*
X16155498Y-27064366D01*
X16149102Y-27063947D01*
X16000000Y-27044318D01*
X15843238Y-27064955D01*
X15697163Y-27125461D01*
X15697158Y-27125464D01*
X15571718Y-27221717D01*
X15571717Y-27221718D01*
X15475464Y-27347158D01*
X15475461Y-27347163D01*
X15414955Y-27493238D01*
X15394318Y-27650000D01*
X15414955Y-27806761D01*
X15475461Y-27952836D01*
X15475464Y-27952841D01*
X15556898Y-28058969D01*
X15571718Y-28078282D01*
X15697159Y-28174536D01*
X15697161Y-28174536D01*
X15697163Y-28174538D01*
X15796767Y-28215795D01*
X15843238Y-28235044D01*
X16000000Y-28255682D01*
X16001122Y-28255534D01*
X16001673Y-28255682D01*
X16003212Y-28255682D01*
X16003212Y-28256094D01*
X16037346Y-28265240D01*
X16056099Y-28297718D01*
X16056099Y-28310510D01*
X16044318Y-28399999D01*
X16064955Y-28556761D01*
X16125461Y-28702836D01*
X16125464Y-28702841D01*
X16220185Y-28826285D01*
X16221718Y-28828282D01*
X16347159Y-28924536D01*
X16347161Y-28924536D01*
X16347163Y-28924538D01*
X16389470Y-28942062D01*
X16493238Y-28985044D01*
X16650000Y-29005682D01*
X16806762Y-28985044D01*
X16952841Y-28924536D01*
X17078282Y-28828282D01*
X17174536Y-28702841D01*
X17235044Y-28556762D01*
X17251419Y-28432379D01*
X17270171Y-28399902D01*
X17306396Y-28390195D01*
X17338874Y-28408947D01*
X17348581Y-28432380D01*
X17364955Y-28556761D01*
X17425461Y-28702836D01*
X17425464Y-28702841D01*
X17520185Y-28826285D01*
X17521718Y-28828282D01*
X17647159Y-28924536D01*
X17647161Y-28924536D01*
X17647163Y-28924538D01*
X17689470Y-28942062D01*
X17793238Y-28985044D01*
X17950000Y-29005682D01*
X18106762Y-28985044D01*
X18252841Y-28924536D01*
X18378282Y-28828282D01*
X18474536Y-28702841D01*
X18535044Y-28556762D01*
X18555682Y-28400000D01*
X18543900Y-28310510D01*
X18553607Y-28274286D01*
X18586085Y-28255534D01*
X18598876Y-28255534D01*
X18600000Y-28255682D01*
X18756762Y-28235044D01*
X18902841Y-28174536D01*
X19028282Y-28078282D01*
X19124536Y-27952841D01*
X19185044Y-27806762D01*
X19205682Y-27650000D01*
X19185044Y-27493238D01*
X19124536Y-27347159D01*
X19028282Y-27221718D01*
X19007228Y-27205563D01*
X18902841Y-27125464D01*
X18902836Y-27125461D01*
X18756761Y-27064955D01*
X18620637Y-27047034D01*
X18600000Y-27044318D01*
X18599999Y-27044318D01*
X18450896Y-27063947D01*
X18414671Y-27054240D01*
X18395920Y-27021761D01*
X18395501Y-27015366D01*
X18395501Y-26951036D01*
X18395502Y-26951027D01*
X18395502Y-26863177D01*
X18395501Y-26863173D01*
X18376364Y-26816973D01*
X18371638Y-26805563D01*
X18364064Y-26787278D01*
X18305974Y-26729188D01*
X18305972Y-26729187D01*
X18303181Y-26726396D01*
X18303181Y-26726395D01*
X18303177Y-26726392D01*
X18028393Y-26451608D01*
X18014041Y-26416960D01*
X18028393Y-26382312D01*
X18063041Y-26367960D01*
X18116792Y-26367960D01*
X18116794Y-26367960D01*
X18173579Y-26344438D01*
X18192691Y-26336522D01*
X18250781Y-26278432D01*
X18250781Y-26278431D01*
X18257670Y-26271542D01*
X18257672Y-26271539D01*
X18281048Y-26248163D01*
X18281051Y-26248161D01*
X18287940Y-26241272D01*
X18287941Y-26241272D01*
X18346031Y-26183182D01*
X18362274Y-26143967D01*
X18377469Y-26107285D01*
X18377469Y-26025133D01*
X18377469Y-26021190D01*
X18377468Y-26021176D01*
X18377468Y-25922494D01*
X18377469Y-25922485D01*
X18377469Y-25834633D01*
X18371484Y-25820186D01*
X18358158Y-25788015D01*
X18346031Y-25758736D01*
X18287941Y-25700646D01*
X18285151Y-25697856D01*
X18285144Y-25697850D01*
X18257673Y-25670379D01*
X18257673Y-25670378D01*
X18192693Y-25605397D01*
X18192691Y-25605396D01*
X18161253Y-25592374D01*
X18116795Y-25573958D01*
X18116794Y-25573958D01*
X18094999Y-25573958D01*
X18060351Y-25559606D01*
X18045999Y-25524958D01*
X18060351Y-25490310D01*
X18067773Y-25484218D01*
X18137577Y-25437577D01*
X18187417Y-25362986D01*
X18200500Y-25297211D01*
X18200499Y-24552790D01*
X18187417Y-24487014D01*
X18150000Y-24431015D01*
X18137577Y-24412422D01*
X18062983Y-24362581D01*
X18015441Y-24353125D01*
X17984258Y-24332290D01*
X17976000Y-24305067D01*
X17976000Y-24294931D01*
X17990352Y-24260283D01*
X18015439Y-24246873D01*
X18062986Y-24237417D01*
X18137577Y-24187577D01*
X18187417Y-24112986D01*
X18200500Y-24047211D01*
X18200499Y-23302790D01*
X18187417Y-23237014D01*
X18150000Y-23181015D01*
X18137577Y-23162422D01*
X18062983Y-23112581D01*
X18015441Y-23103125D01*
X17984258Y-23082290D01*
X17976000Y-23055067D01*
X17976000Y-22905330D01*
X17990351Y-22870683D01*
X19137080Y-21723953D01*
X19137083Y-21723952D01*
X19143972Y-21717063D01*
X19143973Y-21717063D01*
X19202063Y-21658973D01*
X19206873Y-21647359D01*
X19215084Y-21627537D01*
X19215084Y-21627535D01*
X19221177Y-21612826D01*
X19233501Y-21583076D01*
X19233501Y-21500924D01*
X19233501Y-21496981D01*
X19233500Y-21496967D01*
X19233500Y-18616924D01*
X19220478Y-18585487D01*
X19202063Y-18541027D01*
X19143973Y-18482937D01*
X19143971Y-18482936D01*
X19141180Y-18480145D01*
X19141180Y-18480144D01*
X19141176Y-18480141D01*
X18331455Y-17670420D01*
X18331455Y-17670419D01*
X18266475Y-17605438D01*
X18266473Y-17605437D01*
X18240720Y-17594770D01*
X18214201Y-17568252D01*
X18214201Y-17530749D01*
X18240719Y-17504230D01*
X18259471Y-17500500D01*
X18419410Y-17500500D01*
X18454058Y-17514852D01*
X18466740Y-17536818D01*
X18487014Y-17612481D01*
X18487016Y-17612487D01*
X18536399Y-17698019D01*
X18559491Y-17738015D01*
X18661985Y-17840509D01*
X18687245Y-17855093D01*
X18787512Y-17912983D01*
X18787514Y-17912983D01*
X18787515Y-17912984D01*
X18822517Y-17922363D01*
X18927522Y-17950500D01*
X18927525Y-17950500D01*
X19438150Y-17950500D01*
X19465372Y-17958757D01*
X19491873Y-17976465D01*
X19491874Y-17976465D01*
X19491875Y-17976466D01*
X19610253Y-18025500D01*
X19610254Y-18025500D01*
X19610256Y-18025501D01*
X19735931Y-18050500D01*
X20100500Y-18050500D01*
X20135148Y-18064852D01*
X20149500Y-18099500D01*
X20149500Y-22338149D01*
X20141242Y-22365372D01*
X20123536Y-22391870D01*
X20074500Y-22510252D01*
X20074498Y-22510258D01*
X20071479Y-22525437D01*
X20049501Y-22635931D01*
X20049501Y-22764069D01*
X20056648Y-22800000D01*
X20074498Y-22889741D01*
X20074501Y-22889751D01*
X20123533Y-23008124D01*
X20141242Y-23034627D01*
X20149500Y-23061850D01*
X20149500Y-28038149D01*
X20141243Y-28065371D01*
X20123532Y-28091877D01*
X20081551Y-28193228D01*
X20070929Y-28209124D01*
X19378437Y-28901616D01*
X18685331Y-29594723D01*
X17809122Y-30470930D01*
X17793226Y-30481552D01*
X17768308Y-30491874D01*
X17698546Y-30520770D01*
X17679798Y-30524500D01*
X13864742Y-30524500D01*
X13830094Y-30510148D01*
X13614668Y-30294722D01*
X13508129Y-30223536D01*
X13508124Y-30223534D01*
X13422377Y-30188016D01*
X13389742Y-30174498D01*
X13389737Y-30174497D01*
X13264072Y-30149500D01*
X13264069Y-30149500D01*
X12335931Y-30149500D01*
X12335927Y-30149500D01*
X12210262Y-30174497D01*
X12210257Y-30174498D01*
X12091874Y-30223534D01*
X11985331Y-30294723D01*
X11894723Y-30385331D01*
X11823534Y-30491874D01*
X11774498Y-30610257D01*
X11774497Y-30610262D01*
X11749500Y-30735927D01*
X11749500Y-30864072D01*
X11774497Y-30989737D01*
X11774498Y-30989742D01*
X11774499Y-30989744D01*
X11823535Y-31108127D01*
X11894724Y-31214669D01*
X11985331Y-31305276D01*
X12091873Y-31376465D01*
X12210256Y-31425501D01*
X12335931Y-31450500D01*
X12910258Y-31450500D01*
X12944906Y-31464852D01*
X13160331Y-31680277D01*
X13205564Y-31710500D01*
X13266873Y-31751465D01*
X13278058Y-31756098D01*
X13279251Y-31756592D01*
X13305770Y-31783110D01*
X13309500Y-31801862D01*
X13309500Y-32299143D01*
X13305325Y-32318936D01*
X13292269Y-32348502D01*
X13292268Y-32348505D01*
X13289501Y-32372359D01*
X13289500Y-32372379D01*
X13289500Y-32827617D01*
X13289501Y-32827626D01*
X13292270Y-32851499D01*
X13335384Y-32949142D01*
X13410857Y-33024615D01*
X13508499Y-33067729D01*
X13508505Y-33067731D01*
X13532359Y-33070498D01*
X13532360Y-33070498D01*
X13532377Y-33070500D01*
X13887622Y-33070499D01*
X13911498Y-33067730D01*
X14009141Y-33024616D01*
X14084616Y-32949141D01*
X14127730Y-32851498D01*
X14127730Y-32851496D01*
X14127731Y-32851494D01*
X14130498Y-32827640D01*
X14130497Y-32827640D01*
X14130500Y-32827623D01*
X14130499Y-32372378D01*
X14127730Y-32348502D01*
X14114675Y-32318935D01*
X14110500Y-32299143D01*
X14110500Y-31874500D01*
X14124852Y-31839852D01*
X14159500Y-31825500D01*
X15005423Y-31825500D01*
X15014981Y-31826440D01*
X15135931Y-31850499D01*
X15135934Y-31850499D01*
X15264066Y-31850499D01*
X15264069Y-31850499D01*
X15385018Y-31826440D01*
X15394577Y-31825500D01*
X16405423Y-31825500D01*
X16414981Y-31826440D01*
X16535931Y-31850499D01*
X16535934Y-31850499D01*
X16664066Y-31850499D01*
X16664069Y-31850499D01*
X16785018Y-31826440D01*
X16794577Y-31825500D01*
X17805423Y-31825500D01*
X17814983Y-31826442D01*
X17909056Y-31845154D01*
X17935931Y-31850500D01*
X18064069Y-31850500D01*
X18189744Y-31825501D01*
X18308127Y-31776465D01*
X18414669Y-31705277D01*
X18530276Y-31589670D01*
X18530277Y-31589669D01*
X19605277Y-30514669D01*
X20305276Y-29814670D01*
X20305276Y-29814669D01*
X21205276Y-28914669D01*
X21205281Y-28914660D01*
X21206436Y-28913254D01*
X21213254Y-28906436D01*
X21214660Y-28905281D01*
X21214669Y-28905276D01*
X21305276Y-28814669D01*
X21376465Y-28708127D01*
X21425501Y-28589744D01*
X21450500Y-28464069D01*
X21450500Y-28335931D01*
X21450500Y-28000000D01*
X21644341Y-28000000D01*
X21664937Y-28235410D01*
X21664938Y-28235416D01*
X21726094Y-28463655D01*
X21726095Y-28463660D01*
X21825963Y-28677828D01*
X21825970Y-28677840D01*
X21961500Y-28871395D01*
X21961506Y-28871402D01*
X22128597Y-29038493D01*
X22128604Y-29038499D01*
X22322159Y-29174029D01*
X22322171Y-29174036D01*
X22536339Y-29273904D01*
X22536344Y-29273905D01*
X22764583Y-29335061D01*
X22764587Y-29335061D01*
X22764592Y-29335063D01*
X23000000Y-29355659D01*
X23235408Y-29335063D01*
X23235414Y-29335061D01*
X23235416Y-29335061D01*
X23349535Y-29304483D01*
X23463657Y-29273904D01*
X23463660Y-29273904D01*
X23463660Y-29273903D01*
X23463663Y-29273903D01*
X23677830Y-29174035D01*
X23677831Y-29174034D01*
X23677840Y-29174029D01*
X23871395Y-29038499D01*
X23871401Y-29038495D01*
X24038495Y-28871401D01*
X24082943Y-28807923D01*
X24174029Y-28677840D01*
X24174036Y-28677828D01*
X24215111Y-28589742D01*
X24273903Y-28463663D01*
X24308128Y-28335931D01*
X24335061Y-28235416D01*
X24335062Y-28235410D01*
X24335063Y-28235408D01*
X24355659Y-28000000D01*
X24335063Y-27764592D01*
X24328474Y-27740002D01*
X24273905Y-27536344D01*
X24273904Y-27536339D01*
X24174036Y-27322172D01*
X24174028Y-27322160D01*
X24038499Y-27128604D01*
X24038493Y-27128597D01*
X23871402Y-26961506D01*
X23871395Y-26961500D01*
X23677840Y-26825970D01*
X23677828Y-26825963D01*
X23463660Y-26726095D01*
X23463655Y-26726094D01*
X23235416Y-26664938D01*
X23235410Y-26664937D01*
X23000000Y-26644341D01*
X22764589Y-26664937D01*
X22764583Y-26664938D01*
X22536344Y-26726094D01*
X22536339Y-26726095D01*
X22322172Y-26825963D01*
X22322160Y-26825971D01*
X22128604Y-26961500D01*
X22128597Y-26961506D01*
X21961506Y-27128597D01*
X21961500Y-27128604D01*
X21825971Y-27322160D01*
X21825963Y-27322172D01*
X21726095Y-27536339D01*
X21726094Y-27536344D01*
X21664938Y-27764583D01*
X21664937Y-27764589D01*
X21644341Y-28000000D01*
X21450500Y-28000000D01*
X21450500Y-27935931D01*
X21450500Y-26435931D01*
X21450500Y-24835931D01*
X21450500Y-22735931D01*
X21445254Y-22709560D01*
X21445254Y-22690439D01*
X21450500Y-22664069D01*
X21450500Y-20735931D01*
X21450500Y-19035931D01*
X21450500Y-17889741D01*
X21464852Y-17855093D01*
X21479437Y-17840508D01*
X21505276Y-17814669D01*
X21576465Y-17708127D01*
X21625501Y-17589744D01*
X21650500Y-17464069D01*
X21650500Y-17335931D01*
X21625501Y-17210256D01*
X21576465Y-17091873D01*
X21505276Y-16985331D01*
X21414669Y-16894724D01*
X21412843Y-16893504D01*
X21338339Y-16843722D01*
X21308127Y-16823535D01*
X21308123Y-16823533D01*
X21189742Y-16774498D01*
X21189737Y-16774497D01*
X21064072Y-16749500D01*
X21064069Y-16749500D01*
X19735931Y-16749500D01*
X19735927Y-16749500D01*
X19610262Y-16774497D01*
X19610253Y-16774499D01*
X19491875Y-16823533D01*
X19465373Y-16841242D01*
X19438150Y-16849500D01*
X19106899Y-16849500D01*
X19072251Y-16835148D01*
X19026614Y-16789511D01*
X18923888Y-16730201D01*
X18923886Y-16730200D01*
X18809312Y-16699501D01*
X18809309Y-16699501D01*
X18789746Y-16699501D01*
X18755098Y-16685149D01*
X18740746Y-16650501D01*
X18742732Y-16636691D01*
X18743280Y-16634821D01*
X18743284Y-16634813D01*
X18761720Y-16506587D01*
X18760077Y-16495157D01*
X18743285Y-16378363D01*
X18717497Y-16321896D01*
X18689469Y-16260524D01*
X18689467Y-16260522D01*
X18688013Y-16257337D01*
X18689490Y-16256662D01*
X18683813Y-16225168D01*
X18705207Y-16194366D01*
X18731692Y-16186591D01*
X19109156Y-16186591D01*
X19143804Y-16200943D01*
X19146188Y-16203503D01*
X19179414Y-16241849D01*
X19190860Y-16255058D01*
X19299840Y-16325095D01*
X19363279Y-16343722D01*
X19424132Y-16361590D01*
X19424137Y-16361591D01*
X19553681Y-16361591D01*
X19553685Y-16361590D01*
X19574233Y-16355556D01*
X19677978Y-16325095D01*
X19786958Y-16255058D01*
X19871791Y-16157154D01*
X19925606Y-16039317D01*
X19925606Y-16039315D01*
X19925607Y-16039314D01*
X19944042Y-15911093D01*
X19944042Y-15911088D01*
X19925607Y-15782867D01*
X19918206Y-15766663D01*
X19871791Y-15665028D01*
X19786958Y-15567124D01*
X19677978Y-15497087D01*
X19675526Y-15496367D01*
X19602147Y-15474821D01*
X19572946Y-15451289D01*
X19568937Y-15414001D01*
X19591118Y-15386476D01*
X19590796Y-15385975D01*
X19592302Y-15385007D01*
X19592469Y-15384800D01*
X19593170Y-15384449D01*
X19593741Y-15384081D01*
X19593744Y-15384081D01*
X19702724Y-15314044D01*
X19787557Y-15216140D01*
X19841372Y-15098303D01*
X19841372Y-15098301D01*
X19841373Y-15098300D01*
X19859808Y-14970079D01*
X19859808Y-14970074D01*
X19841373Y-14841853D01*
X19821902Y-14799219D01*
X19787557Y-14724014D01*
X19702724Y-14626110D01*
X19593744Y-14556073D01*
X19593741Y-14556072D01*
X19469451Y-14519577D01*
X19469447Y-14519577D01*
X19339903Y-14519577D01*
X19339896Y-14519577D01*
X19271041Y-14539795D01*
X19233753Y-14535786D01*
X19210222Y-14506584D01*
X19214231Y-14469296D01*
X19220202Y-14460696D01*
X19232882Y-14446063D01*
X19286697Y-14328226D01*
X19286697Y-14328224D01*
X19286698Y-14328223D01*
X19305133Y-14200002D01*
X19305133Y-14199997D01*
X19286698Y-14071776D01*
X19279297Y-14055572D01*
X19232882Y-13953937D01*
X19148049Y-13856033D01*
X19039069Y-13785996D01*
X19039066Y-13785995D01*
X18914776Y-13749500D01*
X18914772Y-13749500D01*
X18785228Y-13749500D01*
X18785223Y-13749500D01*
X18660933Y-13785995D01*
X18660931Y-13785995D01*
X18660931Y-13785996D01*
X18639416Y-13799823D01*
X18551950Y-13856033D01*
X18467119Y-13953936D01*
X18467118Y-13953936D01*
X18413303Y-14071772D01*
X18412393Y-14078104D01*
X18398541Y-14105775D01*
X18351091Y-14153225D01*
X18316446Y-14167577D01*
X18125841Y-14167577D01*
X18038148Y-14191074D01*
X18038144Y-14191076D01*
X18036700Y-14191463D01*
X18036698Y-14191464D01*
X18036693Y-14191466D01*
X17956775Y-14237607D01*
X17956775Y-14237608D01*
X17909235Y-14285148D01*
X17874587Y-14299500D01*
X17799500Y-14299500D01*
X17764852Y-14285148D01*
X17750500Y-14250500D01*
X17750500Y-14000180D01*
X17750499Y-14000176D01*
X17741767Y-13956279D01*
X17741767Y-13956278D01*
X17722352Y-13927222D01*
X17715037Y-13890440D01*
X17722353Y-13872777D01*
X17741767Y-13843722D01*
X17750500Y-13799820D01*
X17750500Y-13500180D01*
X17741767Y-13456278D01*
X17722051Y-13426771D01*
X17714736Y-13389991D01*
X17722053Y-13372326D01*
X17741297Y-13343525D01*
X17749999Y-13299778D01*
X17750000Y-13299775D01*
X17750000Y-13285000D01*
X16150001Y-13285000D01*
X16150001Y-13299772D01*
X16158703Y-13343527D01*
X16177947Y-13372327D01*
X16185263Y-13409109D01*
X16177948Y-13426772D01*
X16158232Y-13456280D01*
X16149500Y-13500176D01*
X16149500Y-13507788D01*
X16135148Y-13542436D01*
X16100500Y-13556788D01*
X16065852Y-13542436D01*
X15940352Y-13416936D01*
X15926000Y-13382288D01*
X15926000Y-12640658D01*
X15940352Y-12606010D01*
X15975000Y-12591658D01*
X16009648Y-12606010D01*
X16020269Y-12621906D01*
X16049225Y-12691811D01*
X16080137Y-12738074D01*
X16125883Y-12806539D01*
X16177177Y-12857833D01*
X16191529Y-12892481D01*
X16183271Y-12919703D01*
X16158702Y-12956473D01*
X16150000Y-13000221D01*
X16150000Y-13015000D01*
X16411069Y-13015000D01*
X16429820Y-13018730D01*
X16465664Y-13033577D01*
X16465666Y-13033577D01*
X16465672Y-13033580D01*
X16532378Y-13046848D01*
X16601001Y-13060499D01*
X16601007Y-13060500D01*
X16738993Y-13060500D01*
X16874328Y-13033580D01*
X16882667Y-13030125D01*
X16910180Y-13018730D01*
X16928931Y-13015000D01*
X17749999Y-13015000D01*
X17749999Y-13000227D01*
X17741296Y-12956472D01*
X17708144Y-12906855D01*
X17658525Y-12873702D01*
X17614778Y-12865000D01*
X17266727Y-12865000D01*
X17232079Y-12850648D01*
X17217727Y-12816000D01*
X17225985Y-12788777D01*
X17246518Y-12758046D01*
X17290775Y-12691811D01*
X17343580Y-12564328D01*
X17370500Y-12428993D01*
X17370500Y-12231479D01*
X21050001Y-12231479D01*
X21064834Y-12325147D01*
X21122354Y-12438038D01*
X21122359Y-12438045D01*
X21211954Y-12527640D01*
X21211961Y-12527645D01*
X21324849Y-12585163D01*
X21418519Y-12599999D01*
X21799999Y-12599999D01*
X22200000Y-12599999D01*
X22581479Y-12599999D01*
X22675147Y-12585165D01*
X22788038Y-12527645D01*
X22788045Y-12527640D01*
X22877640Y-12438045D01*
X22877645Y-12438038D01*
X22935163Y-12325150D01*
X22950000Y-12231480D01*
X22950000Y-10900000D01*
X22200000Y-10900000D01*
X22200000Y-12599999D01*
X21799999Y-12599999D01*
X21800000Y-12599998D01*
X21800000Y-10900000D01*
X21050001Y-10900000D01*
X21050001Y-12231479D01*
X17370500Y-12231479D01*
X17370500Y-11171007D01*
X17370499Y-11171001D01*
X17343582Y-11035681D01*
X17343579Y-11035670D01*
X17330714Y-11004611D01*
X17290775Y-10908189D01*
X17233151Y-10821949D01*
X17214116Y-10793460D01*
X17116539Y-10695883D01*
X17080172Y-10671584D01*
X17059337Y-10640402D01*
X17062124Y-10612092D01*
X17085044Y-10556762D01*
X17105682Y-10400000D01*
X17085044Y-10243238D01*
X17050565Y-10159999D01*
X17024538Y-10097163D01*
X17024535Y-10097158D01*
X17019484Y-10090576D01*
X16928282Y-9971718D01*
X16892435Y-9944212D01*
X16802841Y-9875464D01*
X16802836Y-9875461D01*
X16656761Y-9814955D01*
X16500000Y-9794318D01*
X16343238Y-9814955D01*
X16197163Y-9875461D01*
X16197158Y-9875464D01*
X16071718Y-9971717D01*
X16071717Y-9971718D01*
X16013874Y-10047102D01*
X15981396Y-10065854D01*
X15945171Y-10056147D01*
X15926419Y-10023669D01*
X15926000Y-10017273D01*
X15926000Y-9168519D01*
X21050000Y-9168519D01*
X21050000Y-10500000D01*
X21800000Y-10500000D01*
X22200000Y-10500000D01*
X22949999Y-10500000D01*
X22949999Y-9168520D01*
X22935165Y-9074852D01*
X22877645Y-8961961D01*
X22877640Y-8961954D01*
X22788045Y-8872359D01*
X22788038Y-8872354D01*
X22675150Y-8814836D01*
X22581480Y-8800000D01*
X22200000Y-8800000D01*
X22200000Y-10500000D01*
X21800000Y-10500000D01*
X21800000Y-8800000D01*
X21418520Y-8800000D01*
X21324852Y-8814834D01*
X21211961Y-8872354D01*
X21211954Y-8872359D01*
X21122359Y-8961954D01*
X21122354Y-8961961D01*
X21064836Y-9074849D01*
X21050000Y-9168519D01*
X15926000Y-9168519D01*
X15926000Y-8916960D01*
X15940352Y-8882312D01*
X15970374Y-8869875D01*
X15970181Y-8868901D01*
X15974907Y-8867960D01*
X15974913Y-8867960D01*
X16019372Y-8849543D01*
X16050810Y-8836522D01*
X16108900Y-8778432D01*
X16108900Y-8778431D01*
X16115789Y-8771542D01*
X16115791Y-8771539D01*
X16139167Y-8748163D01*
X16139170Y-8748161D01*
X16146059Y-8741272D01*
X16146060Y-8741272D01*
X16204150Y-8683182D01*
X16217687Y-8650500D01*
X16235588Y-8607285D01*
X16235588Y-8525133D01*
X16235588Y-8521190D01*
X16235587Y-8521176D01*
X16235587Y-8422494D01*
X16235588Y-8422485D01*
X16235588Y-8334635D01*
X16235587Y-8334631D01*
X16224764Y-8308504D01*
X16210276Y-8273527D01*
X16204150Y-8258736D01*
X16146060Y-8200646D01*
X16143270Y-8197856D01*
X16143263Y-8197850D01*
X16115792Y-8170379D01*
X16115792Y-8170378D01*
X16050812Y-8105397D01*
X16050810Y-8105396D01*
X16019372Y-8092374D01*
X15974914Y-8073958D01*
X15970180Y-8073017D01*
X15970373Y-8072041D01*
X15940352Y-8059606D01*
X15926000Y-8024958D01*
X15926000Y-7997285D01*
X15926001Y-7997276D01*
X15926001Y-7909424D01*
X15907584Y-7864964D01*
X15894563Y-7833527D01*
X15836473Y-7775437D01*
X15836471Y-7775436D01*
X15833680Y-7772645D01*
X15833680Y-7772644D01*
X15833676Y-7772641D01*
X15733510Y-7672475D01*
X20049499Y-7672475D01*
X20067748Y-7740576D01*
X20073484Y-7761985D01*
X20076821Y-7774436D01*
X20076821Y-7774437D01*
X20087015Y-7812484D01*
X20087016Y-7812487D01*
X20159485Y-7938008D01*
X20159488Y-7938012D01*
X20159490Y-7938015D01*
X20461985Y-8240510D01*
X20558337Y-8296138D01*
X20586650Y-8312485D01*
X20587515Y-8312984D01*
X20622517Y-8322363D01*
X20727522Y-8350500D01*
X20727525Y-8350500D01*
X20727526Y-8350500D01*
X20751679Y-8350500D01*
X20786327Y-8364852D01*
X20961985Y-8540510D01*
X20961988Y-8540511D01*
X20961991Y-8540514D01*
X21069747Y-8602726D01*
X21069749Y-8602727D01*
X21087515Y-8612984D01*
X21087519Y-8612985D01*
X21227522Y-8650500D01*
X21227525Y-8650500D01*
X21972477Y-8650500D01*
X22042480Y-8631742D01*
X22112485Y-8612984D01*
X22238015Y-8540509D01*
X22340509Y-8438015D01*
X22412696Y-8312984D01*
X22412983Y-8312487D01*
X22412983Y-8312486D01*
X22412984Y-8312485D01*
X22439165Y-8214778D01*
X22450500Y-8172477D01*
X22450500Y-8027522D01*
X22422363Y-7922517D01*
X22412984Y-7887515D01*
X22412983Y-7887514D01*
X22412983Y-7887512D01*
X22351749Y-7781454D01*
X22340509Y-7761985D01*
X22238015Y-7659491D01*
X22236167Y-7658424D01*
X22112487Y-7587016D01*
X22112483Y-7587015D01*
X21972478Y-7549500D01*
X21972475Y-7549500D01*
X21548321Y-7549500D01*
X21513673Y-7535148D01*
X21338017Y-7359492D01*
X21338015Y-7359490D01*
X21338012Y-7359488D01*
X21338008Y-7359485D01*
X21212486Y-7287016D01*
X21186817Y-7280138D01*
X21157064Y-7257307D01*
X21150500Y-7232808D01*
X21150500Y-7176849D01*
X21164852Y-7142201D01*
X21199500Y-7127849D01*
X21221745Y-7133189D01*
X21324696Y-7185646D01*
X21418481Y-7200500D01*
X22581518Y-7200499D01*
X22675304Y-7185646D01*
X22736387Y-7154522D01*
X22788335Y-7128054D01*
X22788337Y-7128052D01*
X22788342Y-7128050D01*
X22878050Y-7038342D01*
X22923063Y-6950000D01*
X22935644Y-6925309D01*
X22935644Y-6925307D01*
X22935646Y-6925304D01*
X22950500Y-6831519D01*
X22950500Y-6499500D01*
X22964852Y-6464852D01*
X22999500Y-6450500D01*
X23564069Y-6450500D01*
X23689744Y-6425501D01*
X23808127Y-6376465D01*
X23914669Y-6305276D01*
X24005276Y-6214669D01*
X24076465Y-6108127D01*
X24125501Y-5989744D01*
X24150500Y-5864069D01*
X24150500Y-5735931D01*
X24125501Y-5610256D01*
X24076465Y-5491873D01*
X24005276Y-5385331D01*
X23914669Y-5294724D01*
X23808127Y-5223535D01*
X23714722Y-5184845D01*
X23689742Y-5174498D01*
X23689737Y-5174497D01*
X23564072Y-5149500D01*
X23564069Y-5149500D01*
X22999499Y-5149500D01*
X22964851Y-5135148D01*
X22950499Y-5100500D01*
X22950499Y-3768482D01*
X22935646Y-3674696D01*
X22878054Y-3561664D01*
X22878049Y-3561657D01*
X22788342Y-3471950D01*
X22788335Y-3471945D01*
X22675308Y-3414355D01*
X22675305Y-3414354D01*
X22675304Y-3414354D01*
X22581519Y-3399500D01*
X22581517Y-3399500D01*
X21418482Y-3399500D01*
X21324696Y-3414353D01*
X21211664Y-3471945D01*
X21211657Y-3471950D01*
X21121950Y-3561657D01*
X21121945Y-3561664D01*
X21064355Y-3674690D01*
X21064355Y-3674692D01*
X21064354Y-3674694D01*
X21064354Y-3674696D01*
X21049500Y-3768481D01*
X21049500Y-3768482D01*
X21049500Y-4700500D01*
X21035148Y-4735148D01*
X21000500Y-4749500D01*
X20827522Y-4749500D01*
X20687516Y-4787015D01*
X20687512Y-4787016D01*
X20561984Y-4859489D01*
X20561983Y-4859490D01*
X20534842Y-4886630D01*
X20524695Y-4894416D01*
X20411991Y-4959487D01*
X20411981Y-4959494D01*
X20309494Y-5061981D01*
X20309487Y-5061991D01*
X20244415Y-5174697D01*
X20236629Y-5184845D01*
X20159489Y-5261986D01*
X20159487Y-5261988D01*
X20140588Y-5294724D01*
X20110288Y-5347208D01*
X20108965Y-5349499D01*
X20108964Y-5349500D01*
X20087016Y-5387513D01*
X20087015Y-5387516D01*
X20049500Y-5527522D01*
X20049500Y-7672475D01*
X20049499Y-7672475D01*
X15733510Y-7672475D01*
X15490352Y-7429317D01*
X15476000Y-7394669D01*
X15476000Y-6844931D01*
X15490352Y-6810283D01*
X15515439Y-6796873D01*
X15562986Y-6787417D01*
X15623227Y-6747164D01*
X15660010Y-6739849D01*
X15677672Y-6747165D01*
X15737206Y-6786943D01*
X15737208Y-6786944D01*
X15749999Y-6789488D01*
X15750000Y-6789488D01*
X15750000Y-5660510D01*
X15737205Y-5663056D01*
X15677672Y-5702834D01*
X15640890Y-5710150D01*
X15623228Y-5702834D01*
X15562985Y-5662582D01*
X15515441Y-5653125D01*
X15484258Y-5632290D01*
X15476000Y-5605067D01*
X15476000Y-5594931D01*
X15490352Y-5560283D01*
X15515439Y-5546873D01*
X15562986Y-5537417D01*
X15623227Y-5497164D01*
X15660010Y-5489849D01*
X15677672Y-5497165D01*
X15737206Y-5536943D01*
X15737208Y-5536944D01*
X15749999Y-5539488D01*
X15750000Y-5539488D01*
X15750000Y-4410510D01*
X15737205Y-4413056D01*
X15677672Y-4452834D01*
X15640890Y-4460150D01*
X15623227Y-4452834D01*
X15562554Y-4412294D01*
X15541719Y-4381112D01*
X15549035Y-4344329D01*
X15555124Y-4336909D01*
X15621263Y-4270771D01*
X15621266Y-4270769D01*
X15628155Y-4263880D01*
X15628156Y-4263880D01*
X15661720Y-4230316D01*
X15678595Y-4213442D01*
X15713242Y-4199092D01*
X15747889Y-4213444D01*
X15751920Y-4217475D01*
X15751923Y-4217479D01*
X15751924Y-4217479D01*
X15754715Y-4220270D01*
X15754716Y-4220272D01*
X15812806Y-4278362D01*
X15843318Y-4291000D01*
X15888703Y-4309800D01*
X15888705Y-4309800D01*
X15976556Y-4309800D01*
X15976564Y-4309799D01*
X16023406Y-4309799D01*
X16023408Y-4309800D01*
X16035768Y-4309799D01*
X16038066Y-4310751D01*
X16041204Y-4309799D01*
X16105560Y-4309799D01*
X16159394Y-4287500D01*
X16181456Y-4278362D01*
X16239546Y-4220272D01*
X16239546Y-4220271D01*
X16246433Y-4213384D01*
X16246434Y-4213381D01*
X16324643Y-4135174D01*
X16374248Y-4085569D01*
X16383919Y-4062223D01*
X16405687Y-4009670D01*
X16405687Y-3927518D01*
X16405687Y-3921818D01*
X16405686Y-3921808D01*
X16405687Y-3792818D01*
X16405687Y-3792815D01*
X16405686Y-3792813D01*
X16389681Y-3754174D01*
X16389680Y-3754172D01*
X16379059Y-3728528D01*
X16374251Y-3716919D01*
X16316161Y-3658829D01*
X16313371Y-3656039D01*
X16313364Y-3656033D01*
X16309331Y-3652000D01*
X16294979Y-3617352D01*
X16309330Y-3582705D01*
X16364064Y-3527972D01*
X16381008Y-3487065D01*
X16395502Y-3452075D01*
X16395502Y-3369923D01*
X16395502Y-3365980D01*
X16395501Y-3365966D01*
X16395501Y-2984633D01*
X16409853Y-2949985D01*
X16444501Y-2935633D01*
X16450892Y-2936051D01*
X16600000Y-2955682D01*
X16756762Y-2935044D01*
X16902841Y-2874536D01*
X17028282Y-2778282D01*
X17124536Y-2652841D01*
X17185044Y-2506762D01*
X17205682Y-2350000D01*
X17185044Y-2193238D01*
X17124536Y-2047159D01*
X17028282Y-1921718D01*
X16999978Y-1900000D01*
X16902841Y-1825464D01*
X16902836Y-1825461D01*
X16756761Y-1764955D01*
X16620637Y-1747034D01*
X16600000Y-1744318D01*
X16599999Y-1744318D01*
X16598875Y-1744466D01*
X16598323Y-1744318D01*
X16596789Y-1744318D01*
X16596789Y-1743906D01*
X16562650Y-1734758D01*
X16543900Y-1702279D01*
X16543900Y-1689489D01*
X16544751Y-1683027D01*
X16555682Y-1600000D01*
X16535044Y-1443238D01*
X16500541Y-1359940D01*
X16474538Y-1297163D01*
X16474535Y-1297158D01*
X16378282Y-1171718D01*
X16378281Y-1171717D01*
X16252841Y-1075464D01*
X16252836Y-1075461D01*
X16106761Y-1014955D01*
X15950000Y-994318D01*
X15793238Y-1014955D01*
X15647163Y-1075461D01*
X15647158Y-1075464D01*
X15521718Y-1171717D01*
X15521717Y-1171718D01*
X15425464Y-1297158D01*
X15425461Y-1297163D01*
X15364955Y-1443238D01*
X15348581Y-1567619D01*
X15329829Y-1600097D01*
X15293604Y-1609804D01*
X15261126Y-1591052D01*
X15251419Y-1567619D01*
X15235044Y-1443238D01*
X15174538Y-1297163D01*
X15174535Y-1297158D01*
X15078282Y-1171718D01*
X15078281Y-1171717D01*
X14952841Y-1075464D01*
X14952836Y-1075461D01*
X14806761Y-1014955D01*
X14650000Y-994318D01*
X14493238Y-1014955D01*
X14347163Y-1075461D01*
X14347158Y-1075464D01*
X14221718Y-1171717D01*
X14221717Y-1171718D01*
X14125464Y-1297158D01*
X14125461Y-1297163D01*
X14064955Y-1443238D01*
X14044318Y-1600000D01*
X14056099Y-1689488D01*
X14046392Y-1725714D01*
X14013914Y-1744465D01*
X14001134Y-1744466D01*
X14000008Y-1744318D01*
X14000001Y-1744318D01*
X14000000Y-1744318D01*
X13981763Y-1746718D01*
X13843238Y-1764955D01*
X13697163Y-1825461D01*
X13697158Y-1825464D01*
X13571718Y-1921717D01*
X13571717Y-1921718D01*
X13475464Y-2047158D01*
X13475461Y-2047163D01*
X13414955Y-2193238D01*
X13394318Y-2350000D01*
X13414955Y-2506761D01*
X13475461Y-2652836D01*
X13475464Y-2652841D01*
X13494787Y-2678024D01*
X13571718Y-2778282D01*
X13697159Y-2874536D01*
X13697161Y-2874536D01*
X13697163Y-2874538D01*
X13795499Y-2915270D01*
X13843238Y-2935044D01*
X14000000Y-2955682D01*
X14067957Y-2946735D01*
X14104181Y-2956442D01*
X14122933Y-2988920D01*
X14113226Y-3025145D01*
X14109000Y-3029964D01*
X14028887Y-3110077D01*
X13913528Y-3225436D01*
X13913527Y-3225437D01*
X13898146Y-3240818D01*
X13855436Y-3283527D01*
X13842415Y-3314964D01*
X13823999Y-3359422D01*
X13823999Y-3447276D01*
X13824000Y-3447285D01*
X13824000Y-3539750D01*
X13809648Y-3574398D01*
X13775000Y-3588750D01*
X13771064Y-3588750D01*
X13771056Y-3588749D01*
X13765355Y-3588749D01*
X13683203Y-3588749D01*
X13683201Y-3588749D01*
X13639141Y-3607001D01*
X13639140Y-3607001D01*
X13607306Y-3620187D01*
X13549216Y-3678277D01*
X13549215Y-3678278D01*
X13512057Y-3715436D01*
X13512056Y-3715437D01*
X13483011Y-3744482D01*
X13453966Y-3773526D01*
X13453965Y-3773528D01*
X13445978Y-3792813D01*
X13445977Y-3792815D01*
X13422528Y-3849422D01*
X13422528Y-3937276D01*
X13422529Y-3937285D01*
X13422529Y-4035967D01*
X13422528Y-4035981D01*
X13422528Y-4122077D01*
X13432499Y-4146147D01*
X13438491Y-4160613D01*
X13453966Y-4197973D01*
X13453967Y-4197974D01*
X13453967Y-4197975D01*
X13518947Y-4262954D01*
X13518949Y-4262955D01*
X13546420Y-4290426D01*
X13546423Y-4290430D01*
X13546424Y-4290430D01*
X13549215Y-4293221D01*
X13549216Y-4293223D01*
X13607306Y-4351313D01*
X13638741Y-4364333D01*
X13638742Y-4364334D01*
X13659287Y-4372844D01*
X13685806Y-4399362D01*
X13685806Y-4436865D01*
X13667763Y-4458854D01*
X13662422Y-4462422D01*
X13612583Y-4537013D01*
X13612583Y-4537014D01*
X13599500Y-4602789D01*
X13599500Y-4602790D01*
X13599500Y-4602792D01*
X13599500Y-5347208D01*
X13612583Y-5412986D01*
X13662422Y-5487577D01*
X13702053Y-5514057D01*
X13737014Y-5537417D01*
X13784561Y-5546874D01*
X13815742Y-5567708D01*
X13824000Y-5594932D01*
X13824000Y-5605068D01*
X13809648Y-5639716D01*
X13784559Y-5653127D01*
X13737013Y-5662583D01*
X13662422Y-5712422D01*
X13612583Y-5787013D01*
X13612583Y-5787014D01*
X13599500Y-5852789D01*
X13599500Y-5852790D01*
X13599500Y-5852792D01*
X13599500Y-6597208D01*
X13612583Y-6662986D01*
X13662422Y-6737577D01*
X13712262Y-6770878D01*
X13737014Y-6787417D01*
X13784561Y-6796874D01*
X13815742Y-6817708D01*
X13824000Y-6844932D01*
X13824000Y-7494668D01*
X13809648Y-7529316D01*
X13698389Y-7640575D01*
X13663528Y-7675436D01*
X13663527Y-7675437D01*
X13634482Y-7704482D01*
X13605437Y-7733526D01*
X13596115Y-7756033D01*
X13573999Y-7809422D01*
X13573999Y-7897276D01*
X13574000Y-7897285D01*
X13574000Y-8039749D01*
X13559648Y-8074397D01*
X13529628Y-8086831D01*
X13529823Y-8087808D01*
X13525088Y-8088749D01*
X13484900Y-8105397D01*
X13449192Y-8120187D01*
X13434345Y-8135035D01*
X13391103Y-8178277D01*
X13295855Y-8273524D01*
X13295852Y-8273529D01*
X13290794Y-8285742D01*
X13290793Y-8285744D01*
X13264415Y-8349422D01*
X13264415Y-8437276D01*
X13264416Y-8437285D01*
X13264416Y-8535967D01*
X13264415Y-8535981D01*
X13264415Y-8539924D01*
X13264415Y-8622076D01*
X13282831Y-8666535D01*
X13295853Y-8697973D01*
X13295854Y-8697974D01*
X13295854Y-8697975D01*
X13360834Y-8762954D01*
X13360836Y-8762955D01*
X13388307Y-8790426D01*
X13388310Y-8790430D01*
X13388311Y-8790430D01*
X13391102Y-8793221D01*
X13391103Y-8793223D01*
X13449193Y-8851313D01*
X13480628Y-8864333D01*
X13480630Y-8864335D01*
X13480630Y-8864334D01*
X13525090Y-8882751D01*
X13525095Y-8882751D01*
X13529822Y-8883692D01*
X13529627Y-8884667D01*
X13559648Y-8897103D01*
X13574000Y-8931751D01*
X13574000Y-10004467D01*
X13573999Y-10004481D01*
X13573999Y-10008424D01*
X13573999Y-10090576D01*
X13583784Y-10114196D01*
X13588492Y-10125562D01*
X13588492Y-10125564D01*
X13605437Y-10166473D01*
X13605438Y-10166475D01*
X13670418Y-10231454D01*
X13670420Y-10231455D01*
X13908808Y-10469843D01*
X13923160Y-10504491D01*
X13908808Y-10539139D01*
X13874160Y-10553491D01*
X13864601Y-10552550D01*
X13834510Y-10546564D01*
X13798993Y-10539500D01*
X13661007Y-10539500D01*
X13661001Y-10539500D01*
X13525681Y-10566417D01*
X13525670Y-10566420D01*
X13398191Y-10619223D01*
X13398187Y-10619225D01*
X13321754Y-10670296D01*
X13284972Y-10677612D01*
X13259884Y-10664202D01*
X13095635Y-10499953D01*
X13015713Y-10453809D01*
X13015710Y-10453808D01*
X13013114Y-10453113D01*
X13001298Y-10448218D01*
X12958289Y-10423386D01*
X12958286Y-10423385D01*
X12869147Y-10399500D01*
X12869144Y-10399500D01*
X12083554Y-10399500D01*
X12053503Y-10387052D01*
X12052888Y-10387950D01*
X12049142Y-10385384D01*
X11951500Y-10342270D01*
X11951494Y-10342268D01*
X11927640Y-10339501D01*
X11927625Y-10339500D01*
X11927623Y-10339500D01*
X11927620Y-10339500D01*
X11472382Y-10339500D01*
X11472373Y-10339501D01*
X11448500Y-10342270D01*
X11350857Y-10385384D01*
X11275384Y-10460857D01*
X11232270Y-10558499D01*
X11232268Y-10558505D01*
X11229501Y-10582359D01*
X11229500Y-10582379D01*
X10642022Y-10582379D01*
X10480072Y-10420429D01*
X10480059Y-10420418D01*
X10480050Y-10420410D01*
X10155619Y-10148181D01*
X10155603Y-10148168D01*
X9858311Y-9940001D01*
X11232603Y-9940001D01*
X11232763Y-9941375D01*
X11232764Y-9941381D01*
X11275803Y-10038855D01*
X11351144Y-10114196D01*
X11448616Y-10157235D01*
X11472443Y-10159999D01*
X11472447Y-10160000D01*
X11500000Y-10160000D01*
X11900000Y-10160000D01*
X11927553Y-10160000D01*
X11927556Y-10159999D01*
X11951383Y-10157235D01*
X12048855Y-10114196D01*
X12124196Y-10038855D01*
X12167235Y-9941381D01*
X12167236Y-9941375D01*
X12167396Y-9940001D01*
X12167395Y-9940000D01*
X11900000Y-9940000D01*
X11900000Y-10160000D01*
X11500000Y-10160000D01*
X11500000Y-9940000D01*
X11232605Y-9940000D01*
X11232603Y-9940001D01*
X9858311Y-9940001D01*
X9808659Y-9905234D01*
X9808650Y-9905228D01*
X9441849Y-9693457D01*
X9112757Y-9539998D01*
X11232603Y-9539998D01*
X11232605Y-9540000D01*
X11500000Y-9540000D01*
X11900000Y-9540000D01*
X12167395Y-9540000D01*
X12167396Y-9539998D01*
X12167236Y-9538624D01*
X12167235Y-9538618D01*
X12124196Y-9441144D01*
X12048855Y-9365803D01*
X11951383Y-9322764D01*
X11927556Y-9320000D01*
X11900000Y-9320000D01*
X11900000Y-9540000D01*
X11500000Y-9540000D01*
X11500000Y-9320000D01*
X11472443Y-9320000D01*
X11448616Y-9322764D01*
X11351144Y-9365803D01*
X11275803Y-9441144D01*
X11232764Y-9538618D01*
X11232763Y-9538624D01*
X11232603Y-9539998D01*
X9112757Y-9539998D01*
X9057984Y-9514457D01*
X9057970Y-9514451D01*
X8659956Y-9369586D01*
X8250849Y-9259966D01*
X8250844Y-9259965D01*
X7833721Y-9186415D01*
X7622748Y-9167957D01*
X7411777Y-9149500D01*
X7249828Y-9149500D01*
X2549000Y-9149500D01*
X2514352Y-9135148D01*
X2500000Y-9100500D01*
X2500000Y-7732841D01*
X4625000Y-7732841D01*
X4625000Y-8214772D01*
X4633703Y-8258527D01*
X4666855Y-8308144D01*
X4716474Y-8341297D01*
X4760223Y-8349999D01*
X5489772Y-8349999D01*
X5533527Y-8341296D01*
X5583144Y-8308144D01*
X5616297Y-8258525D01*
X5624999Y-8214778D01*
X5624999Y-7732842D01*
X5125000Y-7232843D01*
X4625000Y-7732841D01*
X2500000Y-7732841D01*
X2500000Y-7167155D01*
X4625000Y-7167155D01*
X4842157Y-6950000D01*
X4842156Y-6949999D01*
X5407843Y-6949999D01*
X5407843Y-6950000D01*
X5624999Y-7167156D01*
X5624999Y-6732843D01*
X5407843Y-6949999D01*
X4842156Y-6949999D01*
X4625000Y-6732843D01*
X4625000Y-7167155D01*
X2500000Y-7167155D01*
X2500000Y-5685221D01*
X4625000Y-5685221D01*
X4625000Y-6167157D01*
X5125000Y-6667157D01*
X5125001Y-6667157D01*
X5624998Y-6167157D01*
X5624999Y-6167156D01*
X5624999Y-5685227D01*
X5624989Y-5685176D01*
X5874500Y-5685176D01*
X5874500Y-8214823D01*
X5883232Y-8258721D01*
X5916495Y-8308504D01*
X5966276Y-8341766D01*
X5966278Y-8341767D01*
X5982143Y-8344922D01*
X6013325Y-8365758D01*
X6020642Y-8402540D01*
X6017156Y-8413333D01*
X6013303Y-8421769D01*
X6013302Y-8421775D01*
X5994867Y-8549997D01*
X5994867Y-8550002D01*
X6013301Y-8678223D01*
X6067118Y-8796063D01*
X6142231Y-8882750D01*
X6151951Y-8893967D01*
X6260931Y-8964004D01*
X6330093Y-8984311D01*
X6385223Y-9000499D01*
X6385228Y-9000500D01*
X6514772Y-9000500D01*
X6514776Y-9000499D01*
X6535324Y-8994465D01*
X6639069Y-8964004D01*
X6748049Y-8893967D01*
X6832882Y-8796063D01*
X6886697Y-8678226D01*
X6886697Y-8678224D01*
X6886698Y-8678223D01*
X6905133Y-8550002D01*
X6905133Y-8549997D01*
X6888926Y-8437276D01*
X6886697Y-8421774D01*
X6885593Y-8419357D01*
X6854928Y-8352209D01*
X6850500Y-8331854D01*
X6850500Y-8297930D01*
X6858759Y-8270706D01*
X6866767Y-8258722D01*
X6875500Y-8214820D01*
X6875500Y-5685180D01*
X6875499Y-5685176D01*
X7124500Y-5685176D01*
X7124500Y-8214823D01*
X7133232Y-8258721D01*
X7166495Y-8308504D01*
X7201442Y-8331854D01*
X7216278Y-8341767D01*
X7260180Y-8350500D01*
X7334522Y-8350500D01*
X7369170Y-8364852D01*
X7590143Y-8585825D01*
X7603996Y-8613500D01*
X7613301Y-8678223D01*
X7667118Y-8796063D01*
X7742231Y-8882750D01*
X7751951Y-8893967D01*
X7860931Y-8964004D01*
X7930093Y-8984311D01*
X7985223Y-9000499D01*
X7985228Y-9000500D01*
X8114772Y-9000500D01*
X8114776Y-9000499D01*
X8135324Y-8994465D01*
X8239069Y-8964004D01*
X8348049Y-8893967D01*
X8432882Y-8796063D01*
X8486697Y-8678226D01*
X8486697Y-8678224D01*
X8486698Y-8678223D01*
X8505133Y-8550002D01*
X8505133Y-8549997D01*
X8486698Y-8421776D01*
X8485593Y-8419357D01*
X8484253Y-8381878D01*
X8509806Y-8354428D01*
X8530164Y-8349999D01*
X9239772Y-8349999D01*
X9283527Y-8341296D01*
X9333144Y-8308144D01*
X9366297Y-8258525D01*
X9374999Y-8214778D01*
X9374999Y-7732842D01*
X8875000Y-7232843D01*
X8375000Y-7732841D01*
X8375000Y-8133616D01*
X8360648Y-8168264D01*
X8326000Y-8182616D01*
X8299509Y-8174838D01*
X8239066Y-8135994D01*
X8160695Y-8112983D01*
X8131494Y-8089451D01*
X8125500Y-8065968D01*
X8125500Y-7167155D01*
X8375000Y-7167155D01*
X8592157Y-6950000D01*
X8592156Y-6949999D01*
X9157843Y-6949999D01*
X9157843Y-6950000D01*
X9374999Y-7167156D01*
X9374999Y-6732843D01*
X9157843Y-6949999D01*
X8592156Y-6949999D01*
X8375000Y-6732843D01*
X8375000Y-7167155D01*
X8125500Y-7167155D01*
X8125500Y-5685221D01*
X8375000Y-5685221D01*
X8375000Y-6167157D01*
X8875000Y-6667157D01*
X8875001Y-6667157D01*
X9374998Y-6167157D01*
X9374999Y-6167156D01*
X9374999Y-5685227D01*
X9366296Y-5641472D01*
X9333144Y-5591855D01*
X9283525Y-5558702D01*
X9239776Y-5550000D01*
X8510227Y-5550000D01*
X8466472Y-5558703D01*
X8416855Y-5591855D01*
X8383702Y-5641474D01*
X8375000Y-5685221D01*
X8125500Y-5685221D01*
X8125500Y-5685180D01*
X8125499Y-5685176D01*
X8118402Y-5649500D01*
X8116767Y-5641278D01*
X8115723Y-5639716D01*
X8083504Y-5591495D01*
X8033721Y-5558232D01*
X7989823Y-5549500D01*
X7989820Y-5549500D01*
X7260180Y-5549500D01*
X7260176Y-5549500D01*
X7216278Y-5558232D01*
X7166495Y-5591495D01*
X7133232Y-5641278D01*
X7124500Y-5685176D01*
X6875499Y-5685176D01*
X6866767Y-5641278D01*
X6865723Y-5639716D01*
X6833504Y-5591495D01*
X6783721Y-5558232D01*
X6739823Y-5549500D01*
X6739820Y-5549500D01*
X6010180Y-5549500D01*
X6010176Y-5549500D01*
X5966278Y-5558232D01*
X5916495Y-5591495D01*
X5883232Y-5641278D01*
X5874500Y-5685176D01*
X5624989Y-5685176D01*
X5616296Y-5641472D01*
X5583144Y-5591855D01*
X5533525Y-5558702D01*
X5489776Y-5550000D01*
X4760227Y-5550000D01*
X4716472Y-5558703D01*
X4666855Y-5591855D01*
X4633702Y-5641474D01*
X4625000Y-5685221D01*
X2500000Y-5685221D01*
X2500000Y-4898999D01*
X2514352Y-4864351D01*
X2549000Y-4849999D01*
X5239772Y-4849999D01*
X5283527Y-4841296D01*
X5333144Y-4808144D01*
X5366297Y-4758525D01*
X5374999Y-4714778D01*
X5374999Y-4382842D01*
X5374998Y-4382841D01*
X8625000Y-4382841D01*
X8625000Y-4714772D01*
X8633703Y-4758527D01*
X8666855Y-4808144D01*
X8716474Y-4841297D01*
X8760223Y-4849999D01*
X11489772Y-4849999D01*
X11533527Y-4841296D01*
X11583144Y-4808144D01*
X11616297Y-4758525D01*
X11624999Y-4714778D01*
X11624999Y-4382842D01*
X10125000Y-2882843D01*
X8625000Y-4382841D01*
X5374998Y-4382841D01*
X3626805Y-2634648D01*
X3612453Y-2600000D01*
X3612453Y-2599999D01*
X4157843Y-2599999D01*
X4157843Y-2600000D01*
X5374999Y-3817156D01*
X5374999Y-3817155D01*
X8625000Y-3817155D01*
X9842156Y-2599999D01*
X10407843Y-2599999D01*
X10407843Y-2600000D01*
X11624999Y-3817156D01*
X11624999Y-1382843D01*
X10407843Y-2599999D01*
X9842156Y-2599999D01*
X8625000Y-1382843D01*
X8625000Y-3817155D01*
X5374999Y-3817155D01*
X5374999Y-1382843D01*
X4157843Y-2599999D01*
X3612453Y-2599999D01*
X3626805Y-2565352D01*
X3875000Y-2317157D01*
X5374998Y-817157D01*
X5374999Y-817156D01*
X5374999Y-549000D01*
X5389351Y-514352D01*
X5423999Y-500000D01*
X8576000Y-500000D01*
X8610648Y-514352D01*
G37*
%TD.AperFunction*%
%TA.AperFunction,Conductor*%
G36*
X20425953Y-1020852D02*
G01*
X20440305Y-1055500D01*
X20440129Y-1057286D01*
X20682843Y-1300000D01*
X20660504Y-1300000D01*
X20584204Y-1320444D01*
X20515795Y-1359940D01*
X20459940Y-1415795D01*
X20420444Y-1484204D01*
X20400000Y-1560504D01*
X20400000Y-1582843D01*
X20157937Y-1340780D01*
X20157936Y-1340780D01*
X20115443Y-1443369D01*
X20094823Y-1600000D01*
X20115443Y-1756630D01*
X20157936Y-1859218D01*
X20157937Y-1859218D01*
X20400000Y-1617156D01*
X20400000Y-1639496D01*
X20420444Y-1715796D01*
X20459940Y-1784205D01*
X20515795Y-1840060D01*
X20584204Y-1879556D01*
X20660504Y-1900000D01*
X20682843Y-1900000D01*
X20440780Y-2142061D01*
X20543371Y-2184556D01*
X20700001Y-2205177D01*
X20700002Y-2205177D01*
X20701186Y-2205021D01*
X20701768Y-2205177D01*
X20703212Y-2205177D01*
X20703212Y-2205563D01*
X20737412Y-2214725D01*
X20756165Y-2247202D01*
X20756166Y-2259996D01*
X20744318Y-2349999D01*
X20764955Y-2506761D01*
X20825461Y-2652836D01*
X20825464Y-2652841D01*
X20872908Y-2714671D01*
X20882615Y-2750896D01*
X20863863Y-2783374D01*
X20834034Y-2793500D01*
X19646785Y-2793500D01*
X19646777Y-2793499D01*
X19641076Y-2793499D01*
X19558924Y-2793499D01*
X19558922Y-2793499D01*
X19514464Y-2811915D01*
X19483027Y-2824936D01*
X19453982Y-2853981D01*
X19424937Y-2883027D01*
X18890148Y-3417816D01*
X18855500Y-3432168D01*
X18820852Y-3417816D01*
X18806500Y-3383168D01*
X18806500Y-1905831D01*
X18820852Y-1871183D01*
X19671183Y-1020852D01*
X19705831Y-1006500D01*
X20391305Y-1006500D01*
X20425953Y-1020852D01*
G37*
%TD.AperFunction*%
%TA.AperFunction,Conductor*%
G36*
X21677334Y-1020852D02*
G01*
X21691686Y-1055500D01*
X21677334Y-1090148D01*
X21672515Y-1094374D01*
X21571718Y-1171717D01*
X21571717Y-1171718D01*
X21475464Y-1297158D01*
X21475461Y-1297163D01*
X21414955Y-1443238D01*
X21398328Y-1569538D01*
X21379576Y-1602016D01*
X21343351Y-1611723D01*
X21310873Y-1592971D01*
X21301166Y-1569538D01*
X21284556Y-1443370D01*
X21242061Y-1340780D01*
X21000000Y-1582841D01*
X21000000Y-1560504D01*
X20979556Y-1484204D01*
X20940060Y-1415795D01*
X20884205Y-1359940D01*
X20815796Y-1320444D01*
X20739496Y-1300000D01*
X20717158Y-1300000D01*
X20962756Y-1054399D01*
X20967952Y-1028277D01*
X20999134Y-1007442D01*
X21008694Y-1006500D01*
X21642686Y-1006500D01*
X21677334Y-1020852D01*
G37*
%TD.AperFunction*%
%TD*%
M02*
