%TF.GenerationSoftware,KiCad,Pcbnew,8.0.3*%
%TF.CreationDate,2024-07-01T18:30:19+03:00*%
%TF.ProjectId,Shield_Emergent_3,53686965-6c64-45f4-956d-657267656e74,rev?*%
%TF.SameCoordinates,Original*%
%TF.FileFunction,Copper,L2,Inr*%
%TF.FilePolarity,Positive*%
%FSLAX46Y46*%
G04 Gerber Fmt 4.6, Leading zero omitted, Abs format (unit mm)*
G04 Created by KiCad (PCBNEW 8.0.3) date 2024-07-01 18:30:19*
%MOMM*%
%LPD*%
G01*
G04 APERTURE LIST*
%TA.AperFunction,ComponentPad*%
%ADD10C,0.900000*%
%TD*%
%TA.AperFunction,ComponentPad*%
%ADD11O,1.100000X2.220000*%
%TD*%
%TA.AperFunction,ViaPad*%
%ADD12C,0.600000*%
%TD*%
G04 APERTURE END LIST*
D10*
%TO.N,*%
%TO.C,X1*%
X16500000Y-10400000D03*
X16500000Y-21400000D03*
D11*
%TO.N,Shield*%
X16670000Y-11800000D03*
X13730000Y-11800000D03*
X16670000Y-20000000D03*
X13730000Y-20000000D03*
%TD*%
D10*
%TO.N,VOUT1*%
%TO.C,J1*%
X23300000Y-1600000D03*
%TO.N,D-*%
X22650000Y-2350000D03*
%TO.N,D+*%
X22000000Y-1600000D03*
%TO.N,unconnected-(J1-ID-Pad4)*%
X21350000Y-2350000D03*
%TO.N,GND*%
X20700000Y-1600000D03*
%TO.N,TX1-*%
X16600000Y-2350000D03*
%TO.N,TX1+*%
X15950000Y-1600000D03*
%TO.N,GND*%
X15300000Y-2350000D03*
%TO.N,RX1-*%
X14650000Y-1600000D03*
%TO.N,RX1+*%
X14000000Y-2350000D03*
%TD*%
%TO.N,VOUT2*%
%TO.C,J3*%
X9300000Y-28400000D03*
%TO.N,2_D-*%
X9950000Y-27650000D03*
%TO.N,2_D+*%
X10600000Y-28400000D03*
%TO.N,unconnected-(J3-ID-Pad4)*%
X11250000Y-27650000D03*
%TO.N,GND*%
X11900000Y-28400000D03*
%TO.N,TX2+*%
X16000000Y-27650000D03*
%TO.N,TX2-*%
X16650000Y-28400000D03*
%TO.N,GND*%
X17300000Y-27650000D03*
%TO.N,RX2-*%
X17950000Y-28400000D03*
%TO.N,RX2+*%
X18600000Y-27650000D03*
%TD*%
D12*
%TO.N,GND*%
X18850000Y-25150000D03*
%TO.N,VBUS*%
X15200000Y-31200000D03*
X16600000Y-31200000D03*
X18000000Y-31100000D03*
X19100000Y-30100000D03*
X19800000Y-29400000D03*
X20700000Y-28400000D03*
X20800000Y-26500000D03*
X20800000Y-24900000D03*
X20700000Y-22700000D03*
X20800000Y-20800000D03*
X20800000Y-19100000D03*
%TO.N,VOUT1*%
X24200000Y-2450000D03*
X24200000Y-3450000D03*
%TO.N,VOUT2*%
X6800000Y-29850000D03*
X6800000Y-27450000D03*
X5700000Y-26300000D03*
X4550000Y-25800000D03*
X4200000Y-24650000D03*
%TO.N,VOUT1*%
X20600000Y-6400000D03*
X20750000Y-5400000D03*
X23500000Y-5800000D03*
X21900000Y-8100000D03*
X20800000Y-7800000D03*
%TO.N,GND*%
X8000000Y-31400000D03*
X14100000Y-25500000D03*
X19400000Y-11200000D03*
X25000000Y-11200000D03*
X22000000Y-30400000D03*
X5350000Y-24300000D03*
X13000000Y-9000000D03*
X21600000Y-13400000D03*
X19400000Y-22200000D03*
X3200000Y-24800000D03*
X15200000Y-3200000D03*
X23750000Y-15500000D03*
X11200000Y-29200000D03*
X13000000Y-8000000D03*
X17800000Y-12600000D03*
X15750000Y-19000000D03*
X18592203Y-1092203D03*
X9100000Y-5250000D03*
X24600000Y-1200000D03*
X8100000Y-29800000D03*
X17400000Y-32600000D03*
X15000000Y-30000000D03*
X12700000Y-9700000D03*
X12600000Y-29300000D03*
X23100000Y-7450000D03*
X12400000Y-25000000D03*
X18800000Y-23100000D03*
X23600000Y-11250000D03*
X13300000Y-10300000D03*
X19000000Y-28600000D03*
X16800000Y-3400000D03*
X22800000Y-13400000D03*
X15500000Y-22800000D03*
X20400000Y-4100000D03*
X12700000Y-31800000D03*
X24200000Y-32400000D03*
X5400000Y-21200000D03*
X4000000Y-8600000D03*
X19200000Y-2500000D03*
X18800000Y-26600000D03*
X20600000Y-13400000D03*
X15700000Y-26800000D03*
X12800000Y-3200000D03*
X12650000Y-19300000D03*
X16500000Y-9400000D03*
X24900000Y-8600000D03*
X19100000Y-7900000D03*
X24300000Y-21600000D03*
X11900000Y-20000000D03*
X22600000Y-25000000D03*
X12600000Y-5200000D03*
X21000000Y-32600000D03*
X14700000Y-8300000D03*
X24300000Y-24800000D03*
X23700000Y-8600000D03*
X22300000Y-19400000D03*
X23200000Y-3000000D03*
X12600000Y-7200000D03*
X14950000Y-27900000D03*
X12250000Y-17900000D03*
X5000000Y-30800000D03*
X12595144Y-11381856D03*
X3200000Y-27500000D03*
X23900000Y-14400000D03*
X13000000Y-28100000D03*
X15300000Y-950000D03*
X17700000Y-21400000D03*
X19800000Y-13400000D03*
X8000000Y-30600000D03*
X5250000Y-25000000D03*
X19600000Y-18900000D03*
X14500000Y-21800000D03*
X12375000Y-13900000D03*
X10400000Y-19200000D03*
X23200000Y-20700000D03*
X18000000Y-5000000D03*
X25000000Y-15550000D03*
X15200000Y-14000000D03*
X13500000Y-1100000D03*
X12200000Y-27400000D03*
X24900000Y-9900000D03*
X12600000Y-22600000D03*
X20300000Y-16100000D03*
X16500000Y-7800000D03*
X16800000Y-30200000D03*
X22000000Y-20800000D03*
X20200000Y-2400000D03*
X12600000Y-2200000D03*
X13000000Y-23450000D03*
X10400000Y-18200000D03*
X19600000Y-1800000D03*
X24550000Y-17950000D03*
X14000000Y-23450000D03*
X23400000Y-23300000D03*
X25100000Y-16650000D03*
X7200000Y-20800000D03*
X16000000Y-7200000D03*
X10500000Y-32200000D03*
X12600000Y-6200000D03*
X17800000Y-2400000D03*
X19300000Y-32400000D03*
X14800000Y-29000000D03*
X25050000Y-6350000D03*
X8200000Y-5200000D03*
X18026999Y-13900000D03*
X24650000Y-19650000D03*
X7200000Y-24150000D03*
X17800000Y-11800000D03*
X14700000Y-9100000D03*
X6800000Y-1400000D03*
X24050000Y-29800000D03*
X4400000Y-20800000D03*
X23600000Y-9900000D03*
X17900000Y-7100000D03*
X15800000Y-32600000D03*
X19200000Y-9000000D03*
X12600000Y-1200000D03*
X17300000Y-29200000D03*
X7250000Y-25900000D03*
X14700000Y-9900000D03*
X12600000Y-20850000D03*
X6800000Y-4000000D03*
X10600000Y-9600000D03*
X9600000Y-21200000D03*
X19600000Y-20600000D03*
X2800000Y-31400000D03*
X25100000Y-13500000D03*
X21100000Y-16150000D03*
X19200000Y-6050000D03*
X14500000Y-21800000D03*
X23000000Y-14800000D03*
X18900000Y-23900000D03*
X17800000Y-1100000D03*
X8000000Y-32200000D03*
X3800000Y-5400000D03*
X16900000Y-1100000D03*
X18600000Y-11000000D03*
X17100000Y-22300000D03*
X15700000Y-21000000D03*
X22300000Y-22300000D03*
X15888069Y-17902560D03*
X3400000Y-7200000D03*
%TO.N,VBUS*%
X14838909Y-16338909D03*
X14600000Y-14800000D03*
X12400000Y-30800000D03*
X19800000Y-17400000D03*
X19000000Y-17400000D03*
X18850000Y-14200000D03*
X15537961Y-17227000D03*
X21000000Y-17400000D03*
X13575000Y-31175000D03*
%TO.N,VOUT2*%
X7200000Y-22800000D03*
X8400000Y-25800000D03*
X10600000Y-24600000D03*
X8400000Y-26600000D03*
X8400000Y-27800000D03*
%TO.N,BTN2*%
X12373001Y-16277709D03*
X8050000Y-8550000D03*
%TO.N,EN1*%
X19404675Y-14970077D03*
%TO.N,EN2*%
X19488909Y-15911091D03*
X16000000Y-16175000D03*
X15400000Y-15400000D03*
%TO.N,BTN1*%
X6450000Y-8550000D03*
X18306587Y-16506587D03*
%TO.N,nFLT2*%
X5200000Y-32800000D03*
%TD*%
%TA.AperFunction,Conductor*%
%TO.N,GND*%
G36*
X25535148Y-514352D02*
G01*
X25549500Y-549000D01*
X25549500Y-33300500D01*
X25535148Y-33335148D01*
X25500500Y-33349500D01*
X2549000Y-33349500D01*
X2514352Y-33335148D01*
X2500000Y-33300500D01*
X2500000Y-32799997D01*
X4744867Y-32799997D01*
X4744867Y-32800002D01*
X4763301Y-32928223D01*
X4817118Y-33046063D01*
X4901951Y-33143967D01*
X5010931Y-33214004D01*
X5080093Y-33234311D01*
X5135223Y-33250499D01*
X5135228Y-33250500D01*
X5264772Y-33250500D01*
X5264776Y-33250499D01*
X5285324Y-33244465D01*
X5389069Y-33214004D01*
X5498049Y-33143967D01*
X5582882Y-33046063D01*
X5636697Y-32928226D01*
X5636697Y-32928224D01*
X5636698Y-32928223D01*
X5655133Y-32800002D01*
X5655133Y-32799997D01*
X5636698Y-32671776D01*
X5629297Y-32655572D01*
X5582882Y-32553937D01*
X5498049Y-32456033D01*
X5389069Y-32385996D01*
X5389066Y-32385995D01*
X5264776Y-32349500D01*
X5264772Y-32349500D01*
X5135228Y-32349500D01*
X5135223Y-32349500D01*
X5010933Y-32385995D01*
X4901950Y-32456033D01*
X4817119Y-32553936D01*
X4817118Y-32553936D01*
X4763301Y-32671776D01*
X4744867Y-32799997D01*
X2500000Y-32799997D01*
X2500000Y-30799997D01*
X11944867Y-30799997D01*
X11944867Y-30800002D01*
X11963301Y-30928223D01*
X12017118Y-31046063D01*
X12101951Y-31143967D01*
X12210931Y-31214004D01*
X12259358Y-31228223D01*
X12335223Y-31250499D01*
X12335228Y-31250500D01*
X12464772Y-31250500D01*
X12464776Y-31250499D01*
X12485324Y-31244465D01*
X12589069Y-31214004D01*
X12649765Y-31174997D01*
X13119867Y-31174997D01*
X13119867Y-31175002D01*
X13138301Y-31303223D01*
X13192118Y-31421063D01*
X13272650Y-31514004D01*
X13276951Y-31518967D01*
X13385931Y-31589004D01*
X13455093Y-31609311D01*
X13510223Y-31625499D01*
X13510228Y-31625500D01*
X13639772Y-31625500D01*
X13639776Y-31625499D01*
X13660324Y-31619465D01*
X13764069Y-31589004D01*
X13873049Y-31518967D01*
X13957882Y-31421063D01*
X14011697Y-31303226D01*
X14011697Y-31303224D01*
X14011698Y-31303223D01*
X14026539Y-31199997D01*
X14744867Y-31199997D01*
X14744867Y-31200002D01*
X14763301Y-31328223D01*
X14805701Y-31421063D01*
X14817118Y-31446063D01*
X14901951Y-31543967D01*
X15010931Y-31614004D01*
X15080093Y-31634311D01*
X15135223Y-31650499D01*
X15135228Y-31650500D01*
X15264772Y-31650500D01*
X15264776Y-31650499D01*
X15285324Y-31644465D01*
X15389069Y-31614004D01*
X15498049Y-31543967D01*
X15582882Y-31446063D01*
X15636697Y-31328226D01*
X15636697Y-31328224D01*
X15636698Y-31328223D01*
X15655133Y-31200002D01*
X15655133Y-31199997D01*
X16144867Y-31199997D01*
X16144867Y-31200002D01*
X16163301Y-31328223D01*
X16205701Y-31421063D01*
X16217118Y-31446063D01*
X16301951Y-31543967D01*
X16410931Y-31614004D01*
X16480093Y-31634311D01*
X16535223Y-31650499D01*
X16535228Y-31650500D01*
X16664772Y-31650500D01*
X16664776Y-31650499D01*
X16685324Y-31644465D01*
X16789069Y-31614004D01*
X16898049Y-31543967D01*
X16982882Y-31446063D01*
X17036697Y-31328226D01*
X17036697Y-31328224D01*
X17036698Y-31328223D01*
X17055133Y-31200002D01*
X17055133Y-31199997D01*
X17040755Y-31099997D01*
X17544867Y-31099997D01*
X17544867Y-31100002D01*
X17563301Y-31228223D01*
X17573475Y-31250500D01*
X17617118Y-31346063D01*
X17701951Y-31443967D01*
X17810931Y-31514004D01*
X17880093Y-31534311D01*
X17935223Y-31550499D01*
X17935228Y-31550500D01*
X18064772Y-31550500D01*
X18064776Y-31550499D01*
X18087025Y-31543966D01*
X18189069Y-31514004D01*
X18298049Y-31443967D01*
X18382882Y-31346063D01*
X18436697Y-31228226D01*
X18436697Y-31228224D01*
X18436698Y-31228223D01*
X18455133Y-31100002D01*
X18455133Y-31099997D01*
X18436698Y-30971776D01*
X18383839Y-30856033D01*
X18382882Y-30853937D01*
X18298049Y-30756033D01*
X18189069Y-30685996D01*
X18189066Y-30685995D01*
X18064776Y-30649500D01*
X18064772Y-30649500D01*
X17935228Y-30649500D01*
X17935223Y-30649500D01*
X17810933Y-30685995D01*
X17701950Y-30756033D01*
X17617119Y-30853936D01*
X17617118Y-30853936D01*
X17563301Y-30971776D01*
X17544867Y-31099997D01*
X17040755Y-31099997D01*
X17036698Y-31071776D01*
X17024955Y-31046063D01*
X16982882Y-30953937D01*
X16898049Y-30856033D01*
X16789069Y-30785996D01*
X16789066Y-30785995D01*
X16664776Y-30749500D01*
X16664772Y-30749500D01*
X16535228Y-30749500D01*
X16535223Y-30749500D01*
X16410933Y-30785995D01*
X16301950Y-30856033D01*
X16217119Y-30953936D01*
X16217118Y-30953936D01*
X16163301Y-31071776D01*
X16144867Y-31199997D01*
X15655133Y-31199997D01*
X15636698Y-31071776D01*
X15624955Y-31046063D01*
X15582882Y-30953937D01*
X15498049Y-30856033D01*
X15389069Y-30785996D01*
X15389066Y-30785995D01*
X15264776Y-30749500D01*
X15264772Y-30749500D01*
X15135228Y-30749500D01*
X15135223Y-30749500D01*
X15010933Y-30785995D01*
X14901950Y-30856033D01*
X14817119Y-30953936D01*
X14817118Y-30953936D01*
X14763301Y-31071776D01*
X14744867Y-31199997D01*
X14026539Y-31199997D01*
X14030133Y-31175002D01*
X14030133Y-31174997D01*
X14011698Y-31046776D01*
X13969299Y-30953937D01*
X13957882Y-30928937D01*
X13873049Y-30831033D01*
X13764069Y-30760996D01*
X13764066Y-30760995D01*
X13639776Y-30724500D01*
X13639772Y-30724500D01*
X13510228Y-30724500D01*
X13510223Y-30724500D01*
X13385933Y-30760995D01*
X13276950Y-30831033D01*
X13192119Y-30928936D01*
X13192118Y-30928936D01*
X13138301Y-31046776D01*
X13119867Y-31174997D01*
X12649765Y-31174997D01*
X12698049Y-31143967D01*
X12782882Y-31046063D01*
X12836697Y-30928226D01*
X12836697Y-30928224D01*
X12836698Y-30928223D01*
X12855133Y-30800002D01*
X12855133Y-30799997D01*
X12836698Y-30671776D01*
X12826525Y-30649500D01*
X12782882Y-30553937D01*
X12698049Y-30456033D01*
X12589069Y-30385996D01*
X12589066Y-30385995D01*
X12464776Y-30349500D01*
X12464772Y-30349500D01*
X12335228Y-30349500D01*
X12335223Y-30349500D01*
X12210933Y-30385995D01*
X12101950Y-30456033D01*
X12017119Y-30553936D01*
X12017118Y-30553936D01*
X11963301Y-30671776D01*
X11944867Y-30799997D01*
X2500000Y-30799997D01*
X2500000Y-29849997D01*
X6344867Y-29849997D01*
X6344867Y-29850001D01*
X6363301Y-29978223D01*
X6417118Y-30096063D01*
X6501951Y-30193967D01*
X6610931Y-30264004D01*
X6680093Y-30284311D01*
X6735223Y-30300499D01*
X6735228Y-30300500D01*
X6864772Y-30300500D01*
X6864776Y-30300499D01*
X6885324Y-30294465D01*
X6989069Y-30264004D01*
X7098049Y-30193967D01*
X7179473Y-30099997D01*
X18644867Y-30099997D01*
X18644867Y-30100002D01*
X18663301Y-30228223D01*
X18679642Y-30264004D01*
X18717118Y-30346063D01*
X18801951Y-30443967D01*
X18910931Y-30514004D01*
X18980093Y-30534311D01*
X19035223Y-30550499D01*
X19035228Y-30550500D01*
X19164772Y-30550500D01*
X19164776Y-30550499D01*
X19185324Y-30544465D01*
X19289069Y-30514004D01*
X19398049Y-30443967D01*
X19482882Y-30346063D01*
X19536697Y-30228226D01*
X19536697Y-30228224D01*
X19536698Y-30228223D01*
X19555133Y-30100002D01*
X19555133Y-30099997D01*
X19536698Y-29971776D01*
X19529297Y-29955572D01*
X19482882Y-29853937D01*
X19479903Y-29850499D01*
X19467060Y-29835676D01*
X19455217Y-29800092D01*
X19472005Y-29766557D01*
X19507589Y-29754714D01*
X19530583Y-29762368D01*
X19572079Y-29789035D01*
X19610931Y-29814004D01*
X19684741Y-29835676D01*
X19735223Y-29850499D01*
X19735228Y-29850500D01*
X19864772Y-29850500D01*
X19864776Y-29850499D01*
X19885324Y-29844465D01*
X19989069Y-29814004D01*
X20098049Y-29743967D01*
X20182882Y-29646063D01*
X20236697Y-29528226D01*
X20236697Y-29528224D01*
X20236698Y-29528223D01*
X20255133Y-29400002D01*
X20255133Y-29399997D01*
X20236698Y-29271776D01*
X20192061Y-29174036D01*
X20182882Y-29153937D01*
X20098049Y-29056033D01*
X19989069Y-28985996D01*
X19984165Y-28984556D01*
X19864776Y-28949500D01*
X19864772Y-28949500D01*
X19735228Y-28949500D01*
X19735223Y-28949500D01*
X19610933Y-28985995D01*
X19501950Y-29056033D01*
X19417119Y-29153936D01*
X19417118Y-29153936D01*
X19363301Y-29271776D01*
X19344867Y-29399997D01*
X19344867Y-29400002D01*
X19363301Y-29528223D01*
X19417118Y-29646063D01*
X19432940Y-29664323D01*
X19444782Y-29699907D01*
X19427994Y-29733443D01*
X19392410Y-29745285D01*
X19369416Y-29737632D01*
X19362898Y-29733443D01*
X19289069Y-29685996D01*
X19289066Y-29685995D01*
X19164776Y-29649500D01*
X19164772Y-29649500D01*
X19035228Y-29649500D01*
X19035223Y-29649500D01*
X18910933Y-29685995D01*
X18801950Y-29756033D01*
X18717119Y-29853936D01*
X18717118Y-29853936D01*
X18663301Y-29971776D01*
X18644867Y-30099997D01*
X7179473Y-30099997D01*
X7182882Y-30096063D01*
X7236697Y-29978226D01*
X7236697Y-29978224D01*
X7236698Y-29978223D01*
X7255133Y-29850001D01*
X7255133Y-29849997D01*
X7236698Y-29721776D01*
X7226711Y-29699907D01*
X7182882Y-29603937D01*
X7098049Y-29506033D01*
X6989069Y-29435996D01*
X6989066Y-29435995D01*
X6864776Y-29399500D01*
X6864772Y-29399500D01*
X6735228Y-29399500D01*
X6735223Y-29399500D01*
X6610933Y-29435995D01*
X6501950Y-29506033D01*
X6417119Y-29603936D01*
X6417118Y-29603936D01*
X6363301Y-29721776D01*
X6344867Y-29849997D01*
X2500000Y-29849997D01*
X2500000Y-28000000D01*
X3644341Y-28000000D01*
X3664937Y-28235410D01*
X3664938Y-28235416D01*
X3726094Y-28463655D01*
X3726095Y-28463660D01*
X3825963Y-28677828D01*
X3825970Y-28677840D01*
X3961500Y-28871395D01*
X3961506Y-28871402D01*
X4128597Y-29038493D01*
X4128604Y-29038499D01*
X4322159Y-29174029D01*
X4322171Y-29174036D01*
X4536339Y-29273904D01*
X4536344Y-29273905D01*
X4764583Y-29335061D01*
X4764587Y-29335061D01*
X4764592Y-29335063D01*
X5000000Y-29355659D01*
X5235408Y-29335063D01*
X5235414Y-29335061D01*
X5235416Y-29335061D01*
X5349535Y-29304483D01*
X5463657Y-29273904D01*
X5463660Y-29273904D01*
X5463660Y-29273903D01*
X5463663Y-29273903D01*
X5677830Y-29174035D01*
X5677831Y-29174034D01*
X5677840Y-29174029D01*
X5871395Y-29038499D01*
X5871401Y-29038495D01*
X6038495Y-28871401D01*
X6082943Y-28807923D01*
X6174029Y-28677840D01*
X6174036Y-28677828D01*
X6230490Y-28556762D01*
X6273903Y-28463663D01*
X6305558Y-28345523D01*
X6335061Y-28235416D01*
X6335062Y-28235410D01*
X6335063Y-28235408D01*
X6355659Y-28000000D01*
X6335063Y-27764592D01*
X6326032Y-27730887D01*
X6330926Y-27693707D01*
X6360679Y-27670876D01*
X6397861Y-27675770D01*
X6414220Y-27693759D01*
X6415224Y-27693115D01*
X6417115Y-27696057D01*
X6417118Y-27696063D01*
X6501951Y-27793967D01*
X6610931Y-27864004D01*
X6680093Y-27884311D01*
X6735223Y-27900499D01*
X6735228Y-27900500D01*
X6864772Y-27900500D01*
X6864776Y-27900499D01*
X6900328Y-27890060D01*
X6989069Y-27864004D01*
X7088666Y-27799997D01*
X7944867Y-27799997D01*
X7944867Y-27800002D01*
X7963301Y-27928223D01*
X8017118Y-28046063D01*
X8081568Y-28120444D01*
X8101951Y-28143967D01*
X8210931Y-28214004D01*
X8280093Y-28234311D01*
X8335223Y-28250499D01*
X8335228Y-28250500D01*
X8464772Y-28250500D01*
X8464776Y-28250499D01*
X8493245Y-28242139D01*
X8589069Y-28214004D01*
X8645478Y-28177751D01*
X8682384Y-28171093D01*
X8713190Y-28192481D01*
X8719849Y-28229388D01*
X8717241Y-28237720D01*
X8714955Y-28243238D01*
X8694318Y-28400000D01*
X8714955Y-28556761D01*
X8775461Y-28702836D01*
X8775464Y-28702841D01*
X8871718Y-28828282D01*
X8997159Y-28924536D01*
X8997161Y-28924536D01*
X8997163Y-28924538D01*
X9039470Y-28942062D01*
X9143238Y-28985044D01*
X9300000Y-29005682D01*
X9456762Y-28985044D01*
X9602841Y-28924536D01*
X9728282Y-28828282D01*
X9824536Y-28702841D01*
X9885044Y-28556762D01*
X9901419Y-28432379D01*
X9920171Y-28399902D01*
X9956396Y-28390195D01*
X9988874Y-28408947D01*
X9998581Y-28432380D01*
X10014955Y-28556761D01*
X10075461Y-28702836D01*
X10075464Y-28702841D01*
X10171718Y-28828282D01*
X10297159Y-28924536D01*
X10297161Y-28924536D01*
X10297163Y-28924538D01*
X10339470Y-28942062D01*
X10443238Y-28985044D01*
X10600000Y-29005682D01*
X10756762Y-28985044D01*
X10902841Y-28924536D01*
X11028282Y-28828282D01*
X11124536Y-28702841D01*
X11185044Y-28556762D01*
X11201671Y-28430460D01*
X11220422Y-28397983D01*
X11256647Y-28388276D01*
X11289126Y-28407027D01*
X11298833Y-28430461D01*
X11315443Y-28556630D01*
X11357936Y-28659218D01*
X11357937Y-28659218D01*
X11600000Y-28417155D01*
X11600000Y-28439496D01*
X11620444Y-28515796D01*
X11659940Y-28584205D01*
X11715795Y-28640060D01*
X11784204Y-28679556D01*
X11860504Y-28700000D01*
X11882843Y-28700000D01*
X11640780Y-28942061D01*
X11743371Y-28984556D01*
X11900000Y-29005176D01*
X12056628Y-28984556D01*
X12056632Y-28984555D01*
X12159218Y-28942062D01*
X12159218Y-28942061D01*
X11917157Y-28700000D01*
X11939496Y-28700000D01*
X12015796Y-28679556D01*
X12084205Y-28640060D01*
X12140060Y-28584205D01*
X12179556Y-28515796D01*
X12200000Y-28439496D01*
X12200000Y-28417157D01*
X12442061Y-28659218D01*
X12442062Y-28659218D01*
X12484555Y-28556632D01*
X12484556Y-28556628D01*
X12505176Y-28400000D01*
X12484556Y-28243371D01*
X12442061Y-28140780D01*
X12200000Y-28382841D01*
X12200000Y-28360504D01*
X12179556Y-28284204D01*
X12140060Y-28215795D01*
X12084205Y-28159940D01*
X12015796Y-28120444D01*
X11939496Y-28100000D01*
X11917157Y-28100000D01*
X12159218Y-27857937D01*
X12159218Y-27857936D01*
X12056630Y-27815443D01*
X11899999Y-27794823D01*
X11899992Y-27794823D01*
X11898797Y-27794980D01*
X11898212Y-27794823D01*
X11896789Y-27794823D01*
X11896789Y-27794441D01*
X11862574Y-27785265D01*
X11843831Y-27752782D01*
X11843831Y-27740010D01*
X11855682Y-27650000D01*
X15394318Y-27650000D01*
X15414955Y-27806761D01*
X15475461Y-27952836D01*
X15475464Y-27952841D01*
X15546995Y-28046063D01*
X15571718Y-28078282D01*
X15697159Y-28174536D01*
X15697161Y-28174536D01*
X15697163Y-28174538D01*
X15792443Y-28214004D01*
X15843238Y-28235044D01*
X16000000Y-28255682D01*
X16001122Y-28255534D01*
X16001673Y-28255682D01*
X16003212Y-28255682D01*
X16003212Y-28256094D01*
X16037346Y-28265240D01*
X16056099Y-28297718D01*
X16056099Y-28310510D01*
X16044318Y-28399999D01*
X16064955Y-28556761D01*
X16125461Y-28702836D01*
X16125464Y-28702841D01*
X16221718Y-28828282D01*
X16347159Y-28924536D01*
X16347161Y-28924536D01*
X16347163Y-28924538D01*
X16389470Y-28942062D01*
X16493238Y-28985044D01*
X16650000Y-29005682D01*
X16806762Y-28985044D01*
X16952841Y-28924536D01*
X17078282Y-28828282D01*
X17174536Y-28702841D01*
X17235044Y-28556762D01*
X17251419Y-28432379D01*
X17270171Y-28399902D01*
X17306396Y-28390195D01*
X17338874Y-28408947D01*
X17348581Y-28432380D01*
X17364955Y-28556761D01*
X17425461Y-28702836D01*
X17425464Y-28702841D01*
X17521718Y-28828282D01*
X17647159Y-28924536D01*
X17647161Y-28924536D01*
X17647163Y-28924538D01*
X17689470Y-28942062D01*
X17793238Y-28985044D01*
X17950000Y-29005682D01*
X18106762Y-28985044D01*
X18252841Y-28924536D01*
X18378282Y-28828282D01*
X18474536Y-28702841D01*
X18535044Y-28556762D01*
X18555682Y-28400000D01*
X18555682Y-28399997D01*
X20244867Y-28399997D01*
X20244867Y-28400002D01*
X20263301Y-28528223D01*
X20317118Y-28646063D01*
X20344652Y-28677840D01*
X20401951Y-28743967D01*
X20510931Y-28814004D01*
X20559559Y-28828282D01*
X20635223Y-28850499D01*
X20635228Y-28850500D01*
X20764772Y-28850500D01*
X20764776Y-28850499D01*
X20785324Y-28844465D01*
X20889069Y-28814004D01*
X20998049Y-28743967D01*
X21082882Y-28646063D01*
X21136697Y-28528226D01*
X21136697Y-28528224D01*
X21136698Y-28528223D01*
X21155133Y-28400002D01*
X21155133Y-28399997D01*
X21136698Y-28271776D01*
X21110314Y-28214004D01*
X21082882Y-28153937D01*
X20998049Y-28056033D01*
X20910860Y-28000000D01*
X21644341Y-28000000D01*
X21664937Y-28235410D01*
X21664938Y-28235416D01*
X21726094Y-28463655D01*
X21726095Y-28463660D01*
X21825963Y-28677828D01*
X21825970Y-28677840D01*
X21961500Y-28871395D01*
X21961506Y-28871402D01*
X22128597Y-29038493D01*
X22128604Y-29038499D01*
X22322159Y-29174029D01*
X22322171Y-29174036D01*
X22536339Y-29273904D01*
X22536344Y-29273905D01*
X22764583Y-29335061D01*
X22764587Y-29335061D01*
X22764592Y-29335063D01*
X23000000Y-29355659D01*
X23235408Y-29335063D01*
X23235414Y-29335061D01*
X23235416Y-29335061D01*
X23349535Y-29304483D01*
X23463657Y-29273904D01*
X23463660Y-29273904D01*
X23463660Y-29273903D01*
X23463663Y-29273903D01*
X23677830Y-29174035D01*
X23677831Y-29174034D01*
X23677840Y-29174029D01*
X23871395Y-29038499D01*
X23871401Y-29038495D01*
X24038495Y-28871401D01*
X24082943Y-28807923D01*
X24174029Y-28677840D01*
X24174036Y-28677828D01*
X24230490Y-28556762D01*
X24273903Y-28463663D01*
X24305558Y-28345523D01*
X24335061Y-28235416D01*
X24335062Y-28235410D01*
X24335063Y-28235408D01*
X24355659Y-28000000D01*
X24335063Y-27764592D01*
X24328474Y-27740002D01*
X24273905Y-27536344D01*
X24273904Y-27536339D01*
X24174036Y-27322172D01*
X24174028Y-27322160D01*
X24038499Y-27128604D01*
X24038493Y-27128597D01*
X23871402Y-26961506D01*
X23871395Y-26961500D01*
X23677840Y-26825970D01*
X23677828Y-26825963D01*
X23463660Y-26726095D01*
X23463655Y-26726094D01*
X23235416Y-26664938D01*
X23235410Y-26664937D01*
X23000000Y-26644341D01*
X22764589Y-26664937D01*
X22764583Y-26664938D01*
X22536344Y-26726094D01*
X22536339Y-26726095D01*
X22322172Y-26825963D01*
X22322160Y-26825971D01*
X22128604Y-26961500D01*
X22128597Y-26961506D01*
X21961506Y-27128597D01*
X21961500Y-27128604D01*
X21825971Y-27322160D01*
X21825963Y-27322172D01*
X21726095Y-27536339D01*
X21726094Y-27536344D01*
X21664938Y-27764583D01*
X21664937Y-27764589D01*
X21644341Y-28000000D01*
X20910860Y-28000000D01*
X20889069Y-27985996D01*
X20889066Y-27985995D01*
X20764776Y-27949500D01*
X20764772Y-27949500D01*
X20635228Y-27949500D01*
X20635223Y-27949500D01*
X20510933Y-27985995D01*
X20401950Y-28056033D01*
X20317119Y-28153936D01*
X20317118Y-28153936D01*
X20263301Y-28271776D01*
X20244867Y-28399997D01*
X18555682Y-28399997D01*
X18543900Y-28310510D01*
X18553607Y-28274286D01*
X18586085Y-28255534D01*
X18598876Y-28255534D01*
X18600000Y-28255682D01*
X18756762Y-28235044D01*
X18902841Y-28174536D01*
X19028282Y-28078282D01*
X19124536Y-27952841D01*
X19185044Y-27806762D01*
X19205682Y-27650000D01*
X19185044Y-27493238D01*
X19150541Y-27409940D01*
X19124538Y-27347163D01*
X19124535Y-27347158D01*
X19105353Y-27322160D01*
X19028282Y-27221718D01*
X19005109Y-27203937D01*
X18902841Y-27125464D01*
X18902836Y-27125461D01*
X18756761Y-27064955D01*
X18600000Y-27044318D01*
X18443238Y-27064955D01*
X18297163Y-27125461D01*
X18297158Y-27125464D01*
X18171718Y-27221717D01*
X18171717Y-27221718D01*
X18075464Y-27347158D01*
X18075461Y-27347163D01*
X18014955Y-27493238D01*
X17998328Y-27619538D01*
X17979576Y-27652016D01*
X17943351Y-27661723D01*
X17910873Y-27642971D01*
X17901166Y-27619538D01*
X17884556Y-27493370D01*
X17842061Y-27390780D01*
X17600000Y-27632841D01*
X17600000Y-27610504D01*
X17579556Y-27534204D01*
X17540060Y-27465795D01*
X17484205Y-27409940D01*
X17415796Y-27370444D01*
X17339496Y-27350000D01*
X17317158Y-27350000D01*
X17559218Y-27107937D01*
X17559218Y-27107936D01*
X17456630Y-27065443D01*
X17300000Y-27044823D01*
X17143369Y-27065443D01*
X17040780Y-27107936D01*
X17040780Y-27107937D01*
X17282843Y-27350000D01*
X17260504Y-27350000D01*
X17184204Y-27370444D01*
X17115795Y-27409940D01*
X17059940Y-27465795D01*
X17020444Y-27534204D01*
X17000000Y-27610504D01*
X17000000Y-27632843D01*
X16757937Y-27390780D01*
X16757936Y-27390780D01*
X16715443Y-27493369D01*
X16698833Y-27619538D01*
X16680081Y-27652016D01*
X16643856Y-27661723D01*
X16611378Y-27642971D01*
X16601671Y-27619538D01*
X16585044Y-27493238D01*
X16550541Y-27409940D01*
X16524538Y-27347163D01*
X16524535Y-27347158D01*
X16505353Y-27322160D01*
X16428282Y-27221718D01*
X16405109Y-27203937D01*
X16302841Y-27125464D01*
X16302836Y-27125461D01*
X16156761Y-27064955D01*
X16000000Y-27044318D01*
X15843238Y-27064955D01*
X15697163Y-27125461D01*
X15697158Y-27125464D01*
X15571718Y-27221717D01*
X15571717Y-27221718D01*
X15475464Y-27347158D01*
X15475461Y-27347163D01*
X15414955Y-27493238D01*
X15394318Y-27650000D01*
X11855682Y-27650000D01*
X11835044Y-27493238D01*
X11800541Y-27409940D01*
X11774538Y-27347163D01*
X11774535Y-27347158D01*
X11755353Y-27322160D01*
X11678282Y-27221718D01*
X11655109Y-27203937D01*
X11552841Y-27125464D01*
X11552836Y-27125461D01*
X11406761Y-27064955D01*
X11250000Y-27044318D01*
X11093238Y-27064955D01*
X10947163Y-27125461D01*
X10947158Y-27125464D01*
X10821718Y-27221717D01*
X10821717Y-27221718D01*
X10725464Y-27347158D01*
X10725461Y-27347163D01*
X10664955Y-27493238D01*
X10648581Y-27617619D01*
X10629829Y-27650097D01*
X10593604Y-27659804D01*
X10561126Y-27641052D01*
X10551419Y-27617619D01*
X10535044Y-27493238D01*
X10474538Y-27347163D01*
X10474535Y-27347158D01*
X10455353Y-27322160D01*
X10378282Y-27221718D01*
X10355109Y-27203937D01*
X10252841Y-27125464D01*
X10252836Y-27125461D01*
X10106761Y-27064955D01*
X9950000Y-27044318D01*
X9793238Y-27064955D01*
X9647163Y-27125461D01*
X9647158Y-27125464D01*
X9521718Y-27221717D01*
X9521717Y-27221718D01*
X9425464Y-27347158D01*
X9425461Y-27347163D01*
X9364955Y-27493238D01*
X9344318Y-27650000D01*
X9356099Y-27739488D01*
X9346392Y-27775714D01*
X9313914Y-27794465D01*
X9301134Y-27794466D01*
X9300008Y-27794318D01*
X9300001Y-27794318D01*
X9300000Y-27794318D01*
X9294972Y-27794980D01*
X9143238Y-27814955D01*
X8997163Y-27875461D01*
X8920778Y-27934073D01*
X8884553Y-27943779D01*
X8852074Y-27925027D01*
X8842368Y-27888802D01*
X8842448Y-27888224D01*
X8845931Y-27864004D01*
X8854161Y-27806761D01*
X8855133Y-27800001D01*
X8855133Y-27799997D01*
X8836698Y-27671776D01*
X8823543Y-27642971D01*
X8782882Y-27553937D01*
X8698049Y-27456033D01*
X8589069Y-27385996D01*
X8589066Y-27385995D01*
X8464776Y-27349500D01*
X8464772Y-27349500D01*
X8335228Y-27349500D01*
X8335223Y-27349500D01*
X8210933Y-27385995D01*
X8101950Y-27456033D01*
X8017119Y-27553936D01*
X8017118Y-27553936D01*
X7963301Y-27671776D01*
X7944867Y-27799997D01*
X7088666Y-27799997D01*
X7098049Y-27793967D01*
X7182882Y-27696063D01*
X7236697Y-27578226D01*
X7236697Y-27578224D01*
X7236698Y-27578223D01*
X7255133Y-27450002D01*
X7255133Y-27449997D01*
X7236698Y-27321776D01*
X7191002Y-27221717D01*
X7182882Y-27203937D01*
X7098049Y-27106033D01*
X6989069Y-27035996D01*
X6989066Y-27035995D01*
X6864776Y-26999500D01*
X6864772Y-26999500D01*
X6735228Y-26999500D01*
X6735223Y-26999500D01*
X6610933Y-27035995D01*
X6501950Y-27106033D01*
X6417119Y-27203936D01*
X6417118Y-27203936D01*
X6363301Y-27321776D01*
X6344867Y-27449997D01*
X6344867Y-27450002D01*
X6347276Y-27466759D01*
X6338001Y-27503097D01*
X6305748Y-27522233D01*
X6269410Y-27512958D01*
X6254366Y-27494440D01*
X6174036Y-27322172D01*
X6174028Y-27322160D01*
X6038499Y-27128604D01*
X6038493Y-27128597D01*
X5871402Y-26961506D01*
X5871395Y-26961500D01*
X5697359Y-26839638D01*
X5677208Y-26808009D01*
X5685326Y-26771395D01*
X5716955Y-26751244D01*
X5725464Y-26750500D01*
X5764772Y-26750500D01*
X5764776Y-26750499D01*
X5785324Y-26744465D01*
X5889069Y-26714004D01*
X5998049Y-26643967D01*
X6082882Y-26546063D01*
X6136697Y-26428226D01*
X6136697Y-26428224D01*
X6136698Y-26428223D01*
X6155133Y-26300002D01*
X6155133Y-26299997D01*
X6136698Y-26171776D01*
X6097523Y-26085996D01*
X6082882Y-26053937D01*
X5998049Y-25956033D01*
X5889069Y-25885996D01*
X5889066Y-25885995D01*
X5764776Y-25849500D01*
X5764772Y-25849500D01*
X5635228Y-25849500D01*
X5635223Y-25849500D01*
X5510933Y-25885995D01*
X5401950Y-25956033D01*
X5317119Y-26053936D01*
X5317118Y-26053936D01*
X5263301Y-26171776D01*
X5244867Y-26299997D01*
X5244867Y-26300002D01*
X5263301Y-26428223D01*
X5317118Y-26546063D01*
X5371318Y-26608614D01*
X5383161Y-26644198D01*
X5366374Y-26677734D01*
X5330790Y-26689577D01*
X5321604Y-26688032D01*
X5235416Y-26664938D01*
X5235410Y-26664937D01*
X5000000Y-26644341D01*
X4764589Y-26664937D01*
X4764583Y-26664938D01*
X4536344Y-26726094D01*
X4536339Y-26726095D01*
X4322172Y-26825963D01*
X4322160Y-26825971D01*
X4128604Y-26961500D01*
X4128597Y-26961506D01*
X3961506Y-27128597D01*
X3961500Y-27128604D01*
X3825971Y-27322160D01*
X3825963Y-27322172D01*
X3726095Y-27536339D01*
X3726094Y-27536344D01*
X3664938Y-27764583D01*
X3664937Y-27764589D01*
X3644341Y-28000000D01*
X2500000Y-28000000D01*
X2500000Y-25799997D01*
X4094867Y-25799997D01*
X4094867Y-25800002D01*
X4113301Y-25928223D01*
X4126002Y-25956033D01*
X4167118Y-26046063D01*
X4251951Y-26143967D01*
X4360931Y-26214004D01*
X4430093Y-26234311D01*
X4485223Y-26250499D01*
X4485228Y-26250500D01*
X4614772Y-26250500D01*
X4614776Y-26250499D01*
X4635324Y-26244465D01*
X4739069Y-26214004D01*
X4848049Y-26143967D01*
X4932882Y-26046063D01*
X4986697Y-25928226D01*
X4986697Y-25928224D01*
X4986698Y-25928223D01*
X5005133Y-25800002D01*
X5005133Y-25799997D01*
X7944867Y-25799997D01*
X7944867Y-25800002D01*
X7963301Y-25928223D01*
X8017118Y-26046063D01*
X8101951Y-26143968D01*
X8101953Y-26143970D01*
X8124997Y-26158779D01*
X8146386Y-26189584D01*
X8139727Y-26226491D01*
X8124997Y-26241221D01*
X8101953Y-26256029D01*
X8101951Y-26256031D01*
X8017119Y-26353936D01*
X8017118Y-26353936D01*
X7963301Y-26471776D01*
X7944867Y-26599997D01*
X7944867Y-26600002D01*
X7963301Y-26728223D01*
X8007939Y-26825965D01*
X8017118Y-26846063D01*
X8101951Y-26943967D01*
X8210931Y-27014004D01*
X8280093Y-27034311D01*
X8335223Y-27050499D01*
X8335228Y-27050500D01*
X8464772Y-27050500D01*
X8464776Y-27050499D01*
X8485826Y-27044318D01*
X8589069Y-27014004D01*
X8698049Y-26943967D01*
X8782882Y-26846063D01*
X8836697Y-26728226D01*
X8836697Y-26728224D01*
X8836698Y-26728223D01*
X8855133Y-26600002D01*
X8855133Y-26599997D01*
X8840755Y-26499997D01*
X20344867Y-26499997D01*
X20344867Y-26500002D01*
X20363301Y-26628223D01*
X20390616Y-26688032D01*
X20417118Y-26746063D01*
X20501951Y-26843967D01*
X20610931Y-26914004D01*
X20680093Y-26934311D01*
X20735223Y-26950499D01*
X20735228Y-26950500D01*
X20864772Y-26950500D01*
X20864776Y-26950499D01*
X20887025Y-26943966D01*
X20989069Y-26914004D01*
X21098049Y-26843967D01*
X21182882Y-26746063D01*
X21236697Y-26628226D01*
X21236697Y-26628224D01*
X21236698Y-26628223D01*
X21255133Y-26500002D01*
X21255133Y-26499997D01*
X21236698Y-26371776D01*
X21203919Y-26300002D01*
X21182882Y-26253937D01*
X21098049Y-26156033D01*
X20989069Y-26085996D01*
X20989066Y-26085995D01*
X20864776Y-26049500D01*
X20864772Y-26049500D01*
X20735228Y-26049500D01*
X20735223Y-26049500D01*
X20610933Y-26085995D01*
X20501950Y-26156033D01*
X20417119Y-26253936D01*
X20417118Y-26253936D01*
X20363301Y-26371776D01*
X20344867Y-26499997D01*
X8840755Y-26499997D01*
X8836698Y-26471776D01*
X8816808Y-26428223D01*
X8782882Y-26353937D01*
X8698049Y-26256033D01*
X8675001Y-26241221D01*
X8653613Y-26210417D01*
X8660271Y-26173509D01*
X8675002Y-26158778D01*
X8698049Y-26143967D01*
X8782882Y-26046063D01*
X8836697Y-25928226D01*
X8836697Y-25928224D01*
X8836698Y-25928223D01*
X8855133Y-25800002D01*
X8855133Y-25799997D01*
X8836698Y-25671776D01*
X8829297Y-25655572D01*
X8782882Y-25553937D01*
X8698049Y-25456033D01*
X8589069Y-25385996D01*
X8589066Y-25385995D01*
X8464776Y-25349500D01*
X8464772Y-25349500D01*
X8335228Y-25349500D01*
X8335223Y-25349500D01*
X8210933Y-25385995D01*
X8101950Y-25456033D01*
X8017119Y-25553936D01*
X8017118Y-25553936D01*
X7963301Y-25671776D01*
X7944867Y-25799997D01*
X5005133Y-25799997D01*
X4986698Y-25671776D01*
X4979297Y-25655572D01*
X4932882Y-25553937D01*
X4848049Y-25456033D01*
X4739069Y-25385996D01*
X4739066Y-25385995D01*
X4614776Y-25349500D01*
X4614772Y-25349500D01*
X4485228Y-25349500D01*
X4485223Y-25349500D01*
X4360933Y-25385995D01*
X4251950Y-25456033D01*
X4167119Y-25553936D01*
X4167118Y-25553936D01*
X4113301Y-25671776D01*
X4094867Y-25799997D01*
X2500000Y-25799997D01*
X2500000Y-24649997D01*
X3744867Y-24649997D01*
X3744867Y-24650002D01*
X3763301Y-24778223D01*
X3817118Y-24896063D01*
X3858625Y-24943966D01*
X3901951Y-24993967D01*
X4010931Y-25064004D01*
X4080093Y-25084311D01*
X4135223Y-25100499D01*
X4135228Y-25100500D01*
X4264772Y-25100500D01*
X4264776Y-25100499D01*
X4285324Y-25094465D01*
X4389069Y-25064004D01*
X4498049Y-24993967D01*
X4582882Y-24896063D01*
X4636697Y-24778226D01*
X4636697Y-24778224D01*
X4636698Y-24778223D01*
X4655133Y-24650002D01*
X4655133Y-24649997D01*
X4647944Y-24599997D01*
X10144867Y-24599997D01*
X10144867Y-24600002D01*
X10163301Y-24728223D01*
X10217118Y-24846063D01*
X10301951Y-24943967D01*
X10410931Y-25014004D01*
X10459358Y-25028223D01*
X10535223Y-25050499D01*
X10535228Y-25050500D01*
X10664772Y-25050500D01*
X10664776Y-25050499D01*
X10685324Y-25044465D01*
X10789069Y-25014004D01*
X10898049Y-24943967D01*
X10936149Y-24899997D01*
X20344867Y-24899997D01*
X20344867Y-24900002D01*
X20363301Y-25028223D01*
X20373475Y-25050500D01*
X20417118Y-25146063D01*
X20501951Y-25243967D01*
X20610931Y-25314004D01*
X20680093Y-25334311D01*
X20735223Y-25350499D01*
X20735228Y-25350500D01*
X20864772Y-25350500D01*
X20864776Y-25350499D01*
X20885324Y-25344465D01*
X20989069Y-25314004D01*
X21098049Y-25243967D01*
X21182882Y-25146063D01*
X21236697Y-25028226D01*
X21236697Y-25028224D01*
X21236698Y-25028223D01*
X21255133Y-24900002D01*
X21255133Y-24899997D01*
X21236698Y-24771776D01*
X21216808Y-24728223D01*
X21182882Y-24653937D01*
X21098049Y-24556033D01*
X20989069Y-24485996D01*
X20989066Y-24485995D01*
X20864776Y-24449500D01*
X20864772Y-24449500D01*
X20735228Y-24449500D01*
X20735223Y-24449500D01*
X20610933Y-24485995D01*
X20501950Y-24556033D01*
X20417119Y-24653936D01*
X20417118Y-24653936D01*
X20363301Y-24771776D01*
X20344867Y-24899997D01*
X10936149Y-24899997D01*
X10982882Y-24846063D01*
X11036697Y-24728226D01*
X11036697Y-24728224D01*
X11036698Y-24728223D01*
X11055133Y-24600002D01*
X11055133Y-24599997D01*
X11036698Y-24471776D01*
X11026525Y-24449500D01*
X10982882Y-24353937D01*
X10898049Y-24256033D01*
X10789069Y-24185996D01*
X10789066Y-24185995D01*
X10664776Y-24149500D01*
X10664772Y-24149500D01*
X10535228Y-24149500D01*
X10535223Y-24149500D01*
X10410933Y-24185995D01*
X10301950Y-24256033D01*
X10217119Y-24353936D01*
X10217118Y-24353936D01*
X10163301Y-24471776D01*
X10144867Y-24599997D01*
X4647944Y-24599997D01*
X4636698Y-24521776D01*
X4629297Y-24505572D01*
X4582882Y-24403937D01*
X4498049Y-24306033D01*
X4389069Y-24235996D01*
X4389066Y-24235995D01*
X4264776Y-24199500D01*
X4264772Y-24199500D01*
X4135228Y-24199500D01*
X4135223Y-24199500D01*
X4010933Y-24235995D01*
X3901950Y-24306033D01*
X3817119Y-24403936D01*
X3817118Y-24403936D01*
X3763301Y-24521776D01*
X3744867Y-24649997D01*
X2500000Y-24649997D01*
X2500000Y-22799997D01*
X6744867Y-22799997D01*
X6744867Y-22800002D01*
X6763301Y-22928223D01*
X6816160Y-23043966D01*
X6817118Y-23046063D01*
X6901951Y-23143967D01*
X7010931Y-23214004D01*
X7080093Y-23234311D01*
X7135223Y-23250499D01*
X7135228Y-23250500D01*
X7264772Y-23250500D01*
X7264776Y-23250499D01*
X7285324Y-23244465D01*
X7389069Y-23214004D01*
X7498049Y-23143967D01*
X7582882Y-23046063D01*
X7636697Y-22928226D01*
X7636697Y-22928224D01*
X7636698Y-22928223D01*
X7655133Y-22800002D01*
X7655133Y-22799997D01*
X7640755Y-22699997D01*
X20244867Y-22699997D01*
X20244867Y-22700002D01*
X20263301Y-22828223D01*
X20308971Y-22928223D01*
X20317118Y-22946063D01*
X20401951Y-23043967D01*
X20510931Y-23114004D01*
X20580093Y-23134311D01*
X20635223Y-23150499D01*
X20635228Y-23150500D01*
X20764772Y-23150500D01*
X20764776Y-23150499D01*
X20787025Y-23143966D01*
X20889069Y-23114004D01*
X20998049Y-23043967D01*
X21082882Y-22946063D01*
X21136697Y-22828226D01*
X21136697Y-22828224D01*
X21136698Y-22828223D01*
X21155133Y-22700002D01*
X21155133Y-22699997D01*
X21136698Y-22571776D01*
X21083839Y-22456033D01*
X21082882Y-22453937D01*
X20998049Y-22356033D01*
X20889069Y-22285996D01*
X20889066Y-22285995D01*
X20764776Y-22249500D01*
X20764772Y-22249500D01*
X20635228Y-22249500D01*
X20635223Y-22249500D01*
X20510933Y-22285995D01*
X20401950Y-22356033D01*
X20317119Y-22453936D01*
X20317118Y-22453936D01*
X20263301Y-22571776D01*
X20244867Y-22699997D01*
X7640755Y-22699997D01*
X7636698Y-22671776D01*
X7629297Y-22655572D01*
X7582882Y-22553937D01*
X7498049Y-22456033D01*
X7389069Y-22385996D01*
X7389066Y-22385995D01*
X7264776Y-22349500D01*
X7264772Y-22349500D01*
X7135228Y-22349500D01*
X7135223Y-22349500D01*
X7010933Y-22385995D01*
X6901950Y-22456033D01*
X6817119Y-22553936D01*
X6817118Y-22553936D01*
X6763301Y-22671776D01*
X6744867Y-22799997D01*
X2500000Y-22799997D01*
X2500000Y-21400000D01*
X15894318Y-21400000D01*
X15914955Y-21556761D01*
X15975461Y-21702836D01*
X15975464Y-21702841D01*
X16071718Y-21828282D01*
X16197159Y-21924536D01*
X16197161Y-21924536D01*
X16197163Y-21924538D01*
X16343238Y-21985044D01*
X16500000Y-22005682D01*
X16656762Y-21985044D01*
X16802841Y-21924536D01*
X16928282Y-21828282D01*
X17024536Y-21702841D01*
X17085044Y-21556762D01*
X17105682Y-21400000D01*
X17085044Y-21243238D01*
X17062125Y-21187907D01*
X17062125Y-21150405D01*
X17080170Y-21128416D01*
X17116542Y-21104114D01*
X17214114Y-21006542D01*
X17290775Y-20891811D01*
X17328805Y-20799997D01*
X20344867Y-20799997D01*
X20344867Y-20800002D01*
X20363301Y-20928223D01*
X20417118Y-21046063D01*
X20488473Y-21128413D01*
X20501951Y-21143967D01*
X20610931Y-21214004D01*
X20677599Y-21233579D01*
X20735223Y-21250499D01*
X20735228Y-21250500D01*
X20864772Y-21250500D01*
X20864776Y-21250499D01*
X20889505Y-21243238D01*
X20989069Y-21214004D01*
X21098049Y-21143967D01*
X21182882Y-21046063D01*
X21236697Y-20928226D01*
X21236697Y-20928224D01*
X21236698Y-20928223D01*
X21255133Y-20800002D01*
X21255133Y-20799997D01*
X21236698Y-20671776D01*
X21229297Y-20655572D01*
X21182882Y-20553937D01*
X21098049Y-20456033D01*
X20989069Y-20385996D01*
X20989066Y-20385995D01*
X20864776Y-20349500D01*
X20864772Y-20349500D01*
X20735228Y-20349500D01*
X20735223Y-20349500D01*
X20610933Y-20385995D01*
X20501950Y-20456033D01*
X20417119Y-20553936D01*
X20417118Y-20553936D01*
X20363301Y-20671776D01*
X20344867Y-20799997D01*
X17328805Y-20799997D01*
X17343580Y-20764328D01*
X17370500Y-20628993D01*
X17370500Y-19371007D01*
X17343580Y-19235672D01*
X17290775Y-19108189D01*
X17285301Y-19099997D01*
X20344867Y-19099997D01*
X20344867Y-19100002D01*
X20363301Y-19228223D01*
X20417118Y-19346063D01*
X20501951Y-19443967D01*
X20610931Y-19514004D01*
X20680093Y-19534311D01*
X20735223Y-19550499D01*
X20735228Y-19550500D01*
X20864772Y-19550500D01*
X20864776Y-19550499D01*
X20885324Y-19544465D01*
X20989069Y-19514004D01*
X21098049Y-19443967D01*
X21182882Y-19346063D01*
X21236697Y-19228226D01*
X21236697Y-19228224D01*
X21236698Y-19228223D01*
X21255133Y-19100002D01*
X21255133Y-19099997D01*
X21236698Y-18971776D01*
X21203690Y-18899500D01*
X21182882Y-18853937D01*
X21098049Y-18756033D01*
X20989069Y-18685996D01*
X20989066Y-18685995D01*
X20864776Y-18649500D01*
X20864772Y-18649500D01*
X20735228Y-18649500D01*
X20735223Y-18649500D01*
X20610933Y-18685995D01*
X20501950Y-18756033D01*
X20417119Y-18853936D01*
X20417118Y-18853936D01*
X20363301Y-18971776D01*
X20344867Y-19099997D01*
X17285301Y-19099997D01*
X17244613Y-19039102D01*
X17214116Y-18993460D01*
X17116539Y-18895883D01*
X17048074Y-18850137D01*
X17001811Y-18819225D01*
X17001808Y-18819223D01*
X17001807Y-18819223D01*
X16874329Y-18766420D01*
X16874318Y-18766417D01*
X16738998Y-18739500D01*
X16738993Y-18739500D01*
X16601007Y-18739500D01*
X16601001Y-18739500D01*
X16465681Y-18766417D01*
X16465670Y-18766420D01*
X16338192Y-18819223D01*
X16223460Y-18895883D01*
X16125883Y-18993460D01*
X16049223Y-19108192D01*
X15996420Y-19235670D01*
X15996417Y-19235681D01*
X15969500Y-19371001D01*
X15969500Y-20628998D01*
X15996417Y-20764318D01*
X15996420Y-20764329D01*
X16049223Y-20891807D01*
X16049225Y-20891811D01*
X16068727Y-20920998D01*
X16076043Y-20957780D01*
X16066860Y-20978049D01*
X15975461Y-21097163D01*
X15914955Y-21243238D01*
X15894318Y-21400000D01*
X2500000Y-21400000D01*
X2500000Y-19371001D01*
X13029500Y-19371001D01*
X13029500Y-20628998D01*
X13056417Y-20764318D01*
X13056420Y-20764329D01*
X13109223Y-20891807D01*
X13109225Y-20891811D01*
X13128727Y-20920997D01*
X13185883Y-21006539D01*
X13283460Y-21104116D01*
X13319824Y-21128413D01*
X13398189Y-21180775D01*
X13525672Y-21233580D01*
X13525678Y-21233581D01*
X13525681Y-21233582D01*
X13661001Y-21260499D01*
X13661007Y-21260500D01*
X13798993Y-21260500D01*
X13934328Y-21233580D01*
X14061811Y-21180775D01*
X14176542Y-21104114D01*
X14274114Y-21006542D01*
X14350775Y-20891811D01*
X14403580Y-20764328D01*
X14430500Y-20628993D01*
X14430500Y-19371007D01*
X14403580Y-19235672D01*
X14350775Y-19108189D01*
X14304613Y-19039102D01*
X14274116Y-18993460D01*
X14176539Y-18895883D01*
X14108074Y-18850137D01*
X14061811Y-18819225D01*
X14061808Y-18819223D01*
X14061807Y-18819223D01*
X13934329Y-18766420D01*
X13934318Y-18766417D01*
X13798998Y-18739500D01*
X13798993Y-18739500D01*
X13661007Y-18739500D01*
X13661001Y-18739500D01*
X13525681Y-18766417D01*
X13525670Y-18766420D01*
X13398192Y-18819223D01*
X13283460Y-18895883D01*
X13185883Y-18993460D01*
X13109223Y-19108192D01*
X13056420Y-19235670D01*
X13056417Y-19235681D01*
X13029500Y-19371001D01*
X2500000Y-19371001D01*
X2500000Y-18899500D01*
X2514352Y-18864852D01*
X2549000Y-18850500D01*
X7411772Y-18850500D01*
X7411777Y-18850500D01*
X7833720Y-18813585D01*
X8250841Y-18740035D01*
X8250846Y-18740033D01*
X8250849Y-18740033D01*
X8659956Y-18630413D01*
X8659957Y-18630412D01*
X8659963Y-18630411D01*
X9057974Y-18485547D01*
X9441845Y-18306545D01*
X9808655Y-18094768D01*
X10155610Y-17851826D01*
X10480072Y-17579571D01*
X10779571Y-17280072D01*
X10824106Y-17226997D01*
X15082828Y-17226997D01*
X15082828Y-17227002D01*
X15101262Y-17355223D01*
X15154126Y-17470976D01*
X15155079Y-17473063D01*
X15239912Y-17570967D01*
X15348892Y-17641004D01*
X15387221Y-17652258D01*
X15473184Y-17677499D01*
X15473189Y-17677500D01*
X15602733Y-17677500D01*
X15602737Y-17677499D01*
X15631529Y-17669045D01*
X15727030Y-17641004D01*
X15836010Y-17570967D01*
X15920843Y-17473063D01*
X15954212Y-17399997D01*
X18544867Y-17399997D01*
X18544867Y-17400002D01*
X18563301Y-17528223D01*
X18586760Y-17579589D01*
X18617118Y-17646063D01*
X18701951Y-17743967D01*
X18810931Y-17814004D01*
X18880093Y-17834311D01*
X18935223Y-17850499D01*
X18935228Y-17850500D01*
X19064772Y-17850500D01*
X19064776Y-17850499D01*
X19085324Y-17844465D01*
X19189069Y-17814004D01*
X19298049Y-17743967D01*
X19362968Y-17669044D01*
X19396504Y-17652258D01*
X19432088Y-17664101D01*
X19437029Y-17669042D01*
X19501951Y-17743967D01*
X19610931Y-17814004D01*
X19680093Y-17834311D01*
X19735223Y-17850499D01*
X19735228Y-17850500D01*
X19864772Y-17850500D01*
X19864776Y-17850499D01*
X19885324Y-17844465D01*
X19989069Y-17814004D01*
X20098049Y-17743967D01*
X20182882Y-17646063D01*
X20236697Y-17528226D01*
X20236697Y-17528224D01*
X20236698Y-17528223D01*
X20255133Y-17400002D01*
X20255133Y-17399997D01*
X20544867Y-17399997D01*
X20544867Y-17400002D01*
X20563301Y-17528223D01*
X20586760Y-17579589D01*
X20617118Y-17646063D01*
X20701951Y-17743967D01*
X20810931Y-17814004D01*
X20880093Y-17834311D01*
X20935223Y-17850499D01*
X20935228Y-17850500D01*
X21064772Y-17850500D01*
X21064776Y-17850499D01*
X21085324Y-17844465D01*
X21189069Y-17814004D01*
X21298049Y-17743967D01*
X21382882Y-17646063D01*
X21436697Y-17528226D01*
X21436697Y-17528224D01*
X21436698Y-17528223D01*
X21455133Y-17400002D01*
X21455133Y-17399997D01*
X21436698Y-17271776D01*
X21410458Y-17214319D01*
X21382882Y-17153937D01*
X21298049Y-17056033D01*
X21189069Y-16985996D01*
X21189066Y-16985995D01*
X21064776Y-16949500D01*
X21064772Y-16949500D01*
X20935228Y-16949500D01*
X20935223Y-16949500D01*
X20810933Y-16985995D01*
X20701950Y-17056033D01*
X20617119Y-17153936D01*
X20617118Y-17153936D01*
X20563301Y-17271776D01*
X20544867Y-17399997D01*
X20255133Y-17399997D01*
X20236698Y-17271776D01*
X20210458Y-17214319D01*
X20182882Y-17153937D01*
X20098049Y-17056033D01*
X19989069Y-16985996D01*
X19989066Y-16985995D01*
X19864776Y-16949500D01*
X19864772Y-16949500D01*
X19735228Y-16949500D01*
X19735223Y-16949500D01*
X19610933Y-16985995D01*
X19501950Y-17056033D01*
X19437032Y-17130954D01*
X19403496Y-17147741D01*
X19367912Y-17135898D01*
X19362968Y-17130954D01*
X19298049Y-17056033D01*
X19189069Y-16985996D01*
X19189066Y-16985995D01*
X19064776Y-16949500D01*
X19064772Y-16949500D01*
X18935228Y-16949500D01*
X18935223Y-16949500D01*
X18810933Y-16985995D01*
X18701950Y-17056033D01*
X18617119Y-17153936D01*
X18617118Y-17153936D01*
X18563301Y-17271776D01*
X18544867Y-17399997D01*
X15954212Y-17399997D01*
X15974658Y-17355226D01*
X15974658Y-17355224D01*
X15974659Y-17355223D01*
X15993094Y-17227002D01*
X15993094Y-17226997D01*
X15974659Y-17098776D01*
X15967258Y-17082572D01*
X15920843Y-16980937D01*
X15836010Y-16883033D01*
X15727030Y-16812996D01*
X15727027Y-16812995D01*
X15602737Y-16776500D01*
X15602733Y-16776500D01*
X15473189Y-16776500D01*
X15473184Y-16776500D01*
X15348894Y-16812995D01*
X15239911Y-16883033D01*
X15155080Y-16980936D01*
X15155079Y-16980936D01*
X15101262Y-17098776D01*
X15082828Y-17226997D01*
X10824106Y-17226997D01*
X11051826Y-16955610D01*
X11294768Y-16608655D01*
X11306114Y-16589004D01*
X11346550Y-16518966D01*
X11485841Y-16277706D01*
X11917868Y-16277706D01*
X11917868Y-16277711D01*
X11936302Y-16405932D01*
X11964252Y-16467132D01*
X11990119Y-16523772D01*
X12074952Y-16621676D01*
X12183932Y-16691713D01*
X12253094Y-16712020D01*
X12308224Y-16728208D01*
X12308229Y-16728209D01*
X12437773Y-16728209D01*
X12437777Y-16728208D01*
X12458325Y-16722174D01*
X12562070Y-16691713D01*
X12671050Y-16621676D01*
X12755883Y-16523772D01*
X12809698Y-16405935D01*
X12809698Y-16405933D01*
X12809699Y-16405932D01*
X12819336Y-16338906D01*
X14383776Y-16338906D01*
X14383776Y-16338911D01*
X14402210Y-16467132D01*
X14456027Y-16584972D01*
X14540860Y-16682876D01*
X14649840Y-16752913D01*
X14719002Y-16773220D01*
X14774132Y-16789408D01*
X14774137Y-16789409D01*
X14903681Y-16789409D01*
X14903685Y-16789408D01*
X14924233Y-16783374D01*
X15027978Y-16752913D01*
X15136958Y-16682876D01*
X15221791Y-16584972D01*
X15275606Y-16467135D01*
X15275606Y-16467133D01*
X15275607Y-16467132D01*
X15294042Y-16338911D01*
X15294042Y-16338906D01*
X15275607Y-16210685D01*
X15259310Y-16175000D01*
X15221791Y-16092846D01*
X15136958Y-15994942D01*
X15027978Y-15924905D01*
X15027975Y-15924904D01*
X14903685Y-15888409D01*
X14903681Y-15888409D01*
X14774137Y-15888409D01*
X14774132Y-15888409D01*
X14649842Y-15924904D01*
X14649840Y-15924904D01*
X14649840Y-15924905D01*
X14628314Y-15938739D01*
X14540859Y-15994942D01*
X14456028Y-16092845D01*
X14456027Y-16092845D01*
X14402210Y-16210685D01*
X14383776Y-16338906D01*
X12819336Y-16338906D01*
X12828134Y-16277711D01*
X12828134Y-16277706D01*
X12809699Y-16149485D01*
X12767045Y-16056087D01*
X12755883Y-16031646D01*
X12671050Y-15933742D01*
X12562070Y-15863705D01*
X12562067Y-15863704D01*
X12437777Y-15827209D01*
X12437773Y-15827209D01*
X12308229Y-15827209D01*
X12308224Y-15827209D01*
X12183934Y-15863704D01*
X12183932Y-15863704D01*
X12183932Y-15863705D01*
X12150425Y-15885238D01*
X12074951Y-15933742D01*
X11990120Y-16031645D01*
X11990119Y-16031645D01*
X11936302Y-16149485D01*
X11917868Y-16277706D01*
X11485841Y-16277706D01*
X11506545Y-16241845D01*
X11685547Y-15857974D01*
X11830411Y-15459963D01*
X11838473Y-15429877D01*
X11846479Y-15399997D01*
X14944867Y-15399997D01*
X14944867Y-15400002D01*
X14963301Y-15528223D01*
X14981067Y-15567124D01*
X15017118Y-15646063D01*
X15101951Y-15743967D01*
X15210931Y-15814004D01*
X15258166Y-15827873D01*
X15335223Y-15850499D01*
X15335228Y-15850500D01*
X15464772Y-15850500D01*
X15464776Y-15850499D01*
X15544096Y-15827209D01*
X15589069Y-15814004D01*
X15590406Y-15813144D01*
X15591308Y-15812981D01*
X15592256Y-15812549D01*
X15592366Y-15812790D01*
X15627311Y-15806485D01*
X15658118Y-15827873D01*
X15664778Y-15864780D01*
X15653929Y-15886454D01*
X15617119Y-15928936D01*
X15617118Y-15928936D01*
X15563301Y-16046776D01*
X15544867Y-16174997D01*
X15544867Y-16175002D01*
X15563301Y-16303223D01*
X15617118Y-16421063D01*
X15691225Y-16506589D01*
X15701951Y-16518967D01*
X15810931Y-16589004D01*
X15877841Y-16608650D01*
X15935223Y-16625499D01*
X15935228Y-16625500D01*
X16064772Y-16625500D01*
X16064776Y-16625499D01*
X16085324Y-16619465D01*
X16189069Y-16589004D01*
X16298049Y-16518967D01*
X16308779Y-16506584D01*
X17851454Y-16506584D01*
X17851454Y-16506589D01*
X17869888Y-16634810D01*
X17923705Y-16752650D01*
X17955555Y-16789408D01*
X18008538Y-16850554D01*
X18117518Y-16920591D01*
X18186680Y-16940898D01*
X18241810Y-16957086D01*
X18241815Y-16957087D01*
X18371359Y-16957087D01*
X18371363Y-16957086D01*
X18391911Y-16951052D01*
X18495656Y-16920591D01*
X18604636Y-16850554D01*
X18689469Y-16752650D01*
X18743284Y-16634813D01*
X18743284Y-16634811D01*
X18743285Y-16634810D01*
X18761720Y-16506589D01*
X18761720Y-16506584D01*
X18743285Y-16378363D01*
X18735625Y-16361590D01*
X18689469Y-16260524D01*
X18604636Y-16162620D01*
X18495656Y-16092583D01*
X18495653Y-16092582D01*
X18371363Y-16056087D01*
X18371359Y-16056087D01*
X18241815Y-16056087D01*
X18241810Y-16056087D01*
X18117520Y-16092582D01*
X18117518Y-16092582D01*
X18117518Y-16092583D01*
X18117109Y-16092846D01*
X18008537Y-16162620D01*
X17923706Y-16260523D01*
X17923705Y-16260523D01*
X17869888Y-16378363D01*
X17851454Y-16506584D01*
X16308779Y-16506584D01*
X16382882Y-16421063D01*
X16436697Y-16303226D01*
X16436697Y-16303224D01*
X16436698Y-16303223D01*
X16455133Y-16175002D01*
X16455133Y-16174997D01*
X16436698Y-16046776D01*
X16385076Y-15933742D01*
X16382882Y-15928937D01*
X16298049Y-15831033D01*
X16189069Y-15760996D01*
X16189066Y-15760995D01*
X16064776Y-15724500D01*
X16064772Y-15724500D01*
X15935228Y-15724500D01*
X15935223Y-15724500D01*
X15810930Y-15760995D01*
X15809584Y-15761861D01*
X15808678Y-15762024D01*
X15807744Y-15762451D01*
X15807634Y-15762212D01*
X15772675Y-15768511D01*
X15741874Y-15747115D01*
X15735224Y-15710206D01*
X15746068Y-15688548D01*
X15782882Y-15646063D01*
X15836697Y-15528226D01*
X15836697Y-15528224D01*
X15836698Y-15528223D01*
X15855133Y-15400002D01*
X15855133Y-15399997D01*
X15836698Y-15271776D01*
X15799487Y-15190297D01*
X15782882Y-15153937D01*
X15698049Y-15056033D01*
X15589069Y-14985996D01*
X15589066Y-14985995D01*
X15464776Y-14949500D01*
X15464772Y-14949500D01*
X15335228Y-14949500D01*
X15335223Y-14949500D01*
X15210933Y-14985995D01*
X15101950Y-15056033D01*
X15063747Y-15100122D01*
X15030210Y-15116909D01*
X15013605Y-15111382D01*
X15022159Y-15128468D01*
X15017856Y-15152321D01*
X14963301Y-15271776D01*
X14944867Y-15399997D01*
X11846479Y-15399997D01*
X11940033Y-15050849D01*
X11940034Y-15050844D01*
X11940035Y-15050841D01*
X11984266Y-14799997D01*
X14144867Y-14799997D01*
X14144867Y-14800002D01*
X14163301Y-14928223D01*
X14217118Y-15046063D01*
X14262383Y-15098303D01*
X14301951Y-15143967D01*
X14410931Y-15214004D01*
X14480093Y-15234311D01*
X14535223Y-15250499D01*
X14535228Y-15250500D01*
X14664772Y-15250500D01*
X14664776Y-15250499D01*
X14685324Y-15244465D01*
X14789069Y-15214004D01*
X14898049Y-15143967D01*
X14936041Y-15100122D01*
X14936252Y-15099878D01*
X14969787Y-15083090D01*
X14986393Y-15088616D01*
X14977840Y-15071529D01*
X14982143Y-15047678D01*
X14982878Y-15046066D01*
X14982882Y-15046063D01*
X15036697Y-14928226D01*
X15036697Y-14928224D01*
X15036698Y-14928223D01*
X15055133Y-14800002D01*
X15055133Y-14799997D01*
X15036698Y-14671776D01*
X15019578Y-14634290D01*
X14982882Y-14553937D01*
X14898049Y-14456033D01*
X14789069Y-14385996D01*
X14789066Y-14385995D01*
X14664776Y-14349500D01*
X14664772Y-14349500D01*
X14535228Y-14349500D01*
X14535223Y-14349500D01*
X14410933Y-14385995D01*
X14301950Y-14456033D01*
X14217119Y-14553936D01*
X14217118Y-14553936D01*
X14163301Y-14671776D01*
X14144867Y-14799997D01*
X11984266Y-14799997D01*
X12013585Y-14633720D01*
X12050500Y-14211777D01*
X12050500Y-14199997D01*
X18394867Y-14199997D01*
X18394867Y-14200002D01*
X18413301Y-14328223D01*
X18439686Y-14385996D01*
X18467118Y-14446063D01*
X18551951Y-14543967D01*
X18660931Y-14614004D01*
X18716367Y-14630281D01*
X18785223Y-14650499D01*
X18785228Y-14650500D01*
X18914772Y-14650500D01*
X18983632Y-14630281D01*
X19020920Y-14634290D01*
X19044452Y-14663491D01*
X19040443Y-14700779D01*
X19034470Y-14709383D01*
X19021794Y-14724013D01*
X19021793Y-14724013D01*
X18967976Y-14841853D01*
X18949542Y-14970074D01*
X18949542Y-14970079D01*
X18967976Y-15098300D01*
X19021793Y-15216140D01*
X19106626Y-15314044D01*
X19215606Y-15384081D01*
X19215608Y-15384082D01*
X19291435Y-15406346D01*
X19320637Y-15429877D01*
X19324646Y-15467165D01*
X19302465Y-15494691D01*
X19302788Y-15495193D01*
X19301280Y-15496161D01*
X19301115Y-15496367D01*
X19300418Y-15496715D01*
X19190859Y-15567124D01*
X19106028Y-15665027D01*
X19106027Y-15665027D01*
X19052210Y-15782867D01*
X19033776Y-15911088D01*
X19033776Y-15911093D01*
X19052210Y-16039314D01*
X19106027Y-16157154D01*
X19179414Y-16241849D01*
X19190860Y-16255058D01*
X19299840Y-16325095D01*
X19369002Y-16345402D01*
X19424132Y-16361590D01*
X19424137Y-16361591D01*
X19553681Y-16361591D01*
X19553685Y-16361590D01*
X19574233Y-16355556D01*
X19677978Y-16325095D01*
X19786958Y-16255058D01*
X19871791Y-16157154D01*
X19925606Y-16039317D01*
X19925606Y-16039315D01*
X19925607Y-16039314D01*
X19944042Y-15911093D01*
X19944042Y-15911088D01*
X19925607Y-15782867D01*
X19892423Y-15710206D01*
X19871791Y-15665028D01*
X19786958Y-15567124D01*
X19677978Y-15497087D01*
X19675526Y-15496367D01*
X19602147Y-15474821D01*
X19572946Y-15451289D01*
X19568937Y-15414001D01*
X19591118Y-15386476D01*
X19590796Y-15385975D01*
X19592302Y-15385007D01*
X19592469Y-15384800D01*
X19593170Y-15384449D01*
X19593741Y-15384081D01*
X19593744Y-15384081D01*
X19702724Y-15314044D01*
X19787557Y-15216140D01*
X19841372Y-15098303D01*
X19841372Y-15098301D01*
X19841373Y-15098300D01*
X19859808Y-14970079D01*
X19859808Y-14970074D01*
X19841373Y-14841853D01*
X19821902Y-14799219D01*
X19787557Y-14724014D01*
X19702724Y-14626110D01*
X19593744Y-14556073D01*
X19593741Y-14556072D01*
X19469451Y-14519577D01*
X19469447Y-14519577D01*
X19339903Y-14519577D01*
X19339896Y-14519577D01*
X19271041Y-14539795D01*
X19233753Y-14535786D01*
X19210222Y-14506584D01*
X19214231Y-14469296D01*
X19220202Y-14460696D01*
X19232882Y-14446063D01*
X19286697Y-14328226D01*
X19286697Y-14328224D01*
X19286698Y-14328223D01*
X19305133Y-14200002D01*
X19305133Y-14199997D01*
X19286698Y-14071776D01*
X19279297Y-14055572D01*
X19232882Y-13953937D01*
X19148049Y-13856033D01*
X19039069Y-13785996D01*
X19039066Y-13785995D01*
X18914776Y-13749500D01*
X18914772Y-13749500D01*
X18785228Y-13749500D01*
X18785223Y-13749500D01*
X18660933Y-13785995D01*
X18551950Y-13856033D01*
X18467119Y-13953936D01*
X18467118Y-13953936D01*
X18413301Y-14071776D01*
X18394867Y-14199997D01*
X12050500Y-14199997D01*
X12050500Y-13788223D01*
X12013585Y-13366280D01*
X11940035Y-12949159D01*
X11927965Y-12904114D01*
X11830413Y-12540043D01*
X11685548Y-12142029D01*
X11685542Y-12142015D01*
X11647886Y-12061261D01*
X11506545Y-11758155D01*
X11476704Y-11706469D01*
X11294771Y-11391349D01*
X11294765Y-11391340D01*
X11140481Y-11171001D01*
X13029500Y-11171001D01*
X13029500Y-12428998D01*
X13056417Y-12564318D01*
X13056420Y-12564328D01*
X13109225Y-12691811D01*
X13140137Y-12738074D01*
X13185883Y-12806539D01*
X13283460Y-12904116D01*
X13329102Y-12934613D01*
X13398189Y-12980775D01*
X13525672Y-13033580D01*
X13525678Y-13033581D01*
X13525681Y-13033582D01*
X13661001Y-13060499D01*
X13661007Y-13060500D01*
X13798993Y-13060500D01*
X13934328Y-13033580D01*
X14061811Y-12980775D01*
X14176542Y-12904114D01*
X14274114Y-12806542D01*
X14350775Y-12691811D01*
X14403580Y-12564328D01*
X14430500Y-12428993D01*
X14430500Y-11171007D01*
X14410361Y-11069761D01*
X14403582Y-11035681D01*
X14403579Y-11035670D01*
X14350776Y-10908192D01*
X14350775Y-10908189D01*
X14293151Y-10821949D01*
X14274116Y-10793460D01*
X14176539Y-10695883D01*
X14106736Y-10649243D01*
X14061811Y-10619225D01*
X14061808Y-10619223D01*
X14061807Y-10619223D01*
X13934329Y-10566420D01*
X13934318Y-10566417D01*
X13798998Y-10539500D01*
X13798993Y-10539500D01*
X13661007Y-10539500D01*
X13661001Y-10539500D01*
X13525681Y-10566417D01*
X13525670Y-10566420D01*
X13398192Y-10619223D01*
X13283460Y-10695883D01*
X13185883Y-10793460D01*
X13109223Y-10908192D01*
X13056420Y-11035670D01*
X13056417Y-11035681D01*
X13029500Y-11171001D01*
X11140481Y-11171001D01*
X11051831Y-11044396D01*
X11051818Y-11044380D01*
X10779589Y-10719949D01*
X10779583Y-10719942D01*
X10779571Y-10719928D01*
X10480072Y-10420429D01*
X10480059Y-10420418D01*
X10480050Y-10420410D01*
X10455726Y-10400000D01*
X15894318Y-10400000D01*
X15914955Y-10556761D01*
X15975461Y-10702836D01*
X15975464Y-10702841D01*
X16066858Y-10821949D01*
X16076565Y-10858174D01*
X16068727Y-10879000D01*
X16049224Y-10908189D01*
X15996420Y-11035670D01*
X15996417Y-11035681D01*
X15969500Y-11171001D01*
X15969500Y-12428998D01*
X15996417Y-12564318D01*
X15996420Y-12564328D01*
X16049225Y-12691811D01*
X16080137Y-12738074D01*
X16125883Y-12806539D01*
X16223460Y-12904116D01*
X16269102Y-12934613D01*
X16338189Y-12980775D01*
X16465672Y-13033580D01*
X16465678Y-13033581D01*
X16465681Y-13033582D01*
X16601001Y-13060499D01*
X16601007Y-13060500D01*
X16738993Y-13060500D01*
X16874328Y-13033580D01*
X17001811Y-12980775D01*
X17116542Y-12904114D01*
X17214114Y-12806542D01*
X17290775Y-12691811D01*
X17343580Y-12564328D01*
X17370500Y-12428993D01*
X17370500Y-11171007D01*
X17350361Y-11069761D01*
X17343582Y-11035681D01*
X17343579Y-11035670D01*
X17290776Y-10908192D01*
X17290775Y-10908189D01*
X17233151Y-10821949D01*
X17214116Y-10793460D01*
X17116539Y-10695883D01*
X17080172Y-10671584D01*
X17059337Y-10640402D01*
X17062124Y-10612092D01*
X17085044Y-10556762D01*
X17105682Y-10400000D01*
X17085044Y-10243238D01*
X17024536Y-10097159D01*
X16928282Y-9971718D01*
X16892435Y-9944212D01*
X16802841Y-9875464D01*
X16802836Y-9875461D01*
X16656761Y-9814955D01*
X16500000Y-9794318D01*
X16343238Y-9814955D01*
X16197163Y-9875461D01*
X16197158Y-9875464D01*
X16071718Y-9971717D01*
X16071717Y-9971718D01*
X15975464Y-10097158D01*
X15975461Y-10097163D01*
X15914955Y-10243238D01*
X15894318Y-10400000D01*
X10455726Y-10400000D01*
X10155619Y-10148181D01*
X10155603Y-10148168D01*
X9808659Y-9905234D01*
X9808650Y-9905228D01*
X9441849Y-9693457D01*
X9057984Y-9514457D01*
X9057970Y-9514451D01*
X8659956Y-9369586D01*
X8250849Y-9259966D01*
X8250844Y-9259965D01*
X7833721Y-9186415D01*
X7622748Y-9167957D01*
X7411777Y-9149500D01*
X7249828Y-9149500D01*
X2549000Y-9149500D01*
X2514352Y-9135148D01*
X2500000Y-9100500D01*
X2500000Y-8549997D01*
X5994867Y-8549997D01*
X5994867Y-8550001D01*
X6013301Y-8678223D01*
X6067118Y-8796063D01*
X6151951Y-8893967D01*
X6260931Y-8964004D01*
X6330093Y-8984311D01*
X6385223Y-9000499D01*
X6385228Y-9000500D01*
X6514772Y-9000500D01*
X6514776Y-9000499D01*
X6535324Y-8994465D01*
X6639069Y-8964004D01*
X6748049Y-8893967D01*
X6832882Y-8796063D01*
X6886697Y-8678226D01*
X6886697Y-8678224D01*
X6886698Y-8678223D01*
X6905133Y-8550001D01*
X6905133Y-8549997D01*
X7594867Y-8549997D01*
X7594867Y-8550001D01*
X7613301Y-8678223D01*
X7667118Y-8796063D01*
X7751951Y-8893967D01*
X7860931Y-8964004D01*
X7930093Y-8984311D01*
X7985223Y-9000499D01*
X7985228Y-9000500D01*
X8114772Y-9000500D01*
X8114776Y-9000499D01*
X8135324Y-8994465D01*
X8239069Y-8964004D01*
X8348049Y-8893967D01*
X8432882Y-8796063D01*
X8486697Y-8678226D01*
X8486697Y-8678224D01*
X8486698Y-8678223D01*
X8505133Y-8550001D01*
X8505133Y-8549997D01*
X8486698Y-8421776D01*
X8479297Y-8405572D01*
X8432882Y-8303937D01*
X8348049Y-8206033D01*
X8239069Y-8135996D01*
X8239066Y-8135995D01*
X8114776Y-8099500D01*
X8114772Y-8099500D01*
X7985228Y-8099500D01*
X7985223Y-8099500D01*
X7860933Y-8135995D01*
X7860931Y-8135995D01*
X7860931Y-8135996D01*
X7848528Y-8143967D01*
X7751950Y-8206033D01*
X7667119Y-8303936D01*
X7667118Y-8303936D01*
X7613301Y-8421776D01*
X7594867Y-8549997D01*
X6905133Y-8549997D01*
X6886698Y-8421776D01*
X6879297Y-8405572D01*
X6832882Y-8303937D01*
X6748049Y-8206033D01*
X6639069Y-8135996D01*
X6639066Y-8135995D01*
X6514776Y-8099500D01*
X6514772Y-8099500D01*
X6385228Y-8099500D01*
X6385223Y-8099500D01*
X6260933Y-8135995D01*
X6260931Y-8135995D01*
X6260931Y-8135996D01*
X6248528Y-8143967D01*
X6151950Y-8206033D01*
X6067119Y-8303936D01*
X6067118Y-8303936D01*
X6013301Y-8421776D01*
X5994867Y-8549997D01*
X2500000Y-8549997D01*
X2500000Y-7799997D01*
X20344867Y-7799997D01*
X20344867Y-7800002D01*
X20363301Y-7928223D01*
X20417118Y-8046063D01*
X20501951Y-8143967D01*
X20610931Y-8214004D01*
X20659358Y-8228223D01*
X20735223Y-8250499D01*
X20735228Y-8250500D01*
X20864772Y-8250500D01*
X20864776Y-8250499D01*
X20885324Y-8244465D01*
X20989069Y-8214004D01*
X21098049Y-8143967D01*
X21136149Y-8099997D01*
X21444867Y-8099997D01*
X21444867Y-8100002D01*
X21463301Y-8228223D01*
X21473475Y-8250500D01*
X21517118Y-8346063D01*
X21601951Y-8443967D01*
X21710931Y-8514004D01*
X21780093Y-8534311D01*
X21835223Y-8550499D01*
X21835228Y-8550500D01*
X21964772Y-8550500D01*
X21964776Y-8550499D01*
X21985324Y-8544465D01*
X22089069Y-8514004D01*
X22198049Y-8443967D01*
X22282882Y-8346063D01*
X22336697Y-8228226D01*
X22336697Y-8228224D01*
X22336698Y-8228223D01*
X22355133Y-8100002D01*
X22355133Y-8099997D01*
X22336698Y-7971776D01*
X22316808Y-7928223D01*
X22282882Y-7853937D01*
X22198049Y-7756033D01*
X22089069Y-7685996D01*
X22089066Y-7685995D01*
X21964776Y-7649500D01*
X21964772Y-7649500D01*
X21835228Y-7649500D01*
X21835223Y-7649500D01*
X21710933Y-7685995D01*
X21601950Y-7756033D01*
X21517119Y-7853936D01*
X21517118Y-7853936D01*
X21463301Y-7971776D01*
X21444867Y-8099997D01*
X21136149Y-8099997D01*
X21182882Y-8046063D01*
X21236697Y-7928226D01*
X21236697Y-7928224D01*
X21236698Y-7928223D01*
X21255133Y-7800002D01*
X21255133Y-7799997D01*
X21236698Y-7671776D01*
X21226525Y-7649500D01*
X21182882Y-7553937D01*
X21098049Y-7456033D01*
X20989069Y-7385996D01*
X20989066Y-7385995D01*
X20864776Y-7349500D01*
X20864772Y-7349500D01*
X20735228Y-7349500D01*
X20735223Y-7349500D01*
X20610933Y-7385995D01*
X20501950Y-7456033D01*
X20417119Y-7553936D01*
X20417118Y-7553936D01*
X20363301Y-7671776D01*
X20344867Y-7799997D01*
X2500000Y-7799997D01*
X2500000Y-6399997D01*
X20144867Y-6399997D01*
X20144867Y-6400002D01*
X20163301Y-6528223D01*
X20217118Y-6646063D01*
X20301951Y-6743967D01*
X20410931Y-6814004D01*
X20480093Y-6834311D01*
X20535223Y-6850499D01*
X20535228Y-6850500D01*
X20664772Y-6850500D01*
X20664776Y-6850499D01*
X20685324Y-6844465D01*
X20789069Y-6814004D01*
X20898049Y-6743967D01*
X20982882Y-6646063D01*
X21036697Y-6528226D01*
X21036697Y-6528224D01*
X21036698Y-6528223D01*
X21055133Y-6400002D01*
X21055133Y-6399997D01*
X21036698Y-6271776D01*
X21010314Y-6214004D01*
X20982882Y-6153937D01*
X20898049Y-6056033D01*
X20789069Y-5985996D01*
X20789066Y-5985995D01*
X20664776Y-5949500D01*
X20664772Y-5949500D01*
X20535228Y-5949500D01*
X20535223Y-5949500D01*
X20410933Y-5985995D01*
X20301950Y-6056033D01*
X20217119Y-6153936D01*
X20217118Y-6153936D01*
X20163301Y-6271776D01*
X20144867Y-6399997D01*
X2500000Y-6399997D01*
X2500000Y-5399997D01*
X20294867Y-5399997D01*
X20294867Y-5400002D01*
X20313301Y-5528223D01*
X20367118Y-5646063D01*
X20451951Y-5743967D01*
X20560931Y-5814004D01*
X20630093Y-5834311D01*
X20685223Y-5850499D01*
X20685228Y-5850500D01*
X20814772Y-5850500D01*
X20814776Y-5850499D01*
X20835324Y-5844465D01*
X20939069Y-5814004D01*
X20960864Y-5799997D01*
X23044867Y-5799997D01*
X23044867Y-5800002D01*
X23063301Y-5928223D01*
X23089686Y-5985996D01*
X23117118Y-6046063D01*
X23201951Y-6143967D01*
X23310931Y-6214004D01*
X23380093Y-6234311D01*
X23435223Y-6250499D01*
X23435228Y-6250500D01*
X23564772Y-6250500D01*
X23564776Y-6250499D01*
X23585324Y-6244465D01*
X23689069Y-6214004D01*
X23798049Y-6143967D01*
X23882882Y-6046063D01*
X23936697Y-5928226D01*
X23936697Y-5928224D01*
X23936698Y-5928223D01*
X23955133Y-5800002D01*
X23955133Y-5799997D01*
X23936698Y-5671776D01*
X23924955Y-5646063D01*
X23882882Y-5553937D01*
X23798049Y-5456033D01*
X23689069Y-5385996D01*
X23689066Y-5385995D01*
X23564776Y-5349500D01*
X23564772Y-5349500D01*
X23435228Y-5349500D01*
X23435223Y-5349500D01*
X23310933Y-5385995D01*
X23201950Y-5456033D01*
X23117119Y-5553936D01*
X23117118Y-5553936D01*
X23063301Y-5671776D01*
X23044867Y-5799997D01*
X20960864Y-5799997D01*
X21048049Y-5743967D01*
X21132882Y-5646063D01*
X21186697Y-5528226D01*
X21186697Y-5528224D01*
X21186698Y-5528223D01*
X21205133Y-5400002D01*
X21205133Y-5399997D01*
X21186698Y-5271776D01*
X21179297Y-5255572D01*
X21132882Y-5153937D01*
X21048049Y-5056033D01*
X20939069Y-4985996D01*
X20939066Y-4985995D01*
X20814776Y-4949500D01*
X20814772Y-4949500D01*
X20685228Y-4949500D01*
X20685223Y-4949500D01*
X20560933Y-4985995D01*
X20451950Y-5056033D01*
X20367119Y-5153936D01*
X20367118Y-5153936D01*
X20313301Y-5271776D01*
X20294867Y-5399997D01*
X2500000Y-5399997D01*
X2500000Y-3449997D01*
X23744867Y-3449997D01*
X23744867Y-3450002D01*
X23763301Y-3578223D01*
X23817118Y-3696063D01*
X23901951Y-3793967D01*
X24010931Y-3864004D01*
X24080093Y-3884311D01*
X24135223Y-3900499D01*
X24135228Y-3900500D01*
X24264772Y-3900500D01*
X24264776Y-3900499D01*
X24285324Y-3894465D01*
X24389069Y-3864004D01*
X24498049Y-3793967D01*
X24582882Y-3696063D01*
X24636697Y-3578226D01*
X24636697Y-3578224D01*
X24636698Y-3578223D01*
X24655133Y-3450002D01*
X24655133Y-3449997D01*
X24636698Y-3321776D01*
X24629297Y-3305572D01*
X24582882Y-3203937D01*
X24498049Y-3106033D01*
X24389069Y-3035996D01*
X24389066Y-3035995D01*
X24264776Y-2999500D01*
X24264772Y-2999500D01*
X24135228Y-2999500D01*
X24135223Y-2999500D01*
X24010933Y-3035995D01*
X23901950Y-3106033D01*
X23817119Y-3203936D01*
X23817118Y-3203936D01*
X23763301Y-3321776D01*
X23744867Y-3449997D01*
X2500000Y-3449997D01*
X2500000Y-2350000D01*
X13394318Y-2350000D01*
X13414955Y-2506761D01*
X13475461Y-2652836D01*
X13475464Y-2652841D01*
X13571718Y-2778282D01*
X13697159Y-2874536D01*
X13697161Y-2874536D01*
X13697163Y-2874538D01*
X13842057Y-2934555D01*
X13843238Y-2935044D01*
X14000000Y-2955682D01*
X14156762Y-2935044D01*
X14302841Y-2874536D01*
X14428282Y-2778282D01*
X14524536Y-2652841D01*
X14585044Y-2506762D01*
X14601671Y-2380460D01*
X14620422Y-2347983D01*
X14656647Y-2338276D01*
X14689126Y-2357027D01*
X14698833Y-2380461D01*
X14715443Y-2506630D01*
X14757936Y-2609218D01*
X14757937Y-2609218D01*
X15000000Y-2367155D01*
X15000000Y-2389496D01*
X15020444Y-2465796D01*
X15059940Y-2534205D01*
X15115795Y-2590060D01*
X15184204Y-2629556D01*
X15260504Y-2650000D01*
X15282843Y-2650000D01*
X15040780Y-2892061D01*
X15143371Y-2934556D01*
X15300000Y-2955176D01*
X15456628Y-2934556D01*
X15456632Y-2934555D01*
X15559218Y-2892062D01*
X15559218Y-2892061D01*
X15317157Y-2650000D01*
X15339496Y-2650000D01*
X15415796Y-2629556D01*
X15484205Y-2590060D01*
X15540060Y-2534205D01*
X15579556Y-2465796D01*
X15600000Y-2389496D01*
X15600000Y-2367157D01*
X15842061Y-2609218D01*
X15842062Y-2609218D01*
X15884555Y-2506632D01*
X15884556Y-2506627D01*
X15901166Y-2380462D01*
X15919917Y-2347983D01*
X15956142Y-2338276D01*
X15988621Y-2357027D01*
X15998328Y-2380461D01*
X16014955Y-2506761D01*
X16075461Y-2652836D01*
X16075464Y-2652841D01*
X16171718Y-2778282D01*
X16297159Y-2874536D01*
X16297161Y-2874536D01*
X16297163Y-2874538D01*
X16442057Y-2934555D01*
X16443238Y-2935044D01*
X16600000Y-2955682D01*
X16756762Y-2935044D01*
X16902841Y-2874536D01*
X17028282Y-2778282D01*
X17124536Y-2652841D01*
X17185044Y-2506762D01*
X17205682Y-2350000D01*
X17185044Y-2193238D01*
X17163846Y-2142061D01*
X17124538Y-2047163D01*
X17124535Y-2047158D01*
X17115969Y-2035995D01*
X17028282Y-1921718D01*
X17003674Y-1902836D01*
X16902841Y-1825464D01*
X16902836Y-1825461D01*
X16756761Y-1764955D01*
X16620637Y-1747034D01*
X16600000Y-1744318D01*
X16599999Y-1744318D01*
X16598875Y-1744466D01*
X16598323Y-1744318D01*
X16596789Y-1744318D01*
X16596789Y-1743906D01*
X16562650Y-1734758D01*
X16543900Y-1702279D01*
X16543900Y-1689489D01*
X16543900Y-1689488D01*
X16555682Y-1600000D01*
X20094823Y-1600000D01*
X20115443Y-1756630D01*
X20157936Y-1859218D01*
X20157937Y-1859218D01*
X20400000Y-1617156D01*
X20400000Y-1639496D01*
X20420444Y-1715796D01*
X20459940Y-1784205D01*
X20515795Y-1840060D01*
X20584204Y-1879556D01*
X20660504Y-1900000D01*
X20682843Y-1900000D01*
X20440780Y-2142061D01*
X20543371Y-2184556D01*
X20700001Y-2205177D01*
X20700002Y-2205177D01*
X20701186Y-2205021D01*
X20701768Y-2205177D01*
X20703212Y-2205177D01*
X20703212Y-2205563D01*
X20737412Y-2214725D01*
X20756165Y-2247202D01*
X20756166Y-2259996D01*
X20744318Y-2349999D01*
X20764955Y-2506761D01*
X20825461Y-2652836D01*
X20825464Y-2652841D01*
X20921718Y-2778282D01*
X21047159Y-2874536D01*
X21047161Y-2874536D01*
X21047163Y-2874538D01*
X21192057Y-2934555D01*
X21193238Y-2935044D01*
X21350000Y-2955682D01*
X21506762Y-2935044D01*
X21652841Y-2874536D01*
X21778282Y-2778282D01*
X21874536Y-2652841D01*
X21935044Y-2506762D01*
X21951419Y-2382379D01*
X21970171Y-2349902D01*
X22006396Y-2340195D01*
X22038874Y-2358947D01*
X22048581Y-2382380D01*
X22064955Y-2506761D01*
X22125461Y-2652836D01*
X22125464Y-2652841D01*
X22221718Y-2778282D01*
X22347159Y-2874536D01*
X22347161Y-2874536D01*
X22347163Y-2874538D01*
X22492057Y-2934555D01*
X22493238Y-2935044D01*
X22650000Y-2955682D01*
X22806762Y-2935044D01*
X22952841Y-2874536D01*
X23078282Y-2778282D01*
X23174536Y-2652841D01*
X23235044Y-2506762D01*
X23242517Y-2449997D01*
X23744867Y-2449997D01*
X23744867Y-2450002D01*
X23763301Y-2578223D01*
X23797379Y-2652841D01*
X23817118Y-2696063D01*
X23901951Y-2793967D01*
X24010931Y-2864004D01*
X24080093Y-2884311D01*
X24135223Y-2900499D01*
X24135228Y-2900500D01*
X24264772Y-2900500D01*
X24264776Y-2900499D01*
X24293513Y-2892061D01*
X24389069Y-2864004D01*
X24498049Y-2793967D01*
X24582882Y-2696063D01*
X24636697Y-2578226D01*
X24636697Y-2578224D01*
X24636698Y-2578223D01*
X24655133Y-2450002D01*
X24655133Y-2449997D01*
X24636698Y-2321776D01*
X24608719Y-2260511D01*
X24582882Y-2203937D01*
X24498049Y-2106033D01*
X24389069Y-2035996D01*
X24389066Y-2035995D01*
X24264776Y-1999500D01*
X24264772Y-1999500D01*
X24135228Y-1999500D01*
X24135223Y-1999500D01*
X24010933Y-2035995D01*
X23901950Y-2106033D01*
X23817119Y-2203936D01*
X23817118Y-2203936D01*
X23763301Y-2321776D01*
X23744867Y-2449997D01*
X23242517Y-2449997D01*
X23255682Y-2350000D01*
X23243900Y-2260510D01*
X23253607Y-2224286D01*
X23286085Y-2205534D01*
X23298876Y-2205534D01*
X23300000Y-2205682D01*
X23456762Y-2185044D01*
X23602841Y-2124536D01*
X23728282Y-2028282D01*
X23824536Y-1902841D01*
X23885044Y-1756762D01*
X23905682Y-1600000D01*
X23885044Y-1443238D01*
X23850541Y-1359940D01*
X23824538Y-1297163D01*
X23824535Y-1297158D01*
X23728282Y-1171718D01*
X23728281Y-1171717D01*
X23602841Y-1075464D01*
X23602836Y-1075461D01*
X23456761Y-1014955D01*
X23300000Y-994318D01*
X23143238Y-1014955D01*
X22997163Y-1075461D01*
X22997158Y-1075464D01*
X22871718Y-1171717D01*
X22871717Y-1171718D01*
X22775464Y-1297158D01*
X22775461Y-1297163D01*
X22714955Y-1443238D01*
X22698581Y-1567619D01*
X22679829Y-1600097D01*
X22643604Y-1609804D01*
X22611126Y-1591052D01*
X22601419Y-1567619D01*
X22585044Y-1443238D01*
X22524538Y-1297163D01*
X22524535Y-1297158D01*
X22428282Y-1171718D01*
X22428281Y-1171717D01*
X22302841Y-1075464D01*
X22302836Y-1075461D01*
X22156761Y-1014955D01*
X22000000Y-994318D01*
X21843238Y-1014955D01*
X21697163Y-1075461D01*
X21697158Y-1075464D01*
X21571718Y-1171717D01*
X21571717Y-1171718D01*
X21475464Y-1297158D01*
X21475461Y-1297163D01*
X21414955Y-1443238D01*
X21398328Y-1569538D01*
X21379576Y-1602016D01*
X21343351Y-1611723D01*
X21310873Y-1592971D01*
X21301166Y-1569538D01*
X21284556Y-1443370D01*
X21242061Y-1340780D01*
X21000000Y-1582841D01*
X21000000Y-1560504D01*
X20979556Y-1484204D01*
X20940060Y-1415795D01*
X20884205Y-1359940D01*
X20815796Y-1320444D01*
X20739496Y-1300000D01*
X20717158Y-1300000D01*
X20959218Y-1057937D01*
X20959218Y-1057936D01*
X20856630Y-1015443D01*
X20700000Y-994823D01*
X20543369Y-1015443D01*
X20440780Y-1057936D01*
X20440780Y-1057937D01*
X20682843Y-1300000D01*
X20660504Y-1300000D01*
X20584204Y-1320444D01*
X20515795Y-1359940D01*
X20459940Y-1415795D01*
X20420444Y-1484204D01*
X20400000Y-1560504D01*
X20400000Y-1582843D01*
X20157937Y-1340780D01*
X20157936Y-1340780D01*
X20115443Y-1443369D01*
X20094823Y-1600000D01*
X16555682Y-1600000D01*
X16535044Y-1443238D01*
X16500541Y-1359940D01*
X16474538Y-1297163D01*
X16474535Y-1297158D01*
X16378282Y-1171718D01*
X16378281Y-1171717D01*
X16252841Y-1075464D01*
X16252836Y-1075461D01*
X16106761Y-1014955D01*
X15950000Y-994318D01*
X15793238Y-1014955D01*
X15647163Y-1075461D01*
X15647158Y-1075464D01*
X15521718Y-1171717D01*
X15521717Y-1171718D01*
X15425464Y-1297158D01*
X15425461Y-1297163D01*
X15364955Y-1443238D01*
X15348581Y-1567619D01*
X15329829Y-1600097D01*
X15293604Y-1609804D01*
X15261126Y-1591052D01*
X15251419Y-1567619D01*
X15235044Y-1443238D01*
X15174538Y-1297163D01*
X15174535Y-1297158D01*
X15078282Y-1171718D01*
X15078281Y-1171717D01*
X14952841Y-1075464D01*
X14952836Y-1075461D01*
X14806761Y-1014955D01*
X14650000Y-994318D01*
X14493238Y-1014955D01*
X14347163Y-1075461D01*
X14347158Y-1075464D01*
X14221718Y-1171717D01*
X14221717Y-1171718D01*
X14125464Y-1297158D01*
X14125461Y-1297163D01*
X14064955Y-1443238D01*
X14044318Y-1600000D01*
X14056099Y-1689488D01*
X14046392Y-1725714D01*
X14013914Y-1744465D01*
X14001134Y-1744466D01*
X14000008Y-1744318D01*
X14000001Y-1744318D01*
X14000000Y-1744318D01*
X13981763Y-1746718D01*
X13843238Y-1764955D01*
X13697163Y-1825461D01*
X13697158Y-1825464D01*
X13571718Y-1921717D01*
X13571717Y-1921718D01*
X13475464Y-2047158D01*
X13475461Y-2047163D01*
X13414955Y-2193238D01*
X13394318Y-2350000D01*
X2500000Y-2350000D01*
X2500000Y-549000D01*
X2514352Y-514352D01*
X2549000Y-500000D01*
X25500500Y-500000D01*
X25535148Y-514352D01*
G37*
%TD.AperFunction*%
%TD*%
M02*
