%TF.GenerationSoftware,KiCad,Pcbnew,8.0.3*%
%TF.CreationDate,2024-07-01T18:30:19+03:00*%
%TF.ProjectId,Shield_Emergent_3,53686965-6c64-45f4-956d-657267656e74,rev?*%
%TF.SameCoordinates,Original*%
%TF.FileFunction,Copper,L4,Bot*%
%TF.FilePolarity,Positive*%
%FSLAX46Y46*%
G04 Gerber Fmt 4.6, Leading zero omitted, Abs format (unit mm)*
G04 Created by KiCad (PCBNEW 8.0.3) date 2024-07-01 18:30:19*
%MOMM*%
%LPD*%
G01*
G04 APERTURE LIST*
G04 Aperture macros list*
%AMRoundRect*
0 Rectangle with rounded corners*
0 $1 Rounding radius*
0 $2 $3 $4 $5 $6 $7 $8 $9 X,Y pos of 4 corners*
0 Add a 4 corners polygon primitive as box body*
4,1,4,$2,$3,$4,$5,$6,$7,$8,$9,$2,$3,0*
0 Add four circle primitives for the rounded corners*
1,1,$1+$1,$2,$3*
1,1,$1+$1,$4,$5*
1,1,$1+$1,$6,$7*
1,1,$1+$1,$8,$9*
0 Add four rect primitives between the rounded corners*
20,1,$1+$1,$2,$3,$4,$5,0*
20,1,$1+$1,$4,$5,$6,$7,0*
20,1,$1+$1,$6,$7,$8,$9,0*
20,1,$1+$1,$8,$9,$2,$3,0*%
G04 Aperture macros list end*
%TA.AperFunction,ComponentPad*%
%ADD10C,0.900000*%
%TD*%
%TA.AperFunction,ComponentPad*%
%ADD11O,1.100000X2.220000*%
%TD*%
%TA.AperFunction,SMDPad,CuDef*%
%ADD12RoundRect,0.135000X-0.185000X0.135000X-0.185000X-0.135000X0.185000X-0.135000X0.185000X0.135000X0*%
%TD*%
%TA.AperFunction,SMDPad,CuDef*%
%ADD13RoundRect,0.162500X0.617500X0.162500X-0.617500X0.162500X-0.617500X-0.162500X0.617500X-0.162500X0*%
%TD*%
%TA.AperFunction,SMDPad,CuDef*%
%ADD14RoundRect,0.250000X-0.300000X0.300000X-0.300000X-0.300000X0.300000X-0.300000X0.300000X0.300000X0*%
%TD*%
%TA.AperFunction,SMDPad,CuDef*%
%ADD15RoundRect,0.237500X0.237500X-0.250000X0.237500X0.250000X-0.237500X0.250000X-0.237500X-0.250000X0*%
%TD*%
%TA.AperFunction,SMDPad,CuDef*%
%ADD16RoundRect,0.135000X0.185000X-0.135000X0.185000X0.135000X-0.185000X0.135000X-0.185000X-0.135000X0*%
%TD*%
%TA.AperFunction,SMDPad,CuDef*%
%ADD17RoundRect,0.237500X-0.237500X0.300000X-0.237500X-0.300000X0.237500X-0.300000X0.237500X0.300000X0*%
%TD*%
%TA.AperFunction,SMDPad,CuDef*%
%ADD18RoundRect,0.075000X-0.350000X-0.075000X0.350000X-0.075000X0.350000X0.075000X-0.350000X0.075000X0*%
%TD*%
%TA.AperFunction,SMDPad,CuDef*%
%ADD19RoundRect,0.162500X0.162500X-0.617500X0.162500X0.617500X-0.162500X0.617500X-0.162500X-0.617500X0*%
%TD*%
%TA.AperFunction,SMDPad,CuDef*%
%ADD20RoundRect,0.237500X-0.300000X-0.237500X0.300000X-0.237500X0.300000X0.237500X-0.300000X0.237500X0*%
%TD*%
%TA.AperFunction,SMDPad,CuDef*%
%ADD21RoundRect,0.237500X0.250000X0.237500X-0.250000X0.237500X-0.250000X-0.237500X0.250000X-0.237500X0*%
%TD*%
%TA.AperFunction,SMDPad,CuDef*%
%ADD22RoundRect,0.250000X0.300000X0.300000X-0.300000X0.300000X-0.300000X-0.300000X0.300000X-0.300000X0*%
%TD*%
%TA.AperFunction,ViaPad*%
%ADD23C,0.600000*%
%TD*%
%TA.AperFunction,Conductor*%
%ADD24C,1.000000*%
%TD*%
%TA.AperFunction,Conductor*%
%ADD25C,0.800000*%
%TD*%
%TA.AperFunction,Conductor*%
%ADD26C,0.600000*%
%TD*%
%TA.AperFunction,Conductor*%
%ADD27C,0.500000*%
%TD*%
%TA.AperFunction,Conductor*%
%ADD28C,0.400000*%
%TD*%
%TA.AperFunction,Conductor*%
%ADD29C,0.250000*%
%TD*%
%TA.AperFunction,Conductor*%
%ADD30C,0.200000*%
%TD*%
%TA.AperFunction,Conductor*%
%ADD31C,0.150000*%
%TD*%
G04 APERTURE END LIST*
D10*
%TO.P,X1,*%
%TO.N,*%
X16500000Y-10400000D03*
X16500000Y-21400000D03*
D11*
%TO.P,X1,S1,SHIELD*%
%TO.N,Shield*%
X16670000Y-11800000D03*
X13730000Y-11800000D03*
X16670000Y-20000000D03*
X13730000Y-20000000D03*
%TD*%
D10*
%TO.P,J1,1,VBUS*%
%TO.N,VOUT1*%
X23300000Y-1600000D03*
%TO.P,J1,2,D-*%
%TO.N,D-*%
X22650000Y-2350000D03*
%TO.P,J1,3,D+*%
%TO.N,D+*%
X22000000Y-1600000D03*
%TO.P,J1,4,ID*%
%TO.N,unconnected-(J1-ID-Pad4)*%
X21350000Y-2350000D03*
%TO.P,J1,5,GND*%
%TO.N,GND*%
X20700000Y-1600000D03*
%TO.P,J1,6,SSTX-*%
%TO.N,TX1-*%
X16600000Y-2350000D03*
%TO.P,J1,7,SSTX+*%
%TO.N,TX1+*%
X15950000Y-1600000D03*
%TO.P,J1,8,DRAIN*%
%TO.N,GND*%
X15300000Y-2350000D03*
%TO.P,J1,9,SSRX-*%
%TO.N,RX1-*%
X14650000Y-1600000D03*
%TO.P,J1,10,SSRX+*%
%TO.N,RX1+*%
X14000000Y-2350000D03*
%TD*%
%TO.P,J3,1,VBUS*%
%TO.N,VOUT2*%
X9300000Y-28400000D03*
%TO.P,J3,2,D-*%
%TO.N,2_D-*%
X9950000Y-27650000D03*
%TO.P,J3,3,D+*%
%TO.N,2_D+*%
X10600000Y-28400000D03*
%TO.P,J3,4,ID*%
%TO.N,unconnected-(J3-ID-Pad4)*%
X11250000Y-27650000D03*
%TO.P,J3,5,GND*%
%TO.N,GND*%
X11900000Y-28400000D03*
%TO.P,J3,6,SSTX-*%
%TO.N,TX2+*%
X16000000Y-27650000D03*
%TO.P,J3,7,SSTX+*%
%TO.N,TX2-*%
X16650000Y-28400000D03*
%TO.P,J3,8,DRAIN*%
%TO.N,GND*%
X17300000Y-27650000D03*
%TO.P,J3,9,SSRX-*%
%TO.N,RX2-*%
X17950000Y-28400000D03*
%TO.P,J3,10,SSRX+*%
%TO.N,RX2+*%
X18600000Y-27650000D03*
%TD*%
D12*
%TO.P,R6,1*%
%TO.N,nFLT1*%
X18750000Y-12090000D03*
%TO.P,R6,2*%
%TO.N,VBUS*%
X18750000Y-13110000D03*
%TD*%
D13*
%TO.P,U2,1,IN*%
%TO.N,VBUS*%
X9350000Y-30850000D03*
%TO.P,U2,2,GND*%
%TO.N,GND*%
X9350000Y-31800000D03*
%TO.P,U2,3,EN*%
%TO.N,EN2*%
X9350000Y-32750000D03*
%TO.P,U2,4,nFAULT*%
%TO.N,nFLT2*%
X6650000Y-32750000D03*
%TO.P,U2,5,ILIM*%
%TO.N,Net-(U2-ILIM)*%
X6650000Y-31800000D03*
%TO.P,U2,6,OUT*%
%TO.N,VOUT2*%
X6650000Y-30850000D03*
%TD*%
D14*
%TO.P,D1,1,A1*%
%TO.N,VOUT1*%
X24200000Y-4600000D03*
%TO.P,D1,2,A2*%
%TO.N,GND*%
X24200000Y-7400000D03*
%TD*%
D15*
%TO.P,R8,1*%
%TO.N,Net-(U2-ILIM)*%
X3600000Y-32512500D03*
%TO.P,R8,2*%
%TO.N,GND*%
X3600000Y-30687500D03*
%TD*%
D16*
%TO.P,R2,1*%
%TO.N,Shield*%
X17500000Y-10610000D03*
%TO.P,R2,2*%
%TO.N,GND*%
X17500000Y-9590000D03*
%TD*%
D17*
%TO.P,C3,1*%
%TO.N,VBUS*%
X11400000Y-30737500D03*
%TO.P,C3,2*%
%TO.N,GND*%
X11400000Y-32462500D03*
%TD*%
D18*
%TO.P,U5,1,1*%
%TO.N,BTN1*%
X10175000Y-8500000D03*
%TO.P,U5,2,2*%
%TO.N,BTN2*%
X10175000Y-8000000D03*
%TO.P,U5,3,3*%
%TO.N,unconnected-(U5-Pad3)*%
X10175000Y-7500000D03*
%TO.P,U5,4,4*%
%TO.N,unconnected-(U5-Pad4)*%
X10175000Y-7000000D03*
%TO.P,U5,5,5*%
%TO.N,GND*%
X10175000Y-6500000D03*
%TO.P,U5,6,6*%
%TO.N,unconnected-(U5-Pad6)*%
X10175000Y-6000000D03*
%TO.P,U5,7,7*%
%TO.N,unconnected-(U5-Pad7)*%
X10175000Y-5500000D03*
%TO.P,U5,8,8*%
%TO.N,unconnected-(U5-Pad8)*%
X11425000Y-5500000D03*
%TO.P,U5,9,9*%
%TO.N,unconnected-(U5-Pad9)*%
X11425000Y-6000000D03*
%TO.P,U5,10,10*%
%TO.N,GND*%
X11425000Y-6500000D03*
%TO.P,U5,11,11*%
%TO.N,unconnected-(U5-Pad11)*%
X11425000Y-7000000D03*
%TO.P,U5,12,12*%
%TO.N,unconnected-(U5-Pad12)*%
X11425000Y-7500000D03*
%TO.P,U5,13,13*%
%TO.N,BTN2*%
X11425000Y-8000000D03*
%TO.P,U5,14,14*%
%TO.N,BTN1*%
X11425000Y-8500000D03*
%TD*%
D19*
%TO.P,U1,1,IN*%
%TO.N,VBUS*%
X22054522Y-14750000D03*
%TO.P,U1,2,GND*%
%TO.N,GND*%
X21104522Y-14750000D03*
%TO.P,U1,3,EN*%
%TO.N,EN1*%
X20154522Y-14750000D03*
%TO.P,U1,4,nFAULT*%
%TO.N,nFLT1*%
X20154522Y-12050000D03*
%TO.P,U1,5,ILIM*%
%TO.N,Net-(U1-ILIM)*%
X21104522Y-12050000D03*
%TO.P,U1,6,OUT*%
%TO.N,VOUT1*%
X22054522Y-12050000D03*
%TD*%
D12*
%TO.P,R3,1*%
%TO.N,Shield*%
X13550000Y-21690000D03*
%TO.P,R3,2*%
%TO.N,GND*%
X13550000Y-22710000D03*
%TD*%
D20*
%TO.P,C2,1*%
%TO.N,VBUS*%
X22337500Y-16600000D03*
%TO.P,C2,2*%
%TO.N,GND*%
X24062500Y-16600000D03*
%TD*%
D21*
%TO.P,R4,1*%
%TO.N,Net-(U1-ILIM)*%
X21217022Y-10200000D03*
%TO.P,R4,2*%
%TO.N,GND*%
X19392022Y-10200000D03*
%TD*%
D16*
%TO.P,R5,1*%
%TO.N,Shield*%
X17800000Y-20210000D03*
%TO.P,R5,2*%
%TO.N,GND*%
X17800000Y-19190000D03*
%TD*%
D22*
%TO.P,D2,1,A1*%
%TO.N,VOUT2*%
X9200000Y-25000000D03*
%TO.P,D2,2,A2*%
%TO.N,GND*%
X6400000Y-25000000D03*
%TD*%
D23*
%TO.N,GND*%
X18850000Y-25150000D03*
%TO.N,VBUS*%
X15200000Y-31200000D03*
X16600000Y-31200000D03*
X18000000Y-31100000D03*
X19100000Y-30100000D03*
X19800000Y-29400000D03*
X20700000Y-28400000D03*
X20800000Y-26500000D03*
X20800000Y-24900000D03*
X20700000Y-22700000D03*
X20800000Y-20800000D03*
X20800000Y-19100000D03*
%TO.N,VOUT1*%
X24200000Y-2450000D03*
X24200000Y-3450000D03*
%TO.N,VOUT2*%
X6800000Y-29850000D03*
X6800000Y-27450000D03*
X5700000Y-26300000D03*
X4550000Y-25800000D03*
X4200000Y-24650000D03*
%TO.N,VOUT1*%
X20600000Y-6400000D03*
X20750000Y-5400000D03*
X23500000Y-5800000D03*
X21900000Y-8100000D03*
X20800000Y-7800000D03*
%TO.N,GND*%
X8000000Y-31400000D03*
X14100000Y-25500000D03*
X19400000Y-11200000D03*
X25000000Y-11200000D03*
X22000000Y-30400000D03*
X5350000Y-24300000D03*
X13000000Y-9000000D03*
X21600000Y-13400000D03*
X19400000Y-22200000D03*
X3200000Y-24800000D03*
X15200000Y-3200000D03*
X23750000Y-15500000D03*
X11200000Y-29200000D03*
X13000000Y-8000000D03*
X17800000Y-12600000D03*
X15750000Y-19000000D03*
X18592203Y-1092203D03*
X9100000Y-5250000D03*
X24600000Y-1200000D03*
X8100000Y-29800000D03*
X17400000Y-32600000D03*
X15000000Y-30000000D03*
X12700000Y-9700000D03*
X12600000Y-29300000D03*
X23100000Y-7450000D03*
X12400000Y-25000000D03*
X18800000Y-23100000D03*
X23600000Y-11250000D03*
X13300000Y-10300000D03*
X19000000Y-28600000D03*
X16800000Y-3400000D03*
X22800000Y-13400000D03*
X15500000Y-22800000D03*
X20400000Y-4100000D03*
X12700000Y-31800000D03*
X24200000Y-32400000D03*
X5400000Y-21200000D03*
X4000000Y-8600000D03*
X19200000Y-2500000D03*
X18800000Y-26600000D03*
X20600000Y-13400000D03*
X15700000Y-26800000D03*
X12800000Y-3200000D03*
X12650000Y-19300000D03*
X16500000Y-9400000D03*
X24900000Y-8600000D03*
X19100000Y-7900000D03*
X24300000Y-21600000D03*
X11900000Y-20000000D03*
X22600000Y-25000000D03*
X12600000Y-5200000D03*
X21000000Y-32600000D03*
X14700000Y-8300000D03*
X24300000Y-24800000D03*
X23700000Y-8600000D03*
X22300000Y-19400000D03*
X23200000Y-3000000D03*
X12600000Y-7200000D03*
X14950000Y-27900000D03*
X12250000Y-17900000D03*
X5000000Y-30800000D03*
X12595144Y-11381856D03*
X3200000Y-27500000D03*
X23900000Y-14400000D03*
X13000000Y-28100000D03*
X15300000Y-950000D03*
X17700000Y-21400000D03*
X19800000Y-13400000D03*
X8000000Y-30600000D03*
X5250000Y-25000000D03*
X19600000Y-18900000D03*
X14500000Y-21800000D03*
X12375000Y-13900000D03*
X10400000Y-19200000D03*
X23200000Y-20700000D03*
X18000000Y-5000000D03*
X25000000Y-15550000D03*
X15200000Y-14000000D03*
X13500000Y-1100000D03*
X12200000Y-27400000D03*
X24900000Y-9900000D03*
X12600000Y-22600000D03*
X20300000Y-16100000D03*
X16500000Y-7800000D03*
X16800000Y-30200000D03*
X22000000Y-20800000D03*
X20200000Y-2400000D03*
X12600000Y-2200000D03*
X13000000Y-23450000D03*
X10400000Y-18200000D03*
X19600000Y-1800000D03*
X24550000Y-17950000D03*
X14000000Y-23450000D03*
X23400000Y-23300000D03*
X25100000Y-16650000D03*
X7200000Y-20800000D03*
X16000000Y-7200000D03*
X10500000Y-32200000D03*
X12600000Y-6200000D03*
X17800000Y-2400000D03*
X19300000Y-32400000D03*
X14800000Y-29000000D03*
X25050000Y-6350000D03*
X8200000Y-5200000D03*
X18026999Y-13900000D03*
X24650000Y-19650000D03*
X7200000Y-24150000D03*
X17800000Y-11800000D03*
X14700000Y-9100000D03*
X6800000Y-1400000D03*
X24050000Y-29800000D03*
X4400000Y-20800000D03*
X23600000Y-9900000D03*
X17900000Y-7100000D03*
X15800000Y-32600000D03*
X19200000Y-9000000D03*
X12600000Y-1200000D03*
X17300000Y-29200000D03*
X7250000Y-25900000D03*
X14700000Y-9900000D03*
X12600000Y-20850000D03*
X6800000Y-4000000D03*
X10600000Y-9600000D03*
X9600000Y-21200000D03*
X19600000Y-20600000D03*
X2800000Y-31400000D03*
X25100000Y-13500000D03*
X21100000Y-16150000D03*
X19200000Y-6050000D03*
X14500000Y-21800000D03*
X23000000Y-14800000D03*
X18900000Y-23900000D03*
X17800000Y-1100000D03*
X8000000Y-32200000D03*
X3800000Y-5400000D03*
X16900000Y-1100000D03*
X18600000Y-11000000D03*
X17100000Y-22300000D03*
X15700000Y-21000000D03*
X22300000Y-22300000D03*
X15888069Y-17902560D03*
X3400000Y-7200000D03*
%TO.N,VBUS*%
X14838909Y-16338909D03*
X14600000Y-14800000D03*
X12400000Y-30800000D03*
X19800000Y-17400000D03*
X19000000Y-17400000D03*
X18850000Y-14200000D03*
X15537961Y-17227000D03*
X21000000Y-17400000D03*
X13575000Y-31175000D03*
%TO.N,VOUT2*%
X7200000Y-22800000D03*
X8400000Y-25800000D03*
X10600000Y-24600000D03*
X8400000Y-26600000D03*
X8400000Y-27800000D03*
%TO.N,BTN2*%
X12373001Y-16277709D03*
X8050000Y-8550000D03*
%TO.N,EN1*%
X19404675Y-14970077D03*
%TO.N,EN2*%
X19488909Y-15911091D03*
X16000000Y-16175000D03*
X15400000Y-15400000D03*
%TO.N,BTN1*%
X6450000Y-8550000D03*
X18306587Y-16506587D03*
%TO.N,nFLT2*%
X5200000Y-32800000D03*
%TD*%
D24*
%TO.N,VBUS*%
X20700000Y-19200000D02*
X20800000Y-19100000D01*
X20700000Y-28400000D02*
X20700000Y-19200000D01*
X18000000Y-31100000D02*
X20700000Y-28400000D01*
X17900000Y-31200000D02*
X18000000Y-31100000D01*
X16600000Y-31200000D02*
X17900000Y-31200000D01*
X15200000Y-31200000D02*
X16600000Y-31200000D01*
X15175000Y-31175000D02*
X15200000Y-31200000D01*
X13575000Y-31175000D02*
X15175000Y-31175000D01*
D25*
%TO.N,VOUT1*%
X24200000Y-2500000D02*
X24200000Y-2500000D01*
X24200000Y-2450000D02*
X24200000Y-2500000D01*
X24150000Y-2450000D02*
X24200000Y-2450000D01*
D24*
X24200000Y-3450000D02*
X24200000Y-4600000D01*
D25*
%TO.N,VOUT2*%
X6800000Y-29850000D02*
X6800000Y-27450000D01*
X6800000Y-27450000D02*
X6800000Y-27324538D01*
X5700000Y-26224538D02*
X5675462Y-26200000D01*
X5700000Y-26300000D02*
X5700000Y-26224538D01*
X5775462Y-26300000D02*
X5700000Y-26300000D01*
X4550000Y-25800000D02*
X4200000Y-25450000D01*
X4200000Y-24650000D02*
X4200000Y-24200000D01*
%TO.N,VOUT1*%
X20600000Y-7600000D02*
X20800000Y-7800000D01*
X20600000Y-6400000D02*
X20600000Y-7600000D01*
X20550000Y-6350000D02*
X20600000Y-6400000D01*
X20550000Y-5600000D02*
X20550000Y-6350000D01*
X20750000Y-5400000D02*
X20550000Y-5600000D01*
D24*
X23500000Y-5800000D02*
X24000000Y-5800000D01*
D26*
X22054522Y-11345478D02*
X22054522Y-12050000D01*
D25*
X23300000Y-1600000D02*
X24150000Y-2450000D01*
D24*
X24200000Y-5600000D02*
X24200000Y-4600000D01*
X24000000Y-5800000D02*
X24200000Y-5600000D01*
D25*
X21100000Y-8100000D02*
X20800000Y-7800000D01*
X21900000Y-8100000D02*
X21100000Y-8100000D01*
X22400000Y-11000000D02*
X22054522Y-11345478D01*
D24*
X24200000Y-2500000D02*
X24200000Y-3450000D01*
D25*
X22400000Y-8600000D02*
X22400000Y-11000000D01*
X21900000Y-8100000D02*
X22400000Y-8600000D01*
D24*
%TO.N,VBUS*%
X13575000Y-31175000D02*
X13200000Y-30800000D01*
D27*
X18568597Y-17202000D02*
X18620597Y-17150000D01*
D24*
X13200000Y-30800000D02*
X11462500Y-30800000D01*
D25*
X22054522Y-16317022D02*
X22337500Y-16600000D01*
D27*
X18150000Y-14700000D02*
X18650000Y-15200000D01*
X18400000Y-17202000D02*
X18568597Y-17202000D01*
D25*
X11287500Y-30850000D02*
X11400000Y-30737500D01*
D26*
X18850000Y-13210000D02*
X18750000Y-13110000D01*
D27*
X14600000Y-14800000D02*
X14700000Y-14700000D01*
D28*
X18650000Y-15850000D02*
X18650000Y-15963288D01*
X19100000Y-16700000D02*
X19800000Y-17400000D01*
D27*
X15537961Y-17227000D02*
X15585961Y-17179000D01*
D26*
X14400000Y-15900000D02*
X14400000Y-15000000D01*
X18650000Y-14700000D02*
X18850000Y-14500000D01*
D25*
X9350000Y-30850000D02*
X11287500Y-30850000D01*
D27*
X18044577Y-17202000D02*
X18400000Y-17202000D01*
X14700000Y-14700000D02*
X17900000Y-14700000D01*
X18598000Y-17400000D02*
X18400000Y-17202000D01*
X18850000Y-14200000D02*
X18700000Y-14200000D01*
X19000000Y-17400000D02*
X18598000Y-17400000D01*
D28*
X19000000Y-16313288D02*
X19000000Y-16700000D01*
X19800000Y-17400000D02*
X19800000Y-17113288D01*
X19800000Y-17113288D02*
X19000000Y-16313288D01*
D26*
X14838909Y-16338909D02*
X14400000Y-15900000D01*
D25*
X22054522Y-14750000D02*
X22054522Y-16317022D01*
D26*
X18850000Y-14500000D02*
X18850000Y-13210000D01*
D27*
X15585961Y-17179000D02*
X18021577Y-17179000D01*
X18200000Y-14700000D02*
X18100000Y-14700000D01*
D26*
X18650000Y-15850000D02*
X18650000Y-15200000D01*
X18650000Y-15200000D02*
X18650000Y-14700000D01*
D27*
X18620597Y-17150000D02*
X18750000Y-17150000D01*
X18700000Y-14200000D02*
X18200000Y-14700000D01*
D28*
X19000000Y-16313288D02*
X19736712Y-17050000D01*
X19800000Y-17050000D02*
X19800000Y-17400000D01*
X18650000Y-15963288D02*
X19000000Y-16313288D01*
D27*
X18100000Y-14700000D02*
X17900000Y-14700000D01*
X19000000Y-17400000D02*
X19000000Y-16700000D01*
D25*
X21537500Y-17400000D02*
X22337500Y-16600000D01*
D26*
X14400000Y-15000000D02*
X14600000Y-14800000D01*
D29*
X11462500Y-30800000D02*
X11400000Y-30737500D01*
D27*
X18021577Y-17179000D02*
X18044577Y-17202000D01*
X18750000Y-17150000D02*
X19000000Y-17400000D01*
D26*
X19000000Y-17400000D02*
X19800000Y-17400000D01*
D28*
X19736712Y-17050000D02*
X19800000Y-17050000D01*
D25*
X21000000Y-17400000D02*
X21537500Y-17400000D01*
D27*
X18100000Y-14700000D02*
X18150000Y-14700000D01*
D30*
X18650000Y-13160000D02*
X18600000Y-13110000D01*
D28*
X19000000Y-16700000D02*
X19100000Y-16700000D01*
D27*
X17900000Y-14700000D02*
X18650000Y-14700000D01*
D25*
%TO.N,VOUT2*%
X6125463Y-26650001D02*
X5775462Y-26300000D01*
D24*
X8544365Y-27800000D02*
X8850000Y-28105635D01*
D25*
X4200000Y-25450000D02*
X4200000Y-24650000D01*
X6600000Y-30800000D02*
X6650000Y-30850000D01*
D24*
X8400000Y-27000000D02*
X8400000Y-27655635D01*
X8400000Y-25000000D02*
X10200000Y-25000000D01*
D25*
X5600000Y-22800000D02*
X7200000Y-22800000D01*
X6152868Y-26669516D02*
X6125463Y-26650001D01*
D24*
X8400000Y-25800000D02*
X8400000Y-25000000D01*
D25*
X5675462Y-26200000D02*
X4950000Y-26200000D01*
D26*
X8400000Y-27500000D02*
X9300000Y-28400000D01*
D24*
X8400000Y-27655635D02*
X8400000Y-27655635D01*
X8400000Y-27800000D02*
X8544365Y-27800000D01*
D25*
X6650000Y-30850000D02*
X6800000Y-30700000D01*
D24*
X10200000Y-25000000D02*
X10600000Y-24600000D01*
X8400000Y-27000000D02*
X8400000Y-26600000D01*
D25*
X6800000Y-27324538D02*
X6314679Y-26839217D01*
D24*
X8400000Y-27655635D02*
X8400000Y-27800000D01*
D25*
X4950000Y-26200000D02*
X4550000Y-25800000D01*
X4200000Y-24200000D02*
X5600000Y-22800000D01*
D26*
X8400000Y-27000000D02*
X8400000Y-27500000D01*
D25*
X6800000Y-30700000D02*
X6800000Y-29850000D01*
D24*
X8400000Y-26600000D02*
X8400000Y-25800000D01*
D25*
X6314679Y-26839217D02*
X6152868Y-26669516D01*
D28*
%TO.N,nFLT1*%
X20114522Y-12090000D02*
X20154522Y-12050000D01*
X18800000Y-12090000D02*
X20114522Y-12090000D01*
D30*
%TO.N,BTN2*%
X12550000Y-12082003D02*
X12550000Y-12687552D01*
X12550000Y-12687552D02*
X13229000Y-13366552D01*
X8050000Y-8550000D02*
X8600000Y-8000000D01*
X12050000Y-11582003D02*
X12550000Y-12082003D01*
X12527000Y-16123710D02*
X12373001Y-16277709D01*
X12450000Y-8450000D02*
X12450000Y-8950000D01*
X12450000Y-8950000D02*
X12050000Y-9350000D01*
X11425000Y-8000000D02*
X12000000Y-8000000D01*
X12000000Y-8000000D02*
X12450000Y-8450000D01*
X12527000Y-15135448D02*
X12527000Y-16123710D01*
X12050000Y-9350000D02*
X12050000Y-11582003D01*
X13229000Y-13366552D02*
X13229000Y-14433448D01*
X10175000Y-8000000D02*
X11425000Y-8000000D01*
X8600000Y-8000000D02*
X10175000Y-8000000D01*
X13229000Y-14433448D02*
X12527000Y-15135448D01*
%TO.N,EN1*%
X19624752Y-14750000D02*
X20154522Y-14750000D01*
X19404675Y-14970077D02*
X19624752Y-14750000D01*
%TO.N,EN2*%
X21850000Y-18050000D02*
X25000000Y-21200000D01*
X20730761Y-18050000D02*
X21850000Y-18050000D01*
X20350000Y-17669239D02*
X20730761Y-18050000D01*
X19750000Y-16172182D02*
X19750000Y-16327818D01*
X20227818Y-16650000D02*
X20350000Y-16772182D01*
X19750000Y-16327818D02*
X20072182Y-16650000D01*
X20350000Y-16772182D02*
X20350000Y-17669239D01*
X25000000Y-21200000D02*
X25000000Y-32900000D01*
X15400000Y-15400000D02*
X15400000Y-15575000D01*
X16000000Y-16175000D02*
X15887824Y-16175000D01*
X24673000Y-33227000D02*
X10277000Y-33227000D01*
X19488909Y-15911091D02*
X19750000Y-16172182D01*
X20072182Y-16650000D02*
X20227818Y-16650000D01*
X9800000Y-32750000D02*
X9350000Y-32750000D01*
X25000000Y-32900000D02*
X24673000Y-33227000D01*
X10277000Y-33227000D02*
X9800000Y-32750000D01*
X15400000Y-15575000D02*
X16000000Y-16175000D01*
D31*
%TO.N,BTN1*%
X8259936Y-9050000D02*
X9096000Y-9050000D01*
D30*
X12200000Y-12800000D02*
X12200000Y-12194451D01*
X15223109Y-16700000D02*
X15057200Y-16865909D01*
X12200000Y-15705419D02*
X12200000Y-15000000D01*
X11723000Y-11717451D02*
X11723000Y-9214552D01*
X18111174Y-16702000D02*
X15781709Y-16702000D01*
X11723000Y-9214552D02*
X12123000Y-8814552D01*
X9700000Y-8500000D02*
X10175000Y-8500000D01*
X11845998Y-16059421D02*
X12200000Y-15705419D01*
X12200000Y-15000000D02*
X12902000Y-14298000D01*
D31*
X6450000Y-8550000D02*
X7450000Y-8550000D01*
D30*
X10175000Y-8500000D02*
X11425000Y-8500000D01*
X12123000Y-8650000D02*
X11973000Y-8500000D01*
X15057200Y-16865909D02*
X12215909Y-16865909D01*
D31*
X8257936Y-9052000D02*
X8259936Y-9050000D01*
D30*
X12215909Y-16865909D02*
X11845998Y-16495998D01*
D31*
X9123000Y-9077000D02*
X9700000Y-8500000D01*
X7548000Y-8757936D02*
X7842064Y-9052000D01*
X7450000Y-8550000D02*
X7548000Y-8648000D01*
D30*
X12902000Y-14298000D02*
X12902000Y-13502000D01*
D31*
X7842064Y-9052000D02*
X8257936Y-9052000D01*
D30*
X18306587Y-16506587D02*
X18111174Y-16702000D01*
D31*
X7548000Y-8648000D02*
X7548000Y-8757936D01*
D30*
X12902000Y-13502000D02*
X12200000Y-12800000D01*
X12200000Y-12194451D02*
X11723000Y-11717451D01*
X15781709Y-16702000D02*
X15779709Y-16700000D01*
D31*
X9096000Y-9050000D02*
X9123000Y-9077000D01*
D30*
X11973000Y-8500000D02*
X11425000Y-8500000D01*
X15779709Y-16700000D02*
X15223109Y-16700000D01*
X12123000Y-8814552D02*
X12123000Y-8650000D01*
X11845998Y-16495998D02*
X11845998Y-16059421D01*
%TO.N,nFLT2*%
X6600000Y-32800000D02*
X6650000Y-32750000D01*
X5200000Y-32800000D02*
X6600000Y-32800000D01*
D26*
%TO.N,Shield*%
X17500000Y-11010000D02*
X17500000Y-10610000D01*
D25*
X13600000Y-21640000D02*
X13600000Y-20130000D01*
D27*
X17800000Y-20210000D02*
X16880000Y-20210000D01*
X16670000Y-11800000D02*
X16710000Y-11800000D01*
X16880000Y-20210000D02*
X16670000Y-20000000D01*
D26*
X16710000Y-11800000D02*
X17500000Y-11010000D01*
D25*
X13550000Y-21690000D02*
X13600000Y-21640000D01*
D27*
X13600000Y-20130000D02*
X13730000Y-20000000D01*
%TO.N,Net-(U1-ILIM)*%
X21104522Y-10312500D02*
X21217022Y-10200000D01*
X21104522Y-12050000D02*
X21104522Y-10312500D01*
D26*
%TO.N,Net-(U2-ILIM)*%
X4287500Y-32512500D02*
X3600000Y-32512500D01*
X6650000Y-31800000D02*
X5000000Y-31800000D01*
X5000000Y-31800000D02*
X4287500Y-32512500D01*
%TD*%
%TA.AperFunction,Conductor*%
%TO.N,GND*%
G36*
X11570998Y-16228209D02*
G01*
X11593828Y-16257962D01*
X11595498Y-16270644D01*
X11595498Y-16545827D01*
X11604024Y-16566409D01*
X11633634Y-16637895D01*
X11633635Y-16637896D01*
X11633636Y-16637898D01*
X12074009Y-17078271D01*
X12074010Y-17078271D01*
X12074012Y-17078273D01*
X12166081Y-17116409D01*
X12265737Y-17116409D01*
X15007372Y-17116409D01*
X15042179Y-17116409D01*
X15076827Y-17130761D01*
X15091179Y-17165409D01*
X15090680Y-17172382D01*
X15082828Y-17226998D01*
X15082828Y-17227002D01*
X15101262Y-17355223D01*
X15154126Y-17470976D01*
X15155079Y-17473063D01*
X15239912Y-17570967D01*
X15348892Y-17641004D01*
X15418054Y-17661311D01*
X15473184Y-17677499D01*
X15473189Y-17677500D01*
X15602733Y-17677500D01*
X15602737Y-17677499D01*
X15621201Y-17672077D01*
X15727030Y-17641004D01*
X15810628Y-17587279D01*
X15837119Y-17579500D01*
X17899561Y-17579500D01*
X17912243Y-17581170D01*
X17991846Y-17602499D01*
X17991847Y-17602500D01*
X17991850Y-17602500D01*
X18097304Y-17602500D01*
X18213811Y-17602500D01*
X18248459Y-17616852D01*
X18352087Y-17720480D01*
X18408073Y-17752804D01*
X18443410Y-17773206D01*
X18443412Y-17773207D01*
X18545269Y-17800499D01*
X18545270Y-17800500D01*
X18545273Y-17800500D01*
X18775530Y-17800500D01*
X18802020Y-17808278D01*
X18810041Y-17813432D01*
X18810931Y-17814004D01*
X18815783Y-17815428D01*
X18823143Y-17818580D01*
X18823148Y-17818570D01*
X18826110Y-17819797D01*
X18826114Y-17819799D01*
X18877715Y-17833625D01*
X18878732Y-17833911D01*
X18935228Y-17850500D01*
X18935233Y-17850500D01*
X19864769Y-17850500D01*
X19864772Y-17850500D01*
X19921286Y-17833905D01*
X19922284Y-17833624D01*
X19973886Y-17819799D01*
X19973889Y-17819796D01*
X19973893Y-17819796D01*
X19976854Y-17818570D01*
X19976858Y-17818580D01*
X19984221Y-17815427D01*
X19989069Y-17814004D01*
X20033589Y-17785391D01*
X20035576Y-17784181D01*
X20060541Y-17769767D01*
X20097722Y-17764873D01*
X20127475Y-17787703D01*
X20130309Y-17793450D01*
X20137635Y-17811134D01*
X20137638Y-17811139D01*
X20588861Y-18262362D01*
X20588862Y-18262362D01*
X20588864Y-18262364D01*
X20680933Y-18300500D01*
X20780588Y-18300500D01*
X21725943Y-18300500D01*
X21760591Y-18314852D01*
X24735148Y-21289408D01*
X24749500Y-21324056D01*
X24749500Y-32775943D01*
X24735148Y-32810591D01*
X24583591Y-32962148D01*
X24548943Y-32976500D01*
X12043323Y-32976500D01*
X12008675Y-32962148D01*
X11994323Y-32927500D01*
X11999664Y-32905254D01*
X12010626Y-32883738D01*
X12025000Y-32792994D01*
X12025000Y-32662500D01*
X10775000Y-32662500D01*
X10775000Y-32792994D01*
X10789373Y-32883738D01*
X10800336Y-32905254D01*
X10803279Y-32942641D01*
X10778923Y-32971159D01*
X10756677Y-32976500D01*
X10401056Y-32976500D01*
X10366408Y-32962148D01*
X10294851Y-32890591D01*
X10280499Y-32855943D01*
X10280499Y-32550825D01*
X10280499Y-32550824D01*
X10280499Y-32550822D01*
X10274499Y-32505240D01*
X10274498Y-32505238D01*
X10251552Y-32456031D01*
X10227850Y-32405201D01*
X10227849Y-32405200D01*
X10227848Y-32405198D01*
X10149801Y-32327151D01*
X10133198Y-32319409D01*
X10132605Y-32319132D01*
X10107270Y-32291483D01*
X10108906Y-32254015D01*
X10132607Y-32230315D01*
X10149508Y-32222433D01*
X10149510Y-32222432D01*
X10227432Y-32144510D01*
X10227433Y-32144508D01*
X10233263Y-32132005D01*
X10775000Y-32132005D01*
X10775000Y-32262500D01*
X11200000Y-32262500D01*
X11600000Y-32262500D01*
X12025000Y-32262500D01*
X12025000Y-32132005D01*
X12010627Y-32041262D01*
X11954903Y-31931896D01*
X11954901Y-31931893D01*
X11868106Y-31845098D01*
X11868103Y-31845096D01*
X11758737Y-31789372D01*
X11667994Y-31775000D01*
X11600000Y-31775000D01*
X11600000Y-32262500D01*
X11200000Y-32262500D01*
X11200000Y-31775000D01*
X11132006Y-31775000D01*
X11041262Y-31789372D01*
X10931896Y-31845096D01*
X10931893Y-31845098D01*
X10845098Y-31931893D01*
X10845096Y-31931896D01*
X10789372Y-32041262D01*
X10775000Y-32132005D01*
X10233263Y-32132005D01*
X10274009Y-32044628D01*
X10279884Y-32000000D01*
X8420117Y-32000000D01*
X8425990Y-32044626D01*
X8425992Y-32044632D01*
X8472567Y-32144510D01*
X8550489Y-32222432D01*
X8567393Y-32230315D01*
X8592729Y-32257966D01*
X8591093Y-32295433D01*
X8567393Y-32319133D01*
X8550198Y-32327151D01*
X8472151Y-32405198D01*
X8472150Y-32405200D01*
X8425501Y-32505238D01*
X8425501Y-32505239D01*
X8425501Y-32505240D01*
X8419501Y-32550820D01*
X8419500Y-32550824D01*
X8419500Y-32949174D01*
X8419501Y-32949179D01*
X8425500Y-32994760D01*
X8472150Y-33094799D01*
X8472151Y-33094801D01*
X8550198Y-33172848D01*
X8550200Y-33172849D01*
X8550201Y-33172850D01*
X8650240Y-33219499D01*
X8695821Y-33225500D01*
X9900942Y-33225499D01*
X9935590Y-33239851D01*
X9961591Y-33265852D01*
X9975943Y-33300500D01*
X9961591Y-33335148D01*
X9926943Y-33349500D01*
X2549000Y-33349500D01*
X2514352Y-33335148D01*
X2500000Y-33300500D01*
X2500000Y-32231968D01*
X2974500Y-32231968D01*
X2974500Y-32793030D01*
X2988890Y-32883893D01*
X3044684Y-32993396D01*
X3044689Y-32993403D01*
X3131596Y-33080310D01*
X3131603Y-33080315D01*
X3241103Y-33136107D01*
X3241107Y-33136109D01*
X3331967Y-33150500D01*
X3868032Y-33150499D01*
X3958893Y-33136109D01*
X3991975Y-33119253D01*
X4068396Y-33080315D01*
X4068398Y-33080313D01*
X4068403Y-33080311D01*
X4155311Y-32993403D01*
X4155315Y-32993396D01*
X4157171Y-32989754D01*
X4185688Y-32965398D01*
X4200830Y-32963000D01*
X4346811Y-32963000D01*
X4376930Y-32954928D01*
X4437173Y-32938786D01*
X4461387Y-32932299D01*
X4564114Y-32872989D01*
X4662102Y-32774999D01*
X4696750Y-32760648D01*
X4731398Y-32775000D01*
X4745251Y-32802675D01*
X4763301Y-32928223D01*
X4817118Y-33046063D01*
X4880536Y-33119253D01*
X4901951Y-33143967D01*
X5010931Y-33214004D01*
X5080093Y-33234311D01*
X5135223Y-33250499D01*
X5135228Y-33250500D01*
X5264772Y-33250500D01*
X5264776Y-33250499D01*
X5301040Y-33239851D01*
X5389069Y-33214004D01*
X5498049Y-33143967D01*
X5564383Y-33067412D01*
X5597919Y-33050625D01*
X5601415Y-33050500D01*
X5720277Y-33050500D01*
X5754925Y-33064852D01*
X5764686Y-33078792D01*
X5772150Y-33094799D01*
X5772151Y-33094801D01*
X5850198Y-33172848D01*
X5850200Y-33172849D01*
X5850201Y-33172850D01*
X5950240Y-33219499D01*
X5995821Y-33225500D01*
X7304178Y-33225499D01*
X7349760Y-33219499D01*
X7449799Y-33172850D01*
X7527850Y-33094799D01*
X7574499Y-32994760D01*
X7580500Y-32949179D01*
X7580499Y-32550822D01*
X7574499Y-32505240D01*
X7574498Y-32505238D01*
X7551552Y-32456031D01*
X7527850Y-32405201D01*
X7527849Y-32405200D01*
X7527848Y-32405198D01*
X7449801Y-32327151D01*
X7449799Y-32327150D01*
X7433198Y-32319409D01*
X7407861Y-32291759D01*
X7409497Y-32254292D01*
X7433198Y-32230591D01*
X7433790Y-32230315D01*
X7449799Y-32222850D01*
X7527850Y-32144799D01*
X7574499Y-32044760D01*
X7580500Y-31999179D01*
X7580499Y-31600822D01*
X7574499Y-31555240D01*
X7527850Y-31455201D01*
X7527849Y-31455200D01*
X7527848Y-31455198D01*
X7449801Y-31377151D01*
X7449799Y-31377150D01*
X7433198Y-31369409D01*
X7407861Y-31341759D01*
X7409497Y-31304292D01*
X7433198Y-31280591D01*
X7449799Y-31272850D01*
X7527850Y-31194799D01*
X7574499Y-31094760D01*
X7580500Y-31049179D01*
X7580499Y-30650824D01*
X8419500Y-30650824D01*
X8419500Y-31049174D01*
X8419501Y-31049179D01*
X8425500Y-31094760D01*
X8472150Y-31194799D01*
X8472151Y-31194801D01*
X8550199Y-31272849D01*
X8550200Y-31272849D01*
X8550201Y-31272850D01*
X8567392Y-31280866D01*
X8592729Y-31308515D01*
X8591093Y-31345983D01*
X8567395Y-31369683D01*
X8550490Y-31377566D01*
X8472567Y-31455489D01*
X8472566Y-31455491D01*
X8425990Y-31555371D01*
X8420116Y-31599999D01*
X8420117Y-31600000D01*
X10279882Y-31600000D01*
X10279882Y-31599999D01*
X10274009Y-31555373D01*
X10274007Y-31555367D01*
X10234297Y-31470209D01*
X10232661Y-31432741D01*
X10257997Y-31405091D01*
X10278706Y-31400500D01*
X11008522Y-31400500D01*
X11030768Y-31405841D01*
X11041107Y-31411109D01*
X11131967Y-31425500D01*
X11267918Y-31425499D01*
X11277478Y-31426441D01*
X11371396Y-31445122D01*
X11398431Y-31450500D01*
X12910258Y-31450500D01*
X12944906Y-31464852D01*
X13160331Y-31680277D01*
X13265427Y-31750499D01*
X13265430Y-31750501D01*
X13266869Y-31751463D01*
X13266871Y-31751464D01*
X13266873Y-31751465D01*
X13385256Y-31800501D01*
X13510931Y-31825500D01*
X15005423Y-31825500D01*
X15014983Y-31826442D01*
X15108764Y-31845096D01*
X15135931Y-31850500D01*
X17964069Y-31850500D01*
X18089744Y-31825501D01*
X18208127Y-31776465D01*
X18314669Y-31705277D01*
X18505276Y-31514670D01*
X18505277Y-31514669D01*
X21205277Y-28814669D01*
X21276466Y-28708126D01*
X21296724Y-28659218D01*
X21316733Y-28610912D01*
X21316733Y-28610911D01*
X21325501Y-28589744D01*
X21350500Y-28464069D01*
X21350500Y-28000000D01*
X21644341Y-28000000D01*
X21664937Y-28235410D01*
X21664938Y-28235416D01*
X21726094Y-28463655D01*
X21726095Y-28463660D01*
X21825963Y-28677828D01*
X21825970Y-28677840D01*
X21961500Y-28871395D01*
X21961506Y-28871402D01*
X22128597Y-29038493D01*
X22128604Y-29038499D01*
X22322159Y-29174029D01*
X22322171Y-29174036D01*
X22536339Y-29273904D01*
X22536344Y-29273905D01*
X22764583Y-29335061D01*
X22764587Y-29335061D01*
X22764592Y-29335063D01*
X23000000Y-29355659D01*
X23235408Y-29335063D01*
X23235414Y-29335061D01*
X23235416Y-29335061D01*
X23349535Y-29304483D01*
X23463657Y-29273904D01*
X23463660Y-29273904D01*
X23463660Y-29273903D01*
X23463663Y-29273903D01*
X23677830Y-29174035D01*
X23677831Y-29174034D01*
X23677840Y-29174029D01*
X23871395Y-29038499D01*
X23871401Y-29038495D01*
X24038495Y-28871401D01*
X24082943Y-28807923D01*
X24174029Y-28677840D01*
X24174036Y-28677828D01*
X24215111Y-28589742D01*
X24273903Y-28463663D01*
X24305558Y-28345523D01*
X24335061Y-28235416D01*
X24335062Y-28235410D01*
X24335063Y-28235408D01*
X24355659Y-28000000D01*
X24335063Y-27764592D01*
X24328474Y-27740002D01*
X24273905Y-27536344D01*
X24273904Y-27536339D01*
X24174036Y-27322172D01*
X24174028Y-27322160D01*
X24038499Y-27128604D01*
X24038493Y-27128597D01*
X23871402Y-26961506D01*
X23871395Y-26961500D01*
X23677840Y-26825970D01*
X23677828Y-26825963D01*
X23463660Y-26726095D01*
X23463655Y-26726094D01*
X23235416Y-26664938D01*
X23235410Y-26664937D01*
X23000000Y-26644341D01*
X22764589Y-26664937D01*
X22764583Y-26664938D01*
X22536344Y-26726094D01*
X22536339Y-26726095D01*
X22322172Y-26825963D01*
X22322160Y-26825971D01*
X22128604Y-26961500D01*
X22128597Y-26961506D01*
X21961506Y-27128597D01*
X21961500Y-27128604D01*
X21825971Y-27322160D01*
X21825963Y-27322172D01*
X21726095Y-27536339D01*
X21726094Y-27536344D01*
X21664938Y-27764583D01*
X21664937Y-27764589D01*
X21644341Y-28000000D01*
X21350500Y-28000000D01*
X21350500Y-19461850D01*
X21358758Y-19434627D01*
X21376465Y-19408127D01*
X21425501Y-19289744D01*
X21450499Y-19164069D01*
X21450499Y-19035931D01*
X21425501Y-18910257D01*
X21376465Y-18791874D01*
X21305276Y-18685331D01*
X21214669Y-18594724D01*
X21108126Y-18523535D01*
X21016418Y-18485548D01*
X20989746Y-18474500D01*
X20989740Y-18474498D01*
X20939060Y-18464417D01*
X20864069Y-18449501D01*
X20735931Y-18449501D01*
X20673381Y-18461942D01*
X20610258Y-18474498D01*
X20610252Y-18474500D01*
X20491874Y-18523534D01*
X20385329Y-18594724D01*
X20194723Y-18785330D01*
X20148883Y-18853937D01*
X20148882Y-18853936D01*
X20123535Y-18891871D01*
X20123535Y-18891872D01*
X20074498Y-19010257D01*
X20074497Y-19010262D01*
X20049500Y-19135927D01*
X20049500Y-28110258D01*
X20035148Y-28144906D01*
X17644906Y-30535148D01*
X17610258Y-30549500D01*
X15369577Y-30549500D01*
X15360017Y-30548558D01*
X15239072Y-30524500D01*
X15239069Y-30524500D01*
X13864742Y-30524500D01*
X13830094Y-30510148D01*
X13614668Y-30294722D01*
X13508129Y-30223536D01*
X13389742Y-30174498D01*
X13389737Y-30174497D01*
X13264072Y-30149500D01*
X13264069Y-30149500D01*
X11918510Y-30149500D01*
X11883862Y-30135148D01*
X11868403Y-30119689D01*
X11868396Y-30119684D01*
X11758896Y-30063892D01*
X11758894Y-30063891D01*
X11758893Y-30063891D01*
X11668033Y-30049500D01*
X11668031Y-30049500D01*
X11131969Y-30049500D01*
X11041106Y-30063890D01*
X10931603Y-30119684D01*
X10931596Y-30119689D01*
X10844688Y-30206597D01*
X10836058Y-30223536D01*
X10810984Y-30272746D01*
X10782468Y-30297102D01*
X10767326Y-30299500D01*
X9277522Y-30299500D01*
X9137519Y-30337014D01*
X9137515Y-30337016D01*
X9083958Y-30367936D01*
X9059459Y-30374500D01*
X8695825Y-30374500D01*
X8695820Y-30374501D01*
X8650239Y-30380500D01*
X8550200Y-30427150D01*
X8550198Y-30427151D01*
X8472151Y-30505198D01*
X8472150Y-30505200D01*
X8425501Y-30605238D01*
X8425501Y-30605239D01*
X8425501Y-30605240D01*
X8419501Y-30650820D01*
X8419500Y-30650824D01*
X7580499Y-30650824D01*
X7580499Y-30650822D01*
X7574499Y-30605240D01*
X7574498Y-30605238D01*
X7548507Y-30549500D01*
X7527850Y-30505201D01*
X7527849Y-30505200D01*
X7527848Y-30505198D01*
X7449801Y-30427151D01*
X7378791Y-30394038D01*
X7353455Y-30366388D01*
X7350500Y-30349629D01*
X7350500Y-27252060D01*
X7317419Y-27128604D01*
X7312984Y-27112053D01*
X7293999Y-27079170D01*
X7240510Y-26986524D01*
X6709000Y-26455013D01*
X6708185Y-26454179D01*
X6566054Y-26305118D01*
X6563732Y-26302502D01*
X6531225Y-26263131D01*
X6518817Y-26254295D01*
X6511778Y-26248195D01*
X6501272Y-26237177D01*
X6501271Y-26237176D01*
X6501268Y-26237173D01*
X6480382Y-26224443D01*
X6471238Y-26217251D01*
X6037634Y-25783647D01*
X6023282Y-25748999D01*
X6037634Y-25714351D01*
X6072282Y-25699999D01*
X6200000Y-25699999D01*
X6600000Y-25699999D01*
X6731479Y-25699999D01*
X6825147Y-25685165D01*
X6938038Y-25627645D01*
X6938045Y-25627640D01*
X7027640Y-25538045D01*
X7027645Y-25538038D01*
X7085163Y-25425150D01*
X7100000Y-25331480D01*
X7100000Y-25200000D01*
X6600000Y-25200000D01*
X6600000Y-25699999D01*
X6200000Y-25699999D01*
X6200000Y-25200000D01*
X5700001Y-25200000D01*
X5700001Y-25331479D01*
X5714834Y-25425147D01*
X5772354Y-25538038D01*
X5772359Y-25538045D01*
X5804239Y-25569925D01*
X5818591Y-25604573D01*
X5804239Y-25639221D01*
X5769591Y-25653573D01*
X5756910Y-25651904D01*
X5747938Y-25649500D01*
X5747937Y-25649500D01*
X5198321Y-25649500D01*
X5163673Y-25635148D01*
X4764852Y-25236327D01*
X4750500Y-25201679D01*
X4750500Y-24935927D01*
X7749500Y-24935927D01*
X7749500Y-27864072D01*
X7774497Y-27989737D01*
X7774498Y-27989742D01*
X7774499Y-27989744D01*
X7823535Y-28108127D01*
X7894724Y-28214669D01*
X7985331Y-28305276D01*
X8091873Y-28376465D01*
X8210256Y-28425501D01*
X8245192Y-28432450D01*
X8270279Y-28445860D01*
X8435331Y-28610911D01*
X8541873Y-28682100D01*
X8660256Y-28731136D01*
X8785931Y-28756134D01*
X8792193Y-28756134D01*
X8826841Y-28770486D01*
X8831067Y-28775305D01*
X8861272Y-28814669D01*
X8871718Y-28828282D01*
X8997159Y-28924536D01*
X8997161Y-28924536D01*
X8997163Y-28924538D01*
X9039470Y-28942062D01*
X9143238Y-28985044D01*
X9300000Y-29005682D01*
X9456762Y-28985044D01*
X9602841Y-28924536D01*
X9728282Y-28828282D01*
X9824536Y-28702841D01*
X9885044Y-28556762D01*
X9901419Y-28432379D01*
X9920171Y-28399902D01*
X9956396Y-28390195D01*
X9988874Y-28408947D01*
X9998581Y-28432380D01*
X10014955Y-28556761D01*
X10075461Y-28702836D01*
X10075464Y-28702841D01*
X10161271Y-28814668D01*
X10171718Y-28828282D01*
X10297159Y-28924536D01*
X10297161Y-28924536D01*
X10297163Y-28924538D01*
X10339470Y-28942062D01*
X10443238Y-28985044D01*
X10600000Y-29005682D01*
X10756762Y-28985044D01*
X10902841Y-28924536D01*
X11028282Y-28828282D01*
X11124536Y-28702841D01*
X11185044Y-28556762D01*
X11201671Y-28430460D01*
X11220422Y-28397983D01*
X11256647Y-28388276D01*
X11289126Y-28407027D01*
X11298833Y-28430461D01*
X11315443Y-28556630D01*
X11357936Y-28659218D01*
X11357937Y-28659218D01*
X11600000Y-28417155D01*
X11600000Y-28439496D01*
X11620444Y-28515796D01*
X11659940Y-28584205D01*
X11715795Y-28640060D01*
X11784204Y-28679556D01*
X11860504Y-28700000D01*
X11882843Y-28700000D01*
X11640780Y-28942061D01*
X11743371Y-28984556D01*
X11900000Y-29005176D01*
X12056628Y-28984556D01*
X12056632Y-28984555D01*
X12159218Y-28942062D01*
X12159218Y-28942061D01*
X11917157Y-28700000D01*
X11939496Y-28700000D01*
X12015796Y-28679556D01*
X12084205Y-28640060D01*
X12140060Y-28584205D01*
X12179556Y-28515796D01*
X12200000Y-28439496D01*
X12200000Y-28417157D01*
X12442061Y-28659218D01*
X12442062Y-28659218D01*
X12484555Y-28556632D01*
X12484556Y-28556628D01*
X12505176Y-28400000D01*
X12484556Y-28243371D01*
X12442061Y-28140780D01*
X12200000Y-28382841D01*
X12200000Y-28360504D01*
X12179556Y-28284204D01*
X12140060Y-28215795D01*
X12084205Y-28159940D01*
X12015796Y-28120444D01*
X11939496Y-28100000D01*
X11917157Y-28100000D01*
X12159218Y-27857937D01*
X12159218Y-27857936D01*
X12056630Y-27815443D01*
X11899999Y-27794823D01*
X11899992Y-27794823D01*
X11898797Y-27794980D01*
X11898212Y-27794823D01*
X11896789Y-27794823D01*
X11896789Y-27794441D01*
X11862574Y-27785265D01*
X11843831Y-27752782D01*
X11843831Y-27740010D01*
X11855682Y-27650000D01*
X15394318Y-27650000D01*
X15414955Y-27806761D01*
X15475461Y-27952836D01*
X15475464Y-27952841D01*
X15571718Y-28078282D01*
X15697159Y-28174536D01*
X15697161Y-28174536D01*
X15697163Y-28174538D01*
X15794046Y-28214668D01*
X15843238Y-28235044D01*
X16000000Y-28255682D01*
X16001122Y-28255534D01*
X16001673Y-28255682D01*
X16003212Y-28255682D01*
X16003212Y-28256094D01*
X16037346Y-28265240D01*
X16056099Y-28297718D01*
X16056099Y-28310510D01*
X16044318Y-28399999D01*
X16064955Y-28556761D01*
X16125461Y-28702836D01*
X16125464Y-28702841D01*
X16211271Y-28814668D01*
X16221718Y-28828282D01*
X16347159Y-28924536D01*
X16347161Y-28924536D01*
X16347163Y-28924538D01*
X16389470Y-28942062D01*
X16493238Y-28985044D01*
X16650000Y-29005682D01*
X16806762Y-28985044D01*
X16952841Y-28924536D01*
X17078282Y-28828282D01*
X17174536Y-28702841D01*
X17235044Y-28556762D01*
X17251419Y-28432379D01*
X17270171Y-28399902D01*
X17306396Y-28390195D01*
X17338874Y-28408947D01*
X17348581Y-28432380D01*
X17364955Y-28556761D01*
X17425461Y-28702836D01*
X17425464Y-28702841D01*
X17511271Y-28814668D01*
X17521718Y-28828282D01*
X17647159Y-28924536D01*
X17647161Y-28924536D01*
X17647163Y-28924538D01*
X17689470Y-28942062D01*
X17793238Y-28985044D01*
X17950000Y-29005682D01*
X18106762Y-28985044D01*
X18252841Y-28924536D01*
X18378282Y-28828282D01*
X18474536Y-28702841D01*
X18535044Y-28556762D01*
X18555682Y-28400000D01*
X18543900Y-28310510D01*
X18553607Y-28274286D01*
X18586085Y-28255534D01*
X18598876Y-28255534D01*
X18600000Y-28255682D01*
X18756762Y-28235044D01*
X18902841Y-28174536D01*
X19028282Y-28078282D01*
X19124536Y-27952841D01*
X19185044Y-27806762D01*
X19205682Y-27650000D01*
X19185044Y-27493238D01*
X19146648Y-27400541D01*
X19124538Y-27347163D01*
X19124535Y-27347158D01*
X19105353Y-27322160D01*
X19028282Y-27221718D01*
X18902841Y-27125464D01*
X18902836Y-27125461D01*
X18756761Y-27064955D01*
X18600000Y-27044318D01*
X18443238Y-27064955D01*
X18297163Y-27125461D01*
X18297158Y-27125464D01*
X18171718Y-27221717D01*
X18171717Y-27221718D01*
X18075464Y-27347158D01*
X18075461Y-27347163D01*
X18014955Y-27493238D01*
X17998328Y-27619538D01*
X17979576Y-27652016D01*
X17943351Y-27661723D01*
X17910873Y-27642971D01*
X17901166Y-27619538D01*
X17884556Y-27493370D01*
X17842061Y-27390780D01*
X17600000Y-27632841D01*
X17600000Y-27610504D01*
X17579556Y-27534204D01*
X17540060Y-27465795D01*
X17484205Y-27409940D01*
X17415796Y-27370444D01*
X17339496Y-27350000D01*
X17317158Y-27350000D01*
X17559218Y-27107937D01*
X17559218Y-27107936D01*
X17456630Y-27065443D01*
X17300000Y-27044823D01*
X17143369Y-27065443D01*
X17040780Y-27107936D01*
X17040780Y-27107937D01*
X17282843Y-27350000D01*
X17260504Y-27350000D01*
X17184204Y-27370444D01*
X17115795Y-27409940D01*
X17059940Y-27465795D01*
X17020444Y-27534204D01*
X17000000Y-27610504D01*
X17000000Y-27632843D01*
X16757937Y-27390780D01*
X16757936Y-27390780D01*
X16715443Y-27493369D01*
X16698833Y-27619538D01*
X16680081Y-27652016D01*
X16643856Y-27661723D01*
X16611378Y-27642971D01*
X16601671Y-27619538D01*
X16585044Y-27493238D01*
X16546648Y-27400541D01*
X16524538Y-27347163D01*
X16524535Y-27347158D01*
X16505353Y-27322160D01*
X16428282Y-27221718D01*
X16302841Y-27125464D01*
X16302836Y-27125461D01*
X16156761Y-27064955D01*
X16000000Y-27044318D01*
X15843238Y-27064955D01*
X15697163Y-27125461D01*
X15697158Y-27125464D01*
X15571718Y-27221717D01*
X15571717Y-27221718D01*
X15475464Y-27347158D01*
X15475461Y-27347163D01*
X15414955Y-27493238D01*
X15394318Y-27650000D01*
X11855682Y-27650000D01*
X11835044Y-27493238D01*
X11796648Y-27400541D01*
X11774538Y-27347163D01*
X11774535Y-27347158D01*
X11755353Y-27322160D01*
X11678282Y-27221718D01*
X11552841Y-27125464D01*
X11552836Y-27125461D01*
X11406761Y-27064955D01*
X11250000Y-27044318D01*
X11093238Y-27064955D01*
X10947163Y-27125461D01*
X10947158Y-27125464D01*
X10821718Y-27221717D01*
X10821717Y-27221718D01*
X10725464Y-27347158D01*
X10725461Y-27347163D01*
X10664955Y-27493238D01*
X10648581Y-27617619D01*
X10629829Y-27650097D01*
X10593604Y-27659804D01*
X10561126Y-27641052D01*
X10551419Y-27617619D01*
X10535044Y-27493238D01*
X10474538Y-27347163D01*
X10474535Y-27347158D01*
X10455353Y-27322160D01*
X10378282Y-27221718D01*
X10252841Y-27125464D01*
X10252836Y-27125461D01*
X10106761Y-27064955D01*
X9950000Y-27044318D01*
X9793238Y-27064955D01*
X9647163Y-27125461D01*
X9647158Y-27125464D01*
X9521718Y-27221717D01*
X9521717Y-27221718D01*
X9425464Y-27347158D01*
X9425461Y-27347163D01*
X9364955Y-27493238D01*
X9353796Y-27578005D01*
X9335044Y-27610483D01*
X9298819Y-27620190D01*
X9270567Y-27606257D01*
X9198514Y-27534204D01*
X9064852Y-27400541D01*
X9050500Y-27365893D01*
X9050500Y-25749499D01*
X9064852Y-25714851D01*
X9099500Y-25700499D01*
X9531517Y-25700499D01*
X9531518Y-25700499D01*
X9625304Y-25685646D01*
X9650555Y-25672779D01*
X9683801Y-25655841D01*
X9706046Y-25650500D01*
X10264069Y-25650500D01*
X10389744Y-25625501D01*
X10508127Y-25576465D01*
X10541843Y-25553937D01*
X10614669Y-25505277D01*
X11105276Y-25014670D01*
X11176465Y-24908127D01*
X11225501Y-24789744D01*
X11250499Y-24664069D01*
X11250499Y-24535931D01*
X11225501Y-24410257D01*
X11176465Y-24291874D01*
X11105276Y-24185331D01*
X11014669Y-24094724D01*
X10908126Y-24023535D01*
X10908124Y-24023534D01*
X10789746Y-23974500D01*
X10789740Y-23974498D01*
X10739060Y-23964417D01*
X10664069Y-23949501D01*
X10535931Y-23949501D01*
X10473381Y-23961942D01*
X10410258Y-23974498D01*
X10410252Y-23974500D01*
X10291874Y-24023534D01*
X10185329Y-24094724D01*
X9944906Y-24335148D01*
X9910258Y-24349500D01*
X9706046Y-24349500D01*
X9683801Y-24344159D01*
X9625307Y-24314355D01*
X9625305Y-24314354D01*
X9625304Y-24314354D01*
X9531519Y-24299500D01*
X9531517Y-24299500D01*
X8868482Y-24299500D01*
X8774696Y-24314353D01*
X8716199Y-24344159D01*
X8693954Y-24349500D01*
X8335927Y-24349500D01*
X8210262Y-24374497D01*
X8210257Y-24374498D01*
X8091874Y-24423534D01*
X7985331Y-24494723D01*
X7894723Y-24585331D01*
X7823534Y-24691874D01*
X7774498Y-24810257D01*
X7774497Y-24810262D01*
X7749500Y-24935927D01*
X4750500Y-24935927D01*
X4750500Y-24668519D01*
X5700000Y-24668519D01*
X5700000Y-24800000D01*
X6200000Y-24800000D01*
X6600000Y-24800000D01*
X7099999Y-24800000D01*
X7099999Y-24668520D01*
X7085165Y-24574852D01*
X7027645Y-24461961D01*
X7027640Y-24461954D01*
X6938045Y-24372359D01*
X6938038Y-24372354D01*
X6825150Y-24314836D01*
X6731480Y-24300000D01*
X6600000Y-24300000D01*
X6600000Y-24800000D01*
X6200000Y-24800000D01*
X6200000Y-24300000D01*
X6068520Y-24300000D01*
X5974852Y-24314834D01*
X5861961Y-24372354D01*
X5861954Y-24372359D01*
X5772359Y-24461954D01*
X5772354Y-24461961D01*
X5714836Y-24574849D01*
X5700000Y-24668519D01*
X4750500Y-24668519D01*
X4750500Y-24448321D01*
X4764852Y-24413673D01*
X5813673Y-23364852D01*
X5848321Y-23350500D01*
X7272477Y-23350500D01*
X7342480Y-23331742D01*
X7412485Y-23312984D01*
X7538015Y-23240509D01*
X7640509Y-23138015D01*
X7712984Y-23012485D01*
X7740445Y-22910001D01*
X13082603Y-22910001D01*
X13082763Y-22911375D01*
X13082764Y-22911381D01*
X13125803Y-23008855D01*
X13201144Y-23084196D01*
X13298616Y-23127235D01*
X13322443Y-23129999D01*
X13322447Y-23130000D01*
X13350000Y-23130000D01*
X13750000Y-23130000D01*
X13777553Y-23130000D01*
X13777556Y-23129999D01*
X13801383Y-23127235D01*
X13898855Y-23084196D01*
X13974196Y-23008855D01*
X14017235Y-22911381D01*
X14017236Y-22911375D01*
X14017396Y-22910001D01*
X14017395Y-22910000D01*
X13750000Y-22910000D01*
X13750000Y-23130000D01*
X13350000Y-23130000D01*
X13350000Y-22910000D01*
X13082605Y-22910000D01*
X13082603Y-22910001D01*
X7740445Y-22910001D01*
X7740445Y-22910000D01*
X7750500Y-22872477D01*
X7750500Y-22727522D01*
X7712984Y-22587516D01*
X7712983Y-22587512D01*
X7640508Y-22461984D01*
X7538015Y-22359491D01*
X7412487Y-22287016D01*
X7412483Y-22287015D01*
X7272478Y-22249500D01*
X7272475Y-22249500D01*
X5527525Y-22249500D01*
X5527522Y-22249500D01*
X5391325Y-22285994D01*
X5391326Y-22285995D01*
X5387515Y-22287016D01*
X5387513Y-22287017D01*
X5261991Y-22359485D01*
X5261982Y-22359492D01*
X3759491Y-23861984D01*
X3759490Y-23861984D01*
X3708963Y-23949500D01*
X3708963Y-23949501D01*
X3687016Y-23987515D01*
X3687014Y-23987519D01*
X3649500Y-24127522D01*
X3649500Y-24127525D01*
X3649500Y-24577525D01*
X3649500Y-25522475D01*
X3657930Y-25553937D01*
X3663967Y-25576464D01*
X3663967Y-25576465D01*
X3687014Y-25662480D01*
X3687015Y-25662482D01*
X3687016Y-25662485D01*
X3687017Y-25662486D01*
X3759485Y-25788008D01*
X3759492Y-25788017D01*
X4603486Y-26632011D01*
X4617838Y-26666659D01*
X4603486Y-26701307D01*
X4581521Y-26713989D01*
X4536342Y-26726094D01*
X4536339Y-26726095D01*
X4322172Y-26825963D01*
X4322160Y-26825971D01*
X4128604Y-26961500D01*
X4128597Y-26961506D01*
X3961506Y-27128597D01*
X3961500Y-27128604D01*
X3825971Y-27322160D01*
X3825963Y-27322172D01*
X3726095Y-27536339D01*
X3726094Y-27536344D01*
X3664938Y-27764583D01*
X3664937Y-27764589D01*
X3644341Y-28000000D01*
X3664937Y-28235410D01*
X3664938Y-28235416D01*
X3726094Y-28463655D01*
X3726095Y-28463660D01*
X3825963Y-28677828D01*
X3825970Y-28677840D01*
X3961500Y-28871395D01*
X3961506Y-28871402D01*
X4128597Y-29038493D01*
X4128604Y-29038499D01*
X4322159Y-29174029D01*
X4322171Y-29174036D01*
X4536339Y-29273904D01*
X4536344Y-29273905D01*
X4764583Y-29335061D01*
X4764587Y-29335061D01*
X4764592Y-29335063D01*
X5000000Y-29355659D01*
X5235408Y-29335063D01*
X5235414Y-29335061D01*
X5235416Y-29335061D01*
X5349535Y-29304483D01*
X5463657Y-29273904D01*
X5463660Y-29273904D01*
X5463660Y-29273903D01*
X5463663Y-29273903D01*
X5677830Y-29174035D01*
X5677831Y-29174034D01*
X5677840Y-29174029D01*
X5871395Y-29038499D01*
X5871401Y-29038495D01*
X6038495Y-28871401D01*
X6136710Y-28731136D01*
X6160362Y-28697358D01*
X6191991Y-28677207D01*
X6228605Y-28685325D01*
X6248756Y-28716954D01*
X6249500Y-28725463D01*
X6249500Y-30325500D01*
X6235148Y-30360148D01*
X6200500Y-30374500D01*
X5995825Y-30374500D01*
X5995820Y-30374501D01*
X5950239Y-30380500D01*
X5850200Y-30427150D01*
X5850198Y-30427151D01*
X5772151Y-30505198D01*
X5772150Y-30505200D01*
X5725501Y-30605238D01*
X5725501Y-30605239D01*
X5725501Y-30605240D01*
X5719501Y-30650820D01*
X5719500Y-30650824D01*
X5719500Y-31049174D01*
X5719501Y-31049179D01*
X5725500Y-31094760D01*
X5772150Y-31194799D01*
X5772151Y-31194801D01*
X5843202Y-31265852D01*
X5857554Y-31300500D01*
X5843202Y-31335148D01*
X5808554Y-31349500D01*
X4940688Y-31349500D01*
X4850326Y-31373713D01*
X4826115Y-31380199D01*
X4826110Y-31380201D01*
X4723385Y-31439511D01*
X4177953Y-31984943D01*
X4143305Y-31999295D01*
X4108657Y-31984943D01*
X4068403Y-31944689D01*
X4068396Y-31944684D01*
X3958896Y-31888892D01*
X3958894Y-31888891D01*
X3958893Y-31888891D01*
X3868033Y-31874500D01*
X3868031Y-31874500D01*
X3331969Y-31874500D01*
X3241106Y-31888890D01*
X3131603Y-31944684D01*
X3131596Y-31944689D01*
X3044689Y-32031596D01*
X3044684Y-32031603D01*
X2988892Y-32141103D01*
X2988891Y-32141105D01*
X2988891Y-32141107D01*
X2975944Y-32222849D01*
X2974500Y-32231968D01*
X2500000Y-32231968D01*
X2500000Y-30967994D01*
X2975000Y-30967994D01*
X2989372Y-31058737D01*
X3045096Y-31168103D01*
X3045098Y-31168106D01*
X3131893Y-31254901D01*
X3131896Y-31254903D01*
X3241262Y-31310627D01*
X3332006Y-31325000D01*
X3400000Y-31325000D01*
X3800000Y-31325000D01*
X3867994Y-31325000D01*
X3958737Y-31310627D01*
X4068103Y-31254903D01*
X4068106Y-31254901D01*
X4154901Y-31168106D01*
X4154903Y-31168103D01*
X4210627Y-31058737D01*
X4225000Y-30967994D01*
X4225000Y-30887500D01*
X3800000Y-30887500D01*
X3800000Y-31325000D01*
X3400000Y-31325000D01*
X3400000Y-30887500D01*
X2975000Y-30887500D01*
X2975000Y-30967994D01*
X2500000Y-30967994D01*
X2500000Y-30407005D01*
X2975000Y-30407005D01*
X2975000Y-30487500D01*
X3400000Y-30487500D01*
X3800000Y-30487500D01*
X4225000Y-30487500D01*
X4225000Y-30407005D01*
X4210627Y-30316262D01*
X4154903Y-30206896D01*
X4154901Y-30206893D01*
X4068106Y-30120098D01*
X4068103Y-30120096D01*
X3958737Y-30064372D01*
X3867994Y-30050000D01*
X3800000Y-30050000D01*
X3800000Y-30487500D01*
X3400000Y-30487500D01*
X3400000Y-30050000D01*
X3332006Y-30050000D01*
X3241262Y-30064372D01*
X3131896Y-30120096D01*
X3131893Y-30120098D01*
X3045098Y-30206893D01*
X3045096Y-30206896D01*
X2989372Y-30316262D01*
X2975000Y-30407005D01*
X2500000Y-30407005D01*
X2500000Y-21617522D01*
X12999500Y-21617522D01*
X12999500Y-21762477D01*
X13037015Y-21902483D01*
X13037016Y-21902487D01*
X13109485Y-22028008D01*
X13109488Y-22028012D01*
X13109490Y-22028015D01*
X13211985Y-22130510D01*
X13211988Y-22130511D01*
X13211991Y-22130514D01*
X13332244Y-22199941D01*
X13355074Y-22229694D01*
X13350179Y-22266876D01*
X13320426Y-22289706D01*
X13313392Y-22291049D01*
X13298622Y-22292762D01*
X13298616Y-22292764D01*
X13201144Y-22335803D01*
X13125803Y-22411144D01*
X13082764Y-22508618D01*
X13082763Y-22508624D01*
X13082603Y-22509998D01*
X13082605Y-22510000D01*
X14017395Y-22510000D01*
X14017396Y-22509998D01*
X14017236Y-22508624D01*
X14017235Y-22508618D01*
X13974196Y-22411144D01*
X13898855Y-22335803D01*
X13801383Y-22292764D01*
X13801377Y-22292762D01*
X13786607Y-22291049D01*
X13753844Y-22272800D01*
X13743582Y-22236728D01*
X13761831Y-22203965D01*
X13767741Y-22199949D01*
X13888015Y-22130510D01*
X14040510Y-21978014D01*
X14112984Y-21852485D01*
X14121742Y-21819799D01*
X14150500Y-21712475D01*
X14150500Y-21400000D01*
X15894318Y-21400000D01*
X15914955Y-21556761D01*
X15975461Y-21702836D01*
X15975464Y-21702841D01*
X16071718Y-21828282D01*
X16197159Y-21924536D01*
X16197161Y-21924536D01*
X16197163Y-21924538D01*
X16343238Y-21985044D01*
X16500000Y-22005682D01*
X16656762Y-21985044D01*
X16802841Y-21924536D01*
X16928282Y-21828282D01*
X17024536Y-21702841D01*
X17085044Y-21556762D01*
X17105682Y-21400000D01*
X17085044Y-21243238D01*
X17062125Y-21187907D01*
X17062125Y-21150405D01*
X17080170Y-21128416D01*
X17116542Y-21104114D01*
X17214114Y-21006542D01*
X17290775Y-20891811D01*
X17343580Y-20764328D01*
X17354441Y-20709724D01*
X17366334Y-20649940D01*
X17387169Y-20618758D01*
X17414392Y-20610500D01*
X17499143Y-20610500D01*
X17518934Y-20614674D01*
X17548500Y-20627729D01*
X17548502Y-20627730D01*
X17548505Y-20627731D01*
X17572359Y-20630498D01*
X17572360Y-20630498D01*
X17572377Y-20630500D01*
X18027622Y-20630499D01*
X18051498Y-20627730D01*
X18149141Y-20584616D01*
X18224616Y-20509141D01*
X18267730Y-20411498D01*
X18267730Y-20411496D01*
X18267731Y-20411494D01*
X18270498Y-20387640D01*
X18270497Y-20387640D01*
X18270500Y-20387623D01*
X18270499Y-20032378D01*
X18267730Y-20008502D01*
X18224616Y-19910859D01*
X18224615Y-19910858D01*
X18224615Y-19910857D01*
X18149142Y-19835384D01*
X18051500Y-19792270D01*
X18051494Y-19792268D01*
X18027640Y-19789501D01*
X18027625Y-19789500D01*
X18027623Y-19789500D01*
X18027620Y-19789500D01*
X17572382Y-19789500D01*
X17572375Y-19789501D01*
X17548500Y-19792270D01*
X17518935Y-19805325D01*
X17499143Y-19809500D01*
X17419500Y-19809500D01*
X17384852Y-19795148D01*
X17370500Y-19760500D01*
X17370500Y-19601847D01*
X17384852Y-19567199D01*
X17419500Y-19552847D01*
X17445919Y-19563790D01*
X17447399Y-19561631D01*
X17451144Y-19564196D01*
X17548616Y-19607235D01*
X17572443Y-19609999D01*
X17572447Y-19610000D01*
X17600000Y-19610000D01*
X18000000Y-19610000D01*
X18027553Y-19610000D01*
X18027556Y-19609999D01*
X18051383Y-19607235D01*
X18148855Y-19564196D01*
X18224196Y-19488855D01*
X18267235Y-19391381D01*
X18267236Y-19391375D01*
X18267396Y-19390001D01*
X18267395Y-19390000D01*
X18000000Y-19390000D01*
X18000000Y-19610000D01*
X17600000Y-19610000D01*
X17600000Y-18990000D01*
X18000000Y-18990000D01*
X18267395Y-18990000D01*
X18267396Y-18989998D01*
X18267236Y-18988624D01*
X18267235Y-18988618D01*
X18224196Y-18891144D01*
X18148855Y-18815803D01*
X18051383Y-18772764D01*
X18027556Y-18770000D01*
X18000000Y-18770000D01*
X18000000Y-18990000D01*
X17600000Y-18990000D01*
X17600000Y-18770000D01*
X17572443Y-18770000D01*
X17548616Y-18772764D01*
X17451144Y-18815803D01*
X17375803Y-18891144D01*
X17332764Y-18988616D01*
X17332762Y-18988622D01*
X17330092Y-19011638D01*
X17311842Y-19044401D01*
X17275771Y-19054663D01*
X17243008Y-19036413D01*
X17240686Y-19033225D01*
X17214114Y-18993458D01*
X17116542Y-18895886D01*
X17116539Y-18895883D01*
X17048074Y-18850137D01*
X17001811Y-18819225D01*
X17001808Y-18819223D01*
X17001807Y-18819223D01*
X16874329Y-18766420D01*
X16874318Y-18766417D01*
X16738998Y-18739500D01*
X16738993Y-18739500D01*
X16601007Y-18739500D01*
X16601001Y-18739500D01*
X16465681Y-18766417D01*
X16465670Y-18766420D01*
X16338192Y-18819223D01*
X16223460Y-18895883D01*
X16125883Y-18993460D01*
X16049223Y-19108192D01*
X15996420Y-19235670D01*
X15996417Y-19235681D01*
X15969500Y-19371001D01*
X15969500Y-20628998D01*
X15996417Y-20764318D01*
X15996418Y-20764320D01*
X15996420Y-20764328D01*
X16049225Y-20891811D01*
X16068727Y-20920998D01*
X16076043Y-20957780D01*
X16066860Y-20978049D01*
X15975461Y-21097163D01*
X15914955Y-21243238D01*
X15894318Y-21400000D01*
X14150500Y-21400000D01*
X14150500Y-21147705D01*
X14164852Y-21113057D01*
X14172281Y-21106961D01*
X14176542Y-21104114D01*
X14176544Y-21104112D01*
X14222556Y-21058100D01*
X14274114Y-21006542D01*
X14350775Y-20891811D01*
X14403580Y-20764328D01*
X14430500Y-20628993D01*
X14430500Y-19371007D01*
X14403580Y-19235672D01*
X14350775Y-19108189D01*
X14286262Y-19011638D01*
X14274116Y-18993460D01*
X14176539Y-18895883D01*
X14108074Y-18850137D01*
X14061811Y-18819225D01*
X14061808Y-18819223D01*
X14061807Y-18819223D01*
X13934329Y-18766420D01*
X13934318Y-18766417D01*
X13798998Y-18739500D01*
X13798993Y-18739500D01*
X13661007Y-18739500D01*
X13661001Y-18739500D01*
X13525681Y-18766417D01*
X13525670Y-18766420D01*
X13398192Y-18819223D01*
X13283460Y-18895883D01*
X13185883Y-18993460D01*
X13109223Y-19108192D01*
X13056420Y-19235670D01*
X13056417Y-19235681D01*
X13029500Y-19371001D01*
X13029500Y-20628996D01*
X13048558Y-20724802D01*
X13049500Y-20734362D01*
X13049500Y-21442762D01*
X13042936Y-21467260D01*
X13037017Y-21477511D01*
X13037014Y-21477519D01*
X12999500Y-21617522D01*
X2500000Y-21617522D01*
X2500000Y-18899500D01*
X2514352Y-18864852D01*
X2549000Y-18850500D01*
X7411772Y-18850500D01*
X7411777Y-18850500D01*
X7833720Y-18813585D01*
X8250841Y-18740035D01*
X8250846Y-18740033D01*
X8250849Y-18740033D01*
X8659956Y-18630413D01*
X8659957Y-18630412D01*
X8659963Y-18630411D01*
X9057974Y-18485547D01*
X9441845Y-18306545D01*
X9808655Y-18094768D01*
X10155610Y-17851826D01*
X10480072Y-17579571D01*
X10779571Y-17280072D01*
X11051826Y-16955610D01*
X11294768Y-16608655D01*
X11393506Y-16437636D01*
X11504063Y-16246144D01*
X11533816Y-16223314D01*
X11570998Y-16228209D01*
G37*
%TD.AperFunction*%
%TA.AperFunction,Conductor*%
G36*
X25535148Y-514352D02*
G01*
X25549500Y-549000D01*
X25549500Y-33300500D01*
X25535148Y-33335148D01*
X25500500Y-33349500D01*
X25023056Y-33349500D01*
X24988408Y-33335148D01*
X24974056Y-33300500D01*
X24988408Y-33265852D01*
X25014409Y-33239851D01*
X25135004Y-33119254D01*
X25135007Y-33119253D01*
X25141896Y-33112364D01*
X25141897Y-33112364D01*
X25212364Y-33041897D01*
X25250500Y-32949828D01*
X25250500Y-21255537D01*
X25250501Y-21255528D01*
X25250501Y-21150175D01*
X25250500Y-21150171D01*
X25249479Y-21147705D01*
X25218528Y-21072984D01*
X25212364Y-21058103D01*
X25212362Y-21058101D01*
X25212362Y-21058100D01*
X25139107Y-20984846D01*
X25139100Y-20984840D01*
X21991899Y-17837637D01*
X21991898Y-17837636D01*
X21979384Y-17832453D01*
X21952866Y-17805934D01*
X21952866Y-17768431D01*
X21963485Y-17752538D01*
X22476173Y-17239851D01*
X22510821Y-17225499D01*
X22668031Y-17225499D01*
X22668032Y-17225499D01*
X22758893Y-17211109D01*
X22759839Y-17210627D01*
X22868396Y-17155315D01*
X22868398Y-17155313D01*
X22868403Y-17155311D01*
X22955311Y-17068403D01*
X22955463Y-17068106D01*
X23011107Y-16958896D01*
X23011109Y-16958893D01*
X23025500Y-16868033D01*
X23025500Y-16867994D01*
X23375000Y-16867994D01*
X23389372Y-16958737D01*
X23445096Y-17068103D01*
X23445098Y-17068106D01*
X23531893Y-17154901D01*
X23531896Y-17154903D01*
X23641262Y-17210627D01*
X23732006Y-17225000D01*
X23862500Y-17225000D01*
X24262500Y-17225000D01*
X24392994Y-17225000D01*
X24483737Y-17210627D01*
X24593103Y-17154903D01*
X24593106Y-17154901D01*
X24679901Y-17068106D01*
X24679903Y-17068103D01*
X24735627Y-16958737D01*
X24750000Y-16867994D01*
X24750000Y-16800000D01*
X24262500Y-16800000D01*
X24262500Y-17225000D01*
X23862500Y-17225000D01*
X23862500Y-16800000D01*
X23375000Y-16800000D01*
X23375000Y-16867994D01*
X23025500Y-16867994D01*
X23025499Y-16332005D01*
X23375000Y-16332005D01*
X23375000Y-16400000D01*
X23862500Y-16400000D01*
X24262500Y-16400000D01*
X24750000Y-16400000D01*
X24750000Y-16332005D01*
X24735627Y-16241262D01*
X24679903Y-16131896D01*
X24679901Y-16131893D01*
X24593106Y-16045098D01*
X24593103Y-16045096D01*
X24483737Y-15989372D01*
X24392994Y-15975000D01*
X24262500Y-15975000D01*
X24262500Y-16400000D01*
X23862500Y-16400000D01*
X23862500Y-15975000D01*
X23732006Y-15975000D01*
X23641262Y-15989372D01*
X23531896Y-16045096D01*
X23531893Y-16045098D01*
X23445098Y-16131893D01*
X23445096Y-16131896D01*
X23389372Y-16241262D01*
X23375000Y-16332005D01*
X23025499Y-16332005D01*
X23025499Y-16331968D01*
X23011109Y-16241107D01*
X23011109Y-16241106D01*
X22955315Y-16131603D01*
X22955310Y-16131596D01*
X22868403Y-16044689D01*
X22868396Y-16044684D01*
X22758896Y-15988892D01*
X22758894Y-15988891D01*
X22758893Y-15988891D01*
X22668033Y-15974500D01*
X22668031Y-15974500D01*
X22654022Y-15974500D01*
X22619374Y-15960148D01*
X22605022Y-15925500D01*
X22605022Y-14677522D01*
X22567506Y-14537516D01*
X22567505Y-14537512D01*
X22536586Y-14483959D01*
X22530021Y-14459459D01*
X22530021Y-14095825D01*
X22530021Y-14095823D01*
X22530021Y-14095822D01*
X22524021Y-14050240D01*
X22524020Y-14050238D01*
X22496440Y-13991092D01*
X22477372Y-13950201D01*
X22477371Y-13950200D01*
X22477370Y-13950198D01*
X22399323Y-13872151D01*
X22399321Y-13872150D01*
X22299283Y-13825501D01*
X22290165Y-13824300D01*
X22253701Y-13819500D01*
X22253697Y-13819500D01*
X21855347Y-13819500D01*
X21855342Y-13819501D01*
X21809761Y-13825500D01*
X21709722Y-13872150D01*
X21709720Y-13872151D01*
X21631673Y-13950198D01*
X21623655Y-13967393D01*
X21596004Y-13992729D01*
X21558537Y-13991093D01*
X21534837Y-13967393D01*
X21526954Y-13950489D01*
X21449032Y-13872567D01*
X21449030Y-13872566D01*
X21349152Y-13825991D01*
X21304522Y-13820115D01*
X21304522Y-15679882D01*
X21349148Y-15674009D01*
X21349154Y-15674007D01*
X21434313Y-15634296D01*
X21471780Y-15632660D01*
X21499431Y-15657996D01*
X21504022Y-15678705D01*
X21504022Y-16389498D01*
X21512480Y-16421063D01*
X21530972Y-16490073D01*
X21541538Y-16529507D01*
X21550960Y-16545826D01*
X21554923Y-16552691D01*
X21559817Y-16589873D01*
X21547135Y-16611838D01*
X21323827Y-16835148D01*
X21289179Y-16849500D01*
X20927522Y-16849500D01*
X20787516Y-16887015D01*
X20787512Y-16887016D01*
X20674000Y-16952554D01*
X20636818Y-16957449D01*
X20607065Y-16934619D01*
X20600500Y-16910119D01*
X20600500Y-16722356D01*
X20600499Y-16722352D01*
X20562364Y-16630285D01*
X20562362Y-16630283D01*
X20562362Y-16630282D01*
X20491897Y-16559818D01*
X20369717Y-16437637D01*
X20368536Y-16437148D01*
X20321399Y-16417623D01*
X20277647Y-16399500D01*
X20277646Y-16399500D01*
X20196239Y-16399500D01*
X20161591Y-16385148D01*
X20014852Y-16238409D01*
X20000500Y-16203761D01*
X20000500Y-16122356D01*
X20000499Y-16122352D01*
X19988277Y-16092846D01*
X19962364Y-16030285D01*
X19962362Y-16030283D01*
X19962362Y-16030282D01*
X19948705Y-16016625D01*
X19934353Y-15981977D01*
X19934852Y-15975003D01*
X19934853Y-15975000D01*
X19938185Y-15951820D01*
X19944042Y-15911092D01*
X19944042Y-15911089D01*
X19925606Y-15782866D01*
X19925606Y-15782864D01*
X19910531Y-15749854D01*
X19909192Y-15712375D01*
X19934748Y-15684927D01*
X19955103Y-15680499D01*
X19955335Y-15680499D01*
X19955343Y-15680500D01*
X20353700Y-15680499D01*
X20399282Y-15674499D01*
X20499321Y-15627850D01*
X20577372Y-15549799D01*
X20585389Y-15532605D01*
X20613037Y-15507271D01*
X20650504Y-15508905D01*
X20674205Y-15532605D01*
X20682087Y-15549507D01*
X20682089Y-15549510D01*
X20760011Y-15627432D01*
X20760013Y-15627433D01*
X20859894Y-15674009D01*
X20859893Y-15674009D01*
X20904521Y-15679883D01*
X20904522Y-15679883D01*
X20904522Y-13820116D01*
X20904521Y-13820116D01*
X20859893Y-13825990D01*
X20760013Y-13872566D01*
X20760011Y-13872567D01*
X20682088Y-13950490D01*
X20674205Y-13967395D01*
X20646554Y-13992730D01*
X20609086Y-13991092D01*
X20585388Y-13967392D01*
X20577371Y-13950199D01*
X20499323Y-13872151D01*
X20499321Y-13872150D01*
X20399283Y-13825501D01*
X20390165Y-13824300D01*
X20353701Y-13819500D01*
X20353697Y-13819500D01*
X19955347Y-13819500D01*
X19955342Y-13819501D01*
X19909761Y-13825500D01*
X19809722Y-13872150D01*
X19809720Y-13872151D01*
X19731673Y-13950198D01*
X19731672Y-13950200D01*
X19685023Y-14050238D01*
X19679022Y-14095823D01*
X19679022Y-14450500D01*
X19664670Y-14485148D01*
X19630022Y-14499500D01*
X19574924Y-14499500D01*
X19518776Y-14522756D01*
X19486222Y-14524502D01*
X19469448Y-14519577D01*
X19469447Y-14519577D01*
X19349500Y-14519577D01*
X19314852Y-14505225D01*
X19300500Y-14470577D01*
X19300500Y-14235725D01*
X19300999Y-14228751D01*
X19305133Y-14200001D01*
X19305133Y-14199998D01*
X19300999Y-14171246D01*
X19300500Y-14164273D01*
X19300500Y-13150688D01*
X19269799Y-13036115D01*
X19269798Y-13036112D01*
X19234225Y-12974499D01*
X19234223Y-12974496D01*
X19227062Y-12962091D01*
X19220499Y-12937594D01*
X19220499Y-12932382D01*
X19220498Y-12932377D01*
X19217730Y-12908502D01*
X19174616Y-12810859D01*
X19174615Y-12810858D01*
X19174615Y-12810857D01*
X19099142Y-12735384D01*
X19001500Y-12692270D01*
X19001494Y-12692268D01*
X18977640Y-12689501D01*
X18977625Y-12689500D01*
X18977623Y-12689500D01*
X18977620Y-12689500D01*
X18927720Y-12689500D01*
X18915038Y-12687830D01*
X18809312Y-12659501D01*
X18809309Y-12659501D01*
X18690691Y-12659501D01*
X18584953Y-12687831D01*
X18572273Y-12689500D01*
X18522382Y-12689500D01*
X18522373Y-12689501D01*
X18498500Y-12692270D01*
X18400857Y-12735384D01*
X18325384Y-12810857D01*
X18282270Y-12908499D01*
X18282268Y-12908505D01*
X18279501Y-12932359D01*
X18279500Y-12932379D01*
X18279500Y-13287617D01*
X18279501Y-13287626D01*
X18282270Y-13311499D01*
X18325383Y-13409140D01*
X18325384Y-13409141D01*
X18385148Y-13468905D01*
X18399500Y-13503553D01*
X18399500Y-13913811D01*
X18385148Y-13948459D01*
X18048459Y-14285148D01*
X18013811Y-14299500D01*
X14647270Y-14299500D01*
X14545414Y-14326792D01*
X14545410Y-14326793D01*
X14497272Y-14354587D01*
X14497270Y-14354588D01*
X14481694Y-14363580D01*
X14469878Y-14368474D01*
X14426112Y-14380201D01*
X14423142Y-14381431D01*
X14423138Y-14381421D01*
X14415785Y-14384570D01*
X14410933Y-14385995D01*
X14366424Y-14414597D01*
X14364435Y-14415809D01*
X14323383Y-14439511D01*
X14323382Y-14439511D01*
X14319418Y-14443476D01*
X14311267Y-14450045D01*
X14301951Y-14456032D01*
X14271211Y-14491508D01*
X14268828Y-14494067D01*
X14039512Y-14723384D01*
X14039511Y-14723385D01*
X13980201Y-14826111D01*
X13978532Y-14832343D01*
X13978531Y-14832342D01*
X13978531Y-14832346D01*
X13949500Y-14940688D01*
X13949500Y-14940691D01*
X13949500Y-15959309D01*
X13968517Y-16030283D01*
X13968518Y-16030284D01*
X13968518Y-16030285D01*
X13980200Y-16073886D01*
X13980201Y-16073888D01*
X14039511Y-16176614D01*
X14394658Y-16531761D01*
X14409010Y-16566409D01*
X14394658Y-16601057D01*
X14360010Y-16615409D01*
X12783774Y-16615409D01*
X12749126Y-16601057D01*
X12734774Y-16566409D01*
X12746742Y-16534321D01*
X12755883Y-16523772D01*
X12809698Y-16405935D01*
X12809698Y-16405933D01*
X12809699Y-16405932D01*
X12828134Y-16277711D01*
X12828134Y-16277706D01*
X12809698Y-16149484D01*
X12809698Y-16149482D01*
X12781928Y-16088674D01*
X12777500Y-16068319D01*
X12777500Y-15259503D01*
X12791851Y-15224856D01*
X13364004Y-14652702D01*
X13364007Y-14652701D01*
X13370896Y-14645812D01*
X13370897Y-14645812D01*
X13441364Y-14575345D01*
X13479500Y-14483276D01*
X13479500Y-13316724D01*
X13441364Y-13224655D01*
X13441362Y-13224653D01*
X13441362Y-13224652D01*
X13370897Y-13154188D01*
X12814852Y-12598143D01*
X12800500Y-12563495D01*
X12800500Y-12137540D01*
X12800501Y-12137531D01*
X12800501Y-12032177D01*
X12800500Y-12032173D01*
X12768362Y-11954587D01*
X12762364Y-11940106D01*
X12762362Y-11940104D01*
X12762362Y-11940103D01*
X12689107Y-11866849D01*
X12689100Y-11866843D01*
X12314852Y-11492594D01*
X12300500Y-11457946D01*
X12300500Y-11171001D01*
X13029500Y-11171001D01*
X13029500Y-12428998D01*
X13056417Y-12564318D01*
X13056420Y-12564329D01*
X13108268Y-12689501D01*
X13109225Y-12691811D01*
X13138340Y-12735384D01*
X13185883Y-12806539D01*
X13283460Y-12904116D01*
X13325750Y-12932373D01*
X13398189Y-12980775D01*
X13525672Y-13033580D01*
X13525678Y-13033581D01*
X13525681Y-13033582D01*
X13661001Y-13060499D01*
X13661007Y-13060500D01*
X13798993Y-13060500D01*
X13934328Y-13033580D01*
X14061811Y-12980775D01*
X14176542Y-12904114D01*
X14274114Y-12806542D01*
X14350775Y-12691811D01*
X14403580Y-12564328D01*
X14430500Y-12428993D01*
X14430500Y-11171007D01*
X14430499Y-11171001D01*
X14403582Y-11035681D01*
X14403579Y-11035670D01*
X14350776Y-10908192D01*
X14350775Y-10908189D01*
X14286167Y-10811496D01*
X14274116Y-10793460D01*
X14176539Y-10695883D01*
X14108074Y-10650137D01*
X14061811Y-10619225D01*
X14061808Y-10619223D01*
X14061807Y-10619223D01*
X13934329Y-10566420D01*
X13934318Y-10566417D01*
X13798998Y-10539500D01*
X13798993Y-10539500D01*
X13661007Y-10539500D01*
X13661001Y-10539500D01*
X13525681Y-10566417D01*
X13525670Y-10566420D01*
X13398192Y-10619223D01*
X13283460Y-10695883D01*
X13185883Y-10793460D01*
X13109223Y-10908192D01*
X13056420Y-11035670D01*
X13056417Y-11035681D01*
X13029500Y-11171001D01*
X12300500Y-11171001D01*
X12300500Y-10400000D01*
X15894318Y-10400000D01*
X15914955Y-10556761D01*
X15975461Y-10702836D01*
X15975464Y-10702841D01*
X16066858Y-10821949D01*
X16076565Y-10858174D01*
X16068727Y-10879000D01*
X16049224Y-10908189D01*
X15996420Y-11035670D01*
X15996417Y-11035681D01*
X15969500Y-11171001D01*
X15969500Y-12428998D01*
X15996417Y-12564318D01*
X15996420Y-12564329D01*
X16048268Y-12689501D01*
X16049225Y-12691811D01*
X16078340Y-12735384D01*
X16125883Y-12806539D01*
X16223460Y-12904116D01*
X16265750Y-12932373D01*
X16338189Y-12980775D01*
X16465672Y-13033580D01*
X16465678Y-13033581D01*
X16465681Y-13033582D01*
X16601001Y-13060499D01*
X16601007Y-13060500D01*
X16738993Y-13060500D01*
X16874328Y-13033580D01*
X17001811Y-12980775D01*
X17116542Y-12904114D01*
X17214114Y-12806542D01*
X17290775Y-12691811D01*
X17343580Y-12564328D01*
X17370500Y-12428993D01*
X17370500Y-11912379D01*
X18279500Y-11912379D01*
X18279500Y-12267617D01*
X18279501Y-12267626D01*
X18282270Y-12291499D01*
X18325384Y-12389142D01*
X18400857Y-12464615D01*
X18498499Y-12507729D01*
X18498505Y-12507731D01*
X18522359Y-12510498D01*
X18522360Y-12510498D01*
X18522377Y-12510500D01*
X18977622Y-12510499D01*
X19001498Y-12507730D01*
X19099141Y-12464616D01*
X19099142Y-12464615D01*
X19108906Y-12454852D01*
X19143554Y-12440500D01*
X19630023Y-12440500D01*
X19664671Y-12454852D01*
X19679023Y-12489500D01*
X19679023Y-12704179D01*
X19685022Y-12749760D01*
X19731672Y-12849799D01*
X19731673Y-12849801D01*
X19809720Y-12927848D01*
X19809722Y-12927849D01*
X19809723Y-12927850D01*
X19909762Y-12974499D01*
X19955343Y-12980500D01*
X20353700Y-12980499D01*
X20399282Y-12974499D01*
X20499321Y-12927850D01*
X20577372Y-12849799D01*
X20585113Y-12833197D01*
X20612763Y-12807861D01*
X20650230Y-12809497D01*
X20673931Y-12833198D01*
X20681672Y-12849799D01*
X20681673Y-12849801D01*
X20759720Y-12927848D01*
X20759722Y-12927849D01*
X20759723Y-12927850D01*
X20859762Y-12974499D01*
X20905343Y-12980500D01*
X21303700Y-12980499D01*
X21349282Y-12974499D01*
X21449321Y-12927850D01*
X21527372Y-12849799D01*
X21535113Y-12833197D01*
X21562763Y-12807861D01*
X21600230Y-12809497D01*
X21623931Y-12833198D01*
X21631672Y-12849799D01*
X21631673Y-12849801D01*
X21709720Y-12927848D01*
X21709722Y-12927849D01*
X21709723Y-12927850D01*
X21809762Y-12974499D01*
X21855343Y-12980500D01*
X22253700Y-12980499D01*
X22299282Y-12974499D01*
X22399321Y-12927850D01*
X22477372Y-12849799D01*
X22524021Y-12749760D01*
X22530022Y-12704179D01*
X22530021Y-11668797D01*
X22544372Y-11634151D01*
X22840510Y-11338014D01*
X22912984Y-11212485D01*
X22934284Y-11132993D01*
X22950500Y-11072475D01*
X22950500Y-8527525D01*
X22950500Y-8527522D01*
X22922164Y-8421774D01*
X22912984Y-8387515D01*
X22912983Y-8387514D01*
X22912983Y-8387512D01*
X22840514Y-8261991D01*
X22840511Y-8261988D01*
X22840510Y-8261985D01*
X22310004Y-7731479D01*
X23500001Y-7731479D01*
X23514834Y-7825147D01*
X23572354Y-7938038D01*
X23572359Y-7938045D01*
X23661954Y-8027640D01*
X23661961Y-8027645D01*
X23774849Y-8085163D01*
X23868519Y-8099999D01*
X23999999Y-8099999D01*
X24400000Y-8099999D01*
X24531479Y-8099999D01*
X24625147Y-8085165D01*
X24738038Y-8027645D01*
X24738045Y-8027640D01*
X24827640Y-7938045D01*
X24827645Y-7938038D01*
X24885163Y-7825150D01*
X24900000Y-7731480D01*
X24900000Y-7600000D01*
X24400000Y-7600000D01*
X24400000Y-8099999D01*
X23999999Y-8099999D01*
X24000000Y-8099998D01*
X24000000Y-7600000D01*
X23500001Y-7600000D01*
X23500001Y-7731479D01*
X22310004Y-7731479D01*
X22238015Y-7659490D01*
X22238012Y-7659488D01*
X22238008Y-7659485D01*
X22112487Y-7587016D01*
X22112483Y-7587015D01*
X21972478Y-7549500D01*
X21972475Y-7549500D01*
X21348321Y-7549500D01*
X21313673Y-7535148D01*
X21164852Y-7386327D01*
X21150500Y-7351679D01*
X21150500Y-7068519D01*
X23500000Y-7068519D01*
X23500000Y-7200000D01*
X24000000Y-7200000D01*
X24400000Y-7200000D01*
X24899999Y-7200000D01*
X24899999Y-7068520D01*
X24885165Y-6974852D01*
X24827645Y-6861961D01*
X24827640Y-6861954D01*
X24738045Y-6772359D01*
X24738038Y-6772354D01*
X24625150Y-6714836D01*
X24531480Y-6700000D01*
X24400000Y-6700000D01*
X24400000Y-7200000D01*
X24000000Y-7200000D01*
X24000000Y-6700000D01*
X23868520Y-6700000D01*
X23774852Y-6714834D01*
X23661961Y-6772354D01*
X23661954Y-6772359D01*
X23572359Y-6861954D01*
X23572354Y-6861961D01*
X23514836Y-6974849D01*
X23500000Y-7068519D01*
X21150500Y-7068519D01*
X21150500Y-6327522D01*
X21120260Y-6214669D01*
X21112984Y-6187515D01*
X21107063Y-6177260D01*
X21100500Y-6152762D01*
X21100500Y-5848321D01*
X21114852Y-5813673D01*
X21151303Y-5777222D01*
X21190510Y-5738015D01*
X21262984Y-5612485D01*
X21262984Y-5612484D01*
X21262986Y-5612480D01*
X21300499Y-5472477D01*
X21300500Y-5472477D01*
X21300500Y-5327523D01*
X21300499Y-5327522D01*
X21282937Y-5261982D01*
X21262984Y-5187515D01*
X21262983Y-5187514D01*
X21262983Y-5187512D01*
X21190514Y-5061991D01*
X21190511Y-5061988D01*
X21190510Y-5061985D01*
X21088015Y-4959490D01*
X21088012Y-4959488D01*
X21088008Y-4959485D01*
X20962487Y-4887016D01*
X20962483Y-4887015D01*
X20822477Y-4849500D01*
X20822474Y-4849500D01*
X20677526Y-4849500D01*
X20677523Y-4849500D01*
X20537516Y-4887015D01*
X20537512Y-4887016D01*
X20411991Y-4959485D01*
X20411982Y-4959492D01*
X20109492Y-5261982D01*
X20109487Y-5261988D01*
X20058965Y-5349499D01*
X20058964Y-5349500D01*
X20037016Y-5387513D01*
X20037015Y-5387516D01*
X19999500Y-5527522D01*
X19999500Y-5527525D01*
X19999500Y-6422475D01*
X20021442Y-6504363D01*
X20037016Y-6562485D01*
X20042935Y-6572737D01*
X20049500Y-6597237D01*
X20049500Y-7672475D01*
X20066944Y-7737577D01*
X20073602Y-7762422D01*
X20073602Y-7762423D01*
X20087014Y-7812481D01*
X20087015Y-7812483D01*
X20087016Y-7812485D01*
X20094328Y-7825150D01*
X20159485Y-7938008D01*
X20159488Y-7938012D01*
X20159490Y-7938015D01*
X20359490Y-8138015D01*
X20761985Y-8540510D01*
X20761988Y-8540511D01*
X20761991Y-8540514D01*
X20860195Y-8597211D01*
X20887515Y-8612984D01*
X20887519Y-8612985D01*
X21027522Y-8650500D01*
X21027525Y-8650500D01*
X21027526Y-8650500D01*
X21172474Y-8650500D01*
X21651679Y-8650500D01*
X21686327Y-8664852D01*
X21835148Y-8813673D01*
X21849500Y-8848321D01*
X21849500Y-9677968D01*
X21835148Y-9712616D01*
X21800500Y-9726968D01*
X21765852Y-9712616D01*
X21697925Y-9644689D01*
X21697918Y-9644684D01*
X21588418Y-9588892D01*
X21588416Y-9588891D01*
X21588415Y-9588891D01*
X21497555Y-9574500D01*
X21497553Y-9574500D01*
X20936491Y-9574500D01*
X20845628Y-9588890D01*
X20736125Y-9644684D01*
X20736118Y-9644689D01*
X20649211Y-9731596D01*
X20649206Y-9731603D01*
X20593414Y-9841103D01*
X20593413Y-9841105D01*
X20593413Y-9841107D01*
X20583256Y-9905234D01*
X20579022Y-9931968D01*
X20579022Y-10468030D01*
X20593412Y-10558893D01*
X20649206Y-10668396D01*
X20649211Y-10668403D01*
X20689670Y-10708862D01*
X20704022Y-10743510D01*
X20704022Y-11207554D01*
X20689670Y-11242202D01*
X20681673Y-11250198D01*
X20673931Y-11266802D01*
X20646281Y-11292138D01*
X20608813Y-11290502D01*
X20585113Y-11266802D01*
X20577372Y-11250201D01*
X20577370Y-11250199D01*
X20577370Y-11250198D01*
X20499323Y-11172151D01*
X20499321Y-11172150D01*
X20399283Y-11125501D01*
X20390165Y-11124300D01*
X20353701Y-11119500D01*
X20353697Y-11119500D01*
X19955347Y-11119500D01*
X19955342Y-11119501D01*
X19909761Y-11125500D01*
X19809722Y-11172150D01*
X19809720Y-11172151D01*
X19731673Y-11250198D01*
X19731672Y-11250200D01*
X19685023Y-11350238D01*
X19685023Y-11350240D01*
X19679612Y-11391345D01*
X19679022Y-11395823D01*
X19679022Y-11690500D01*
X19664670Y-11725148D01*
X19630022Y-11739500D01*
X19143554Y-11739500D01*
X19108906Y-11725148D01*
X19099142Y-11715384D01*
X19001500Y-11672270D01*
X19001494Y-11672268D01*
X18977640Y-11669501D01*
X18977625Y-11669500D01*
X18977623Y-11669500D01*
X18977620Y-11669500D01*
X18522382Y-11669500D01*
X18522373Y-11669501D01*
X18498500Y-11672270D01*
X18400857Y-11715384D01*
X18325384Y-11790857D01*
X18282270Y-11888499D01*
X18282268Y-11888505D01*
X18279501Y-11912359D01*
X18279500Y-11912379D01*
X17370500Y-11912379D01*
X17370500Y-11796899D01*
X17384852Y-11762251D01*
X17606288Y-11540815D01*
X17860490Y-11286614D01*
X17919799Y-11183887D01*
X17937051Y-11119500D01*
X17943775Y-11094404D01*
X17950500Y-11069310D01*
X17950500Y-10860856D01*
X17954675Y-10841064D01*
X17963115Y-10821949D01*
X17967730Y-10811498D01*
X17970500Y-10787623D01*
X17970499Y-10467994D01*
X18754522Y-10467994D01*
X18768894Y-10558737D01*
X18824618Y-10668103D01*
X18824620Y-10668106D01*
X18911415Y-10754901D01*
X18911418Y-10754903D01*
X19020784Y-10810627D01*
X19111528Y-10825000D01*
X19192022Y-10825000D01*
X19592022Y-10825000D01*
X19672516Y-10825000D01*
X19763259Y-10810627D01*
X19872625Y-10754903D01*
X19872628Y-10754901D01*
X19959423Y-10668106D01*
X19959425Y-10668103D01*
X20015149Y-10558737D01*
X20029522Y-10467994D01*
X20029522Y-10400000D01*
X19592022Y-10400000D01*
X19592022Y-10825000D01*
X19192022Y-10825000D01*
X19192022Y-10400000D01*
X18754522Y-10400000D01*
X18754522Y-10467994D01*
X17970499Y-10467994D01*
X17970499Y-10432378D01*
X17967730Y-10408502D01*
X17924616Y-10310859D01*
X17924615Y-10310858D01*
X17924615Y-10310857D01*
X17849142Y-10235384D01*
X17751500Y-10192270D01*
X17751494Y-10192268D01*
X17727640Y-10189501D01*
X17727625Y-10189500D01*
X17727623Y-10189500D01*
X17727620Y-10189500D01*
X17677720Y-10189500D01*
X17665038Y-10187830D01*
X17559312Y-10159500D01*
X17559309Y-10159500D01*
X17440691Y-10159500D01*
X17440688Y-10159500D01*
X17334958Y-10187830D01*
X17322277Y-10189500D01*
X17272382Y-10189500D01*
X17272373Y-10189501D01*
X17248500Y-10192270D01*
X17150862Y-10235382D01*
X17147116Y-10237949D01*
X17145646Y-10235804D01*
X17119101Y-10246720D01*
X17084489Y-10232280D01*
X17073957Y-10216473D01*
X17024536Y-10097159D01*
X16928282Y-9971718D01*
X16892435Y-9944212D01*
X16802841Y-9875464D01*
X16802836Y-9875461D01*
X16656761Y-9814955D01*
X16500000Y-9794318D01*
X16343238Y-9814955D01*
X16197163Y-9875461D01*
X16197158Y-9875464D01*
X16071718Y-9971717D01*
X16071717Y-9971718D01*
X15975464Y-10097158D01*
X15975461Y-10097163D01*
X15914955Y-10243238D01*
X15894318Y-10400000D01*
X12300500Y-10400000D01*
X12300500Y-9790001D01*
X17032603Y-9790001D01*
X17032763Y-9791375D01*
X17032764Y-9791381D01*
X17075803Y-9888855D01*
X17151144Y-9964196D01*
X17248616Y-10007235D01*
X17272443Y-10009999D01*
X17272447Y-10010000D01*
X17300000Y-10010000D01*
X17700000Y-10010000D01*
X17727553Y-10010000D01*
X17727556Y-10009999D01*
X17751383Y-10007235D01*
X17848855Y-9964196D01*
X17881046Y-9932005D01*
X18754522Y-9932005D01*
X18754522Y-10000000D01*
X19192022Y-10000000D01*
X19592022Y-10000000D01*
X20029522Y-10000000D01*
X20029522Y-9932005D01*
X20015149Y-9841262D01*
X19959425Y-9731896D01*
X19959423Y-9731893D01*
X19872628Y-9645098D01*
X19872625Y-9645096D01*
X19763259Y-9589372D01*
X19672516Y-9575000D01*
X19592022Y-9575000D01*
X19592022Y-10000000D01*
X19192022Y-10000000D01*
X19192022Y-9575000D01*
X19111528Y-9575000D01*
X19020784Y-9589372D01*
X18911418Y-9645096D01*
X18911415Y-9645098D01*
X18824620Y-9731893D01*
X18824618Y-9731896D01*
X18768894Y-9841262D01*
X18754522Y-9932005D01*
X17881046Y-9932005D01*
X17924196Y-9888855D01*
X17967235Y-9791381D01*
X17967236Y-9791375D01*
X17967396Y-9790001D01*
X17967395Y-9790000D01*
X17700000Y-9790000D01*
X17700000Y-10010000D01*
X17300000Y-10010000D01*
X17300000Y-9790000D01*
X17032605Y-9790000D01*
X17032603Y-9790001D01*
X12300500Y-9790001D01*
X12300500Y-9474057D01*
X12314852Y-9439409D01*
X12364263Y-9389998D01*
X17032603Y-9389998D01*
X17032605Y-9390000D01*
X17300000Y-9390000D01*
X17700000Y-9390000D01*
X17967395Y-9390000D01*
X17967396Y-9389998D01*
X17967236Y-9388624D01*
X17967235Y-9388618D01*
X17924196Y-9291144D01*
X17848855Y-9215803D01*
X17751383Y-9172764D01*
X17727556Y-9170000D01*
X17700000Y-9170000D01*
X17700000Y-9390000D01*
X17300000Y-9390000D01*
X17300000Y-9170000D01*
X17272443Y-9170000D01*
X17248616Y-9172764D01*
X17151144Y-9215803D01*
X17075803Y-9291144D01*
X17032764Y-9388618D01*
X17032763Y-9388624D01*
X17032603Y-9389998D01*
X12364263Y-9389998D01*
X12662362Y-9091899D01*
X12662364Y-9091897D01*
X12700500Y-8999828D01*
X12700500Y-8900173D01*
X12700500Y-8400172D01*
X12662364Y-8308103D01*
X12662362Y-8308101D01*
X12662362Y-8308100D01*
X12591897Y-8237636D01*
X12141899Y-7787637D01*
X12049829Y-7749500D01*
X12049828Y-7749500D01*
X12021283Y-7749500D01*
X11986635Y-7735148D01*
X11972283Y-7700500D01*
X11980540Y-7673278D01*
X11981076Y-7672476D01*
X11987417Y-7662986D01*
X12000500Y-7597211D01*
X12000499Y-7402790D01*
X11987417Y-7337014D01*
X11947465Y-7277222D01*
X11940150Y-7240440D01*
X11947466Y-7222777D01*
X11962685Y-7200000D01*
X11987417Y-7162986D01*
X12000500Y-7097211D01*
X12000499Y-6902790D01*
X11987417Y-6837014D01*
X11947163Y-6776770D01*
X11939848Y-6739988D01*
X11947164Y-6722325D01*
X11986944Y-6662790D01*
X11989488Y-6650000D01*
X10860512Y-6650000D01*
X10863055Y-6662791D01*
X10902835Y-6722326D01*
X10910151Y-6759109D01*
X10902835Y-6776772D01*
X10862583Y-6837013D01*
X10849500Y-6902791D01*
X10849500Y-7097208D01*
X10862583Y-7162986D01*
X10862584Y-7162989D01*
X10902533Y-7222778D01*
X10909849Y-7259560D01*
X10902533Y-7277222D01*
X10862583Y-7337012D01*
X10862583Y-7337014D01*
X10852775Y-7386327D01*
X10849500Y-7402791D01*
X10849500Y-7597208D01*
X10859334Y-7646654D01*
X10862583Y-7662986D01*
X10868923Y-7672475D01*
X10869460Y-7673278D01*
X10876775Y-7710061D01*
X10855939Y-7741243D01*
X10828717Y-7749500D01*
X10771283Y-7749500D01*
X10736635Y-7735148D01*
X10722283Y-7700500D01*
X10730540Y-7673278D01*
X10731076Y-7672476D01*
X10737417Y-7662986D01*
X10750500Y-7597211D01*
X10750499Y-7402790D01*
X10737417Y-7337014D01*
X10697465Y-7277222D01*
X10690150Y-7240440D01*
X10697466Y-7222777D01*
X10712685Y-7200000D01*
X10737417Y-7162986D01*
X10750500Y-7097211D01*
X10750499Y-6902790D01*
X10737417Y-6837014D01*
X10697163Y-6776770D01*
X10689848Y-6739988D01*
X10697164Y-6722325D01*
X10736944Y-6662790D01*
X10739488Y-6650000D01*
X9610512Y-6650000D01*
X9613055Y-6662791D01*
X9652835Y-6722326D01*
X9660151Y-6759109D01*
X9652835Y-6776772D01*
X9612583Y-6837013D01*
X9599500Y-6902791D01*
X9599500Y-7097208D01*
X9612583Y-7162986D01*
X9612584Y-7162989D01*
X9652533Y-7222778D01*
X9659849Y-7259560D01*
X9652533Y-7277222D01*
X9612583Y-7337012D01*
X9612583Y-7337014D01*
X9602775Y-7386327D01*
X9599500Y-7402791D01*
X9599500Y-7597208D01*
X9609334Y-7646654D01*
X9612583Y-7662986D01*
X9618923Y-7672475D01*
X9619460Y-7673278D01*
X9626775Y-7710061D01*
X9605939Y-7741243D01*
X9578717Y-7749500D01*
X8550170Y-7749500D01*
X8458101Y-7787637D01*
X8458099Y-7787638D01*
X8159626Y-8086111D01*
X8124978Y-8100463D01*
X8118009Y-8099965D01*
X8114773Y-8099500D01*
X8114772Y-8099500D01*
X7985228Y-8099500D01*
X7985223Y-8099500D01*
X7860933Y-8135995D01*
X7860931Y-8135995D01*
X7860931Y-8135996D01*
X7827424Y-8157529D01*
X7751950Y-8206033D01*
X7667119Y-8303936D01*
X7667116Y-8303940D01*
X7650930Y-8339380D01*
X7623481Y-8364934D01*
X7586002Y-8363594D01*
X7579137Y-8359766D01*
X7577736Y-8358829D01*
X7553460Y-8348774D01*
X7494856Y-8324499D01*
X7494855Y-8324499D01*
X7405145Y-8324499D01*
X7399444Y-8324499D01*
X7399436Y-8324500D01*
X6872853Y-8324500D01*
X6838205Y-8310148D01*
X6835269Y-8306505D01*
X6835177Y-8306586D01*
X6748049Y-8206033D01*
X6639069Y-8135996D01*
X6639066Y-8135995D01*
X6514776Y-8099500D01*
X6514772Y-8099500D01*
X6385228Y-8099500D01*
X6385223Y-8099500D01*
X6260933Y-8135995D01*
X6260931Y-8135995D01*
X6260931Y-8135996D01*
X6227424Y-8157529D01*
X6151950Y-8206033D01*
X6067119Y-8303936D01*
X6067118Y-8303936D01*
X6013301Y-8421776D01*
X5994867Y-8549997D01*
X5994867Y-8550002D01*
X6013301Y-8678223D01*
X6050081Y-8758758D01*
X6067118Y-8796063D01*
X6151951Y-8893967D01*
X6260931Y-8964004D01*
X6330093Y-8984311D01*
X6385223Y-9000499D01*
X6385228Y-9000500D01*
X6514772Y-9000500D01*
X6514776Y-9000499D01*
X6535324Y-8994465D01*
X6639069Y-8964004D01*
X6748049Y-8893967D01*
X6832882Y-8796063D01*
X6832882Y-8796062D01*
X6835177Y-8793414D01*
X6836543Y-8794597D01*
X6862439Y-8776619D01*
X6872853Y-8775500D01*
X7278454Y-8775500D01*
X7313102Y-8789852D01*
X7323723Y-8805747D01*
X7332320Y-8826500D01*
X7356830Y-8885672D01*
X7356831Y-8885673D01*
X7356831Y-8885674D01*
X7427155Y-8955997D01*
X7427157Y-8955998D01*
X7545489Y-9074331D01*
X7559841Y-9108979D01*
X7545489Y-9143627D01*
X7510841Y-9157979D01*
X7506571Y-9157793D01*
X7411778Y-9149500D01*
X7411777Y-9149500D01*
X7249828Y-9149500D01*
X2549000Y-9149500D01*
X2514352Y-9135148D01*
X2500000Y-9100500D01*
X2500000Y-5402791D01*
X9599500Y-5402791D01*
X9599500Y-5597208D01*
X9612583Y-5662986D01*
X9612584Y-5662989D01*
X9652533Y-5722778D01*
X9659849Y-5759560D01*
X9652533Y-5777222D01*
X9612583Y-5837012D01*
X9599500Y-5902791D01*
X9599500Y-6097208D01*
X9612583Y-6162986D01*
X9612584Y-6162988D01*
X9652834Y-6223228D01*
X9660150Y-6260010D01*
X9652835Y-6277672D01*
X9613055Y-6337209D01*
X9610511Y-6349999D01*
X9610512Y-6350000D01*
X10739488Y-6350000D01*
X10739488Y-6349999D01*
X10736944Y-6337208D01*
X10736943Y-6337206D01*
X10697165Y-6277672D01*
X10689849Y-6240890D01*
X10697165Y-6223227D01*
X10737417Y-6162986D01*
X10750500Y-6097211D01*
X10750499Y-5902790D01*
X10737417Y-5837014D01*
X10697465Y-5777222D01*
X10690150Y-5740440D01*
X10697466Y-5722777D01*
X10737417Y-5662986D01*
X10750500Y-5597211D01*
X10750499Y-5402791D01*
X10849500Y-5402791D01*
X10849500Y-5597208D01*
X10862583Y-5662986D01*
X10862584Y-5662989D01*
X10902533Y-5722778D01*
X10909849Y-5759560D01*
X10902533Y-5777222D01*
X10862583Y-5837012D01*
X10849500Y-5902791D01*
X10849500Y-6097208D01*
X10862583Y-6162986D01*
X10862584Y-6162988D01*
X10902834Y-6223228D01*
X10910150Y-6260010D01*
X10902835Y-6277672D01*
X10863055Y-6337209D01*
X10860511Y-6349999D01*
X10860512Y-6350000D01*
X11989488Y-6350000D01*
X11989488Y-6349999D01*
X11986944Y-6337208D01*
X11986943Y-6337206D01*
X11947165Y-6277672D01*
X11939849Y-6240890D01*
X11947165Y-6223227D01*
X11987417Y-6162986D01*
X12000500Y-6097211D01*
X12000499Y-5902790D01*
X11987417Y-5837014D01*
X11947465Y-5777222D01*
X11940150Y-5740440D01*
X11947466Y-5722777D01*
X11987417Y-5662986D01*
X12000500Y-5597211D01*
X12000499Y-5402790D01*
X11987417Y-5337014D01*
X11959159Y-5294723D01*
X11937577Y-5262422D01*
X11862986Y-5212583D01*
X11797211Y-5199500D01*
X11797207Y-5199500D01*
X11052791Y-5199500D01*
X10987013Y-5212583D01*
X10912422Y-5262422D01*
X10862583Y-5337013D01*
X10862583Y-5337014D01*
X10852539Y-5387513D01*
X10849500Y-5402791D01*
X10750499Y-5402791D01*
X10750499Y-5402790D01*
X10737417Y-5337014D01*
X10709159Y-5294723D01*
X10687577Y-5262422D01*
X10612986Y-5212583D01*
X10547211Y-5199500D01*
X10547207Y-5199500D01*
X9802791Y-5199500D01*
X9737013Y-5212583D01*
X9662422Y-5262422D01*
X9612583Y-5337013D01*
X9612583Y-5337014D01*
X9602539Y-5387513D01*
X9599500Y-5402791D01*
X2500000Y-5402791D01*
X2500000Y-2350000D01*
X13394318Y-2350000D01*
X13414955Y-2506761D01*
X13475461Y-2652836D01*
X13475464Y-2652841D01*
X13571718Y-2778282D01*
X13697159Y-2874536D01*
X13697161Y-2874536D01*
X13697163Y-2874538D01*
X13739470Y-2892062D01*
X13843238Y-2935044D01*
X14000000Y-2955682D01*
X14156762Y-2935044D01*
X14302841Y-2874536D01*
X14428282Y-2778282D01*
X14524536Y-2652841D01*
X14585044Y-2506762D01*
X14601671Y-2380460D01*
X14620422Y-2347983D01*
X14656647Y-2338276D01*
X14689126Y-2357027D01*
X14698833Y-2380461D01*
X14715443Y-2506630D01*
X14757936Y-2609218D01*
X14757937Y-2609218D01*
X15000000Y-2367155D01*
X15000000Y-2389496D01*
X15020444Y-2465796D01*
X15059940Y-2534205D01*
X15115795Y-2590060D01*
X15184204Y-2629556D01*
X15260504Y-2650000D01*
X15282843Y-2650000D01*
X15040780Y-2892061D01*
X15143371Y-2934556D01*
X15300000Y-2955176D01*
X15456628Y-2934556D01*
X15456632Y-2934555D01*
X15559218Y-2892062D01*
X15559218Y-2892061D01*
X15317157Y-2650000D01*
X15339496Y-2650000D01*
X15415796Y-2629556D01*
X15484205Y-2590060D01*
X15540060Y-2534205D01*
X15579556Y-2465796D01*
X15600000Y-2389496D01*
X15600000Y-2367157D01*
X15842061Y-2609218D01*
X15842062Y-2609218D01*
X15884555Y-2506632D01*
X15884556Y-2506627D01*
X15901166Y-2380462D01*
X15919917Y-2347983D01*
X15956142Y-2338276D01*
X15988621Y-2357027D01*
X15998328Y-2380461D01*
X16014955Y-2506761D01*
X16075461Y-2652836D01*
X16075464Y-2652841D01*
X16171718Y-2778282D01*
X16297159Y-2874536D01*
X16297161Y-2874536D01*
X16297163Y-2874538D01*
X16339470Y-2892062D01*
X16443238Y-2935044D01*
X16600000Y-2955682D01*
X16756762Y-2935044D01*
X16902841Y-2874536D01*
X17028282Y-2778282D01*
X17124536Y-2652841D01*
X17185044Y-2506762D01*
X17205682Y-2350000D01*
X17185044Y-2193238D01*
X17141226Y-2087452D01*
X17124538Y-2047163D01*
X17124535Y-2047158D01*
X17084300Y-1994723D01*
X17028282Y-1921718D01*
X16999978Y-1900000D01*
X16902841Y-1825464D01*
X16902836Y-1825461D01*
X16756761Y-1764955D01*
X16620637Y-1747034D01*
X16600000Y-1744318D01*
X16599999Y-1744318D01*
X16598875Y-1744466D01*
X16598323Y-1744318D01*
X16596789Y-1744318D01*
X16596789Y-1743906D01*
X16562650Y-1734758D01*
X16543900Y-1702279D01*
X16543900Y-1689489D01*
X16543900Y-1689488D01*
X16555682Y-1600000D01*
X20094823Y-1600000D01*
X20115443Y-1756630D01*
X20157936Y-1859218D01*
X20157937Y-1859218D01*
X20400000Y-1617156D01*
X20400000Y-1639496D01*
X20420444Y-1715796D01*
X20459940Y-1784205D01*
X20515795Y-1840060D01*
X20584204Y-1879556D01*
X20660504Y-1900000D01*
X20682843Y-1900000D01*
X20440780Y-2142061D01*
X20543371Y-2184556D01*
X20700001Y-2205177D01*
X20700002Y-2205177D01*
X20701186Y-2205021D01*
X20701768Y-2205177D01*
X20703212Y-2205177D01*
X20703212Y-2205563D01*
X20737412Y-2214725D01*
X20756165Y-2247202D01*
X20756166Y-2259996D01*
X20744318Y-2349999D01*
X20764955Y-2506761D01*
X20825461Y-2652836D01*
X20825464Y-2652841D01*
X20921718Y-2778282D01*
X21047159Y-2874536D01*
X21047161Y-2874536D01*
X21047163Y-2874538D01*
X21089470Y-2892062D01*
X21193238Y-2935044D01*
X21350000Y-2955682D01*
X21506762Y-2935044D01*
X21652841Y-2874536D01*
X21778282Y-2778282D01*
X21874536Y-2652841D01*
X21935044Y-2506762D01*
X21951419Y-2382379D01*
X21970171Y-2349902D01*
X22006396Y-2340195D01*
X22038874Y-2358947D01*
X22048581Y-2382380D01*
X22064955Y-2506761D01*
X22125461Y-2652836D01*
X22125464Y-2652841D01*
X22221718Y-2778282D01*
X22347159Y-2874536D01*
X22347161Y-2874536D01*
X22347163Y-2874538D01*
X22389470Y-2892062D01*
X22493238Y-2935044D01*
X22650000Y-2955682D01*
X22806762Y-2935044D01*
X22952841Y-2874536D01*
X23078282Y-2778282D01*
X23174536Y-2652841D01*
X23235044Y-2506762D01*
X23244550Y-2434554D01*
X23263301Y-2402077D01*
X23299527Y-2392370D01*
X23327777Y-2406302D01*
X23428103Y-2506627D01*
X23535148Y-2613672D01*
X23549500Y-2648320D01*
X23549500Y-4093954D01*
X23544159Y-4116199D01*
X23514355Y-4174692D01*
X23499500Y-4268482D01*
X23499500Y-4931517D01*
X23514353Y-5025303D01*
X23541334Y-5078254D01*
X23544277Y-5115641D01*
X23519921Y-5144159D01*
X23497675Y-5149500D01*
X23435927Y-5149500D01*
X23310262Y-5174497D01*
X23310257Y-5174498D01*
X23191874Y-5223534D01*
X23085331Y-5294723D01*
X22994723Y-5385331D01*
X22923534Y-5491874D01*
X22874498Y-5610257D01*
X22874497Y-5610262D01*
X22849500Y-5735927D01*
X22849500Y-5864072D01*
X22874497Y-5989737D01*
X22874498Y-5989742D01*
X22923534Y-6108125D01*
X22976581Y-6187517D01*
X22994724Y-6214669D01*
X23085331Y-6305276D01*
X23191873Y-6376465D01*
X23310256Y-6425501D01*
X23435931Y-6450500D01*
X24064069Y-6450500D01*
X24189744Y-6425501D01*
X24308127Y-6376465D01*
X24414669Y-6305277D01*
X24705277Y-6014669D01*
X24776465Y-5908127D01*
X24794713Y-5864072D01*
X24816081Y-5812486D01*
X24816081Y-5812485D01*
X24825501Y-5789744D01*
X24850500Y-5664069D01*
X24850500Y-5106044D01*
X24855841Y-5083798D01*
X24858666Y-5078254D01*
X24885646Y-5025304D01*
X24900500Y-4931519D01*
X24900499Y-4268482D01*
X24885646Y-4174696D01*
X24885644Y-4174692D01*
X24855841Y-4116199D01*
X24850500Y-4093954D01*
X24850500Y-2435931D01*
X24850499Y-2435927D01*
X24835186Y-2358947D01*
X24825501Y-2310256D01*
X24776465Y-2191873D01*
X24705276Y-2085331D01*
X24614669Y-1994724D01*
X24508127Y-1923535D01*
X24503741Y-1921718D01*
X24389742Y-1874498D01*
X24389738Y-1874497D01*
X24358481Y-1868279D01*
X24333394Y-1854869D01*
X23865971Y-1387447D01*
X23855349Y-1371550D01*
X23842604Y-1340780D01*
X23824536Y-1297159D01*
X23728282Y-1171718D01*
X23602841Y-1075464D01*
X23602836Y-1075461D01*
X23456761Y-1014955D01*
X23300000Y-994318D01*
X23143238Y-1014955D01*
X22997163Y-1075461D01*
X22997158Y-1075464D01*
X22871718Y-1171717D01*
X22871717Y-1171718D01*
X22775464Y-1297158D01*
X22775461Y-1297163D01*
X22714955Y-1443238D01*
X22698581Y-1567619D01*
X22679829Y-1600097D01*
X22643604Y-1609804D01*
X22611126Y-1591052D01*
X22601419Y-1567619D01*
X22585044Y-1443238D01*
X22524538Y-1297163D01*
X22524535Y-1297158D01*
X22428282Y-1171718D01*
X22428281Y-1171717D01*
X22302841Y-1075464D01*
X22302836Y-1075461D01*
X22156761Y-1014955D01*
X22000000Y-994318D01*
X21843238Y-1014955D01*
X21697163Y-1075461D01*
X21697158Y-1075464D01*
X21571718Y-1171717D01*
X21571717Y-1171718D01*
X21475464Y-1297158D01*
X21475461Y-1297163D01*
X21414955Y-1443238D01*
X21398328Y-1569538D01*
X21379576Y-1602016D01*
X21343351Y-1611723D01*
X21310873Y-1592971D01*
X21301166Y-1569538D01*
X21284556Y-1443370D01*
X21242061Y-1340780D01*
X21000000Y-1582841D01*
X21000000Y-1560504D01*
X20979556Y-1484204D01*
X20940060Y-1415795D01*
X20884205Y-1359940D01*
X20815796Y-1320444D01*
X20739496Y-1300000D01*
X20717158Y-1300000D01*
X20959218Y-1057937D01*
X20959218Y-1057936D01*
X20856630Y-1015443D01*
X20700000Y-994823D01*
X20543369Y-1015443D01*
X20440780Y-1057936D01*
X20440780Y-1057937D01*
X20682843Y-1300000D01*
X20660504Y-1300000D01*
X20584204Y-1320444D01*
X20515795Y-1359940D01*
X20459940Y-1415795D01*
X20420444Y-1484204D01*
X20400000Y-1560504D01*
X20400000Y-1582843D01*
X20157937Y-1340780D01*
X20157936Y-1340780D01*
X20115443Y-1443369D01*
X20094823Y-1600000D01*
X16555682Y-1600000D01*
X16535044Y-1443238D01*
X16500541Y-1359940D01*
X16474538Y-1297163D01*
X16474535Y-1297158D01*
X16378282Y-1171718D01*
X16378281Y-1171717D01*
X16252841Y-1075464D01*
X16252836Y-1075461D01*
X16106761Y-1014955D01*
X15950000Y-994318D01*
X15793238Y-1014955D01*
X15647163Y-1075461D01*
X15647158Y-1075464D01*
X15521718Y-1171717D01*
X15521717Y-1171718D01*
X15425464Y-1297158D01*
X15425461Y-1297163D01*
X15364955Y-1443238D01*
X15348581Y-1567619D01*
X15329829Y-1600097D01*
X15293604Y-1609804D01*
X15261126Y-1591052D01*
X15251419Y-1567619D01*
X15235044Y-1443238D01*
X15174538Y-1297163D01*
X15174535Y-1297158D01*
X15078282Y-1171718D01*
X15078281Y-1171717D01*
X14952841Y-1075464D01*
X14952836Y-1075461D01*
X14806761Y-1014955D01*
X14650000Y-994318D01*
X14493238Y-1014955D01*
X14347163Y-1075461D01*
X14347158Y-1075464D01*
X14221718Y-1171717D01*
X14221717Y-1171718D01*
X14125464Y-1297158D01*
X14125461Y-1297163D01*
X14064955Y-1443238D01*
X14044318Y-1600000D01*
X14056099Y-1689488D01*
X14046392Y-1725714D01*
X14013914Y-1744465D01*
X14001134Y-1744466D01*
X14000008Y-1744318D01*
X14000001Y-1744318D01*
X14000000Y-1744318D01*
X13981763Y-1746718D01*
X13843238Y-1764955D01*
X13697163Y-1825461D01*
X13697158Y-1825464D01*
X13571718Y-1921717D01*
X13571717Y-1921718D01*
X13475464Y-2047158D01*
X13475461Y-2047163D01*
X13414955Y-2193238D01*
X13394318Y-2350000D01*
X2500000Y-2350000D01*
X2500000Y-549000D01*
X2514352Y-514352D01*
X2549000Y-500000D01*
X25500500Y-500000D01*
X25535148Y-514352D01*
G37*
%TD.AperFunction*%
%TA.AperFunction,Conductor*%
G36*
X12031637Y-12986952D02*
G01*
X12038180Y-12992442D01*
X12637148Y-13591408D01*
X12651500Y-13626056D01*
X12651500Y-14173942D01*
X12637148Y-14208590D01*
X12080995Y-14764742D01*
X12046347Y-14779094D01*
X12011699Y-14764742D01*
X11997347Y-14730094D01*
X11998090Y-14721593D01*
X12013585Y-14633720D01*
X12050500Y-14211777D01*
X12050500Y-13788223D01*
X12013585Y-13366280D01*
X11955276Y-13035597D01*
X11963394Y-12998985D01*
X11995023Y-12978834D01*
X12031637Y-12986952D01*
G37*
%TD.AperFunction*%
%TA.AperFunction,Conductor*%
G36*
X10944122Y-8758757D02*
G01*
X10987014Y-8787417D01*
X11052789Y-8800500D01*
X11664495Y-8800499D01*
X11699143Y-8814851D01*
X11713495Y-8849499D01*
X11699143Y-8884147D01*
X11581103Y-9002188D01*
X11510637Y-9072652D01*
X11510637Y-9072653D01*
X11472500Y-9164722D01*
X11472500Y-11516315D01*
X11458148Y-11550963D01*
X11423500Y-11565315D01*
X11388852Y-11550963D01*
X11381065Y-11540815D01*
X11294771Y-11391349D01*
X11294765Y-11391340D01*
X11051831Y-11044396D01*
X11051818Y-11044380D01*
X10779589Y-10719949D01*
X10779583Y-10719942D01*
X10779571Y-10719928D01*
X10480072Y-10420429D01*
X10480059Y-10420418D01*
X10480050Y-10420410D01*
X10155619Y-10148181D01*
X10155603Y-10148168D01*
X9808659Y-9905234D01*
X9808650Y-9905228D01*
X9441849Y-9693457D01*
X9057984Y-9514457D01*
X9057970Y-9514451D01*
X8662590Y-9370545D01*
X8634940Y-9345208D01*
X8633304Y-9307741D01*
X8658641Y-9280091D01*
X8679349Y-9275500D01*
X9003214Y-9275500D01*
X9021965Y-9279229D01*
X9078145Y-9302501D01*
X9078146Y-9302501D01*
X9078147Y-9302501D01*
X9167853Y-9302501D01*
X9167855Y-9302501D01*
X9250735Y-9268170D01*
X9314170Y-9204735D01*
X9713885Y-8805018D01*
X9748532Y-8790667D01*
X9758086Y-8791608D01*
X9802789Y-8800500D01*
X10547210Y-8800499D01*
X10612986Y-8787417D01*
X10655877Y-8758757D01*
X10683100Y-8750500D01*
X10916900Y-8750500D01*
X10944122Y-8758757D01*
G37*
%TD.AperFunction*%
%TD*%
M02*
